<svg xmlns="http://www.w3.org/2000/svg"><symbol viewBox="0 0 34 40" id="icon_achieve-world-champ"><title>achieve-world-champ</title><path d="M22 26v12h-10v-12h10m1-2h-12c-.552 0-1 .447-1 1v14c0 .553.448 1 1 1h12c.553 0 1-.447 1-1v-14c0-.553-.447-1-1-1zM9.538 22.445c-5.884-3.017-9.538-9.153-9.538-16.014 0-.788.05-1.581.147-2.356l.993.125c-.093.734-.14 1.485-.14 2.231 0 6.483 3.446 12.279 8.994 15.124l-.456.89zm14.931-.004l-.457-.891c5.544-2.843 8.988-8.637 8.988-15.119 0-.79-.054-1.585-.158-2.364l.99-.134c.111.823.168 1.664.168 2.498 0 6.859-3.652 12.993-9.531 16.01zM13 30h8v1h-8zM13 33h8v1h-8zM19 10h1v3h-1zM14 10h1v3h-1zM19 20v4h-4v-4h4m0-1h-4c-.552 0-1 .448-1 1v4c0 .553.448 1 1 1h4c.553 0 1-.447 1-1v-4c0-.552-.447-1-1-1zM27.612 2c.258 1.083.388 2.2.388 3.334 0 6.984-4.935 12.666-11 12.666s-11-5.682-11-12.666c0-1.138.129-2.255.385-3.334h21.227m1.498-2h-24.207l-.066.146c-.541 1.613-.837 3.361-.837 5.188 0 8.1 5.82 14.666 13 14.666s13-6.566 13-14.666c0-1.882-.317-3.68-.89-5.334z"/><circle fill-rule="evenodd" clip-rule="evenodd"  cx="17" cy="19" r="2.5"/><path d="M17 17c1.103 0 2 .897 2 2s-.897 2-2 2-2-.897-2-2 .897-2 2-2m0-1c-1.657 0-3 1.343-3 3s1.343 3 3 3 3-1.343 3-3-1.343-3-3-3z"/></symbol><symbol viewBox="0 0 10 10" id="icon_arrow-down"><title>arrow-down</title><path d="M5.707 7.707l4-4c.391-.391.391-1.023 0-1.414s-1.023-.391-1.414 0l-3.293 3.293-3.293-3.293c-.391-.391-1.023-.391-1.414 0s-.391 1.023 0 1.414l4 4c.195.195.451.293.707.293s.512-.098.707-.293z"/></symbol><symbol viewBox="0 0 10 10" id="icon_arrow-left"><title>arrow-left</title><path d="M3.414 5l3.293-3.293c.391-.391.391-1.023 0-1.414s-1.023-.391-1.414 0l-4 4c-.195.195-.293.451-.293.707s.098.512.293.707l4 4c.391.391 1.023.391 1.414 0s.391-1.023 0-1.414l-3.293-3.293z"/></symbol><symbol viewBox="0 0 10 10" id="icon_arrow-right"><title>arrow-right</title><path d="M8.707 4.293l-4-4c-.391-.391-1.023-.391-1.414 0s-.391 1.023 0 1.414l3.293 3.293-3.293 3.293c-.391.391-.391 1.023 0 1.414s1.023.391 1.414 0l4-4c.195-.195.293-.451.293-.707s-.098-.512-.293-.707z"/></symbol><symbol viewBox="0 0 10 10" id="icon_arrow-up"><title>arrow-up</title><path d="M4.293 2.293l-4 4c-.391.391-.391 1.023 0 1.414s1.023.391 1.414 0l3.293-3.293 3.293 3.293c.391.391 1.023.391 1.414 0s.391-1.023 0-1.414l-4-4c-.195-.195-.451-.293-.707-.293s-.512.098-.707.293z"/></symbol><symbol viewBox="0 0 16 16" id="icon_cal-birthday"><title>cal-birthday</title><path d="M15 16h-14v-5h1v4h12v-4h1zM2 13h12v1h-12zM14 8c.552 0 1 .449 1 1v1c0 .552-.448 1-1 1s-1-.448-1-1h-2c0 .552-.448 1-1 1s-1-.448-1-1h-2c0 .552-.449 1-1 1s-1-.448-1-1h-2c0 .552-.449 1-1 1s-1-.448-1-1v-1c0-.551.449-1 1-1h12m0-1h-12c-1.104 0-2 .896-2 2v1c0 1.104.896 2 2 2s2-.896 2-2c0 1.104.896 2 2 2s2-.896 2-2c0 1.104.896 2 2 2s2-.896 2-2c0 1.104.896 2 2 2s2-.896 2-2v-1c0-1.104-.896-2-2-2zM5 4h1v2h-1zM10 4h1v2h-1zM5.5 1c.276 0 .5.224.5.5s-.224.5-.5.5-.5-.224-.5-.5.224-.5.5-.5m0-1c-.829 0-1.5.671-1.5 1.5s.671 1.5 1.5 1.5 1.5-.671 1.5-1.5-.671-1.5-1.5-1.5zM10.5 1c.275 0 .5.224.5.5s-.225.5-.5.5-.5-.224-.5-.5.225-.5.5-.5m0-1c-.829 0-1.5.671-1.5 1.5s.671 1.5 1.5 1.5 1.5-.671 1.5-1.5-.671-1.5-1.5-1.5z"/></symbol><symbol viewBox="0 0 16 9" id="icon_cal-ceremony"><title>cal-ceremony</title><path d="M8 3c1.104 0 2 .897 2 2 0 1.104-.896 2-2 2-1.103 0-2-.896-2-2 0-1.103.897-2 2-2m0-1c-1.657 0-3 1.343-3 3s1.343 3 3 3 3-1.343 3-3-1.343-3-3-3zM1.583 8.999c-.247 0-.495-.058-.724-.176-.53-.27-.859-.807-.859-1.401v-5.844c0-.593.329-1.13.859-1.402.531-.274 1.164-.225 1.65.124l3.283 2.362-.584.812-3.283-2.362c-.182-.131-.41-.147-.61-.045-.197.1-.315.291-.315.511v5.844c0 .22.118.411.314.512.2.103.429.085.61-.046l2.867-2.063.584.812-2.866 2.062c-.277.198-.6.3-.926.3zM14.416 8.999c-.325 0-.649-.101-.926-.299l-2.865-2.062.584-.812 2.865 2.062c.184.131.414.147.611.046.198-.101.315-.292.315-.512v-5.843c0-.22-.118-.412-.314-.513-.199-.102-.428-.086-.611.046l-3.282 2.361-.584-.812 3.281-2.361c.485-.35 1.119-.397 1.651-.124.53.272.859.809.859 1.403v5.843c0 .593-.328 1.13-.857 1.401-.231.118-.479.176-.727.176z"/></symbol><symbol viewBox="0 0 16 16" id="icon_cal-fan"><title>cal-fan</title><path d="M14.098 1.177c.364.516.902 1.981.902 4.323s-.538 3.807-.902 4.323l-2.502-1.876c-.797-.592-1.735-.969-2.69-1.086l-5.791-.854c-.163-.019-.324-.028-.482-.028-.594 0-1.137.127-1.633.322v-1.602c.496.195 1.039.323 1.633.323.158 0 .318-.009.513-.032l5.736-.847c.978-.122 1.917-.498 2.718-1.093l2.498-1.873m-.098-1.177l-3 2.25c-.66.49-1.43.8-2.24.9l-5.76.85-.367.021c-.962 0-1.797-.443-2.624-1.012l-.009-.009v5l.01-.01c.827-.569 1.662-1.012 2.624-1.012l.366.022 5.76.85c.811.1 1.58.41 2.24.9l3 2.25c1.1 0 2-2.46 2-5.5s-.9-5.5-2-5.5zM5.85 15h-3.35v-1h3.35c.634 0 1.15-.664 1.15-1.48 0-.856-.516-1.521-1.15-1.521h-.867c-1.186 0-2.15-1.112-2.15-2.479v-1.02h1v1.02c0 .815.516 1.479 1.15 1.479h.867c1.186 0 2.15 1.112 2.15 2.48 0 1.409-.965 2.521-2.15 2.521zM1.5 14c.276 0 .5.225.5.5s-.224.5-.5.5-.5-.225-.5-.5.224-.5.5-.5m0-1c-.829 0-1.5.672-1.5 1.5s.671 1.5 1.5 1.5 1.5-.672 1.5-1.5-.671-1.5-1.5-1.5z"/></symbol><symbol viewBox="0 0 14 16" id="icon_cal-press"><title>cal-press</title><path d="M7 1c1.652 0 3 1.346 3 3v2c0 1.654-1.348 3-3 3-1.653 0-3-1.346-3-3v-2c0-1.654 1.347-3 3-3m0-1c-2.21 0-4 1.791-4 4v2c0 2.209 1.79 4 4 4 2.209 0 4-1.791 4-4v-2c0-2.209-1.791-4-4-4zM6.992 13c-2.884 0-5.479-1.721-6.46-4.281l.935-.357c.833 2.175 3.054 3.638 5.525 3.638 2.49 0 4.718-1.477 5.537-3.676l.938.35c-.966 2.588-3.569 4.326-6.475 4.326zM5 15h5v1h-5zM7.001 13h1v2h-1z"/></symbol><symbol viewBox="0 0 10 16" id="icon_cal-sorrow"><title>cal-sorrow</title><path d="M9 16l-4-6.926-4 6.926h-1l4.407-7.857-1.829-2.874c-.783-1.372-.859-2.856-.215-3.992.53-.934 1.491-1.255 2.571-1.277.018-.007.334-.025.489 0 1.009.163 1.844.581 2.29 1.519.537 1.127.287 2.481-.279 3.73l-1.842 2.894 4.408 7.857h-1zm-4.06-15.25c-.72.015-1.348.387-1.707 1.021-.468.825-.393 1.939.201 2.981l1.566 2.46 1.579-2.48c.536-.936.624-1.957.231-2.784-.303-.636-.868-1.064-1.548-1.175l-.322-.023z"/></symbol><symbol viewBox="0 0 20 18" id="icon_calendar"><title>calendar</title><path d="M18 3c.552 0 1 .449 1 1v12c0 .552-.448 1-1 1h-16c-.551 0-1-.448-1-1v-12c0-.551.449-1 1-1h16m0-1h-16c-1.104 0-2 .896-2 2v12c0 1.104.896 2 2 2h16c1.104 0 2-.896 2-2v-12c0-1.104-.896-2-2-2z"/><path fill-rule="evenodd" clip-rule="evenodd" d="M5 11c-1.104 0-2 .896-2 2s.896 2 2 2c1.105 0 2-.896 2-2s-.895-2-2-2zm0-2c.553 0 1-.447 1-1 0-.553-.447-1-1-1-.552 0-1 .448-1 1 0 .553.448 1 1 1zm10 0c.553 0 1-.448 1-1 0-.553-.447-1-1-1-.552 0-1 .448-1 1 0 .553.448 1 1 1zm-5 3c-.553 0-1 .448-1 1 0 .553.447 1 1 1s1-.447 1-1c0-.552-.447-1-1-1zm0-5c-.553 0-1 .448-1 1s.447 1 1 1 1-.448 1-1-.447-1-1-1zm5 5c-.552 0-1 .448-1 1 0 .553.448 1 1 1 .553 0 1-.447 1-1 0-.552-.447-1-1-1zM4.5 0c-.276 0-.5.224-.5.5v3c0 .276.224.5.5.5s.5-.224.5-.5v-3c0-.276-.224-.5-.5-.5zm11 0c-.276 0-.5.224-.5.5v3c0 .276.224.5.5.5s.5-.224.5-.5v-3c0-.276-.224-.5-.5-.5z"/></symbol><symbol viewBox="0 0 12 12" id="icon_check"><title>check</title><path fill-rule="evenodd" clip-rule="evenodd" d="M9.693 3.306c-.408-.408-1.068-.408-1.477 0l-3.2 3.2-1.232-1.234c-.408-.407-1.07-.407-1.478 0-.408.408-.408 1.07 0 1.479l1.911 1.911c.117.116.256.19.402.24.384.173.849.108 1.164-.208l3.91-3.91c.409-.408.409-1.07 0-1.478z"/></symbol><symbol viewBox="0 0 13 13" id="icon_clock"><title>clock</title><path fill-rule="evenodd" clip-rule="evenodd" d="M6.5 0c-3.59 0-6.5 2.91-6.5 6.5s2.91 6.5 6.5 6.5 6.5-2.91 6.5-6.5-2.91-6.5-6.5-6.5zm0 12c-3.038 0-5.5-2.463-5.5-5.5s2.462-5.5 5.5-5.5c3.037 0 5.5 2.462 5.5 5.5s-2.463 5.5-5.5 5.5zm.5-5.589v-2.911c0-.276-.224-.5-.5-.5-.275 0-.5.224-.5.5v2.9999999999999996c0 .237.169.426.39.478l1.891 1.89c.162.164.426.164.588 0 .162-.162.162-.424 0-.588l-1.869-1.869z"/></symbol><symbol viewBox="0 0 8 8" id="icon_close"><title>close</title><path fill-rule="evenodd" clip-rule="evenodd" d="M5.494 4l2.2-2.191c.407-.406.407-1.065 0-1.471-.408-.407-1.069-.407-1.478 0l-2.2 2.191-2.232-2.224c-.409-.406-1.071-.406-1.479 0-.407.407-.407 1.065 0 1.472l2.233 2.224-2.233 2.224c-.407.404-.407 1.063 0 1.47.408.407 1.07.407 1.479 0l2.231-2.223 2.201 2.192c.408.404 1.069.404 1.478 0 .407-.407.407-1.066 0-1.473l-2.2-2.191z"/></symbol><symbol viewBox="0 0 20 20" id="icon_club-ceremony"><title>club-ceremony</title><path d="M10 8.004c1.103 0 2 .896 2 2s-.896 2.001-2 2.001-2-.896-2-2.001.897-2 2-2m0-1c-1.658 0-3 1.342-3 3s1.342 3.001 3 3.001 3-1.344 3-3.001c0-1.655-1.342-3-3-3zM3.197 16c-.539 0-1.079-.133-1.57-.4-1.019-.557-1.627-1.566-1.627-2.699v-5.755c0-1.188.682-2.252 1.778-2.777 1.148-.553 2.474-.4 3.458.39l2.675 1.657-.527.85-2.723-1.692c-.732-.582-1.653-.687-2.45-.303-.757.361-1.21 1.062-1.21 1.875v5.755c0 .762.414 1.44 1.106 1.819.742.403 1.607.372 2.315-.082l2.956-1.896.54.842-2.957 1.896c-.535.346-1.148.52-1.764.52zm13.606 0c-.615 0-1.229-.174-1.766-.521l-2.848-1.833.541-.84 2.85 1.833c.705.455 1.568.486 2.309.084.695-.378 1.111-1.063 1.111-1.831v-5.773c0-.817-.453-1.521-1.215-1.887-.799-.381-1.713-.276-2.395.271l-2.723 1.704-.529-.85 2.674-1.668c.934-.758 2.256-.91 3.404-.359 1.1.525 1.784 1.593 1.784 2.788v5.774c0 1.139-.611 2.15-1.635 2.708-.488.267-1.025.4-1.562.4zM3 9.004h3v1h-3zM14 9.004h3v1h-3z"/></symbol><symbol viewBox="0 0 20 20" id="icon_club-cup"><title>club-cup</title><path d="M13.974 1c-.089 1.816-.409 4.337-.996 6.497-.778 2.863-1.864 4.504-2.978 4.504-1.118 0-2.205-1.642-2.981-4.504-.585-2.155-.904-4.677-.993-6.497h7.948m1.025-1h-9.998l-.001.008c-.001 3.345 1.144 12.993 5 12.993 3.845 0 5.002-9.648 5-12.993l-.001-.008zM16.865 8.841l-.73-.682c1.396-1.498 2.5-4.32 2.816-7.15l-1.953-.009.004-1 2.998.014v.498c-.252 3.304-1.481 6.557-3.135 8.329zM3.124 8.83c-1.643-1.874-2.869-5.121-3.123-8.273l-.043-.537 3.04-.02.005 1-1.954.01c.316 2.757 1.402 5.536 2.827 7.16l-.752.66zM13 20h-6c-.173 0-.334-.09-.425-.237s-.1-.331-.022-.486l2-4 .895.447-1.639 3.276h4.382l-1.639-3.276.895-.447 2 4c.077.155.069.339-.021.486-.092.147-.253.237-.426.237z"/></symbol><symbol viewBox="0 0 20 20" id="icon_club-people"><title>club-people</title><path d="M18 20h-16v-4.225c0-2.589 1.651-4.898 4.11-5.748l.326.945c-2.055.711-3.436 2.64-3.436 4.803v3.225h14v-3.225c0-2.11-1.338-4.025-3.328-4.765l.348-.938c2.38.886 3.98 3.177 3.98 5.703v4.225zM10 1c2.206 0 4 1.794 4 4s-1.794 4-4 4-4-1.794-4-4 1.794-4 4-4m0-1c-2.761 0-5 2.239-5 5 0 2.762 2.239 5 5 5 2.762 0 5-2.238 5-5 0-2.761-2.238-5-5-5z"/></symbol><symbol viewBox="0 0 20 20" id="icon_club-star"><title>club-star</title><path d="M9.999 2.85l2.095 4.455.234.498.546.068 4.888.614-3.592 3.365-.402.377.104.541.926 4.832-4.316-2.375-.482-.266-.482.266-4.315 2.373.925-4.83.104-.541-.403-.377-3.591-3.365 4.886-.614.546-.068.234-.499 2.095-4.454m0-2.35l-2.999 6.379-7 .879 5.146 4.821-1.327 6.921 6.18-3.398 6.181 3.398-1.326-6.921 5.146-4.821-7.001-.879-3-6.379z"/></symbol><symbol viewBox="0 0 40 48" id="icon_copyright-logo"><title>copyright-logo</title><path  d="M19.386 12.962h-.626v-1.816l2.173-3.401 1.805 5.218h-.779v1.899h3.254v-1.899h-.617l-2.457-7.105 2.527-3.957h.547v-1.901h-3.213v1.899h.588l-3.828 5.996v-5.996h.625v-1.899h-3.154v1.899h.769v11.062h-.768v1.899h3.154v-1.898zm20.089-7.436l.523-1.81-4.16-1.438-.523 1.81.633.218-5.656 9.646-.512-.179-.521 1.812 3.102 1.073.523-1.812-.879-.304 1.295-2.213 3.5 1.21-.104 2.627-.877-.304-.523 1.811 3.104 1.074.523-1.812-.514-.176.434-11.453.632.22zm-2.618 6.412l-2.766-.956 3.002-5.134-.236 6.09zm-25.45 2.498l-.537-1.849-1.654.578.418 1.444-4.613 1.604-3.06-10.54 4.612-1.606.428 1.479 1.655-.578-.952-3.285-1.656.575.146.503-.821.288-.604-.345-3.933 1.369-.832 1.769-.002.01 3.311 11.401 1.699.96 5.538-1.927.857-1.85zm11.847 19.564l-2.475-8.822-2.473 8.822h-8.006l6.477 4.668-2.475 8.336 6.477-5.152 6.479 5.152-2.475-8.336 6.479-4.668h-8.008z"/></symbol><symbol viewBox="0 0 20 40" id="icon_cup-continent"><title>cup-continent</title><path d="M16.232 11c.426 0 .77.345.768.77l-.006.988c0 .158-.051.303-.141.432-1.287 1.831-4.101 8.848-4.599 13.854-.465 4.663.211 8.17.936 10.378.096.288-.121.578-.425.578h-5.533c-.304 0-.52-.29-.425-.578.726-2.208 1.401-5.715.937-10.378-.498-5.004-3.315-12.021-4.602-13.852-.092-.13-.142-.277-.142-.437v-.99c0-.422.343-.765.766-.765h12.466m0-2h-12.466c-1.525 0-2.766 1.241-2.766 2.766v.99c0 .568.175 1.117.507 1.588.995 1.416 3.769 8.095 4.247 12.899.441 4.427-.217 7.64-.846 9.556-.244.74-.116 1.56.34 2.19.458.633 1.2 1.011 1.984 1.011h5.532c.786 0 1.529-.38 1.988-1.016.456-.632.582-1.452.336-2.193-.627-1.91-1.285-5.124-.844-9.549.479-4.809 3.25-11.487 4.244-12.902.332-.476.505-1.021.505-1.582l.007-.977c.003-.744-.282-1.441-.806-1.966s-1.219-.815-1.962-.815zM10 8c-4.411 0-8-3.589-8-8h2c0 3.309 2.691 6 6 6s6-2.691 6-6h2c0 4.411-3.589 8-8 8zM10 1c1.104 0 2 .448 2 1 0 .553-.896 1-2 1s-2-.447-2-1c0-.552.896-1 2-1m0-1c-1.738 0-3 .841-3 2s1.262 2 3 2 3-.841 3-2-1.262-2-3-2zM6 13h8v1h-8z"/></symbol><symbol viewBox="0 0 34 40" id="icon_cup-gagarin"><title>cup-gagarin</title><path  d="M26.5 5h-2c0-1.366.918-2.537 2-3.003h-18c1.12.467 2 1.629 2 2.995h-2c0-.676-.449-1.217-1-1.217h-1v-3.775h22v3.775h-1c-.484 0-1 .561-1 1.225zM29.049 22h-23.066l2.55-5.793-.033-11.212h2v11.632l-1.452 3.373h16.934l-1.482-3.373v-11.627h2v11.207zM9.223 29.96c-5.137-1.493-8.723-7.417-8.723-14.405 0-3.789 1.077-7.389 3.032-10.135l1.629 1.16c-1.716 2.41-2.661 5.597-2.661 8.975 0 6.008 3.062 11.258 7.279 12.485l-.556 1.92zM25.779 29.96l-.559-1.92c4.217-1.228 7.279-6.479 7.279-12.485 0-3.38-.945-6.565-2.662-8.975l1.629-1.161c1.955 2.744 3.033 6.343 3.033 10.136.001 6.988-3.585 12.912-8.72 14.405zM22.441 26h-9.881c-1.683 0-3.053-1.338-3.06-2.986l2-.014c0 .552.476 1 1.06 1h9.881c.584 0 1.061-.448 1.061-1h2c-.002 1.654-1.373 3-3.061 3zm-12.941-2.986v-.014h2l-2 .014zM24.916 40h-14.831l.473-1.333c1.274-3.606 2.125-6.972 2.125-11.667h1.817c0 4.395-.515 7.678-1.603 11h9.204c-1.088-3.316-1.602-6.598-1.602-11h1.816c0 4.706.852 8.066 2.123 11.666l.478 1.334zM17.5 8c1.104 0 2 1.119 2 2.5s-.896 2.5-2 2.5-2-1.119-2-2.5.896-2.5 2-2.5m0-1c-1.652 0-3 1.57-3 3.5s1.347 3.5 3 3.5c1.654 0 3-1.57 3-3.5s-1.346-3.5-3-3.5z"/></symbol><symbol viewBox="0 0 32 40" id="icon_cup-latvian"><title>cup-latvian</title><path d="M16 32.645l-15.55-20.299c-.617-.804-.6-1.914.043-2.7l7.217-8.832c.422-.517 1.051-.814 1.724-.814h13.13c.674 0 1.302.297 1.725.814l7.22 8.833c.642.787.658 1.897.04 2.701l-15.549 20.297zm-6.566-30.645c-.069 0-.135.03-.175.079l-7.218 8.833c-.054.065-.055.15-.004.217l13.963 18.226 13.962-18.225c.052-.068.051-.153-.003-.219l-7.219-8.831c-.041-.05-.106-.08-.176-.08h-13.13z"/><path fill-rule="evenodd" clip-rule="evenodd" d="M15 31v2h2v-2"/><path d="M21.314 40h-10.628c-.667 0-1.272-.383-1.542-.976-.262-.577-.164-1.235.257-1.717l2.905-3.324c.546-.625 1.35-.983 2.207-.983h2.973c.857 0 1.661.358 2.207.984l2.904 3.323c.421.479.521 1.138.259 1.716-.268.593-.874.977-1.542.977zm-9.861-2h9.094l-2.359-2.7c-.164-.188-.426-.3-.701-.3h-2.973c-.275 0-.537.112-.7.299l-2.361 2.701zM5 10h22v1h-22zM17 6v1h-2v-1h2m0-1h-2c-.552 0-1 .448-1 1v1c0 .553.448 1 1 1h2c.553 0 1-.447 1-1v-1c0-.552-.447-1-1-1zM15.579 25.265l-9.205-14.765 7.262-7.834.734.68-6.744 7.273 8.801 14.116zM16.421 25.265l-.848-.53 8.801-14.116-6.743-7.273.732-.68 7.263 7.834z"/></symbol><symbol viewBox="0 0 28 40" id="icon_cup-shpengler"><title>cup-shpengler</title><path d="M20 40h-12v-3c0-1.103.897-2 2-2h8c1.103 0 2 .897 2 2v3zm-10-2h8v-1h-8v1zM15.988 33h-1.951l5.96-26.47c-.057-1.993-1.721-3.78-4.272-4.572l.594-1.91c3.452 1.071 5.681 3.657 5.681 6.587l-.024.222-5.988 26.143zm-3.976 0l-6.012-26.365c0-2.81 2.103-5.354 5.358-6.481l.655 1.89c-2.394.829-3.956 2.582-4.012 4.486l5.961 26.47h-1.95zM14.196 7.989c-1.565 0-3.095-.361-4.425-1.044l.457-.89c1.189.611 2.561.934 3.968.934 1.314 0 2.558-.478 3.599-.945l.41.912c-1.139.511-2.505 1.033-4.009 1.033zM18.963 32.938l-.926-.377 8.884-21.782c.206-.567.014-1.222-.486-1.611l-1.958-1.524.615-.789 1.957 1.524c.844.657 1.167 1.766.805 2.76l-8.891 21.799zM9.039 32.692l-8.884-21.355c-.371-.999-.046-2.093.8-2.74l1.958-1.495.606.795-1.957 1.495c-.495.378-.687 1.013-.477 1.58l8.876 21.336-.922.384z"/></symbol><symbol viewBox="0 0 30 40" id="icon_cup-tatarstan"><title>cup-tatarstan</title><path  d="M15 32.016l-.032-.002c-3.386-.107-8.086-6.792-8.849-14.014h-.079l-.04-1v-5h1c2.318 0 5-2.42 5-4v-1h6v1c0 1.58 2.682 4 5 4h1v6h-.118c-.765 7.222-5.464 13.907-8.85 14.014l-.032.002zm-7-15.46l.039.387c.39 6.88 4.885 12.944 6.961 13.07 2.076-.126 6.57-6.19 6.962-13.07l.038-.676v-2.361c-2.595-.476-5.212-2.682-5.852-4.906h-2.296c-.641 2.224-3.257 4.431-5.852 4.906v2.65zM19 40h-8c-.552 0-1-.447-1-1v-.761c0-1.051.426-2.08 1.169-2.822l2.124-2.124c.187-.188.442-.293.707-.293h2c.266 0 .52.105.707.293l2.124 2.124c.743.743 1.169 1.771 1.169 2.822v.761c0 .553-.447 1-1 1zm-6.985-2h5.971c-.054-.438-.255-.854-.568-1.169l-1.832-1.831h-1.172l-1.831 1.831c-.313.315-.514.731-.568 1.169zM5 25c-.298 0-.594-.133-.791-.388-.683-.882-6.573-8.709-3.118-11.966.484-.457 1.373-.812 2.271-.57.464.124 1.299.521 1.681 1.786.159.529-.14 1.086-.669 1.246-.528.158-1.086-.14-1.246-.669-.035-.115-.132-.389-.28-.43-.13-.039-.327.04-.386.093-1.687 1.591 1.513 6.943 3.328 9.286.338.437.258 1.064-.178 1.403-.182.141-.398.209-.612.209zM24.999 25c-.213 0-.429-.068-.611-.209-.437-.338-.517-.966-.179-1.403 1.813-2.344 5.012-7.698 3.327-9.286-.057-.051-.251-.129-.385-.092-.148.042-.245.314-.28.43-.159.528-.711.827-1.246.669-.528-.16-.828-.717-.668-1.246.381-1.264 1.216-1.662 1.679-1.786.896-.237 1.787.113 2.272.569 3.454 3.258-2.435 11.085-3.117 11.967-.197.254-.493.387-.792.387z"/><path fill-rule="evenodd" clip-rule="evenodd"  d="M15 0c1.104 0 2 .896 2 2s-.896 2-2 2-2-.896-2-2 .896-2 2-2z"/><path d="M11 5h8v1h-8zM10 15h10v1h-10z"/></symbol><symbol viewBox="0 0 36 40" id="icon_cup-ussr"><title>cup-ussr</title><path  d="M17.999 27.162c-6.34 0-11.611-5.937-12.001-13.514-.046-.882.388-1.714 1.132-2.171l.204-.096 3.496-1.177c.623-.421.992-1.107.992-1.855 0-.84-.315-1.599-.888-2.173l-.608-.61c-.401-.403-.519-1.001-.302-1.524.219-.526.729-.866 1.301-.866h13.347c.571 0 1.082.34 1.301.866.217.523.1 1.121-.301 1.523l-.607.61c-.574.575-.89 1.334-.89 2.139 0 .781.369 1.468.993 1.89l3.701 1.274c.739.454 1.174 1.26 1.134 2.103-.361 7.615-5.634 13.581-12.004 13.581zm-9.885-13.933c-.082.078-.126.191-.12.316.335 6.515 4.729 11.617 10.004 11.617 5.3 0 9.696-5.129 10.006-11.677.005-.09-.04-.184-.118-.254l-3.679-1.267c-1.273-.782-2.033-2.133-2.033-3.615 0-1.183.389-2.283 1.104-3.173h-10.559c.714.89 1.103 1.986 1.103 3.138 0 1.518-.76 2.869-2.033 3.65l-.204.096-3.471 1.169zM24.697 40h-13.394l.823-1.484c2.22-4.007 3.679-8.334 3.903-11.577l1.998.061-.005.104c-.212 3.09-1.451 7.076-3.364 10.896h6.724c-1.248-2.549-3.027-6.809-3.354-10.921l1.994-.158c.258 3.251 1.708 7.59 3.878 11.604l.797 1.475zM1.751 14.12c-1.662-5.236-2.18-10.37-1.386-13.735l.091-.385h.944l.15.201c1.681 2.532 3.902 4.498 6.111 5.42l-.385.923c-2.192-.915-4.381-2.761-6.094-5.121-.494 3.166.066 7.807 1.522 12.394l-.953.303zM34.249 14.12l-.953-.303c1.455-4.586 2.016-9.228 1.522-12.394-1.703 2.351-3.897 4.204-6.095 5.121l-.385-.923c2.209-.922 4.43-2.888 6.092-5.393l.148-.224.966-.004.091.385c.794 3.366.275 8.5-1.386 13.735zM11 14.169h14v1h-14zM13 6.56h10v1h-10z"/></symbol><symbol viewBox="0 0 32 40" id="icon_cup-vs"><title>cup-vs</title><path d="M16 5.515c-1.378 0-2.5-1.122-2.5-2.5s1.122-2.5 2.5-2.5c1.379 0 2.5 1.122 2.5 2.5s-1.121 2.5-2.5 2.5zm0-4c-.827 0-1.5.673-1.5 1.5s.673 1.5 1.5 1.5 1.5-.673 1.5-1.5-.673-1.5-1.5-1.5zM16 6.015c-1.654 0-3-1.346-3-3s1.346-3 3-3 3 1.346 3 3-1.346 3-3 3zm0-4c-.551 0-1 .449-1 1s.449 1 1 1 1-.449 1-1-.449-1-1-1zm0-1c1.103 0 2 .897 2 2 0-1.103-.897-2-2-2s-2 .897-2 2c0-1.103.897-2 2-2zM15.5 5.202h1v3h-1zM15 4.702h2v4h-2zM21.369 12.484c-.492-2.119-2.765-3.657-5.403-3.657-2.557 0-4.757 1.42-5.35 3.454l-.96-.279c.717-2.458 3.312-4.175 6.31-4.175 3.099 0 5.781 1.863 6.378 4.431l-.975.226zM20.995 13.084l-.113-.487c-.439-1.895-2.508-3.271-4.916-3.271-2.336 0-4.338 1.272-4.87 3.094l-.14.479-1.92-.559.14-.48c.779-2.67 3.571-4.535 6.79-4.535 3.329 0 6.216 2.026 6.865 4.817l.113.487-1.949.455zm-5.029-4.757c2.669 0 4.999 1.472 5.749 3.563-.75-2.091-3.08-3.563-5.749-3.563zM6 11.984h20v1h-20zM26.5 13.484h-21v-2h21v2zm-20-1h19-19zM16.018 31.199c-5.696-.211-8.533-9.553-8.531-14.724-.022-.979.083-1.926.322-2.884l.971.242c-.217.87-.313 1.731-.293 2.631-.002 4.703 2.583 13.552 7.531 13.735 4.912-.184 7.497-9.032 7.495-13.724.02-.873-.067-1.749-.259-2.615l.977-.216c.208.945.304 1.901.282 2.842.002 5.16-2.835 14.502-8.495 14.713zM16.018 31.699h-.018c-6.295-.233-9.015-10.194-9.013-15.224-.023-1.016.087-2.003.337-3.005l.121-.485 1.941.484-.122.485c-.206.826-.297 1.643-.278 2.499-.002 4.415 2.485 13.078 7.05 13.247 4.504-.169 6.978-8.825 6.976-13.224.019-.841-.064-1.681-.247-2.507l-.107-.488 1.953-.432.107.489c.218.987.316 1.983.294 2.961.002 5.328-2.996 14.978-8.976 15.202h-.018zm-1.162-1.193c.373.11.76.177 1.163.193l.008-.001c-.406-.015-.796-.082-1.171-.192zm-6.671-16.306c-.15.749-.215 1.494-.198 2.264 0 .351.013.72.039 1.105-.026-.385-.039-.755-.039-1.105-.017-.768.048-1.515.198-2.264zm15.701.324c.099.653.142 1.31.127 1.962l-.001.2.001-.2c.015-.652-.028-1.307-.127-1.962zM21.5 39.5h-11v-2.5c0-1.378 1.122-2.5 2.5-2.5h6c1.378 0 2.5 1.122 2.5 2.5v2.5zm-10-1h9v-1.5c0-.827-.673-1.5-1.5-1.5h-6c-.827 0-1.5.673-1.5 1.5v1.5zM22 40h-12v-3c0-1.654 1.346-3 3-3h6c1.654 0 3 1.346 3 3v3zm-11-1v-2c0-1.103.897-2 2-2h6c1.103 0 2 .897 2 2 0-1.103-.897-2-2-2h-6c-1.103 0-2 .897-2 2v2zm1-1h8v-1c0-.552-.448-1-1-1h-6c-.551 0-1 .448-1 1v1zM13 30.498h1v3h-1zM12.5 29.998h2v4h-2zM18 30.625h1v3h-1zM17.5 30.125h2v4h-2zM10.99 16.188h10v1h-10zM25.688 25.316c-.225 0-.449-.023-.672-.072l.215-.977c1.887.416 4.016-1.68 4.754-4.667.461-1.863.282-3.707-.479-4.932-.405-.652-.95-1.07-1.577-1.208l.215-.977c.896.197 1.661.77 2.211 1.657.9 1.449 1.125 3.58.6 5.7-.787 3.185-3.055 5.476-5.267 5.476zM6.277 25.474c-2.341 0-4.745-2.317-5.583-5.537-.546-2.097-.33-4.224.579-5.689.588-.949 1.417-1.559 2.398-1.764l.205.979c-.707.148-1.313.602-1.753 1.312-.767 1.237-.94 3.073-.461 4.91.791 3.036 3.084 5.156 5.117 4.737l.205.979c-.234.049-.47.073-.707.073z"/></symbol><symbol viewBox="0 0 29 8" id="icon_dotdotdot-big"><title>dotdotdot-big</title><path  d="M24.9 7.5c-2 0-3.5-1.5-3.5-3.5s1.5-3.5 3.5-3.5c1.9 0 3.5 1.6 3.5 3.5 0 2-1.5 3.5-3.5 3.5zm0-6c-1.4 0-2.5 1.1-2.5 2.5s1.1 2.5 2.5 2.5 2.5-1.1 2.5-2.5-1.1-2.5-2.5-2.5zm-10.4 6c-2 0-3.5-1.5-3.5-3.5s1.5-3.5 3.5-3.5c1.8 0 3.4 1.6 3.5 3.5 0 2-1.5 3.5-3.5 3.5zm0-6c-1.4 0-2.5 1.1-2.5 2.5s1.1 2.5 2.5 2.5 2.5-1.1 2.5-2.5c-.1-1.4-1.2-2.5-2.5-2.5zm-10.5 6c-2 0-3.5-1.5-3.5-3.5 0-1.9 1.6-3.5 3.5-3.5s3.5 1.6 3.5 3.5c0 2-1.5 3.5-3.5 3.5zm0-6c-1.4 0-2.5 1.1-2.5 2.5s1.1 2.5 2.5 2.5 2.5-1.1 2.5-2.5c0-1.3-1.2-2.5-2.5-2.5z"/></symbol><symbol viewBox="0 0 21 6" id="icon_dotdotdot"><title>dotdotdot</title><path  d="M17.4 5.4c-1.3 0-2.4-1.1-2.4-2.4s1.1-2.4 2.4-2.4 2.4 1.1 2.4 2.4-1.1 2.4-2.4 2.4zm0-4c-.9 0-1.6.7-1.6 1.6 0 .9.7 1.6 1.6 1.6.9 0 1.6-.7 1.6-1.6 0-.9-.7-1.6-1.6-1.6zm-7 4c-1.3 0-2.4-1.1-2.4-2.4s1.1-2.4 2.4-2.4 2.4 1.1 2.4 2.4-1.1 2.4-2.4 2.4zm0-4c-.9 0-1.6.7-1.6 1.6 0 .9.7 1.6 1.6 1.6.9 0 1.6-.7 1.6-1.6 0-.9-.7-1.6-1.6-1.6zm-7 4c-1.3 0-2.4-1.1-2.4-2.4s1.1-2.4 2.4-2.4 2.4 1.1 2.4 2.4-1.1 2.4-2.4 2.4zm0-4c-.9 0-1.6.7-1.6 1.6 0 .9.7 1.6 1.6 1.6s1.6-.7 1.6-1.6c0-.9-.7-1.6-1.6-1.6z"/></symbol><symbol viewBox="0 0 20 20" id="icon_download"><title>download</title><path d="M15.25 14h-2.25v-2h2.25c1.419 0 2.627-.963 2.75-2.191.128-1.276-.829-2.434-2.179-2.635-.767-.115-1.358-.716-1.439-1.463-.233-2.115-2.118-3.711-4.387-3.711s-4.156 1.596-4.388 3.712c-.082.746-.674 1.347-1.439 1.461-1.35.202-2.307 1.359-2.179 2.635.123 1.229 1.331 2.192 2.75 2.192h2.261v2h-2.261c-2.434 0-4.516-1.754-4.74-3.992-.228-2.268 1.364-4.324 3.655-4.775.462-3.001 3.141-5.233 6.341-5.233 3.199 0 5.878 2.232 6.341 5.233 2.289.451 3.882 2.506 3.654 4.774-.224 2.239-2.306 3.993-4.74 3.993zM10 18c-.552 0-1-1.447-1-2v-5.5c0-.552.448-1 1-1s1 .448 1 1v5.5c0 .553-.448 2-1 2zM10 19.202l-3.555-2.37c-.459-.307-.583-.927-.277-1.387s.926-.584 1.387-.277l2.445 1.63 2.445-1.63c.46-.307 1.081-.183 1.387.277.307.46.183 1.08-.277 1.387l-3.555 2.37z"/></symbol><symbol viewBox="0 0 18 18" id="icon_event-puck"><title>event-puck</title><path d="M9 5c-3.313 0-6 1.343-6 3v2c0 1.657 2.687 3 6 3 3.314 0 6-1.343 6-3v-2c0-1.657-2.686-3-6-3zm0 5c-2.761 0-5-.896-5-2s2.239-2 5-2c2.762 0 5 .896 5 2s-2.238 2-5 2z"/></symbol><symbol viewBox="0 0 18 18" id="icon_event-violation"><title>event-violation</title><path d="M14.176 5h-7.176c-2.517 0-4.49 2.323-3.893 4.941.33 1.447 1.504 2.621 2.95 2.951 2.323.528 4.414-.961 4.857-3.062.1-.477.496-.83.981-.83h2.279c.454 0 .824-.369.824-.824v-2.352c.002-.456-.368-.824-.822-.824zm-7.171 5.997c-1.104 0-2-.896-2-2.003 0-1.105.896-2.003 2-2.003s2 .897 2 2.003c0 1.108-.895 2.003-2 2.003z"/></symbol><symbol viewBox="0 0 44 12" id="icon_func"><title>func</title><path d="M0 11.999h2.535v-4.743h4.123v-2.077h-4.123v-3.094h4.431v-2.084h-6.966v11.998zm15.284-5.078c0 1.094-.16 1.877-.48 2.349-.32.473-.841.709-1.561.709-.529 0-.914-.167-1.155-.502-.242-.334-.363-.835-.363-1.503v-5.41h-2.573v6.039c0 1.094.281 1.933.844 2.515.562.583 1.396.874 2.505.874.646 0 1.223-.117 1.729-.352s.896-.568 1.172-.999h.135l.347 1.186h1.974v-9.264h-2.573v4.358zm10.988-4.346c-.641 0-1.213.114-1.717.344-.503.229-.897.566-1.185 1.014h-.144l-.346-1.184h-1.965v9.25h2.572v-4.353c0-1.092.16-1.873.48-2.346.32-.471.841-.707 1.561-.707.528 0 .914.167 1.156.501.241.334.362.834.362 1.501v5.403h2.572v-6.03c0-1.098-.283-1.938-.852-2.52s-1.397-.873-2.494-.873zm10.329 1.661c.361 0 .723.053 1.084.157.361.105.752.239 1.171.403l.786-2.005c-.896-.43-1.91-.645-3.041-.645-1.543 0-2.729.426-3.556 1.278-.827.852-1.241 2.085-1.241 3.698 0 3.245 1.521 4.867 4.562 4.867.67 0 1.225-.051 1.664-.153.44-.102.875-.286 1.307-.552v-2.215c-.437.283-.874.491-1.311.624-.438.134-.912.2-1.425.2-1.386 0-2.079-.929-2.079-2.786-.001-1.914.693-2.871 2.079-2.871zm7.003 5.151c-.264-.259-.637-.389-1.118-.389-.498 0-.878.127-1.139.38s-.392.626-.392 1.119c0 .477.134.845.4 1.106s.644.393 1.13.393c.476 0 .847-.134 1.113-.401s.4-.633.4-1.098c.002-.481-.13-.852-.394-1.11z"/></symbol><symbol viewBox="0 0 14 10" id="icon_ice-arrow"><title>ice-arrow</title><path d="M14 6h-10.59l2.3 2.29-1.42 1.42-4.7-4.71 4.7-4.71 1.42 1.42-2.3 2.29h10.59z"/></symbol><symbol viewBox="0 0 32 41" id="icon_medal-oplimp-champ"><title>medal-oplimp-champ</title><path d="M16 41c-8.822 0-16-7.178-16-16 0-5.918 3.245-11.329 8.469-14.12l.942 1.764c-4.571 2.443-7.411 7.177-7.411 12.356 0 7.72 6.28 14 14 14s14-6.28 14-14-6.28-14-14-14v-2c8.822 0 16 7.178 16 16s-7.178 16-16 16zM21.857 10.515l-2.451.157 6.438-10.672h2.312zM17 19c-1.654 0-3-1.346-3-3s1.346-3 3-3 3 1.346 3 3-1.346 3-3 3zm0-4c-.551 0-1 .449-1 1s.449 1 1 1c.552 0 1-.449 1-1s-.448-1-1-1zM15.168 16.555l-10-15 1.664-1.11 9.359 14.039zM18 31h-2v-5.612l-1.684.56-.632-1.896 4.316-1.44zM14 31h6v2h-6zM22 27h3v1h-3zM8 27h3v1h-3z"/></symbol><symbol viewBox="0 0 32 41" id="icon_medal-oplimp"><title>medal-oplimp</title><path d="M16 41c-8.822 0-16-7.178-16-16 0-5.918 3.245-11.329 8.469-14.12l.942 1.764c-4.571 2.443-7.411 7.177-7.411 12.356 0 7.72 6.28 14 14 14s14-6.28 14-14-6.28-14-14-14v-2c8.822 0 16 7.178 16 16s-7.178 16-16 16zM21.857 10.515l-2.451.157 6.438-10.672h2.312zM17 19c-1.654 0-3-1.346-3-3s1.346-3 3-3 3 1.346 3 3-1.346 3-3 3zm0-4c-.551 0-1 .449-1 1s.449 1 1 1c.552 0 1-.449 1-1s-.448-1-1-1zM15.168 16.555l-10-15 1.664-1.11 9.359 14.039zM9 23c1.103 0 2 .897 2 2s-.897 2-2 2-2-.897-2-2 .897-2 2-2m0-1c-1.657 0-3 1.344-3 3 0 1.657 1.343 3 3 3s3-1.343 3-3c0-1.656-1.343-3-3-3zM16 23c1.103 0 2 .897 2 2s-.897 2-2 2-2-.897-2-2 .897-2 2-2m0-1c-1.656 0-3 1.344-3 3 0 1.657 1.344 3 3 3s3-1.343 3-3c0-1.656-1.344-3-3-3zM23 23c1.103 0 2 .897 2 2s-.897 2-2 2-2-.897-2-2 .897-2 2-2m0-1c-1.656 0-3 1.344-3 3 0 1.657 1.344 3 3 3s3-1.343 3-3c0-1.656-1.344-3-3-3zM12 28c1.103 0 2 .897 2 2s-.897 2-2 2-2-.897-2-2 .897-2 2-2m0-1c-1.657 0-3 1.344-3 3 0 1.657 1.343 3 3 3 1.656 0 3-1.343 3-3 0-1.656-1.344-3-3-3zM20 28c1.103 0 2 .897 2 2s-.897 2-2 2-2-.897-2-2 .897-2 2-2m0-1c-1.656 0-3 1.344-3 3 0 1.657 1.344 3 3 3s3-1.343 3-3c0-1.656-1.344-3-3-3z"/></symbol><symbol viewBox="0 0 32 41" id="icon_medal-rus"><title>medal-rus</title><path d="M16 41c-8.822 0-16-7.178-16-16 0-5.918 3.245-11.329 8.469-14.12l.942 1.764c-4.571 2.443-7.411 7.177-7.411 12.356 0 7.72 6.28 14 14 14s14-6.28 14-14-6.28-14-14-14v-2c8.822 0 16 7.178 16 16s-7.178 16-16 16zM21.857 10.515l-2.451.157 6.438-10.672h2.312zM17 19c-1.654 0-3-1.346-3-3s1.346-3 3-3 3 1.346 3 3-1.346 3-3 3zm0-4c-.551 0-1 .449-1 1s.449 1 1 1c.552 0 1-.449 1-1s-.448-1-1-1zM15.168 16.555l-10-15 1.664-1.11 9.359 14.039zM19.77 35h-7.54l2.149-4.836c-2.259-1.921-2.379-7.514-2.379-8.664v-.5h8v.5c0 1.15-.12 6.743-2.38 8.664l2.15 4.836zm-6-1h4.461l-1.865-4.196.372-.229c1.672-1.032 2.196-5.032 2.257-7.574h-5.988c.061 2.542.585 6.542 2.257 7.574l.372.229-1.866 4.196zM10.58 28.773c-1.163-1.803-2.64-4.513-3.074-7.19l-.094-.58h3.284v1h-2.091c.544 2.456 1.972 4.922 2.814 6.228l-.839.542zM21.42 28.773l-.84-.543c1.025-1.589 2.306-3.909 2.815-6.228h-2.093v-1h3.285l-.095.58c-.431 2.678-1.909 5.389-3.072 7.191z"/></symbol><symbol viewBox="0 0 32 41" id="icon_medal-world"><title>medal-world</title><path d="M16 41c-8.822 0-16-7.178-16-16 0-5.918 3.245-11.329 8.469-14.12l.942 1.764c-4.571 2.443-7.411 7.177-7.411 12.356 0 7.72 6.28 14 14 14s14-6.28 14-14-6.28-14-14-14v-2c8.822 0 16 7.178 16 16s-7.178 16-16 16zM21.857 10.515l-2.451.157 6.438-10.672h2.312zM17 19c-1.654 0-3-1.346-3-3s1.346-3 3-3 3 1.346 3 3-1.346 3-3 3zm0-4c-.551 0-1 .449-1 1s.449 1 1 1c.552 0 1-.449 1-1s-.448-1-1-1zM15.168 16.555l-10-15 1.664-1.11 9.359 14.039zM16.5 29c-3.084 0-5.5-2.834-5.5-6.452 0-.899 0-1.548.591-1.548h9.809c.6 0 .6.699.6 1.508 0 3.64-2.416 6.492-5.5 6.492zm-4.485-7l-.015.548c0 3.057 1.977 5.452 4.5 5.452 2.481 0 4.5-2.464 4.5-5.492l-.014-.508h-8.971zM18 31v3h-3v-3h3m.5-1h-4c-.276 0-.5.224-.5.5v4c0 .276.224.5.5.5h4c.275 0 .5-.224.5-.5v-4c0-.276-.225-.5-.5-.5zM16.5 29c.276 0 .5.225.5.5s-.224.5-.5.5-.5-.225-.5-.5.224-.5.5-.5m0-1c-.829 0-1.5.672-1.5 1.5s.671 1.5 1.5 1.5c.828 0 1.5-.672 1.5-1.5s-.672-1.5-1.5-1.5z"/></symbol><symbol viewBox="0 0 10 14" id="icon_place"><title>place</title><path fill-rule="evenodd" clip-rule="evenodd" d="M5 .033c-2.762 0-5 2.204-5 4.923 0 3.567 2.153 6.692 3.634 8.419.715.834 2.018.834 2.732 0 1.481-1.727 3.634-4.852 3.634-8.419 0-2.719-2.238-4.923-5-4.923zm.602 12.707c-.206.24-.465.277-.602.277s-.396-.037-.603-.277c-1.268-1.48-3.397-4.459-3.397-7.784 0-2.171 1.795-3.938 4-3.938 2.206 0 4 1.767 4 3.938 0 3.325-2.129 6.304-3.398 7.784zm-.602-8.74c-.553 0-1 .448-1 1s.447 1 1 1c.552 0 1-.448 1-1s-.448-1-1-1z"/></symbol><symbol viewBox="0 0 50 50" id="icon_play"><title>play</title><path fill-rule="evenodd" clip-rule="evenodd" d="M25 0c-13.807 0-25 11.193-25 25 0 13.808 11.193 25 25 25 13.808 0 25-11.192 25-25 0-13.807-11.192-25-25-25zm0 49c-13.255 0-24-10.745-24-24 0-13.254 10.745-24 24-24s24 10.746 24 24c0 13.255-10.745 24-24 24zm-3-17.005l9.993-6.995-9.993-6.995v13.99z"/></symbol><symbol viewBox="0 0 16 14" id="icon_player-next"><title>player-next</title><path fill-rule="evenodd" clip-rule="evenodd" d="M0 0l6.003 4.204v-4.204l9.997 7.001-9.997 6.999v-4.202l-6.003 4.202z"/></symbol><symbol viewBox="0 0 32 33" id="icon_player-pause"><title>player-pause</title><path fill-rule="evenodd" clip-rule="evenodd" d="M7 30h4v-27h-4v27zm14-27v27h4v-27h-4z"/></symbol><symbol viewBox="0 0 32 33" id="icon_player-play"><title>player-play</title><path fill-rule="evenodd" clip-rule="evenodd" d="M8 0l24 16.501-24 16.499v-33z"/></symbol><symbol viewBox="0 0 16 14" id="icon_player-prev"><title>player-prev</title><path fill-rule="evenodd" clip-rule="evenodd" d="M16 0l-6.003 4.204v-4.204l-9.997 7.001 9.997 6.999v-4.202l6.003 4.202z"/></symbol><symbol viewBox="0 0 25 116" id="icon_playoff-line"><title>playoff-line</title><path clip-rule="evenodd" d="M5.5 112.5h4c8.284 0 15-6.654 15-14.863v-79.273c0-8.209-6.716-14.864-15-14.864h-4" fill="none"/><path clip-rule="evenodd" d="M3.5 1c1.381 0 2.5 1.119 2.5 2.5s-1.119 2.5-2.5 2.5-2.5-1.119-2.5-2.5 1.119-2.5 2.5-2.5zM3.5 110c1.381 0 2.5 1.119 2.5 2.5s-1.119 2.5-2.5 2.5-2.5-1.119-2.5-2.5 1.119-2.5 2.5-2.5z" fill="none"/></symbol><symbol viewBox="0 0 7 7" id="icon_plus"><title>plus</title><path d="M7 3.48v.04c0 .27-.21.48-.48.48h-2.52v2.5c0 .28-.22.5-.5.5s-.5-.22-.5-.5v-2.5h-2.52c-.27 0-.48-.21-.48-.48v-.04c0-.27.21-.48.48-.48h2.52v-2.5c0-.28.22-.5.5-.5s.5.22.5.5v2.5h2.52c.27 0 .48.21.48.48z"/></symbol><symbol viewBox="0 0 6 8" id="icon_rouble"><title>rouble</title><path d="M.5 4.5h2.999c1.104 0 2.001-.895 2.001-2s-.896-2-2.001-2h-2.999M.5 6.5h4.5" fill="none"/><path d="M.5 0v8-8z" fill="none"/></symbol><symbol viewBox="0 0 16 20" id="icon_share"><title>share</title><path d="M13 14c-.649 0-1.247.212-1.738.563l-5.382-3.768c.07-.254.12-.518.12-.795s-.05-.54-.12-.795l5.382-3.768c.491.351 1.089.563 1.738.563 1.657 0 3-1.342 3-3 0-1.657-1.343-3-3-3-1.656 0-3 1.343-3 3 0 .277.05.541.12.796l-5.381 3.767c-.491-.352-1.089-.563-1.739-.563-1.656 0-3 1.344-3 3 0 1.658 1.344 3 3 3 .65 0 1.247-.211 1.738-.562l5.382 3.767c-.07.254-.12.518-.12.795 0 1.658 1.344 3 3 3 1.657 0 3-1.342 3-3 0-1.656-1.343-3-3-3z"/></symbol><symbol viewBox="0 0 9 16" id="icon_social-fb"><title>social-fb</title><path fill-rule="evenodd" clip-rule="evenodd"  d="M6.004 3h2.996v-3h-2.996c-2.206 0-3.994 1.791-3.994 4.001v2.999h-1.997l-.013 3h2.01v6h2.996v-6h1.996l1.998-3h-3.994v-2.999c0-.554.447-1.001.998-1.001z"/></symbol><symbol viewBox="0 0 16 16" id="icon_social-foursquare"><title>social-foursquare</title><path  d="M5.277 6.173c-.097-.098-.232-.154-.371-.154-.138 0-.273.057-.371.153l-1.249 1.251c-.206.206-.206.539-.001.745l4.228 4.249c.085.084.194.138.312.15l.06.004.004-.001.001.001c.141.001.274-.056.375-.155l7.583-7.608c.205-.205.205-.538 0-.744l-1.248-1.252c-.1-.101-.23-.155-.371-.154-.141-.001-.272.054-.372.154l-5.967 5.986-2.613-2.625zm10.131.469l-6.436 6.443c-.278.275-.646.428-1.037.428-.411 0-.851-.239-1.042-.432l-4.234-4.247c-.277-.277-.43-.646-.43-1.038s.153-.761.43-1.038l1.253-1.253c.272-.271.649-.427 1.037-.427.386 0 .764.157 1.036.431l1.951 1.957 4.147-4.153-2.761-2.765c-.731-.73-1.928-.73-2.659 0l-6.115 6.122c-.73.731-.73 1.929 0 2.661l6.116 6.121c.73.731 1.927.731 2.658 0l6.115-6.121c.731-.732.731-1.93 0-2.661l-.029-.028z"/></symbol><symbol viewBox="0 0 19 16" id="icon_social-gp"><title>social-gp</title><path fill-rule="evenodd" clip-rule="evenodd" d="M10.999 0h-5.233c-2.348 0-4.556 1.746-4.556 3.644 0 1.938 1.6 3.557 3.986 3.557l.485.014c-.154.272-.265.594-.265.913 0 .539.314.982.713 1.339l-.907.012c-2.907 0-5.222 1.706-5.222 3.475 0 1.741 2.53 3.046 5.437 3.046 3.313 0 5.105-1.947 5.105-3.687 0-1.396-.409-2.234-1.792-3.135-.473-.308-1.377-1.059-1.377-1.5 0-.517.16-.771 1.005-1.378.865-.624 1.536-1.426 1.536-2.446 0-1.212-.646-2.14-1.746-2.712h1.66l1.171-1.142zm-1.828 12.013c.041.16.064.328.064.498 0 1.406-.985 2.362-3.81 2.362-2.009 0-3.46-1.028-3.46-2.435 0-1.381 1.8-2.528 3.81-2.509.469.005.905.075 1.302.192 1.091.7 1.873 1.095 2.094 1.892zm-3.217-5.25c-1.349-.037-2.63-1.391-2.862-3.021-.234-1.631.671-2.879 2.018-2.843 1.349.037 2.688 1.346 2.922 2.977.233 1.632-.73 2.924-2.078 2.887zm10.046-3.763v-2.999h-1v2.999h-3v1h3v2.999h1v-2.999h3v-1h-3z"/></symbol><symbol viewBox="0 0 14 14" id="icon_social-instagram"><title>social-instagram</title><path fill-rule="evenodd" clip-rule="evenodd"  d="M11 0h-8c-1.657 0-3 1.344-3 3v8c0 1.657 1.343 3 3 3h8c1.657 0 3-1.343 3-3v-8c0-1.656-1.343-3-3-3zm-8 1h8l.01.001h-8.02l.01-.001zm7.008 6.001c0 1.656-1.343 3-3 3-1.656 0-3-1.344-3-3s1.344-3 3-3c1.657 0 3 1.344 3 3zm2.992 3.999c0 1.105-.896 2-2 2h-8c-1.104 0-2-.895-2-2v-8l.006-.058v4.06h2c0 2.209 1.792 3.998 4.001 3.998 2.209 0 3.998-1.789 3.999-3.998h1.994v3.998zm-1.5-6.999c-.828 0-1.5-.673-1.5-1.5 0-.829.672-1.501 1.5-1.501s1.5.672 1.5 1.501c0 .827-.672 1.5-1.5 1.5z"/></symbol><symbol viewBox="0 0 10 16" id="icon_social-ok"><title>social-ok</title><path fill-rule="evenodd" clip-rule="evenodd"  d="M8.741 10.409c-.896.556-2.121.767-2.922.846l.669.647 2.479 2.396c.377.364.377.954 0 1.318l-.112.109c-.379.365-.988.365-1.364 0l-2.479-2.396-2.48 2.396c-.376.364-.987.364-1.363 0l-.114-.11c-.377-.364-.377-.954 0-1.318l2.479-2.396.668-.646c-.8-.078-2.04-.287-2.941-.848-1.056-.653-1.525-1.041-1.111-1.844.238-.462.896-.845 1.77-.179 1.182.899 3.08.899 3.08.899s1.898 0 3.079-.899c.875-.666 1.533-.283 1.77.179.416.803-.052 1.191-1.108 1.846zm-3.741-2.392c-2.208 0-4-1.794-4-4.008s1.792-4.009 4-4.009 3.999 1.795 3.999 4.009c0 2.214-1.791 4.008-3.999 4.008zm0-6.013c-1.104 0-2 .897-2 2.004s.896 2.004 2 2.004 2-.896 2-2.004c0-1.106-.896-2.004-2-2.004z"/></symbol><symbol viewBox="0 0 16 13" id="icon_social-twitter"><title>social-twitter</title><path  d="M16 1.539m-4.923-1.539c-1.813 0-3.283 1.47-3.283 3.282 0 .258.029.508.085.748-2.729-.136-5.148-1.443-6.767-3.428-.282.484-.444 1.047-.444 1.649 0 1.14.58 2.144 1.461 2.732-.538-.018-1.045-.165-1.487-.411v.041c0 1.591 1.131 2.917 2.633 3.218-.276.075-.566.115-.865.115-.212 0-.417-.021-.618-.059.418 1.304 1.63 2.253 3.067 2.279-1.124.88-2.54 1.404-4.077 1.404-.266 0-.525-.016-.782-.045 1.452.932 3.177 1.475 5.031 1.475 6.038 0 9.34-5.001 9.34-9.337l-.01-.425c.642-.463 1.199-1.041 1.639-1.699-.589.262-1.222.438-1.886.518.678-.406 1.198-1.049 1.443-1.816-.635.377-1.337.649-2.085.797-.598-.639-1.451-1.038-2.395-1.038"/></symbol><symbol viewBox="0 0 11 12" id="icon_social-vk"><title>social-vk</title><path fill-rule="evenodd" clip-rule="evenodd"  d="M10.256 6.4c-.491-.491-1.276-.907-1.682-.97 2-.874 2.787-5.43-3.588-5.43h-4.986v12h5.608c.931 0 1.702-.057 2.31-.209.606-.151 1.163-.404 1.67-.757.436-.304.78-.681 1.031-1.141.25-.458.373-.976.373-1.557 0-.801-.244-1.446-.736-1.936zm-7.263-4.4h2.007c.622 0 .907.179 1.308.306.465.184.698.56.698 1.129 0 .516-.176.874-.527 1.075-.353.203-.81.49-1.375.49h-2.111v-3zm4.073 7.8c-.344.132-.826.2-1.443.2h-2.633v-3.002h2.681c.611.004 1.086.068 1.424.19.605.219.908.622.908 1.207 0 .692-.313 1.161-.937 1.405z"/></symbol><symbol viewBox="0 0 16 12" id="icon_social-youtube"><title>social-youtube</title><path fill-rule="evenodd" clip-rule="evenodd"  d="M15.579 2.333c-.331-1.325-1.653-2.334-2.699-2.333h-9.75c-1.045-.001-2.368 1.008-2.698 2.333-.562 2.395-.562 4.938 0 7.333.33 1.325 1.653 2.334 2.698 2.333h9.75c1.046.001 2.368-1.008 2.699-2.333.562-2.395.562-4.938 0-7.333zm-5.003 4.497l-3 2.006c-.167.112-.361.169-.555.169-.161 0-.323-.039-.471-.118-.326-.173-.55-.512-.55-.882v-4.011c0-.37.224-.708.55-.883.147-.078.31-.118.471-.118.194 0 .389.057.556.169l3 2.006c.278.186.444.497.444.831 0 .335-.167.647-.445.831z"/></symbol><symbol viewBox="0 0 7 4" id="icon_sort-arrow-desc"><title>sort-arrow-desc</title><path d="M.2 3.8c.2.2.5.2.7 0l2.6-2.5 2.6 2.5c.2.2.6.2.8 0 .2-.2.2-.6 0-.8l-2.9-2.9h-.2c-.3 0-.6 0-.7.2l-2.9 2.7c-.3.3-.3.7 0 .8z"/></symbol><symbol viewBox="0 0 7 4" id="icon_sort-arrow"><title>sort-arrow</title><path d="M6.8.2c-.2-.2-.5-.2-.7 0l-2.6 2.5-2.6-2.5c-.2-.2-.6-.2-.8 0-.2.2-.2.6 0 .8l2.9 2.9c.1.1.2.1.2.1.3 0 .6 0 .7-.2l2.9-2.8c.3-.2.3-.6 0-.8z"/></symbol><symbol viewBox="0 0 20 20" id="icon_star"><title>star</title><path d="M10 .5l3 6.378 7 .879-5.146 4.82 1.326 6.923-6.18-3.399-6.18 3.399 1.326-6.923-5.146-4.82 7-.878 3-6.379z"/></symbol><symbol viewBox="0 0 18 25" id="icon_user-default"><title>user-default</title><path  d="M7.448 2.605l.707.707-3 3-.707-.707zM10.557 2.605l3 3-.707.707-3-3zM12.5 9.303h-7c-1.103 0-2-.897-2-2s.897-2 2-2h7c1.103 0 2 .897 2 2 0 1.102-.897 2-2 2zm-7-3c-.551 0-1 .449-1 1 0 .552.449 1 1 1h7c.552 0 1-.448 1-1 0-.551-.448-1-1-1h-7z"/><path fill-rule="evenodd" clip-rule="evenodd"  d="M9 0c1.105 0 2 .895 2 2s-.895 2-2 2-2-.895-2-2 .895-2 2-2z"/><path  d="M9 15.716c-3.033 0-5.5-2.468-5.5-5.5h1c0 2.481 2.019 4.5 4.5 4.5s4.5-2.019 4.5-4.5h1c0 3.033-2.468 5.5-5.5 5.5zM17.5 24.725h-1v-2.044c0-2.581-1.143-4.959-3.058-6.407-.103-.078-.227-.032-.3.03-.707.612-2.182 1.889-4.143 1.889-1.958 0-3.435-1.276-4.144-1.889-.073-.063-.195-.108-.299-.029-1.913 1.446-3.056 3.825-3.056 6.361v2.089h-1v-2.044c0-2.893 1.292-5.569 3.454-7.205.464-.349 1.104-.32 1.556.071.618.534 1.903 1.646 3.49 1.646 1.589 0 2.872-1.111 3.489-1.646.454-.392 1.093-.42 1.557-.071 2.163 1.635 3.454 4.312 3.454 7.16v2.089zM1.5 23.725h15v1h-15z"/></symbol><symbol viewBox="0 0 10 10" id="icon_view-list"><title>view-list</title><path fill-rule="evenodd" clip-rule="evenodd" d="M0 4h10v2h-10zM0 0h10v2h-10zM0 8h10v2h-10z"/></symbol><symbol viewBox="0 0 10 10" id="icon_view-table"><title>view-table</title><path fill-rule="evenodd" clip-rule="evenodd" d="M4 4h-4v-4h4v4zm6-4h-4v4h4v-4zm-6 6h-4v4h4v-4zm6 0h-4v4h4v-4z"/></symbol><symbol viewBox="0 0 30 30" id="icon_vip-chair"><title>vip-chair</title><path d="M25.042 9.288c-1.291-4.291-5.415-7.288-10.028-7.288-4.671 0-8.806 2.994-10.054 7.28l-1.92-.56c1.496-5.134 6.419-8.72 11.974-8.72 5.489 0 10.4 3.583 11.944 8.712l-1.916.576zM23.366 26h-16.733c-2.012 0-3.649-1.581-3.649-3.523v-1.672c-.692-.251-1.363-.748-1.905-1.431-.926-1.166-1.279-2.615-.967-3.975.374-1.625 1.661-2.913 3.28-3.283 1.361-.311 2.771.011 3.867.885 1.092.87 1.719 2.158 1.719 3.532v1.461h-2v-1.461c0-.762-.352-1.479-.965-1.968-.618-.492-1.41-.674-2.175-.499-.863.197-1.577.912-1.777 1.78-.249 1.085.325 1.958.583 2.283.469.59 1.024.859 1.341.86l.997.003.001 3.483c0 .84.74 1.523 1.649 1.523h16.733c.91 0 1.65-.684 1.65-1.523l.001-3.483.997-.003c.317-.001.873-.271 1.341-.86.259-.325.833-1.198.584-2.283-.199-.868-.913-1.583-1.776-1.78-.763-.176-1.558.007-2.176.499-.613.489-.965 1.206-.965 1.968v1.461h-2v-1.461c0-1.374.627-2.662 1.719-3.532 1.098-.875 2.505-1.198 3.868-.885 1.619.37 2.906 1.658 3.279 3.283.312 1.359-.04 2.809-.967 3.975-.542.683-1.213 1.18-1.904 1.431l-.001 1.672c.002 1.942-1.636 3.523-3.649 3.523zM5.95 28h3.1v2h-3.1zM20.95 28h3.1v2h-3.1zM10.95 17h8.1v1h-8.1z"/></symbol><symbol viewBox="0 0 30 30" id="icon_vip-keytering"><title>vip-keytering</title><path d="M6 30c-2.206 0-4-1.873-4-4.175 0-1.19.725-8.066.948-10.146.026-.252-.043-.504-.198-.707l-1.947-2.569c-.519-.691-.803-1.543-.803-2.403v-9.1h2v9.1c0 .43.142.856.4 1.2l1.944 2.564c.462.609.673 1.364.593 2.126-.433 4.042-.937 9.067-.937 9.935 0 1.199.897 2.175 2 2.175s2-.976 2-2.175c0-.848-.483-5.688-.935-9.934-.083-.76.128-1.517.593-2.129l1.945-2.567c.255-.339.397-.765.397-1.195v-9.1h2v9.1c0 .86-.284 1.712-.8 2.4l-1.949 2.572c-.155.204-.225.454-.198.706.285 2.675.947 9.013.947 10.147 0 2.302-1.794 4.175-4 4.175zM5 .95h2v8.1h-2zM23 30c-2.206 0-4-1.873-4-4.175 0-.954.322-4.518.957-10.59-2.395-1.225-3.957-3.862-3.957-6.697 0-3.948 3.058-8.538 7-8.538s7 4.59 7 8.538c0 2.835-1.562 5.472-3.978 6.718.378 3.373.978 9.265.978 10.569 0 2.302-1.794 4.175-4 4.175zm0-28c-2.77 0-5 3.577-5 6.538 0 2.095 1.136 4.034 2.894 4.94.725.371 1.139 1.143 1.052 1.965-.823 7.872-.946 9.884-.946 10.382 0 1.199.897 2.175 2 2.175s2-.976 2-2.175c0-.873-.354-4.755-.946-10.381-.087-.823.328-1.594 1.055-1.967 1.755-.905 2.891-2.844 2.891-4.939 0-2.961-2.23-6.538-5-6.538z"/></symbol><symbol viewBox="0 0 30 30" id="icon_vip-panorama"><title>vip-panorama</title><path d="M7.709 19.887c-3.442-1.791-6.003-4.345-7.224-5.707-.648-.729-.648-1.822 0-2.548 1.602-1.791 7.385-7.632 14.516-7.632 7.06 0 12.886 5.835 14.503 7.624.661.729.661 1.832 0 2.562-1.225 1.354-3.788 3.892-7.21 5.682l-.928-1.771c3.199-1.675 5.646-4.144 6.599-5.191-1.549-1.702-6.802-6.906-12.964-6.906-6.228 0-11.437 5.205-12.97 6.904.948 1.051 3.384 3.535 6.603 5.209l-.925 1.774zM10.162 14.254c-.108-.411-.163-.837-.163-1.268 0-2.75 2.243-4.986 5-4.986s5.001 2.236 5.001 4.986c0 .424-.055.846-.16 1.256l-1.937-.5c.062-.247.096-.501.096-.756 0-1.646-1.346-2.986-3-2.986s-3 1.34-3 2.986c0 .26.033.515.097.76l-1.934.508zM14.999 15.548l5.742 13.452h-11.484l5.742-13.452m0-2.548l-6.96 16.311c-.142.33.108.689.478.689h12.966c.367 0 .619-.359.479-.689l-6.963-16.311z"/></symbol><symbol viewBox="0 0 30 30" id="icon_vip-parking"><title>vip-parking</title><path d="M11.096 30h-3.117c-1.09 0-1.979-.898-1.979-2.002v-25.995c0-1.105.889-2.003 1.979-2.003h9.066c5.525 0 10.2 4.059 10.873 9.439.391 3.105-.626 6.292-2.787 8.741-2.145 2.427-5.111 3.82-8.131 3.82h-4v6.061c0 1.069-.854 1.939-1.904 1.939zm-3.117-28l.021 25.998 3 .002v-6.297c0-.758.594-1.577 1.919-1.699l4.095-.004c2.442 0 4.854-1.146 6.618-3.145 1.78-2.021 2.62-4.631 2.304-7.168-.551-4.383-4.371-7.688-8.89-7.688l-9.067.001zm8.832 15h-4.043c-.976 0-1.768-.771-1.768-1.723v-8.55c0-.954.792-1.727 1.767-1.727h4.187c1.845 0 3.567.816 4.728 2.241 1.141 1.399 1.582 3.228 1.211 5.016-.57 2.748-3.125 4.743-6.082 4.743zm-3.811-2h3.811c2.01 0 3.744-1.324 4.121-3.146.252-1.215-.033-2.404-.802-3.35-.776-.956-1.937-1.504-3.176-1.504h-3.954v8z"/></symbol><symbol viewBox="0 0 30 30" id="icon_vip-sector"><title>vip-sector</title><path d="M16.279 0c-.794 0-1.571.139-2.307.413l.349.938c.456-.169.935-.279 1.427-.325h.004l.034-.003h.012l.026-.002h.016l.017-.001h.024l.021-.001h.06100000000000002l.013-.001h.2660000000000002v-1.018h.037zm-5.092 2.356l-1.415 1.414.707.707.699-.698.001-.001.002-.002.011-.011h.001l.7-.701-.706-.708zm-3.536 3.536l-1.414 1.414.707.707.01-.01.001-.001.001-.001.006-.005.001-.001v-.001h.001l.002-.002.002-.002.009-.01.001-.001.012-.011.006-.006.003-.003.003-.002.001-.001 1.353-1.353-.705-.711zm-3.535 3.535l-1.414 1.415.707.707 1.414-1.415-.707-.707zm-3.475 4.018c-.339.714-.546 1.475-.615 2.261l.996.087c.05-.573.189-1.135.408-1.663l.009-.021.001-.003v-.001l.001-.003v-.001l.001-.003.006-.014v-.001l.001-.003v-.001l.001-.003.001-.003v-.001l.006-.014v-.001l.001-.002v-.001l.001-.003v-.001l.001-.003v-.001l.001-.003.004-.01v-.001l.001-.003.001-.001.001-.003v-.001l.001-.003v-.001l.004-.01.001-.003v-.001l.001-.003v-.001l.001-.002.001-.002.001-.002v-.002l.001-.002.002-.003v-.001l.001-.002.001-.002.001-.002v-.002l.001-.002.001-.002.001-.002v-.002l.001-.002v-.002l.002-.003v-.001l.001-.003v-.001l.001-.003v-.001l.001-.002.001-.002.001-.002v-.001l.001-.003.002-.004.001-.003.001-.001.001-.003v-.001l.001-.003v-.001l.001-.003.001-.004.004-.008.002-.004.002-.003.002-.004.008-.017.002-.004.002-.005-.885-.433zm.914 5.264l-.901.434c.344.714.807 1.353 1.376 1.899l.692-.722-.025-.024v-.001l-.006-.005v-.001l-.009-.009-.001-.001-.005-.005-.002-.002-.006-.003-.002-.002-.002-.003-.002-.002-.003-.004-.002-.002-.003-.003-.004-.003-.002-.002-.004-.004-.002-.002-.003-.003-.002-.003-.003-.003-.001-.002-.004-.004-.001-.002-.004-.004-.001-.002-.004-.004-.001-.001-.004-.004-.001-.002-.005-.004-.001-.002-.005-.005-.004-.005-.001-.001-.004-.005-.001-.001-.005-.005-.005-.006-.005-.005v-.001l-.005-.005-.001-.001-.01-.011-.005-.005v-.001l-.005-.005v-.001c-.216-.227-.412-.472-.586-.729v-.001l-.013-.019v-.001l-.004-.006-.008-.013v-.001l-.004-.006v-.001l-.004-.005v-.001l-.004-.006-.004-.006v-.002l-.004-.005v-.001l-.004-.006v-.001l-.003-.005v-.001l-.004-.006v-.001l-.004-.006v-.001l-.003-.005v-.002l-.003-.005-.001-.002-.003-.005-.001-.002-.003-.005-.001-.001-.003-.005-.001-.002-.003-.005-.001-.002-.003-.005-.001-.002-.002-.004-.002-.003-.002-.004-.001-.002-.003-.005-.002-.002-.002-.004-.002-.004-.001-.003-.002-.003-.002-.004-.002-.003-.002-.004-.002-.003-.001-.002-.003-.005-.001-.003-.003-.005-.001-.002-.002-.003-.001-.002-.003-.006-.001-.002-.003-.005-.001-.002-.007-.011v-.001l-.024.001v-.001l-.011-.019v-.001c-.085-.141-.163-.287-.234-.435zm3.479 3.522l-.633.774 1.549 1.266.633-.774-.989-.808-.002-.002-.016-.013-.002-.002-.006-.005-.003-.003-.531-.433zm3.872 3.164l-.633.774 1.549 1.266.632-.774-.496-.405-1.052-.861zm3.958 3.04l-.438.899c.711.346 1.471.56 2.256.636l.096-.995-.15-.017-.007-.001-.004-.001h-.003l-.007-.001-.003-.001-.013-.001-.002-.001h-.005l-.003-.001h-.004l-.002-.001h-.004l-.002-.001h-.004l-.001-.001h-.007l-.001-.001h-.003l-.003-.001h-.003l-.003-.001h-.003l-.004-.001c-.586-.082-1.149-.255-1.673-.509zm6.455-1.121l-.002.002-.003.003-.003.003-.001.001-.002.002-.001.001-.002.002-.001.001-.001.001-.001.001-.001.001-.001.001v.001l-.004.004-.001.001-.001.001-.001.001-.002.002-.001.001-.003.003-.003.003-.003.003-.002.002-.002.002-.005.005-.001.001-.005.005-.001.001-.004.004-.002.001-.004.005-.001.001-.004.004-.001.001-.005.004-.001.002-.004.004-.002.002-.004.003-.002.003-.003.003-.003.002-.003.003-.002.002-.004.004-.002.002-.003.003-.003.003-.002.002-.004.004-.002.002-.005.004-.001.002-.003.002-.001.001-.005.005-.001.002-.005.004-.001.001-.006.006h-.001l-.003.003v.001l-.006.005-.001.001-.005.005-.001.001c-.217.205-.448.392-.691.558l-.025.018-.007.005-.018.012h-.001l-.006.004-.001.001-.007.004v.001l-.011.007-.006.004v.001l-.006.004h-.001l-.01.007-.001.001-.005.004-.001.001-.006.003-.001.001-.01.007-.001.001-.005.004-.001.001-.006.003-.001.001-.005.004-.001.001-.003.002-.002.001-.004.003-.002.001-.005.003-.002.002-.004.002-.003.002-.003.002-.002.002-.004.002-.002.002-.004.003-.002.001-.004.003-.003.002-.003.001-.004.003-.003.002-.002.001-.004.003-.003.002-.003.002-.003.002-.002.002-.004.002-.003.002-.003.002-.004.002-.002.002-.003.002-.003.002-.002.001-.004.003-.002.002-.004.002-.003.002-.003.002-.003.002-.003.002-.002.001-.004.003-.002.002-.004.002-.002.002-.003.002-.003.002-.003.002-.002.001-.004.003-.002.001-.004.003-.002.001-.003.002-.003.002-.003.002-.002.002-.004.002-.002.002-.004.002-.002.002-.003.002-.003.002-.003.002-.003.001-.004.003-.002.001-.004.003-.002.001-.004.003-.003.001-.003.002-.003.002-.004.002-.002.001-.005.003-.002.002-.005.002-.002.001-.004.003-.002.001-.004.002-.002.002-.004.002-.002.002-.004.002-.002.001-.003.003-.003.001-.004.002-.002.002-.005.002-.002.002-.004.002-.002.001-.004.003-.003.001-.004.002-.002.001-.004.003-.002.001-.005.003-.002.001-.004.002-.002.002-.004.002-.002.001-.004.003-.002.001-.005.003-.002.001-.005.002-.002.001-.004.003-.003.001-.004.002-.002.002-.004.002-.002.001-.004.003-.003.001-.003.002-.003.002-.003.001-.002.002-.004.002-.003.002-.004.002-.003.001-.003.002-.004.002-.003.002-.003.001-.004.002-.003.002-.004.002-.003.002-.002.001-.004.002-.002.002-.004.002-.003.001-.003.002-.004.002-.003.002-.003.001-.004.002-.002.002-.004.002-.002.001-.003.002-.004.002-.003.001-.002.002-.005.002-.002.001-.005.003-.002.001-.011.005-.001.001-.006.003-.001.001-.006.003h-.001l-.018.01h-.001l-.007.003-.019.01-.031.015.426.904c.69-.324 1.315-.767 1.859-1.312l.041-.041-.736-.721zm3.535-3.536l-1.414 1.414.707.707 1.414-1.414-.707-.707zm3.536-3.536l-1.414 1.415.707.707 1.414-1.415-.707-.707zm2.558-4.162l-.08.443-.001.003v.005l-.001.003-.001.004v.001l-.001.003v.001l-.001.003v.001l-.001.003v.001l-.001.002v.004l-.001.002v.002l-.001.002v.002l-.001.003v.001l-.001.003v.001l-.001.003v.001l-.001.003v.001c-.058.247-.132.491-.223.73l-.001.001-.001.003-.001.003-.001.002-.001.002v.002l-.001.002-.001.001-.001.003v.001l-.001.002-.001.002-.001.002v.002l-.001.002-.001.001-.001.003v.001l-.001.002-.001.002v.002l-.001.002-.001.002-.001.002v.002l-.001.002-.001.001-.001.003v.001l-.001.002-.001.002-.001.002v.002l-.001.002-.001.001-.001.003v.001l-.001.002-.001.002-.001.002v.001l-.001.003v.001l-.002.003v.001l-.001.002-.001.002-.001.002v.001l-.001.003v.001l-.002.003c-.077.191-.165.38-.265.563l.88.475c.376-.695.621-1.445.729-2.229l-.988-.14zm-.691-5.246l-.775.632.244.298.002.002.001.001v.001h.001l.001.002.003.003.004.004.001.001.003.003.001.001.003.003.001.001.003.003.002.002.002.002.001.002.003.003.002.002.002.002.002.002.002.002.003.003.001.002.002.002.002.002.003.003.001.001.002.003.005.006.001.001.007.009h.001l.008.01.008.01c.212.272.396.558.552.854l.004.007.006.01.002.003.003.006.001.001.001.003.001.001.003.005.001.001.001.003.001.002.002.003.001.002.002.002.002.004.001.002.001.002.001.003.002.004.002.002.001.003.001.002.002.004.001.002.002.003.001.002.002.004.001.001.002.004v.001l.003.005v.001l.003.004v.001l.002.005.001.001.002.005.003.005.006.01.005.011.125.274.921-.39c-.244-.577-.571-1.119-.971-1.609l-.256-.293zm-3.162-3.873l-.775.632 1.266 1.549.774-.632-1.265-1.549zm-3.162-3.873l-.775.632 1.266 1.549.774-.632-1.265-1.549zm-4.694-3.019l-.144.99c.296.043.587.11.871.199l.019.006.003.001h.001l.014.004h.001l.003.001h.001l.003.001h.001l.009.003h.001l.002.001h.001l.003.001.01.003h.001l.002.001h.001l.002.001h.005l.005.002h.003l.002.001h.004l.002.001.002.001h.002l.003.001h.002l.002.001h.001l.003.001h.001l.002.001h.002l.004.001h.001l.002.001h.002l.002.001h.002l.002.001h.002l.004.001h.001l.003.001h.001l.003.001h.001l.003.001h.001l.004.001.004.001h.001l.003.001h.001l.003.001h.001l.003.001.004.001.004.001.003.001h.001l.003.001.009.003.004.001.004.001.013.005.004.001.013.005.004.001c.261.097.515.212.758.347l.482-.876c-.674-.36-1.422-.611-2.206-.726zM15.317 25c-.373 0-.737-.13-1.025-.365l-8.698-7.103c-.354-.289-.569-.717-.592-1.173-.023-.458.15-.907.474-1.231l9.651-9.651c.655-.653 1.821-.596 2.404.115l7.104 8.699c.526.649.478 1.583-.111 2.176l-8.057 8.057c-.309.307-.717.476-1.15.476zm-8.133-8.751l8.109 6.621 7.578-7.579-6.621-8.107-9.066 9.065z"/></symbol><symbol viewBox="0 0 30 30" id="icon_vip-wc"><title>vip-wc</title><path d="M5.936 22.998c-.545 0-1.033-.328-1.245-.838l-4.414-12.837 1.893-.649 3.761 10.944.345-1.026 1.896.64-.965 2.863c-.229.567-.718.9-1.265.903h-.006zM13.267 23c-.545 0-1.034-.329-1.246-.839l-4.414-12.836 1.893-.65 3.761 10.947 3.686-10.941 1.895.641-4.304 12.773c-.229.568-.717.901-1.265.903l-.006.002zM29.723 22.998h-1.943c-4.441 0-8.057-3.366-8.057-7.503 0-4.027 3.381-7.32 7.695-7.496l2.305-.001v2h-2.264c-3.197.132-5.736 2.546-5.736 5.497 0 3.033 2.717 5.503 6.057 5.503h1.943v2z"/></symbol><symbol viewBox="0 0 140 58" id="icon_wins-arrow"><title>wins-arrow</title><path d="M138.644 57.851l-19.568-19.851h-98.153l-19.567 19.851-.712-.702 19.861-20.149h98.989l19.862 20.149z"/><path fill-rule="evenodd" clip-rule="evenodd" d="M70 0h1v15h-1v-15z"/></symbol></svg>