<?xml version="1.0" standalone="no"?>
<!DOCTYPE svg PUBLIC "-//W3C//DTD SVG 1.1//EN" "http://www.w3.org/Graphics/SVG/1.1/DTD/svg11.dtd" >
<svg xmlns="http://www.w3.org/2000/svg">
<metadata></metadata>
<defs>
<font id="spsl_clarendoncbold" horiz-adv-x="1347" >
<font-face units-per-em="2048" ascent="1575" descent="-473" />
<missing-glyph horiz-adv-x="737" />
<glyph horiz-adv-x="0" />
<glyph horiz-adv-x="682" />
<glyph unicode=" "  horiz-adv-x="737" />
<glyph unicode="&#x09;" horiz-adv-x="737" />
<glyph unicode="&#xa0;" horiz-adv-x="737" />
<glyph unicode="!" horiz-adv-x="684" d="M137 1143q0 128 53.5 199t141.5 71q90 0 144 -71t54 -199q0 -55 -17.5 -128t-38.5 -140t-38.5 -188.5t-17.5 -262.5v-62h-168v62q0 141 -17.5 262.5t-39 188.5t-39 140t-17.5 128zM147 121q0 65 52.5 107t134.5 42q81 0 133.5 -42t52.5 -107t-51 -107.5t-135 -42.5 q-81 0 -134 42.5t-53 107.5z" />
<glyph unicode="&#x22;" horiz-adv-x="892" d="M174 938v477h197v-477h-197zM522 938v477h197v-477h-197z" />
<glyph unicode="#" horiz-adv-x="1933" d="M195 328l32 168h301l76 346h-305l33 168h307l66 325h243l-69 -325h319l70 325h239l-69 -325h301l-33 -168h-301l-76 -346h303l-30 -168h-308l-69 -328h-240l70 328h-320l-69 -328h-240l70 328h-301zM768 496h322l75 346h-321z" />
<glyph unicode="$" horiz-adv-x="1634" d="M250 428q0 69 40 114.5t116 45.5q65 0 105 -39.5t40 -89.5q0 -27 -17 -62.5t-45 -52.5q43 -43 144 -43v332q-191 48 -287 123t-96 207q0 139 99 225.5t284 105.5v121h186v-129q155 -20 259 -88t104 -170q0 -65 -40 -108t-108 -43q-63 0 -102 33.5t-39 84.5q0 37 14 62.5 t51 44.5q-64 39 -139 39v-324q71 -21 126 -43.5t107 -54t86.5 -67.5t55 -85.5t20.5 -107.5q0 -143 -104.5 -228t-290.5 -100v-168h-186v168q-79 11 -146 34.5t-121 59t-85 88t-31 115.5zM469 1008q0 -50 47 -85t117 -55v273q-67 -7 -115.5 -42.5t-48.5 -90.5zM819 301 q77 0 127.5 34.5t50.5 106.5q0 54 -47 86t-131 56v-283z" />
<glyph unicode="%" horiz-adv-x="2170" d="M193 1034q0 73 22.5 139.5t64 118.5t107 82.5t145.5 30.5q108 0 209 -76q178 -94 387 -94q227 0 342 127l39 43h222l-1113 -1405h-231l907 1135q-91 -31 -202 -31q-140 0 -234 47q14 -54 14 -117q0 -97 -38 -180t-117 -136.5t-185 -53.5q-80 0 -145.5 31t-107 83t-64 118 t-22.5 138zM434 1034q0 -143 21.5 -197.5t76.5 -54.5q56 0 77.5 55t21.5 197q0 144 -21.5 198t-77.5 54t-77 -54t-21 -198zM1227 344q0 72 23 138t65 118.5t108 83.5t146 31q106 0 185 -54t117 -136.5t38 -180.5q0 -153 -91 -261t-249 -108q-157 0 -249.5 108t-92.5 261z M1468 344q0 -143 22.5 -196.5t78.5 -53.5t77 53t21 197q0 143 -21.5 197.5t-76.5 54.5q-56 0 -78.5 -55.5t-22.5 -196.5z" />
<glyph unicode="&#x26;" horiz-adv-x="1857" d="M90 371q0 245 359 422q-82 113 -82 270q0 135 90.5 226t247.5 91q152 0 236.5 -79t84.5 -191q0 -59 -17 -107t-54 -89t-81.5 -74t-113.5 -74q70 -109 166 -214t188 -171q41 42 65.5 105t24.5 122q0 26 -16 38.5t-35 12.5h-113v175h578v-175h-74q-58 0 -78 -16t-36 -68 q-53 -170 -166 -309q49 -42 104 -64t88 -22q111 0 111 199v88h162v-92q0 -201 -69.5 -302.5t-238.5 -101.5q-85 0 -174.5 36t-163.5 89q-201 -133 -436 -133q-264 0 -410.5 109t-146.5 299zM412 397q0 -118 71 -186t166 -68q79 0 154.5 18.5t118.5 49.5q-122 104 -216.5 202 t-177.5 218q-69 -53 -92.5 -104t-23.5 -130zM629 1087q0 -100 47 -182q66 37 94.5 85t28.5 116q0 54 -23.5 83.5t-56.5 29.5q-41 0 -65.5 -34.5t-24.5 -97.5z" />
<glyph unicode="'" horiz-adv-x="346" d="M59 938v477h228v-477h-228z" />
<glyph unicode="(" horiz-adv-x="796" d="M104 471q0 65 9 138.5t36.5 177.5t70.5 204t119 213.5t175 210.5h268q-325 -425 -325 -944t325 -944h-268q-99 97 -175 210.5t-119 213.5t-70.5 204t-36.5 177.5t-9 138.5z" />
<glyph unicode=")" horiz-adv-x="796" d="M14 -473q326 427 326 944t-326 944h269q99 -97 175 -210.5t119 -213.5t70 -204t36 -177.5t9 -138.5t-9 -138.5t-36 -177.5t-70 -204t-119 -213.5t-175 -210.5h-269z" />
<glyph unicode="*" horiz-adv-x="1208" d="M184 1049q0 56 41.5 103.5t100.5 47.5q42 0 72 -14.5t48.5 -37t33 -46t35 -46t46.5 -32.5l8 -2q-1 35 -17 67.5t-35 53.5t-34.5 54t-15.5 69q0 26 14 56t49.5 55.5t83.5 25.5q56 0 102 -38t46 -99q0 -35 -10.5 -63t-25.5 -48t-30 -38.5t-25.5 -42.5t-11.5 -52l13 4 q33 13 59 44t41 58.5t46.5 49.5t76.5 22q52 0 100.5 -40.5t48.5 -112.5q0 -56 -39.5 -99t-103.5 -43q-36 0 -88 19.5t-78 19.5q-14 0 -45 -8l8 -10q19 -23 52 -38t64 -24t60 -23.5t46.5 -45t17.5 -78.5q0 -57 -43.5 -102.5t-110.5 -45.5q-63 0 -101 52t-38 112v27v27.5 t-1.5 22.5t-5 25.5t-9.5 22t-15 25.5q-8 -11 -14 -22t-9.5 -24t-6 -20.5t-3.5 -23t-1 -20v-23v-21.5q0 -25 -5.5 -49t-19 -51t-43 -43.5t-72.5 -16.5q-56 0 -103.5 45t-47.5 107q0 45 19.5 75.5t50.5 45.5t63 25.5t64 24.5t46 32l9 12q-27 8 -52 8q-30 0 -85 -19.5 t-87 -19.5q-53 0 -93 45t-40 99z" />
<glyph unicode="+" horiz-adv-x="1536" d="M70 547v180h573v514h250v-514h573v-180h-573v-514h-250v514h-573z" />
<glyph unicode="," horiz-adv-x="512" d="M70 127q0 61 54.5 103t131.5 42q88 0 137 -58t49 -128q0 -188 -256 -399l-77 80q70 56 127 128.5t57 104.5q-31 -16 -80 -16q-61 0 -102 37.5t-41 105.5z" />
<glyph unicode="-" horiz-adv-x="813" d="M141 434v160h531v-160h-531z" />
<glyph unicode="." horiz-adv-x="512" d="M61 123q0 65 52.5 107t134.5 42q81 0 133.5 -42t52.5 -107t-51 -107.5t-135 -42.5q-81 0 -134 42.5t-53 107.5z" />
<glyph unicode="/" horiz-adv-x="1167" d="M-43 -94l1022 1472h238l-1024 -1472h-236z" />
<glyph unicode="0" d="M96 688q0 360 154 538.5t424 178.5t423.5 -178.5t153.5 -538.5q0 -358 -154 -539.5t-423 -181.5t-423.5 181.5t-154.5 539.5zM434 688q0 -214 25.5 -337t76.5 -173.5t138 -50.5t137.5 50.5t76 173.5t25.5 337q0 223 -25.5 344.5t-75 167t-138.5 45.5t-139 -45.5 t-75.5 -167t-25.5 -344.5z" />
<glyph unicode="1" d="M266 0v172h199q40 0 55 22.5t15 65.5v811h-269v162h183q64 0 114 45.5t58 107.5h235v-1124q0 -31 3.5 -48t18 -29.5t42.5 -12.5h180v-172h-834z" />
<glyph unicode="2" d="M68 0v63q0 96 27.5 176t74 137t106.5 105.5t126.5 85.5t133 72t126.5 71t106.5 76t74 93.5t27.5 117.5q0 124 -78.5 186t-195.5 62q-166 0 -262 -121q65 0 111.5 -41.5t46.5 -113.5q0 -54 -51.5 -108t-141.5 -54q-92 0 -148.5 59.5t-56.5 147.5q0 106 71 196t197.5 142.5 t280.5 52.5q104 0 202.5 -25t182.5 -74.5t135 -133t51 -189.5q0 -76 -26.5 -138.5t-72 -106.5t-105.5 -80t-129.5 -63.5t-140.5 -52.5t-141 -52t-129.5 -56.5t-108 -71.5t-74.5 -92q114 58 219 58q70 0 135.5 -16t107.5 -35.5t96.5 -35.5t104.5 -16q119 0 119 238v16h172 v-22q0 -103 -15 -183t-50 -148.5t-102 -106t-163 -37.5q-69 0 -130 16t-106.5 38.5t-89 45.5t-97 39t-111.5 16q-59 0 -96 -34t-37 -103h-176z" />
<glyph unicode="3" horiz-adv-x="1329" d="M94 360q0 80 57.5 132.5t153.5 52.5q73 0 122.5 -41t49.5 -96q0 -77 -35.5 -121t-119.5 -51q36 -40 104 -74.5t164 -34.5q146 0 210 62.5t64 207.5q0 59 -28.5 105.5t-73 72.5t-91.5 39t-91 13h-45v157h45q34 0 60 2.5t65.5 15.5t65.5 35.5t45.5 68t19.5 108.5 q0 109 -63.5 170t-164.5 61q-139 0 -198 -78q35 -19 53.5 -32.5t32.5 -41t14 -67.5q0 -67 -48 -107t-134 -40t-136.5 49.5t-50.5 120.5q0 97 68 179t185 129.5t255 47.5q129 0 233.5 -33t168 -88t97.5 -122t34 -138q0 -112 -76.5 -196.5t-204.5 -118.5q138 -34 222.5 -121.5 t84.5 -200.5q0 -79 -33.5 -152.5t-98 -134t-171 -97t-239.5 -36.5q-155 0 -284 46.5t-208.5 137.5t-79.5 209z" />
<glyph unicode="4" horiz-adv-x="1308" d="M0 397v172l780 822h224v-822h227v-172h-227v-188q0 -21 8 -29t30 -8h150v-172h-719v172h184q12 0 23.5 9.5t11.5 27.5v188h-692zM236 569h464v500z" />
<glyph unicode="5" horiz-adv-x="1300" d="M94 305q0 47 16 82.5t38 53t51 28t47 12.5t35 2q75 0 127.5 -42.5t52.5 -102.5q0 -118 -111 -156q42 -30 90 -42.5t146 -12.5q131 0 213 84.5t82 237.5q0 132 -84.5 214t-208.5 82q-168 0 -289 -118l-143 22l37 756q31 -6 92.5 -18t81 -16t63 -11.5t64 -9.5t56 -5.5 t66.5 -4.5t70 -1q80 0 135 3t146.5 17.5t189.5 43.5q-19 -99 -42 -141t-73 -68q-62 -32 -171.5 -52t-206.5 -20q-174 0 -314 41l-22 -360q63 47 146.5 74.5t172.5 27.5q133 0 238 -33t166 -82t100.5 -112.5t53.5 -117.5t14 -105q0 -96 -44 -185t-120 -156t-186.5 -107 t-235.5 -40q-136 0 -257.5 39.5t-201.5 118.5t-80 180z" />
<glyph unicode="6" d="M84 639q0 72 8.5 142.5t29.5 148t54 144.5t86 129t120.5 106t163 70t208.5 26q79 0 159.5 -22t146 -59.5t107 -95t41.5 -122.5q0 -68 -40 -118t-107 -50q-87 0 -142 42.5t-55 109.5q0 89 78 122q-50 37 -172 37q-72 0 -131 -26.5t-99 -72t-67.5 -108.5t-41.5 -133.5 t-17 -150.5q136 102 325 102q69 0 138 -13.5t137.5 -45t121 -78.5t85 -119.5t32.5 -161.5q0 -117 -48 -209.5t-128.5 -149.5t-181 -86.5t-211.5 -29.5q-126 0 -234 43t-190 125t-129 211.5t-47 292.5zM424 414q0 -129 72 -208t182 -79q123 0 183.5 73t60.5 226 q0 131 -64 203.5t-182 72.5q-121 0 -186.5 -85.5t-65.5 -202.5z" />
<glyph unicode="7" horiz-adv-x="1267" d="M102 815v563h168v-123q32 71 101 103.5t135 32.5q61 0 126.5 -15t112.5 -32.5t104 -32.5t103 -15q50 0 72 17.5t33 64.5h139v-41q0 -116 -82 -282t-221 -348q-281 -364 -281 -654v-53h-352v53q0 128 62 256.5t172 278.5q51 71 157.5 178.5t201.5 207.5t134 169 q-30 -15 -79 -33t-68 -18q-95 0 -168 16.5t-122.5 32.5t-86.5 16q-75 0 -134 -64.5t-59 -187.5v-90h-168z" />
<glyph unicode="8" d="M98 350q0 60 18.5 111.5t45.5 88t70 69.5t80 54t87 44q-126 67 -179.5 145t-53.5 174q0 164 140.5 266.5t379.5 102.5q231 0 359.5 -97t128.5 -231q0 -211 -254 -332q323 -143 323 -352q0 -53 -10.5 -100.5t-35 -97t-69.5 -89.5t-108 -72t-158 -49.5t-213 -17.5 q-247 0 -399 104.5t-152 278.5zM420 346q0 -40 15 -77t45 -69.5t84.5 -52.5t125.5 -20q112 0 171 59t59 138q0 97 -80 164t-244 126q-100 -68 -138 -125.5t-38 -142.5zM479 1090q0 -163 260 -252q51 26 89 91t38 126q0 92 -51 146t-143 54q-86 0 -139.5 -43.5t-53.5 -121.5z " />
<glyph unicode="9" d="M88 952q0 110 44.5 198t120.5 142.5t172.5 83.5t205.5 29q125 0 233 -38t194 -112.5t135.5 -197.5t49.5 -281v-31q0 -82 -8 -158t-29 -155.5t-53.5 -146.5t-84 -126.5t-117.5 -101.5t-157.5 -66t-201.5 -24q-125 0 -228.5 39.5t-165 112t-61.5 164.5q0 75 57.5 129.5 t143.5 54.5q91 0 144 -43.5t53 -99.5q0 -137 -129 -152q58 -45 174 -45q115 0 191.5 70t109 183.5t32.5 266.5q-59 -54 -143.5 -85.5t-181.5 -31.5q-73 0 -141.5 13.5t-134.5 45t-115 78.5t-79 120.5t-30 164.5zM420 952q0 -108 68.5 -186t164.5 -78q127 0 188.5 64 t61.5 215q0 139 -71 208.5t-189 69.5q-99 0 -161 -77.5t-62 -215.5z" />
<glyph unicode=":" horiz-adv-x="512" d="M70 123q0 65 52.5 107t133.5 42t133.5 -42t52.5 -107t-51 -107.5t-135 -42.5q-81 0 -133.5 42.5t-52.5 107.5zM70 778q0 65 52.5 107.5t133.5 42.5t133.5 -42.5t52.5 -107.5t-51 -107t-135 -42q-81 0 -133.5 42t-52.5 107z" />
<glyph unicode=";" horiz-adv-x="512" d="M70 127q0 61 54.5 103t131.5 42q88 0 137 -58t49 -128q0 -188 -256 -399l-77 80q70 56 127 128.5t57 104.5q-31 -16 -80 -16q-61 0 -102 37.5t-41 105.5zM70 778q0 65 52.5 107.5t133.5 42.5t133.5 -42.5t52.5 -107.5t-51 -107t-135 -42q-81 0 -133.5 42t-52.5 107z" />
<glyph unicode="&#x3c;" d="M61 586v102l1215 442v-192l-842 -301l842 -301v-193z" />
<glyph unicode="=" horiz-adv-x="1368" d="M78 403v172h1214v-172h-1214zM78 705v172h1214v-172h-1214z" />
<glyph unicode="&#x3e;" d="M72 143v193l841 301l-841 301v192l1214 -442v-102z" />
<glyph unicode="?" horiz-adv-x="1222" d="M158 1071q0 58 37 119.5t97.5 111t147 81.5t176.5 32q109 0 196.5 -21.5t143.5 -57t93.5 -82.5t53 -95.5t15.5 -99.5q0 -74 -26.5 -131.5t-68.5 -94t-92.5 -67t-101.5 -61.5t-93 -67t-68.5 -93t-26.5 -131v-39h-141q-27 91 -27 157q0 64 22.5 118t55.5 88.5t72.5 72 t72.5 71t55.5 84t22.5 111.5q0 93 -51.5 135.5t-157.5 42.5q-123 0 -192 -73q116 -24 116 -144q0 -55 -45 -94t-118 -39q-69 0 -118.5 48.5t-49.5 117.5zM424 123q0 65 52.5 107t133.5 42q82 0 134.5 -42t52.5 -107t-51.5 -107.5t-135.5 -42.5q-81 0 -133.5 42.5 t-52.5 107.5z" />
<glyph unicode="@" horiz-adv-x="2240" d="M96 715q0 134 42.5 268t130 256t209.5 216t293 150t368 56q209 0 392.5 -62t313.5 -170.5t204.5 -260.5t74.5 -326q0 -95 -21.5 -185.5t-66.5 -171t-108 -141t-151.5 -96t-191.5 -35.5q-109 0 -167.5 26t-112.5 93q-138 -99 -314 -99q-128 0 -227 52t-150 136t-51 183 q0 106 32 197t84.5 154t116.5 111.5t132.5 76t127.5 41.5t105 14q215 0 318 -117l30 70l283 -72l-172 -497q-29 -86 -29 -160q0 -55 51 -55q116 0 204.5 125.5t88.5 341.5q0 105 -28 199t-90 176t-153 141t-224.5 93t-296.5 34q-153 0 -283.5 -42t-224 -115t-159.5 -170 t-98 -208t-32 -229q0 -360 212.5 -564t592.5 -204q370 0 606 190l103 -129q-160 -113 -355.5 -173t-347.5 -60q-246 0 -447 70t-335 195t-206.5 298t-72.5 379zM901 612q0 -111 32.5 -165t106.5 -54t138.5 37t99.5 78l133 414q-10 57 -60.5 88.5t-115.5 31.5q-58 0 -117 -31 t-107.5 -85t-79 -137t-30.5 -177z" />
<glyph unicode="A" horiz-adv-x="1673" d="M16 0v182h35q81 0 142 125l522 1071h282l478 -1032q40 -86 66.5 -125t51.5 -39h39v-182h-618v182h133q29 0 29 37q0 17 -19 55l-72 158h-624l-74 -158q-14 -28 -14 -45q0 -20 14 -33.5t27 -13.5h164v-182h-562zM545 608h465l-224 504z" />
<glyph unicode="B" horiz-adv-x="1632" d="M96 0v182h123q88 0 88 80v854q0 80 -88 80h-123v182h834q152 0 264 -29t175 -81t92.5 -115t29.5 -139q0 -173 -215 -285q283 -78 283 -336q0 -103 -43 -179t-124.5 -122.5t-191 -69t-250.5 -22.5h-854zM651 182h279q139 0 208.5 58t69.5 166q0 109 -77.5 163t-200.5 54 h-279v-441zM651 799h269q227 0 227 217q0 99 -61.5 139.5t-186.5 40.5h-248v-397z" />
<glyph unicode="C" horiz-adv-x="1617" d="M96 690q0 155 55 289t153.5 230.5t240.5 151t309 54.5q247 0 424 -174l20 139h168v-544h-188q-5 85 -32.5 153.5t-69 113t-96 74.5t-111 43t-115.5 13q-201 0 -300 -144t-99 -399q0 -89 12 -166t41.5 -148t74 -121t114 -80t157.5 -30q92 0 165 24t118.5 61.5t77 89 t45 100t18.5 100.5h188q-5 -117 -45.5 -216.5t-114 -176.5t-189.5 -120.5t-263 -43.5q-150 0 -275 39t-213.5 107t-150 160.5t-90.5 198.5t-29 222z" />
<glyph unicode="D" horiz-adv-x="1726" d="M96 0v182h123q88 0 88 80v854q0 80 -88 80h-123v182h758q368 0 574 -177.5t206 -487.5q0 -208 -89 -370t-254 -252.5t-380 -90.5h-815zM651 182h236q93 0 162 24.5t112 67.5t69 111t36 145t10 179q0 119 -25 208.5t-64 141.5t-94.5 84t-107 42.5t-111.5 10.5h-223v-1014z " />
<glyph unicode="E" horiz-adv-x="1699" d="M96 0v182h123q88 0 88 80v854q0 80 -88 80h-123v182h1442v-563h-188v152q0 108 -55.5 168.5t-170.5 60.5h-473v-397h148q67 0 85.5 17t18.5 89v92h189v-579h-189v96q0 71 -18 86.5t-84 15.5h-150v-434h377q69 0 114.5 4t84 16.5t60.5 31.5t37 52.5t20.5 76.5t5.5 106v109 h188v-578h-1442z" />
<glyph unicode="F" horiz-adv-x="1576" d="M96 0v182h123q88 0 88 80v854q0 80 -88 80h-123v182h1420v-563h-189v152q0 108 -55 168.5t-170 60.5h-451v-397h148q67 0 85.5 17t18.5 89v92h189v-579h-189v96q0 71 -18 86.5t-84 15.5h-150v-354q0 -80 88 -80h123v-182h-766z" />
<glyph unicode="G" horiz-adv-x="1734" d="M94 690q0 155 55.5 289.5t154 230t241 150.5t309.5 55q121 0 232 -47.5t192 -126.5l20 139h168v-544h-188q-6 108 -42.5 187.5t-95.5 124t-126.5 65t-145.5 20.5q-202 0 -308.5 -145.5t-106.5 -397.5q0 -88 12.5 -165.5t42 -148.5t74.5 -121t114.5 -80t157.5 -30 q75 0 135.5 14.5t109.5 46t76 87t27 131.5q0 67 -19 85.5t-91 18.5h-134v185h725v-185h-122q-41 0 -54.5 -17.5t-13.5 -59.5v-451h-223l-35 106q-57 -56 -172.5 -99.5t-208.5 -43.5q-150 0 -276 39t-214 107t-150 160.5t-91 198.5t-29 222z" />
<glyph unicode="H" horiz-adv-x="1916" d="M96 0v182h123q88 0 88 80v854q0 80 -88 80h-123v182h766v-182h-123q-88 0 -88 -80v-317h615v317q0 80 -88 80h-123v182h766v-182h-123q-88 0 -88 -80v-854q0 -80 88 -80h123v-182h-766v182h123q88 0 88 80v361h-615v-361q0 -80 88 -80h123v-182h-766z" />
<glyph unicode="I" horiz-adv-x="958" d="M96 0v182h123q88 0 88 80v854q0 80 -88 80h-123v182h766v-182h-123q-88 0 -88 -80v-854q0 -80 88 -80h123v-182h-766z" />
<glyph unicode="J" horiz-adv-x="1228" d="M25 285q0 87 57 142.5t141 55.5q100 0 151.5 -48.5t51.5 -119.5q0 -55 -23 -96t-73 -55q40 -19 108 -19q84 0 124 55t40 144v772q0 41 -20 60.5t-64 19.5h-145v182h784v-182h-123q-88 0 -88 -80v-731q0 -201 -136 -311.5t-370 -110.5q-180 0 -297.5 88.5t-117.5 233.5z " />
<glyph unicode="K" horiz-adv-x="1804" d="M96 0v182h123q88 0 88 80v854q0 80 -88 80h-123v182h766v-182h-123q-88 0 -88 -80v-407l486 413q28 22 28 47q0 27 -32 27h-146v182h707v-182h-90q-43 0 -94 -14t-87 -45l-368 -308l542 -561q49 -51 77.5 -68.5t68.5 -17.5h43v-182h-766v182h154q38 0 38 29q0 20 -24 47 l-363 391l-174 -149v-238q0 -80 88 -80h123v-182h-766z" />
<glyph unicode="L" horiz-adv-x="1511" d="M94 0v182h123q88 0 88 80v854q0 80 -88 80h-123v182h766v-182h-123q-88 0 -88 -80v-934h297q69 0 114.5 4t84 16.5t60.5 31.5t37 52.5t20.5 76.5t5.5 106v109h188v-578h-1362z" />
<glyph unicode="M" horiz-adv-x="2154" d="M94 0v182h121q46 0 78.5 21.5t32.5 58.5v854q0 39 -31 59.5t-78 20.5h-123v182h606l392 -954l372 954h604v-182h-122q-88 0 -88 -80v-854q0 -80 88 -80h122v-182h-765v182h122q88 0 88 80v762h-6l-401 -1024h-180l-406 1024h-6v-762q0 -80 92 -80h105v-182h-617z" />
<glyph unicode="N" horiz-adv-x="1863" d="M90 0v182h127q46 0 76.5 21.5t30.5 58.5v854q0 40 -29 60t-76 20h-129v182h549l743 -932v670q0 80 -96 80h-143v182h655v-182h-123q-46 0 -75 -21t-29 -59v-1116h-244l-815 1022v-760q0 -80 90 -80h123v-182h-635z" />
<glyph unicode="O" horiz-adv-x="1708" d="M94 690q0 208 96.5 373.5t270 258.5t393.5 93q350 0 555 -197.5t205 -527.5q0 -158 -54.5 -293t-152.5 -230.5t-240.5 -149.5t-312.5 -54q-150 0 -276 39t-214 107t-150 160.5t-91 198.5t-29 222zM453 690q0 -88 12.5 -165.5t42 -148.5t74.5 -121t114.5 -80t157.5 -30 q89 0 158.5 30t114.5 80.5t74.5 121.5t41.5 148t12 165q0 128 -20.5 224t-66 169.5t-124.5 111.5t-190 38q-201 0 -301 -144t-100 -399z" />
<glyph unicode="P" horiz-adv-x="1548" d="M96 0v182h123q88 0 88 80v854q0 80 -88 80h-123v182h862q265 0 394 -101t129 -273q0 -86 -30 -156.5t-91.5 -125.5t-164 -85.5t-237.5 -30.5h-307v-344q0 -80 88 -80h123v-182h-766zM651 788h238q123 0 182 53t59 163q0 91 -59 141.5t-170 50.5h-250v-408z" />
<glyph unicode="Q" horiz-adv-x="1779" d="M98 686q0 209 96 375t269 260t393 94q345 0 551.5 -199t206.5 -530q0 -183 -69.5 -320t-215.5 -260q37 -48 69.5 -65.5t69.5 -17.5q46 0 76.5 44t30.5 132v59h182v-94q0 -77 -18.5 -143.5t-56 -121.5t-102.5 -86.5t-150 -31.5q-122 0 -200 50.5t-155 160.5 q-149 -33 -219 -33q-144 0 -267.5 39t-212.5 107.5t-152.5 160t-94.5 198.5t-31 222zM455 686q0 -272 116 -418q0 102 69.5 170t174.5 68q91 0 175 -48.5t173 -152.5q45 60 69.5 165t24.5 216q0 129 -20.5 225.5t-66 170.5t-124.5 112.5t-190 38.5q-201 0 -301 -145.5 t-100 -401.5zM705 246q0 -47 40 -76t111 -29q42 0 125 19q-52 86 -91 122.5t-99 36.5q-38 0 -62 -18.5t-24 -54.5z" />
<glyph unicode="R" horiz-adv-x="1710" d="M96 0v182h123q88 0 88 80v854q0 80 -88 80h-123v182h828q290 0 425.5 -101t135.5 -280q0 -46 -16 -91.5t-48.5 -89.5t-91.5 -80t-137 -54q118 -42 172.5 -128.5t54.5 -223.5v-115q0 -55 41 -55q12 0 22.5 12t10.5 33v203h166v-232q0 -87 -72.5 -146t-191.5 -59 q-148 0 -232 79.5t-84 195.5v102q0 58 -7 101.5t-24 80.5t-50.5 56.5t-82.5 19.5h-264v-344q0 -80 88 -80h123v-182h-766zM651 786h248q236 0 236 220q0 95 -60 142.5t-201 47.5h-223v-410z" />
<glyph unicode="S" horiz-adv-x="1433" d="M115 985q0 192 145 311t377 119q123 0 241.5 -45t202.5 -119l27 127h162v-485h-189q0 97 -65 178t-157 122.5t-183 41.5q-107 0 -172.5 -49.5t-65.5 -151.5q0 -36 16 -64.5t39.5 -46.5t65.5 -33t79 -23.5t95 -18.5q62 -11 100.5 -18t97 -20t95.5 -25.5t85.5 -33t79 -42.5 t63.5 -54t51.5 -68t30.5 -83.5t12 -102.5q0 -132 -73 -232.5t-197.5 -153t-280.5 -52.5q-131 0 -254.5 47.5t-218.5 134.5l-25 -145h-164v532h189v-36q0 -61 37 -124t97.5 -113t145 -82t172.5 -32q51 0 100.5 11.5t93 34.5t70.5 63t27 92q0 46 -25 80.5t-79 59.5t-122.5 43 t-172.5 36q-63 11 -113.5 22t-110 29.5t-104.5 40.5t-89 54t-72.5 70.5t-46 90.5t-17.5 113z" />
<glyph unicode="T" horiz-adv-x="1556" d="M55 815v563h1446v-563h-188v152q0 108 -55.5 168.5t-170.5 60.5h-137v-934q0 -80 88 -80h123v-182h-766v182h123q88 0 88 80v934h-137q-115 0 -170 -60.5t-55 -168.5v-152h-189z" />
<glyph unicode="U" horiz-adv-x="1777" d="M78 1196v182h766v-182h-123q-88 0 -88 -80v-661q0 -140 77.5 -224t237.5 -84q159 0 254.5 83t95.5 253v633q0 80 -88 80h-123v182h611v-182h-123q-88 0 -88 -80v-598q0 -96 -19.5 -176t-51.5 -136.5t-78.5 -100t-96.5 -70t-108.5 -43.5t-111.5 -23t-110 -6 q-288 0 -455 134.5t-167 385.5v633q0 80 -88 80h-123z" />
<glyph unicode="V" horiz-adv-x="1519" d="M0 1196v182h608v-182h-67q-52 0 -52 -41q0 -22 17 -61l319 -756l326 768q16 40 16 55q0 35 -45 35h-155v182h567v-182h-47q-47 0 -79.5 -22t-64.5 -95l-469 -1079h-249l-465 1069q-34 77 -55.5 102t-55.5 25h-49z" />
<glyph unicode="W" horiz-adv-x="2144" d="M0 1196v182h598v-182h-94q-16 0 -27.5 -8.5t-11.5 -24.5q0 -30 22 -94l215 -661l236 679q14 41 14 70q0 39 -34 39h-121v182h655v-182h-96q-25 0 -25 -35q0 -22 17 -71l239 -682l217 704q8 21 8 43q0 41 -47 41h-116v182h499v-182h-57q-75 0 -111 -111l-331 -1085h-236 l-338 944l-313 -944h-240l-381 1100q-22 60 -37 78t-43 18h-61z" />
<glyph unicode="X" horiz-adv-x="1804" d="M51 0v182h64q48 0 101.5 18.5t82.5 47.5l438 442l-436 438q-36 36 -73 52t-91 16h-47v182h756v-182h-129q-29 0 -29 -22q0 -19 14 -33l252 -262l250 264q15 15 15 31q0 22 -31 22h-131v182h643v-182h-74q-124 0 -194 -70l-361 -370l479 -500q45 -47 75 -60.5t79 -13.5h57 v-182h-776v182h133q20 0 30.5 9.5t10.5 25.5q0 20 -18 41l-285 311l-295 -311q-18 -18 -18 -39q0 -15 11.5 -26t29.5 -11h143v-182h-676z" />
<glyph unicode="Y" horiz-adv-x="1406" d="M-4 1196v182h676v-182h-131q-9 0 -16 -6t-7 -16q0 -19 14 -39l250 -330l209 330q15 21 15 39q0 22 -21 22h-137v182h577v-182h-79q-23 0 -36.5 -1.5t-32 -7.5t-34.5 -20.5t-31 -38.5l-331 -499v-367q0 -80 88 -80h123v-182h-762v182h123q88 0 88 80v367l-369 473 q-48 64 -70 79t-69 15h-37z" />
<glyph unicode="Z" horiz-adv-x="1548" d="M111 0v182l931 1014h-497q-115 0 -170.5 -60.5t-55.5 -168.5v-152h-188v563h1288v-182l-909 -1014h422q69 0 114.5 4t84 16.5t60 31.5t36.5 52.5t20.5 76.5t5.5 106v109h189v-578h-1331z" />
<glyph unicode="[" horiz-adv-x="815" d="M113 -395v1773h589v-182h-245v-1409h245v-182h-589z" />
<glyph unicode="\" horiz-adv-x="1163" d="M55 1329l185 64l868 -1745l-188 -62z" />
<glyph unicode="]" horiz-adv-x="815" d="M113 -213h243v1409h-243v182h587v-1773h-587v182z" />
<glyph unicode="^" horiz-adv-x="950" d="M-72 1018l547 426l547 -426h-346l-201 158l-201 -158h-346z" />
<glyph unicode="_" horiz-adv-x="1351" d="M-53 -276h1458v-160h-1458v160z" />
<glyph unicode="`" horiz-adv-x="665" d="M152 1325q0 38 25 64t69 26q30 0 59 -16.5t44.5 -33.5t41.5 -50t35 -43l207 -234l-39 -41l-262 166q-13 8 -44.5 25.5t-50 29t-41 29t-33.5 37t-11 41.5z" />
<glyph unicode="a" horiz-adv-x="1255" d="M86 225q0 68 26.5 118.5t78 83t115 52.5t151.5 33q54 8 84 13t72.5 17.5t64.5 28t38.5 42t16.5 61.5q0 55 -31.5 92.5t-77 53.5t-100.5 16q-116 0 -182 -41q78 -37 78 -101q0 -52 -36 -90.5t-101 -38.5q-67 0 -109.5 42t-42.5 100q0 78 62.5 139t160.5 92t211 31 q125 0 226.5 -35t165 -107.5t63.5 -171.5v-487q0 -17 8.5 -29t20.5 -12q32 0 32 41v158h133v-158q0 -98 -62 -149.5t-167 -51.5q-83 0 -138.5 39.5t-80.5 104.5q-118 -144 -350 -144q-148 0 -239 66.5t-91 191.5zM401 236q0 -50 33 -79.5t90 -29.5q98 0 153.5 60t55.5 153 v131q-11 -12 -32.5 -22.5t-38 -16.5t-53.5 -17.5t-50 -15.5q-74 -24 -116 -60t-42 -103z" />
<glyph unicode="b" horiz-adv-x="1257" d="M-8 1245v160h444v-467q0 -48 -6 -92h6q55 58 130.5 90.5t154.5 32.5q208 0 332.5 -140.5t124.5 -351.5q0 -109 -28.5 -201t-84 -161.5t-144 -108.5t-200.5 -39q-93 0 -182 44.5t-138 117.5l-67 -129h-193v1159q0 53 -16 69.5t-51 16.5h-82zM424 477q4 -94 24.5 -164 t53 -109.5t69.5 -58t80 -18.5q75 0 123.5 48.5t68 124t19.5 177.5q0 92 -19.5 164.5t-65 120t-113.5 47.5q-102 0 -166.5 -88.5t-73.5 -243.5z" />
<glyph unicode="c" horiz-adv-x="1138" d="M80 469q0 219 142 359.5t380 140.5q112 0 215 -43.5t167.5 -119t64.5 -161.5q0 -65 -40.5 -110.5t-109.5 -45.5q-71 0 -114.5 36t-43.5 87q0 92 97 131q-28 35 -67.5 50.5t-102.5 15.5q-121 0 -197 -94.5t-76 -245.5q0 -69 13 -127.5t41.5 -109t80.5 -79t123 -28.5 q95 0 156 58t80 143h168q-49 -177 -160 -268t-299 -91q-240 0 -379 139t-139 363z" />
<glyph unicode="d" horiz-adv-x="1323" d="M80 477q0 119 40.5 215.5t106.5 155t144 90t159 31.5q94 0 162 -32t129 -91v313q0 53 -16 69.5t-51 16.5h-82v160h444v-1159q0 -53 16.5 -69.5t51.5 -16.5h82v-160h-445v96q-48 -62 -123 -95.5t-168 -33.5q-140 0 -244 71.5t-155 186t-51 252.5zM395 477 q0 -161 52.5 -255.5t158.5 -94.5q101 0 160 90t68 260q-8 162 -72 247t-150 85q-99 0 -158 -87.5t-59 -244.5z" />
<glyph unicode="e" horiz-adv-x="1179" d="M80 469q0 125 45.5 223.5t121.5 157t167.5 89t191.5 30.5q149 0 260.5 -68t167.5 -179.5t56 -250.5v-37h-695v-18q0 -125 81.5 -208t187.5 -83q94 0 157 57t94 144h170q-110 -359 -473 -359q-166 0 -288.5 69t-183 181.5t-60.5 251.5zM399 578h408q-11 231 -197 231 q-76 0 -139 -68.5t-72 -162.5z" />
<glyph unicode="f" horiz-adv-x="827" d="M86 0v160h82q35 0 51.5 16.5t16.5 69.5v532h-150v160h150v109q0 162 96.5 265t275.5 103q126 0 212.5 -73.5t86.5 -161.5q0 -68 -41 -114t-104 -46q-70 0 -112 36.5t-42 86.5q0 37 23 66t51 42q-19 19 -64 19q-40 0 -73 -39.5t-33 -100.5q0 -21 9 -74t9 -77v-41h209v-160 h-209v-545q0 -73 68 -73h141v-160h-653z" />
<glyph unicode="g" horiz-adv-x="1306" d="M16 -199q0 62 44.5 108t125.5 73q-65 19 -107 68t-42 110q0 68 49.5 117.5t126.5 76.5q-133 98 -133 248q0 108 66 192.5t178.5 129.5t250.5 45q202 0 340 -97q93 115 207 115q97 0 147 -45t50 -119q0 -60 -33.5 -103.5t-93.5 -43.5q-45 0 -78 32t-33 83q0 40 17 81 q-25 0 -52 -24t-40 -53q29 -36 45 -92t16 -101q0 -163 -139 -262.5t-350 -99.5q-156 0 -259 53q-49 -20 -49 -53q0 -76 121 -76h350q206 0 322.5 -74.5t116.5 -212.5q0 -92 -49 -161.5t-132.5 -109.5t-183.5 -59.5t-213 -19.5q-88 0 -168.5 8t-158 28t-134 50t-91 78.5 t-34.5 109.5zM279 -158q0 -42 26.5 -73t73.5 -48t101.5 -24.5t119.5 -7.5q289 0 289 155q0 18 -5 32t-18.5 24t-28 17.5t-42.5 12t-51.5 7.5t-67 4t-77 1.5t-91.5 0.5h-143q-86 -42 -86 -101zM397 602q0 -95 48 -149t133 -54t133.5 54t48.5 149q0 105 -47.5 156t-134.5 51 q-181 0 -181 -207z" />
<glyph unicode="h" horiz-adv-x="1421" d="M57 0v160h82q35 0 51.5 16.5t16.5 69.5v913q0 53 -16.5 69.5t-51.5 16.5h-82v160h445v-567q171 131 340 131q38 0 78.5 -5t96 -25t97 -52t71 -92t29.5 -140v-409q0 -53 16.5 -69.5t51.5 -16.5h82v-160h-594v160h82q35 0 51.5 16.5t16.5 69.5v405q0 67 -34.5 107.5 t-99.5 40.5q-67 0 -134 -31.5t-150 -105.5v-416q0 -53 16 -69.5t51 -16.5h82v-160h-594z" />
<glyph unicode="i" horiz-adv-x="716" d="M86 0v160h82q35 0 51.5 16.5t16.5 69.5v446q0 53 -16.5 69.5t-51.5 16.5h-82v160h444v-692q0 -53 16.5 -69.5t51.5 -16.5h82v-160h-594zM168 1229q0 64 57 106.5t140 42.5q82 0 139 -42.5t57 -106.5q0 -65 -55.5 -107.5t-140.5 -42.5q-82 0 -139.5 43t-57.5 107z" />
<glyph unicode="j" horiz-adv-x="677" d="M-184 -225q0 75 49 123.5t121 48.5q70 0 119 -36.5t49 -86.5q0 -51 -13 -81t-53 -52q16 -8 47 -8q44 0 79.5 36t35.5 86q0 28 -4 84.5t-4 94.5v708q0 53 -16.5 69.5t-51.5 16.5h-82v160h445v-1044q0 -53 -11.5 -103t-39.5 -98.5t-69.5 -85t-107 -58.5t-147.5 -22 q-153 0 -249.5 72.5t-96.5 175.5zM180 1229q0 64 57 106.5t140 42.5q82 0 139 -42.5t57 -106.5q0 -65 -55.5 -107.5t-140.5 -42.5q-82 0 -139.5 43t-57.5 107z" />
<glyph unicode="k" horiz-adv-x="1433" d="M57 0v160h82q35 0 51.5 16.5t16.5 69.5v913q0 53 -16.5 69.5t-51.5 16.5h-82v160h445v-877l280 201q27 18 27 35q0 14 -29 14h-51v160h596v-160h-108q-116 0 -173 -41l-184 -127l334 -385q56 -65 137 -65h45v-160h-624v160h96q35 0 35 22q0 11 -11 25l-217 262l-153 -107 v-116q0 -53 16 -69.5t51 -16.5h82v-160h-594z" />
<glyph unicode="l" horiz-adv-x="688" d="M57 0v160h82q35 0 51.5 16.5t16.5 69.5v913q0 53 -16.5 69.5t-51.5 16.5h-82v160h445v-1159q0 -53 16 -69.5t51 -16.5h82v-160h-594z" />
<glyph unicode="m" horiz-adv-x="2109" d="M86 0v160h82q35 0 51.5 16.5t16.5 69.5v446q0 53 -16.5 69.5t-51.5 16.5h-82v160h444v-111q163 140 318 140q114 0 196.5 -42.5t126.5 -117.5q95 78 185 119t207 41q154 0 247 -85t93 -208v-428q0 -53 16 -69.5t51 -16.5h82v-160h-594v160h82q35 0 51.5 16.5t16.5 69.5 v397q0 74 -35.5 114t-85.5 40q-67 0 -127.5 -34.5t-142.5 -111.5v-405q0 -53 16 -69.5t51 -16.5h82v-160h-594v160h82q35 0 51.5 16.5t16.5 69.5v397q0 154 -131 154q-130 0 -261 -144v-407q0 -53 16.5 -69.5t51.5 -16.5h82v-160h-594z" />
<glyph unicode="n" horiz-adv-x="1449" d="M86 0v160h82q35 0 51.5 16.5t16.5 69.5v446q0 53 -16.5 69.5t-51.5 16.5h-82v160h444v-102q173 133 340 133q40 0 81.5 -5.5t96.5 -26t96 -53t70 -93t29 -140.5v-405q0 -53 16.5 -69.5t51.5 -16.5h82v-160h-594v160h82q35 0 51 16.5t16 69.5v405q0 67 -34 107.5t-99 40.5 q-67 0 -134.5 -31.5t-150.5 -105.5v-416q0 -53 16.5 -69.5t51.5 -16.5h82v-160h-594z" />
<glyph unicode="o" horiz-adv-x="1212" d="M80 471q0 213 145.5 355.5t380.5 142.5t381 -142.5t146 -355.5q0 -104 -38 -196.5t-105.5 -160.5t-167 -107.5t-216.5 -39.5q-234 0 -380 145t-146 359zM399 471q0 -183 51 -263.5t156 -80.5t156 80.5t51 263.5q0 180 -51 259t-156 79t-156 -79t-51 -259z" />
<glyph unicode="p" horiz-adv-x="1323" d="M57 -274h82q35 0 51.5 16.5t16.5 69.5v880q0 53 -16.5 69.5t-51.5 16.5h-82v160h437v-98q51 60 131 94.5t166 34.5q110 0 197.5 -40.5t142.5 -111t83.5 -162t28.5 -196.5q0 -119 -39.5 -215.5t-104.5 -155t-144 -90t-162 -31.5q-168 0 -291 123v-278q0 -53 16 -69.5 t51 -16.5h82v-160h-594v160zM487 459q8 -160 76.5 -245t155.5 -85q209 0 209 330q0 350 -203 350q-89 0 -159 -95.5t-79 -254.5z" />
<glyph unicode="q" horiz-adv-x="1257" d="M80 455q0 225 126 369.5t347 144.5q222 0 332 -160l104 129h127v-1126q0 -53 16.5 -69.5t51.5 -16.5h82v-160h-594v160h82q35 0 51 16.5t16 69.5v290q-40 -60 -117.5 -97.5t-160.5 -37.5q-134 0 -240.5 65t-164.5 176.5t-58 246.5zM395 459q0 -142 51 -236t156 -94 q101 0 162 88t70 244q0 176 -60.5 262t-163.5 86t-159 -98.5t-56 -251.5z" />
<glyph unicode="r" horiz-adv-x="1040" d="M86 0v160h82q35 0 51.5 16.5t16.5 69.5v446q0 53 -16.5 69.5t-51.5 16.5h-82v160h436l-6 -98q65 63 129 96t141 33q101 0 160.5 -57.5t59.5 -143.5q0 -72 -42 -123t-120 -51q-63 0 -102.5 35.5t-39.5 93.5q0 74 35 96q-117 -14 -207 -176v-397q0 -53 16.5 -69.5 t51.5 -16.5h82v-160h-594z" />
<glyph unicode="s" horiz-adv-x="1112" d="M86 674q0 129 98 212t281 83q90 0 188.5 -34t161.5 -93l14 96h142v-330h-156q-22 86 -102 143.5t-205 57.5q-53 0 -91 -24.5t-38 -73.5q0 -25 12 -44t29.5 -31t49 -21.5t58 -15t70.5 -11.5q54 -8 97 -17.5t95.5 -26t91 -39.5t72.5 -54.5t52 -76.5t18 -100 q0 -148 -114.5 -227.5t-295.5 -79.5q-210 0 -356 133v-100h-160v348h172q20 -96 115 -159.5t207 -63.5q135 0 135 113q0 38 -35.5 61t-92 35t-124.5 23t-136.5 30.5t-125 50.5t-92 91t-35.5 145z" />
<glyph unicode="t" horiz-adv-x="870" d="M31 778v140q124 14 179.5 101.5t55.5 240.5h201v-322h260v-160h-260v-551q0 -45 22 -72.5t56 -27.5q32 0 58 27t26 75v97h153v-82q0 -56 -15 -103.5t-47.5 -87.5t-90.5 -63t-137 -23q-148 0 -234 72t-86 209v530h-141z" />
<glyph unicode="u" horiz-adv-x="1421" d="M57 778v160h445v-651q0 -67 34 -107.5t99 -40.5q67 0 134.5 31.5t150.5 105.5v416q0 53 -16.5 69.5t-51.5 16.5h-82v160h444v-246v-446q0 -53 16.5 -69.5t51.5 -16.5h82v-160h-444l6 106q-178 -137 -346 -137q-40 0 -81.5 5.5t-96.5 26t-96 53t-70 93t-29 140.5v405 q0 53 -16.5 69.5t-51.5 16.5h-82z" />
<glyph unicode="v" horiz-adv-x="1191" d="M20 778v160h555v-160h-100q-26 0 -26 -30q0 -24 10 -41l209 -420l221 428q10 20 10 35q0 28 -35 28h-114v160h442v-160h-33q-62 0 -117 -104l-364 -686h-170l-358 694q-34 66 -51 81t-52 15h-27z" />
<glyph unicode="w" horiz-adv-x="1744" d="M20 778v160h488v-160h-57q-35 0 -35 -33q0 -18 14 -53l160 -385l168 400q10 27 10 38q0 33 -47 33h-70v160h563v-160h-69q-35 0 -35 -30q0 -19 12 -46l176 -395l170 395q13 29 13 48q0 28 -31 28h-96v160h391v-160h-21q-55 0 -88 -76l-311 -714h-188l-265 604l-254 -604 h-198l-299 696q-25 58 -45.5 76t-55.5 18z" />
<glyph unicode="x" horiz-adv-x="1368" d="M57 0v160h41q29 0 47.5 3t51.5 20.5t75 52.5l258 219l-262 258q-49 47 -70 56t-79 9h-37v160h571v-160h-53q-14 0 -14 -10q0 -13 14 -27l131 -131l146 131q16 13 16 27q0 10 -19 10h-61v160h477v-160h-61q-70 0 -137 -57l-250 -215l272 -268q81 -78 172 -78h25v-160h-578 v160h53q21 0 21 16q0 15 -12 27l-154 147l-158 -147q-10 -10 -10 -23q0 -8 7 -14t18 -6h57v-160h-498z" />
<glyph unicode="y" horiz-adv-x="1220" d="M-16 -223q0 70 55 120t129 50q64 0 110 -39.5t46 -95.5q0 -90 -84 -117q12 -12 34 -12q21 0 33 2.5t32 14.5t41 40.5t46 75.5l94 176l-362 702q-30 57 -48 70.5t-59 13.5h-31v160h584v-160h-106q-35 0 -35 -30q0 -21 10 -41l209 -420l209 405q20 42 20 60q0 26 -32 26 h-115v160h457v-160h-27q-82 0 -137 -104l-486 -914q-63 -118 -136.5 -175.5t-184.5 -57.5q-118 0 -192 75t-74 175z" />
<glyph unicode="z" horiz-adv-x="1099" d="M57 0v160l607 618h-242q-90 0 -134 -36t-44 -130v-90h-164v416h934v-160l-604 -618h268q100 0 136 30.5t36 122.5v86h164v-399h-957z" />
<glyph unicode="{" horiz-adv-x="823" d="M129 451v127q44 7 71 19.5t50 42.5t33 83.5t10 136.5q0 21 -18.5 130.5t-18.5 137.5q0 40 8 78.5t35.5 87t72 84t126.5 60t190 24.5h35v-125h-35q-47 0 -85 -34.5t-38 -114.5q0 -44 12.5 -137t12.5 -117q0 -158 -57 -257t-214 -163q157 -64 214 -163t57 -257 q0 -24 -12.5 -117t-12.5 -137q0 -80 38 -114.5t85 -34.5h35v-125h-35q-108 0 -190 26.5t-126.5 65t-72 90t-35.5 92t-8 80.5q0 27 18.5 126.5t18.5 121.5q0 67 -7 114.5t-19.5 77.5t-34 49t-45 28t-58.5 14z" />
<glyph unicode="|" horiz-adv-x="407" d="M80 -434v1896h248v-1896h-248z" />
<glyph unicode="}" horiz-adv-x="823" d="M100 -309h35q46 0 81.5 34.5t35.5 114.5q0 44 -9.5 137t-9.5 117q0 158 57 257t214 163q-157 64 -214 163t-57 257q0 24 9.5 117t9.5 137q0 80 -35.5 114.5t-81.5 34.5h-35v125h35q108 0 190 -27t126.5 -66t72 -91t35.5 -92.5t8 -81.5q0 -28 -18.5 -125t-18.5 -119 q0 -83 10 -136.5t33 -83.5t50 -42.5t71 -19.5v-127q-35 -5 -58.5 -14t-45 -28t-34 -49t-19.5 -77.5t-7 -114.5q0 -22 18.5 -123t18.5 -129q0 -40 -8 -80t-35.5 -91t-72 -89t-126.5 -64t-190 -26h-35v125z" />
<glyph unicode="~" horiz-adv-x="1214" d="M115 541q0 95 93.5 162t225.5 67q93 0 222.5 -40t181.5 -40q24 0 49.5 20t25.5 60h187q0 -95 -88 -162t-213 -67q-89 0 -229 40t-197 40q-23 0 -47.5 -19.5t-24.5 -60.5h-186z" />
<glyph unicode="&#xa8;" horiz-adv-x="1015" d="M96 1229q0 65 52.5 107t134.5 42q81 0 133.5 -42t52.5 -107t-51 -107.5t-135 -42.5q-81 0 -134 42.5t-53 107.5zM537 1229q0 65 52.5 107t133.5 42t133.5 -42t52.5 -107t-51 -107.5t-135 -42.5q-81 0 -133.5 42.5t-52.5 107.5z" />
<glyph unicode="&#xa9;" horiz-adv-x="1957" d="M111 727q0 161 69 308t185 253t277 169t337 63t337 -63t277 -169t185 -253t69 -308t-69 -308t-185 -253t-277 -169t-337 -63t-337 63t-277 169t-185 253t-69 308zM319 727q0 -140 52 -264.5t140.5 -212t210.5 -138.5t257 -51t256.5 51t210 138.5t140.5 212t52 264.5 q0 181 -88 334t-240 242.5t-331 89.5q-135 0 -257 -51t-210.5 -138.5t-140.5 -212t-52 -264.5zM422 723q0 138 78.5 255t213.5 185t294 68q66 0 133.5 -14.5t130 -44.5t111.5 -71.5t78.5 -99t29.5 -122.5q0 -56 -50.5 -105t-133.5 -49q-78 0 -129.5 38t-51.5 91 q0 109 113 129q-47 88 -215 88q-132 0 -200 -94.5t-68 -253.5q0 -90 28.5 -168t87 -129t136.5 -51q44 0 84.5 11.5t79.5 36.5t67.5 72.5t38.5 112.5h199q-9 -108 -75 -199t-171 -143.5t-223 -52.5q-159 0 -294 68.5t-213.5 186t-78.5 255.5z" />
<glyph unicode="&#xab;" horiz-adv-x="1351" d="M272 453l498 460l148 -86l-293 -376l282 -373l-143 -76zM731 453l260 331l117 -67l-125 -264l123 -271l-129 -65z" />
<glyph unicode="&#xad;" horiz-adv-x="813" d="M141 434v160h531v-160h-531z" />
<glyph unicode="&#xae;" horiz-adv-x="1470" d="M92 1139q0 168 86.5 310.5t234.5 225t322 82.5t321.5 -82.5t233.5 -225t86 -310.5t-86 -310.5t-233.5 -225.5t-321.5 -83t-322 83t-234.5 225.5t-86.5 310.5zM236 1139q0 -138 66 -255t181 -185t252 -68t251.5 68t180.5 184.5t66 255.5q0 210 -145 358t-353 148 q-137 0 -252 -68t-181 -184t-66 -254zM389 838v75h82q21 0 21 17v418q0 12 -15 12h-88v76h379q148 0 213.5 -44t65.5 -112q0 -29 -13.5 -57t-53.5 -55t-101 -35q102 -44 102 -144q0 -59 23 -59q22 0 22 45v29h92v-33q0 -148 -145 -148q-156 0 -156 174q0 39 -9.5 63 t-29.5 33.5t-36 12t-44 2.5h-45v-178q0 -17 21 -17h78v-75h-363zM653 1184h60q157 0 157 96q0 33 -28.5 56.5t-98.5 23.5h-90v-176z" />
<glyph unicode="&#xb4;" horiz-adv-x="600" d="M53 1042l207 234q9 10 35 43t41.5 50t44.5 33.5t59 16.5q44 0 69.5 -26t25.5 -64q0 -22 -11 -41.5t-33.5 -37t-41.5 -29.5t-50 -29t-45 -25l-262 -166z" />
<glyph unicode="&#xb8;" horiz-adv-x="581" d="M80 -305q0 39 25 64.5t61 25.5q38 0 63 -17t25 -44q0 -23 -13.5 -41.5t-35.5 -22.5q24 -18 71 -18q49 0 73 31t24 77q0 43 -32.5 68.5t-86.5 25.5q-55 0 -113 -30l68 186h115l-45 -84q18 6 49 6q78 0 135 -42.5t57 -117.5q0 -93 -61 -150.5t-168 -57.5q-30 0 -63 7 t-68 21.5t-57.5 44t-22.5 68.5z" />
<glyph unicode="&#xbb;" horiz-adv-x="1351" d="M244 717l116 67l261 -331l-246 -336l-129 65l123 271zM434 827l148 86l497 -460l-491 -451l-144 76l283 373z" />
<glyph unicode="&#x2c6;" horiz-adv-x="937" d="M16 1053l453 362l453 -362h-297l-156 112l-156 -112h-297z" />
<glyph unicode="&#x2da;" horiz-adv-x="622" d="M86 1210q0 84 58 144.5t167 60.5t167.5 -60.5t58.5 -144.5t-58.5 -144t-167.5 -60t-167 60t-58 144zM252 1210q0 -29 19.5 -43t39.5 -14t40 14t20 43t-20 43.5t-40 14.5t-39.5 -14.5t-19.5 -43.5z" />
<glyph unicode="&#x2dc;" horiz-adv-x="1157" d="M92 1069q0 149 80.5 232t206.5 83q60 0 122 -22.5t104.5 -49t90 -49t82.5 -22.5q39 0 64.5 29.5t25.5 93.5h168q0 -144 -73.5 -229.5t-210.5 -85.5q-54 0 -112.5 22t-100.5 48.5t-93 48.5t-92 22q-94 0 -94 -121h-168z" />
<glyph unicode="&#x401;" horiz-adv-x="1699" d="M96 0v182h123q88 0 88 80v854q0 80 -88 80h-123v182h1442v-563h-188v152q0 108 -55.5 168.5t-170.5 60.5h-473v-397h148q67 0 85.5 17t18.5 89v92h189v-579h-189v96q0 71 -18 86.5t-84 15.5h-150v-434h377q69 0 114.5 4t84 16.5t60.5 31.5t37 52.5t20.5 76.5t5.5 106v109 h188v-578h-1442zM412 1583q0 65 52.5 107.5t133.5 42.5t133.5 -42.5t52.5 -107.5t-51 -107t-135 -42q-81 0 -133.5 42t-52.5 107zM948 1583q0 65 53 107.5t134 42.5t133.5 -42.5t52.5 -107.5t-51 -107t-135 -42q-82 0 -134.5 42t-52.5 107z" />
<glyph unicode="&#x402;" horiz-adv-x="1949" d="M84 815v563h1446v-440h-189v29q0 108 -55 168.5t-170 60.5h-137v-412q199 64 379 64q150 0 274 -48.5t200.5 -143.5t76.5 -220q0 -236 -135 -354.5t-373 -118.5q-173 0 -286.5 89.5t-113.5 234.5q0 82 58.5 136t142.5 54q99 0 150 -48t51 -114q0 -53 -24.5 -92.5 t-71.5 -56.5q32 -19 79 -19q78 0 124 70.5t46 208.5q0 127 -71 183.5t-191 56.5q-85 0 -156.5 -16t-158.5 -56v-191q-31 -77 -31 -137q0 -75 41.5 -149t112.5 -117h-678v182h123q88 0 88 80v934h-137q-115 0 -170.5 -60.5t-55.5 -168.5v-152h-188z" />
<glyph unicode="&#x403;" horiz-adv-x="1517" d="M96 0v182h123q88 0 88 80v854q0 80 -88 80h-123v182h1309v-563h-188v152q0 108 -55.5 168.5t-170.5 60.5h-340v-934q0 -80 88 -80h123v-182h-766zM479 1503l287 176q17 10 44 28t40.5 25.5t35 17.5t43.5 13.5t50 3.5q92 0 92 -88q0 -43 -36 -68t-130 -50l-393 -107z" />
<glyph unicode="&#x404;" horiz-adv-x="1595" d="M94 690q0 155 55 289t153.5 230.5t240.5 151t309 54.5q247 0 424 -174l20 137h168v-542h-188q-5 85 -32.5 153.5t-69 113t-96 74.5t-111 43t-115.5 13q-175 0 -274.5 -114.5t-118.5 -319.5h610v-176h-614q2 -132 45.5 -238t134.5 -173t217 -67q92 0 165 24t118.5 61.5 t77 89t45 100t18.5 100.5h188q-5 -117 -45.5 -216.5t-114 -176.5t-189.5 -120.5t-263 -43.5q-178 0 -324 60t-239.5 161t-144 231.5t-50.5 274.5z" />
<glyph unicode="&#x405;" horiz-adv-x="1433" d="M115 985q0 192 145 311t377 119q123 0 241.5 -45t202.5 -119l27 127h162v-485h-189q0 97 -65 178t-157 122.5t-183 41.5q-107 0 -172.5 -49.5t-65.5 -151.5q0 -36 16 -64.5t39.5 -46.5t65.5 -33t79 -23.5t95 -18.5q62 -11 100.5 -18t97 -20t95.5 -25.5t85.5 -33t79 -42.5 t63.5 -54t51.5 -68t30.5 -83.5t12 -102.5q0 -132 -73 -232.5t-197.5 -153t-280.5 -52.5q-131 0 -254.5 47.5t-218.5 134.5l-25 -145h-164v532h189v-36q0 -61 37 -124t97.5 -113t145 -82t172.5 -32q51 0 100.5 11.5t93 34.5t70.5 63t27 92q0 46 -25 80.5t-79 59.5t-122.5 43 t-172.5 36q-63 11 -113.5 22t-110 29.5t-104.5 40.5t-89 54t-72.5 70.5t-46 90.5t-17.5 113z" />
<glyph unicode="&#x406;" horiz-adv-x="958" d="M96 0v182h123q88 0 88 80v854q0 80 -88 80h-123v182h766v-182h-123q-88 0 -88 -80v-854q0 -80 88 -80h123v-182h-766z" />
<glyph unicode="&#x407;" horiz-adv-x="958" d="M59 1583q0 65 53 107.5t134 42.5t133.5 -42.5t52.5 -107.5t-51 -107t-135 -42q-82 0 -134.5 42t-52.5 107zM96 0v182h123q88 0 88 80v854q0 80 -88 80h-123v182h766v-182h-123q-88 0 -88 -80v-854q0 -80 88 -80h123v-182h-766zM526 1583q0 65 53 107.5t134 42.5 t133.5 -42.5t52.5 -107.5t-51 -107t-135 -42q-82 0 -134.5 42t-52.5 107z" />
<glyph unicode="&#x408;" horiz-adv-x="1228" d="M25 285q0 87 57 142.5t141 55.5q100 0 151.5 -48.5t51.5 -119.5q0 -55 -23 -96t-73 -55q40 -19 108 -19q84 0 124 55t40 144v772q0 41 -20 60.5t-64 19.5h-145v182h784v-182h-123q-88 0 -88 -80v-731q0 -201 -136 -311.5t-370 -110.5q-180 0 -297.5 88.5t-117.5 233.5z " />
<glyph unicode="&#x409;" horiz-adv-x="2543" d="M0 285q0 85 53.5 141.5t139.5 56.5q100 0 150 -46.5t50 -117.5q0 -53 -36 -91.5t-97 -45.5q24 -39 98 -39q89 0 142.5 66.5t79.5 219t26 409.5v221q0 69 -48.5 103t-129.5 34h-106v182h1452v-182h-123q-88 0 -88 -80v-317h360q95 0 178 -14t155 -44.5t123 -76.5 t80 -112.5t29 -148.5q0 -200 -140 -301.5t-411 -101.5h-929v182h122q89 0 89 80v934h-359q-36 0 -50.5 -15t-14.5 -69v-250q0 -436 -82 -645q-45 -114 -140.5 -180t-218.5 -66q-145 0 -249.5 86t-104.5 228zM1563 182h299q140 0 208 58t68 166q0 217 -276 217h-299v-441z " />
<glyph unicode="&#x40a;" horiz-adv-x="2611" d="M96 0v182h123q88 0 88 80v854q0 80 -88 80h-123v182h766v-182h-123q-88 0 -88 -80v-317h652v317q0 80 -89 80h-122v182h766v-182h-123q-88 0 -88 -80v-317h342q95 0 178 -14t155 -44.5t123 -76.5t80 -112.5t29 -148.5q0 -200 -140 -301.5t-411 -101.5h-911v182h122 q89 0 89 80v361h-652v-361q0 -80 88 -80h123v-182h-766zM1647 182h280q140 0 208.5 58t68.5 166q0 217 -277 217h-280v-441z" />
<glyph unicode="&#x40b;" horiz-adv-x="2136" d="M96 815v563h1446v-440h-188v29q0 108 -55.5 168.5t-170.5 60.5h-137v-412q199 64 393 64q143 0 257.5 -37.5t183.5 -113t69 -177.5v-258q0 -80 88 -80h123v-182h-766v182h123q88 0 88 80v246q0 158 -231 158q-169 0 -328 -72v-332q0 -80 88 -80h123v-182h-766v182h123 q88 0 88 80v934h-137q-115 0 -170 -60.5t-55 -168.5v-152h-189z" />
<glyph unicode="&#x40c;" horiz-adv-x="1771" d="M96 0v182h123q88 0 88 80v854q0 80 -88 80h-123v182h766v-182h-123q-88 0 -88 -80v-317h125q161 0 231 54.5t70 166.5v63q0 149 88 235.5t226 86.5q134 0 210 -65t76 -166q0 -69 -43.5 -116.5t-109.5 -47.5q-67 0 -109.5 33.5t-42.5 80.5q0 43 16.5 63.5t45.5 31.5 q-14 20 -50 20q-12 0 -29 -6t-39 -20.5t-37 -49t-15 -82.5v-41q0 -120 -34.5 -193t-109.5 -110q161 -42 239.5 -138t78.5 -259v-123q0 -55 41 -55q12 0 22 12t10 33v203h166v-232q0 -87 -72.5 -146t-191.5 -59q-148 0 -231.5 79.5t-83.5 195.5v110q0 37 -1.5 63t-7.5 60 t-19 56.5t-34 43.5t-55.5 31.5t-79.5 10.5h-250v-361q0 -80 88 -80h123v-182h-766zM750 1503l286 176q17 10 44 28t40.5 25.5t35 17.5t43.5 13.5t50 3.5q92 0 92 -88q0 -43 -35.5 -68t-129.5 -50l-394 -107z" />
<glyph unicode="&#x40e;" horiz-adv-x="1642" d="M31 1196v182h735v-182h-117q-63 0 -63 -39q0 -24 20 -57l326 -545l266 530q21 43 21 70q0 41 -48 41h-145v182h553v-182h-20q-40 0 -92 -36.5t-87 -106.5l-387 -766q-60 -120 -129 -191t-135.5 -97t-148.5 -26q-90 0 -164.5 31t-119.5 79.5t-69 103.5t-24 108 q0 76 51.5 136.5t138.5 60.5q84 0 129 -48t45 -108q0 -64 -37.5 -100t-89.5 -41q11 -23 47 -39.5t86 -16.5q72 0 118 30t75 89l-518 842q-21 34 -42 54.5t-47 29t-44.5 10.5t-51.5 2h-32zM483 1634q0 63 47.5 104.5t131.5 41.5q71 0 113 -33t42 -80q0 -42 -24 -68.5 t-60 -31.5q48 -31 162 -31t162 31q-36 5 -60 31.5t-24 68.5q0 47 42 80t113 33q84 0 131.5 -41.5t47.5 -104.5q0 -31 -13 -62t-44.5 -61.5t-77.5 -54.5t-117.5 -38.5t-159.5 -14.5t-159.5 14.5t-117.5 38.5t-77.5 54.5t-44.5 61.5t-13 62z" />
<glyph unicode="&#x40f;" horiz-adv-x="1916" d="M96 0v182h123q88 0 88 80v854q0 80 -88 80h-123v182h766v-182h-123q-88 0 -88 -80v-934h615v934q0 80 -88 80h-123v182h766v-182h-123q-88 0 -88 -80v-854q0 -80 88 -80h123v-182h-484q-149 0 -216.5 -59.5t-67.5 -173.5v-187h-189v187q0 233 -284 233h-484z" />
<glyph unicode="&#x410;" horiz-adv-x="1673" d="M16 0v182h35q81 0 142 125l522 1071h282l478 -1032q40 -86 66.5 -125t51.5 -39h39v-182h-618v182h133q29 0 29 37q0 17 -19 55l-72 158h-624l-74 -158q-14 -28 -14 -45q0 -20 14 -33.5t27 -13.5h164v-182h-562zM545 608h465l-224 504z" />
<glyph unicode="&#x411;" horiz-adv-x="1632" d="M96 0v182h123q88 0 88 80v854q0 80 -88 80h-123v182h1362v-493h-188v80q0 107 -58 169t-168 62h-393v-397h342q95 0 178.5 -14t155 -44.5t123 -76.5t80.5 -112.5t29 -148.5q0 -200 -140 -301.5t-411 -101.5h-912zM651 182h279q136 0 207 58.5t71 165.5q0 112 -78 164.5 t-206 52.5h-273v-441z" />
<glyph unicode="&#x412;" horiz-adv-x="1632" d="M96 0v182h123q88 0 88 80v854q0 80 -88 80h-123v182h834q152 0 264 -29t175 -81t92.5 -115t29.5 -139q0 -173 -215 -285q283 -78 283 -336q0 -103 -43 -179t-124.5 -122.5t-191 -69t-250.5 -22.5h-854zM651 182h279q139 0 208.5 58t69.5 166q0 109 -77.5 163t-200.5 54 h-279v-441zM651 799h269q227 0 227 217q0 99 -61.5 139.5t-186.5 40.5h-248v-397z" />
<glyph unicode="&#x413;" horiz-adv-x="1460" d="M96 0v182h123q88 0 88 80v854q0 80 -88 80h-123v182h1309v-563h-188v152q0 108 -55.5 168.5t-170.5 60.5h-340v-934q0 -80 88 -80h123v-182h-766z" />
<glyph unicode="&#x414;" horiz-adv-x="1734" d="M27 182h188q135 157 196.5 382.5t61.5 486.5q0 79 -34.5 111t-127.5 32h-110v184h1437v-182h-122q-89 0 -89 -80v-934h211v-602h-188v178q0 111 -55.5 176.5t-169.5 65.5h-785q-114 0 -169.5 -65.5t-55.5 -176.5v-178h-188v602zM465 182h618v1012h-340q-22 0 -34 -2.5 t-24.5 -13.5t-17.5 -36t-5 -67q0 -269 -46 -465.5t-151 -427.5z" />
<glyph unicode="&#x415;" horiz-adv-x="1699" d="M96 0v182h123q88 0 88 80v854q0 80 -88 80h-123v182h1442v-563h-188v152q0 108 -55.5 168.5t-170.5 60.5h-473v-397h148q67 0 85.5 17t18.5 89v92h189v-579h-189v96q0 71 -18 86.5t-84 15.5h-150v-434h377q69 0 114.5 4t84 16.5t60.5 31.5t37 52.5t20.5 76.5t5.5 106v109 h188v-578h-1442z" />
<glyph unicode="&#x416;" horiz-adv-x="2486" d="M92 178v232h166v-203q0 -21 10.5 -33t22.5 -12q41 0 41 55v123q0 163 78 259t239 138q-75 37 -109 109.5t-34 193.5v41q0 48 -15 82.5t-37.5 49t-39.5 20.5t-29 6q-35 0 -49 -20q29 -11 45 -31.5t16 -63.5q0 -47 -42 -80.5t-109 -33.5t-110.5 47.5t-43.5 116.5 q0 101 76.5 166t210.5 65q138 0 225.5 -86.5t87.5 -235.5v-63q0 -112 70 -166.5t231 -54.5h78v317q0 45 -14 62.5t-56 17.5h-122v182h729v-182h-123q-42 0 -56 -18t-14 -62v-317h78q161 0 231 54.5t70 166.5v63q0 149 87.5 235.5t225.5 86.5q134 0 210.5 -65t76.5 -166 q0 -69 -43.5 -116.5t-109.5 -47.5q-67 0 -109.5 33.5t-42.5 80.5q0 43 16 63.5t45 31.5q-14 20 -49 20q-12 0 -29 -6t-39.5 -20.5t-37.5 -49t-15 -82.5v-41q0 -121 -34 -193.5t-109 -109.5q161 -42 239 -138t78 -259v-123q0 -55 41 -55q12 0 22.5 12t10.5 33v203h166v-232 q0 -87 -72.5 -146t-191.5 -59q-148 0 -231.5 79.5t-83.5 195.5v110q0 37 -1.5 63t-7.5 60t-19 56.5t-34 43.5t-55.5 31.5t-79.5 10.5h-203v-361q0 -45 14.5 -62.5t55.5 -17.5h123v-182h-729v182h120q42 0 57 19t15 61v361h-203q-54 0 -92.5 -17t-58 -40t-30.5 -62.5 t-13 -69.5t-2 -76v-110q0 -116 -84 -195.5t-232 -79.5q-119 0 -191.5 58.5t-72.5 146.5z" />
<glyph unicode="&#x417;" horiz-adv-x="1417" d="M96 387q0 88 55.5 144.5t151.5 56.5q73 0 127.5 -46t54.5 -102q0 -63 -38.5 -101.5t-100.5 -43.5q36 -67 132 -108.5t206 -41.5q43 0 85.5 9.5t83.5 30t72.5 51t50.5 76t19 100.5q0 99 -89.5 155t-243.5 56h-46v176h35q45 0 89.5 12t88 39t70.5 79.5t27 123.5 q0 75 -59 125.5t-148 50.5q-150 0 -249.5 -94.5t-127.5 -300.5h-188v544h157l31 -149q170 180 418 180q135 0 237.5 -33t160 -88.5t85 -119.5t27.5 -134q0 -111 -69 -189t-187 -120v-4q157 -39 244.5 -124.5t87.5 -209.5q0 -190 -162.5 -307t-472.5 -117q-166 0 -310 63.5 t-224.5 161t-80.5 199.5z" />
<glyph unicode="&#x418;" horiz-adv-x="1937" d="M96 0v182h123q88 0 88 80v854q0 80 -88 80h-123v182h766v-182h-123q-88 0 -88 -80v-477q0 -47 -10 -109l596 498q49 43 49 88q0 80 -88 80h-123v182h766v-182h-123q-88 0 -88 -80v-854q0 -80 88 -80h123v-182h-766v182h123q88 0 88 80v506q0 32 8 78l-598 -498 q-21 -17 -33 -42.5t-12 -43.5q0 -80 88 -80h123v-182h-766z" />
<glyph unicode="&#x419;" horiz-adv-x="1937" d="M96 0v182h123q88 0 88 80v854q0 80 -88 80h-123v182h766v-182h-123q-88 0 -88 -80v-477q0 -47 -10 -109l596 498q49 43 49 88q0 80 -88 80h-123v182h766v-182h-123q-88 0 -88 -80v-854q0 -80 88 -80h123v-182h-766v182h123q88 0 88 80v506q0 32 8 78l-598 -498 q-21 -17 -33 -42.5t-12 -43.5q0 -80 88 -80h123v-182h-766zM557 1634q0 63 47 104.5t131 41.5q71 0 113.5 -33.5t42.5 -79.5q0 -42 -24 -68.5t-60 -31.5q48 -31 162 -31q113 0 161 31q-36 5 -59.5 31.5t-23.5 68.5q0 47 42 80t113 33q84 0 131 -41.5t47 -104.5 q0 -31 -13 -62t-44 -61.5t-77 -54.5t-117.5 -38.5t-159.5 -14.5t-159.5 14.5t-117.5 38.5t-77.5 54.5t-44.5 61.5t-13 62z" />
<glyph unicode="&#x41a;" horiz-adv-x="1769" d="M96 0v182h123q88 0 88 80v854q0 80 -88 80h-123v182h766v-182h-123q-88 0 -88 -80v-317h125q161 0 231 54.5t70 166.5v63q0 149 88 235.5t226 86.5q134 0 210 -65t76 -166q0 -69 -43.5 -116.5t-109.5 -47.5q-67 0 -109.5 33.5t-42.5 80.5q0 43 16.5 63.5t45.5 31.5 q-14 20 -50 20q-12 0 -29 -6t-39 -20.5t-37 -49t-15 -82.5v-41q0 -120 -34.5 -193t-109.5 -110q161 -42 239.5 -138t78.5 -259v-123q0 -55 41 -55q12 0 22 12t10 33v203h166v-232q0 -87 -72.5 -146t-191.5 -59q-148 0 -231.5 79.5t-83.5 195.5v110q0 37 -1.5 63t-7.5 60 t-19 56.5t-34 43.5t-55.5 31.5t-79.5 10.5h-250v-361q0 -80 88 -80h123v-182h-766z" />
<glyph unicode="&#x41b;" horiz-adv-x="1863" d="M12 285q0 85 53.5 141.5t139.5 56.5q100 0 150.5 -46.5t50.5 -117.5q0 -52 -36.5 -91t-97.5 -46q24 -39 99 -39q89 0 142 66.5t79 219t26 409.5v221q0 69 -48.5 103t-129.5 34h-106v182h1433v-182h-122q-89 0 -89 -80v-854q0 -80 89 -80h122v-182h-766v182h123 q88 0 88 80v934h-340q-19 0 -27.5 -1.5t-19 -9t-14.5 -25.5t-4 -48v-250q0 -436 -82 -645q-45 -114 -140 -180t-218 -66q-145 0 -250 86t-105 228z" />
<glyph unicode="&#x41c;" horiz-adv-x="2154" d="M94 0v182h123q88 0 88 80v854q0 80 -88 80h-123v182h594l387 -954h8l381 954h594v-182h-123q-88 0 -88 -80v-854q0 -80 88 -80h123v-182h-766v182h123q88 0 88 80v778h-8l-403 -1040h-187l-403 1040h-8v-778q0 -80 88 -80h123v-182h-611z" />
<glyph unicode="&#x41d;" horiz-adv-x="1916" d="M96 0v182h123q88 0 88 80v854q0 80 -88 80h-123v182h766v-182h-123q-88 0 -88 -80v-317h615v317q0 80 -88 80h-123v182h766v-182h-123q-88 0 -88 -80v-854q0 -80 88 -80h123v-182h-766v182h123q88 0 88 80v361h-615v-361q0 -80 88 -80h123v-182h-766z" />
<glyph unicode="&#x41e;" horiz-adv-x="1708" d="M94 690q0 208 96.5 373.5t270 258.5t393.5 93q350 0 555 -197.5t205 -527.5q0 -158 -54.5 -293t-152.5 -230.5t-240.5 -149.5t-312.5 -54q-150 0 -276 39t-214 107t-150 160.5t-91 198.5t-29 222zM453 690q0 -88 12.5 -165.5t42 -148.5t74.5 -121t114.5 -80t157.5 -30 q89 0 158.5 30t114.5 80.5t74.5 121.5t41.5 148t12 165q0 128 -20.5 224t-66 169.5t-124.5 111.5t-190 38q-201 0 -301 -144t-100 -399z" />
<glyph unicode="&#x41f;" horiz-adv-x="1916" d="M96 0v182h123q88 0 88 80v854q0 80 -88 80h-123v182h1725v-182h-123q-88 0 -88 -80v-854q0 -80 88 -80h123v-182h-766v182h123q88 0 88 80v934h-615v-934q0 -80 88 -80h123v-182h-766z" />
<glyph unicode="&#x420;" horiz-adv-x="1548" d="M96 0v182h123q88 0 88 80v854q0 80 -88 80h-123v182h862q265 0 394 -101t129 -273q0 -86 -30 -156.5t-91.5 -125.5t-164 -85.5t-237.5 -30.5h-307v-344q0 -80 88 -80h123v-182h-766zM651 788h238q123 0 182 53t59 163q0 91 -59 141.5t-170 50.5h-250v-408z" />
<glyph unicode="&#x421;" horiz-adv-x="1617" d="M96 690q0 155 55 289t153.5 230.5t240.5 151t309 54.5q247 0 424 -174l20 139h168v-544h-188q-5 85 -32.5 153.5t-69 113t-96 74.5t-111 43t-115.5 13q-201 0 -300 -144t-99 -399q0 -89 12 -166t41.5 -148t74 -121t114 -80t157.5 -30q92 0 165 24t118.5 61.5t77 89 t45 100t18.5 100.5h188q-5 -117 -45.5 -216.5t-114 -176.5t-189.5 -120.5t-263 -43.5q-150 0 -275 39t-213.5 107t-150 160.5t-90.5 198.5t-29 222z" />
<glyph unicode="&#x422;" horiz-adv-x="1556" d="M55 815v563h1446v-563h-188v152q0 108 -55.5 168.5t-170.5 60.5h-137v-934q0 -80 88 -80h123v-182h-766v182h123q88 0 88 80v934h-137q-115 0 -170 -60.5t-55 -168.5v-152h-189z" />
<glyph unicode="&#x423;" horiz-adv-x="1599" d="M31 1196v182h735v-182h-117q-63 0 -63 -39q0 -24 20 -57l326 -551l246 536q20 48 20 70q0 41 -47 41h-145v182h573v-182h-41q-41 0 -92.5 -37t-85.5 -106l-367 -766q-83 -171 -185.5 -242.5t-227.5 -71.5q-90 0 -164.5 31t-119.5 79.5t-69 103.5t-24 108q0 76 51.5 136.5 t138.5 60.5q84 0 129 -48t45 -108q0 -64 -37.5 -100t-89.5 -41q11 -23 47 -39.5t86 -16.5q72 0 118 30t75 89l-518 842q-21 34 -42 54.5t-47 29t-44.5 10.5t-51.5 2h-32z" />
<glyph unicode="&#x424;" horiz-adv-x="1935" d="M78 709q0 65 20 126t64.5 117.5t109.5 99t162 68t215 25.5h148q0 61 -92 61h-123v183h772v-183h-123q-92 0 -92 -61h147q118 0 215 -25.5t162 -68t110 -99t65 -117.5t20 -126t-20 -126.5t-65 -119.5t-110 -101.5t-162 -69.5t-215 -26h-147q0 -84 92 -84h123v-182h-772 v182h123q92 0 92 84h-148q-146 0 -259.5 39.5t-179.5 104.5t-99 141t-33 158zM430 709q0 -155 72.5 -215t218.5 -60h76v543h-76q-146 0 -218.5 -59t-72.5 -209zM1139 434h75q146 0 218.5 60t72.5 215q0 150 -72.5 209t-218.5 59h-75v-543z" />
<glyph unicode="&#x425;" horiz-adv-x="1804" d="M51 0v182h64q48 0 101.5 18.5t82.5 47.5l438 442l-436 438q-36 36 -73 52t-91 16h-47v182h756v-182h-129q-29 0 -29 -22q0 -18 21 -39l245 -256l240 251q25 25 25 41q0 25 -31 25h-123v182h635v-182h-64q-126 0 -196 -70l-369 -370l479 -500q45 -47 75 -60.5t79 -13.5h57 v-182h-776v182h139q20 0 30.5 9.5t10.5 25.5q0 20 -18 41l-291 311l-301 -311q-18 -18 -18 -39q0 -15 11.5 -26t29.5 -11h149v-182h-676z" />
<glyph unicode="&#x426;" horiz-adv-x="1918" d="M96 0v182h123q88 0 88 80v854q0 80 -88 80h-123v182h766v-182h-123q-88 0 -88 -80v-934h617v934q0 80 -88 80h-123v182h766v-182h-123q-88 0 -88 -80v-934h278v-602h-188v191q0 108 -55 168.5t-170 60.5h-1381z" />
<glyph unicode="&#x427;" horiz-adv-x="1814" d="M68 1196v182h766v-182h-123q-88 0 -88 -80v-221q0 -182 239 -182q83 0 147.5 15t153.5 54v334q0 80 -88 80h-123v182h766v-182h-123q-88 0 -88 -80v-854q0 -80 88 -80h123v-182h-848v182h205q88 0 88 80v344q-194 -76 -385 -76q-144 0 -255 36.5t-177.5 112.5t-66.5 181 v256q0 80 -89 80h-122z" />
<glyph unicode="&#x428;" horiz-adv-x="2629" d="M96 0v182h123q88 0 88 80v854q0 80 -88 80h-123v182h766v-182h-123q-88 0 -88 -80v-934h492v934q0 80 -88 80h-123v182h766v-182h-123q-88 0 -88 -80v-934h491v934q0 80 -88 80h-123v182h766v-182h-123q-88 0 -88 -80v-854q0 -80 88 -80h123v-182h-2437z" />
<glyph unicode="&#x429;" horiz-adv-x="2629" d="M96 0v182h123q88 0 88 80v854q0 80 -88 80h-123v182h748v-182h-123q-88 0 -88 -80v-934h510v934q0 80 -88 80h-123v182h766v-182h-123q-88 0 -88 -80v-934h491v934q0 80 -88 80h-123v182h766v-182h-123q-88 0 -88 -80v-934h211v-602h-188v191q0 108 -55 168.5t-170 60.5 h-2024z" />
<glyph unicode="&#x42a;" horiz-adv-x="1955" d="M55 815v563h1119v-182h-123q-88 0 -88 -80v-317h360q95 0 178 -14t155 -44.5t123 -76.5t80 -112.5t29 -148.5q0 -200 -140 -301.5t-411 -101.5h-929v182h122q88 0 88 80v934h-149q-115 0 -170 -60.5t-55 -168.5v-152h-189zM963 182h299q140 0 208 58t68 166 q0 217 -276 217h-299v-441z" />
<glyph unicode="&#x42b;" horiz-adv-x="2420" d="M96 0v182h123q88 0 88 80v854q0 80 -88 80h-123v182h766v-182h-123q-88 0 -88 -80v-317h342q95 0 178.5 -14t155 -44.5t123 -76.5t80.5 -112.5t29 -148.5q0 -198 -149 -300.5t-423 -102.5h-891zM651 182h281q140 0 208 58t68 166q0 217 -276 217h-281v-441zM1559 0v182 h122q88 0 88 80v854q0 80 -88 80h-122v182h765v-182h-122q-88 0 -88 -80v-854q0 -80 88 -80h122v-182h-765z" />
<glyph unicode="&#x42c;" horiz-adv-x="1626" d="M96 0v182h123q88 0 88 80v854q0 80 -88 80h-123v182h766v-182h-123q-88 0 -88 -80v-317h342q95 0 178.5 -14t155 -44.5t123 -76.5t80.5 -112.5t29 -148.5q0 -200 -140 -301.5t-411 -101.5h-912zM651 182h281q140 0 208 58t68 166q0 217 -276 217h-281v-441z" />
<glyph unicode="&#x42d;" horiz-adv-x="1562" d="M86 399q0 80 57.5 132.5t153.5 52.5q73 0 122.5 -41.5t49.5 -96.5q0 -69 -31 -106t-94 -53q60 -76 134 -110t198 -34q109 0 192 38t133 105.5t76 151.5t31 185h-614v176h614q-26 203 -124 318.5t-273 115.5q-59 0 -115.5 -13t-111 -43t-96 -74.5t-69 -113t-32.5 -153.5 h-189v542h168l21 -137q177 174 424 174q167 0 308.5 -54.5t239.5 -151t152.5 -230.5t54.5 -289q0 -142 -54 -274t-148.5 -232.5t-233 -160.5t-297.5 -60q-135 0 -257 37t-206.5 98t-134 140t-49.5 161z" />
<glyph unicode="&#x42e;" horiz-adv-x="2502" d="M96 0v182h123q88 0 88 80v854q0 80 -88 80h-123v182h766v-182h-123q-88 0 -88 -80v-317h246q37 274 243 445t509 171q350 0 554.5 -197.5t204.5 -527.5q0 -158 -54 -293t-152 -230.5t-240.5 -149.5t-312.5 -54q-175 0 -317 53.5t-234 146t-144.5 209.5t-62.5 251h-240 v-361q0 -80 88 -80h123v-182h-766zM1247 690q0 -112 21 -205.5t66 -172t125.5 -123t189.5 -44.5q89 0 158.5 30t114.5 80.5t74.5 121.5t41.5 148t12 165q0 128 -20.5 224t-66 169.5t-124.5 111.5t-190 38q-201 0 -301.5 -144t-100.5 -399z" />
<glyph unicode="&#x42f;" horiz-adv-x="1726" d="M68 176v232h165v-203q0 -21 10.5 -33t22.5 -12q41 0 41 55v115q0 137 55 223.5t173 128.5q-156 37 -235 128t-79 208q0 175 143 267.5t439 92.5h827v-182h-123q-88 0 -88 -80v-854q0 -80 88 -80h123v-182h-766v182h123q88 0 88 80v344h-264q-49 0 -82.5 -19.5 t-50.5 -56.5t-24 -80.5t-7 -101.5v-102q0 -116 -83.5 -195.5t-231.5 -79.5q-119 0 -191.5 58.5t-72.5 146.5zM571 1006q0 -105 66 -162.5t190 -57.5h248v410h-223q-281 0 -281 -190z" />
<glyph unicode="&#x430;" horiz-adv-x="1255" d="M86 225q0 68 26.5 118.5t78 83t115 52.5t151.5 33q54 8 84 13t72.5 17.5t64.5 28t38.5 42t16.5 61.5q0 55 -31.5 92.5t-77 53.5t-100.5 16q-116 0 -182 -41q78 -37 78 -101q0 -52 -36 -90.5t-101 -38.5q-67 0 -109.5 42t-42.5 100q0 78 62.5 139t160.5 92t211 31 q125 0 226.5 -35t165 -107.5t63.5 -171.5v-487q0 -17 8.5 -29t20.5 -12q32 0 32 41v158h133v-158q0 -98 -62 -149.5t-167 -51.5q-83 0 -138.5 39.5t-80.5 104.5q-118 -144 -350 -144q-148 0 -239 66.5t-91 191.5zM401 236q0 -50 33 -79.5t90 -29.5q98 0 153.5 60t55.5 153 v131q-11 -12 -32.5 -22.5t-38 -16.5t-53.5 -17.5t-50 -15.5q-74 -24 -116 -60t-42 -103z" />
<glyph unicode="&#x431;" horiz-adv-x="1232" d="M109 586q0 271 57.5 435.5t170 236t292.5 71.5h106q126 0 155.5 12t29.5 72h165q0 -76 -21.5 -134t-54.5 -91.5t-80 -54t-89.5 -27t-91.5 -6.5h-115q-169 0 -258.5 -75t-89.5 -247q67 94 167 141.5t216 47.5q117 0 210 -37.5t152.5 -104t91 -156t31.5 -194.5 q0 -214 -145.5 -361t-376.5 -147q-243 0 -382.5 156.5t-139.5 462.5zM420 475q0 -153 52.5 -250.5t158.5 -97.5q72 0 119 49t65.5 124t18.5 175q0 150 -48.5 241t-154.5 91q-100 0 -155.5 -89t-55.5 -243z" />
<glyph unicode="&#x432;" horiz-adv-x="1253" d="M86 0v160h82q35 0 51.5 16.5t16.5 69.5v446q0 53 -16.5 69.5t-51.5 16.5h-82v160h612q207 0 316.5 -63.5t109.5 -174.5q0 -37 -15.5 -74t-60.5 -75.5t-114 -58.5q128 -28 190 -86.5t62 -133.5q0 -147 -106 -209.5t-341 -62.5h-653zM530 160h160q98 0 143.5 31.5 t45.5 99.5q0 123 -181 123h-168v-254zM530 567h156q75 0 113.5 25.5t38.5 89.5q0 56 -42.5 76t-142.5 20h-123v-211z" />
<glyph unicode="&#x433;" horiz-adv-x="1120" d="M86 0v160h82q35 0 51.5 16.5t16.5 69.5v446q0 53 -16.5 69.5t-51.5 16.5h-82v160h977v-416h-164v90q0 94 -44 130t-134 36h-191v-532q0 -53 16.5 -69.5t51.5 -16.5h82v-160h-594z" />
<glyph unicode="&#x434;" horiz-adv-x="1351" d="M57 160h150q82 94 124 232t42 292q0 94 -115 94h-88v160h1108v-160h-82q-36 0 -52 -16.5t-16 -69.5v-532h138v-453h-164v115q0 97 -45 137.5t-133 40.5h-525q-88 0 -133 -40.5t-45 -137.5v-115h-164v453zM418 160h416v618h-246q-51 0 -51 -71q0 -317 -119 -547z" />
<glyph unicode="&#x435;" horiz-adv-x="1179" d="M80 469q0 125 45.5 223.5t121.5 157t167.5 89t191.5 30.5q149 0 260.5 -68t167.5 -179.5t56 -250.5v-37h-695v-18q0 -125 81.5 -208t187.5 -83q94 0 157 57t94 144h175q-53 -172 -171.5 -265.5t-306.5 -93.5q-166 0 -288.5 69t-183 181.5t-60.5 251.5zM399 578h408 q-11 231 -197 231q-76 0 -139 -68.5t-72 -162.5z" />
<glyph unicode="&#x436;" horiz-adv-x="1986" d="M92 172v154h133v-154q0 -20 8.5 -32.5t18.5 -12.5q11 0 18.5 3.5t14 19t6.5 43.5v71q0 46 17 84t42.5 63t60.5 44t67 29t67 16q-109 56 -109 202v37q0 28 -13.5 55t-39.5 27q-20 0 -37 -10q21 -21 21 -59q-2 -45 -35 -83t-90 -38q-70 0 -110 39t-40 98q0 95 62.5 148 t183.5 53q120 0 189 -65t69 -163v-41q0 -43 13.5 -70t43 -40.5t64 -18t88.5 -4.5h41v125q0 55 -12 70.5t-46 15.5h-71v160h553v-160h-72q-34 0 -45.5 -15.5t-11.5 -70.5v-125h41q54 0 88.5 4.5t64 18t43 40.5t13.5 70v41q0 98 69 163t189 65q121 0 183 -52.5t62 -148.5 q0 -59 -39.5 -98t-109.5 -39q-57 0 -90 38t-35 83q0 39 20 59q-17 10 -36 10q-26 0 -40 -27t-14 -55v-37q0 -147 -108 -202q35 -6 67 -16t67 -29t60.5 -44t42.5 -63t17 -84v-71q0 -41 10.5 -53.5t28.5 -12.5q10 0 18 12.5t8 32.5v154h133v-154q0 -26 -4.5 -50.5t-19.5 -53.5 t-38.5 -50.5t-65.5 -36t-97 -14.5q-76 0 -131 21.5t-83.5 58t-41 76t-12.5 84.5v57q0 39 -13 67t-33 44t-52.5 25t-62.5 11.5t-73 2.5h-26v-168q0 -55 11.5 -70.5t45.5 -15.5h72v-160h-553v160h71q34 0 46 15.5t12 70.5v168h-27q-43 0 -73 -2.5t-62.5 -11.5t-52 -25 t-32.5 -44t-13 -67v-57q0 -45 -12.5 -84.5t-41.5 -76t-84 -58t-131 -21.5q-55 0 -97 14.5t-65.5 36t-38.5 50.5t-19.5 53.5t-4.5 50.5z" />
<glyph unicode="&#x437;" horiz-adv-x="1073" d="M90 287q0 64 41 108.5t111 44.5q72 0 113.5 -33.5t41.5 -84.5q0 -52 -30 -82t-72 -35q27 -40 83 -62t124 -22q89 0 140.5 43t51.5 117q0 133 -205 133h-47v153h66q79 0 119.5 35t40.5 94q0 57 -42.5 89t-95.5 32q-82 0 -141 -58.5t-78 -156.5h-155v336h112l29 -70 q46 46 118.5 73.5t143.5 27.5q102 0 180.5 -24t121.5 -62.5t64 -81t21 -86.5q0 -164 -186 -221v-2q111 -18 178.5 -77t67.5 -151q0 -50 -16.5 -92t-43.5 -72t-65.5 -53.5t-79.5 -38t-88 -24.5t-89.5 -13.5t-84.5 -3.5q-112 0 -214 39t-168.5 113.5t-66.5 167.5z" />
<glyph unicode="&#x438;" horiz-adv-x="1507" d="M86 0v160h82q35 0 51.5 16.5t16.5 69.5v446q0 53 -16.5 69.5t-51.5 16.5h-82v160h594v-160h-82q-36 0 -52 -16.5t-16 -69.5v-248q0 -32 -8 -53l420 303q35 22 35 51q0 33 -45 33h-105v160h594v-160h-82q-36 0 -51.5 -16.5t-15.5 -69.5v-446q0 -53 16 -69.5t51 -16.5h82 v-160h-594v160h82q35 0 51.5 16.5t16.5 69.5v309l-408 -301q-39 -28 -39 -53q0 -41 48 -41h102v-160h-594z" />
<glyph unicode="&#x439;" horiz-adv-x="1507" d="M86 0v160h82q35 0 51.5 16.5t16.5 69.5v446q0 53 -16.5 69.5t-51.5 16.5h-82v160h594v-160h-82q-36 0 -52 -16.5t-16 -69.5v-248q0 -32 -8 -53l420 303q35 22 35 51q0 33 -45 33h-105v160h594v-160h-82q-36 0 -51.5 -16.5t-15.5 -69.5v-446q0 -53 16 -69.5t51 -16.5h82 v-160h-594v160h82q35 0 51.5 16.5t16.5 69.5v309l-408 -301q-39 -28 -39 -53q0 -41 48 -41h102v-160h-594zM350 1245q0 55 49.5 94t120.5 39q63 0 108.5 -29.5t45.5 -70.5q0 -42 -23 -72t-59 -35q43 -28 162 -28q118 0 161 28q-35 5 -58 34.5t-23 72.5q0 42 40 71t101 29 q73 0 127.5 -39t54.5 -94q0 -40 -21 -78t-65 -73.5t-126 -57.5t-191 -22t-191 22t-126.5 57.5t-65.5 73.5t-21 78z" />
<glyph unicode="&#x43a;" horiz-adv-x="1394" d="M86 0v160h82q35 0 51.5 16.5t16.5 69.5v446q0 53 -16.5 69.5t-51.5 16.5h-82v160h594v-160h-82q-36 0 -52 -16.5t-16 -69.5v-125h60q54 0 88.5 4.5t64 18t43 40.5t13.5 70v41q0 96 71 162t181 66q117 0 184.5 -54.5t67.5 -146.5q0 -60 -38.5 -98.5t-107.5 -38.5 q-60 0 -94.5 35t-34.5 79q0 46 33 72q-12 8 -33 8q-29 0 -49.5 -28.5t-20.5 -57.5v-37q0 -147 -108 -202q35 -6 67 -16t67 -29t60.5 -44t42.5 -63t17 -84v-71q0 -41 10.5 -53.5t28.5 -12.5q10 0 18 12.5t8 32.5v154h134v-154q0 -26 -4.5 -50t-18.5 -53.5t-37 -51t-65 -36 t-97 -14.5q-76 0 -131.5 21.5t-85 58t-42.5 76.5t-13 84v57q0 39 -13 67t-33 44t-52.5 25t-62.5 11.5t-73 2.5h-45v-168q0 -53 16.5 -69.5t51.5 -16.5h82v-160h-594z" />
<glyph unicode="&#x43b;" horiz-adv-x="1472" d="M20 213q0 70 52.5 120t126.5 50q65 0 110 -37t45 -92q0 -90 -84 -117q12 -12 35 -12q39 0 67.5 18t53 63t37 132t12.5 215v133q0 92 -117 92h-79v160h1107v-160h-81q-36 0 -52 -16.5t-16 -69.5v-446q0 -53 16.5 -69.5t51.5 -16.5h81v-160h-593v160h81q35 0 51.5 16.5 t16.5 69.5v532h-268q-35 0 -35 -33v-178q0 -91 -5 -160.5t-18 -141.5t-38 -122.5t-64 -91.5t-97.5 -61.5t-135.5 -20.5q-118 0 -189.5 72t-71.5 172z" />
<glyph unicode="&#x43c;" horiz-adv-x="1693" d="M86 0v160h82q38 0 59 17t21 69v446q0 52 -21 69t-59 17h-82v160h514l264 -532l264 532h480v-160h-82q-36 0 -52 -16.5t-16 -69.5v-446q0 -53 16.5 -69.5t51.5 -16.5h82v-160h-594v160h82q35 0 51 16.5t16 69.5v372q0 20 4 48h-4l-327 -666h-101l-323 666h-4v-420 q0 -52 20.5 -69t58.5 -17h82v-160h-483z" />
<glyph unicode="&#x43d;" horiz-adv-x="1478" d="M86 0v160h82q35 0 51.5 16.5t16.5 69.5v446q0 53 -16.5 69.5t-51.5 16.5h-82v160h594v-160h-82q-36 0 -52 -16.5t-16 -69.5v-125h418v125q0 53 -16 69.5t-51 16.5h-82v160h594v-160h-82q-36 0 -52 -16.5t-16 -69.5v-446q0 -53 16.5 -69.5t51.5 -16.5h82v-160h-594v160h82 q35 0 51 16.5t16 69.5v168h-418v-168q0 -53 16.5 -69.5t51.5 -16.5h82v-160h-594z" />
<glyph unicode="&#x43e;" horiz-adv-x="1212" d="M80 471q0 213 145.5 355.5t380.5 142.5t381 -142.5t146 -355.5q0 -104 -38 -196.5t-105.5 -160.5t-167 -107.5t-216.5 -39.5q-234 0 -380 145t-146 359zM399 471q0 -183 51 -263.5t156 -80.5t156 80.5t51 263.5q0 180 -51 259t-156 79t-156 -79t-51 -259z" />
<glyph unicode="&#x43f;" horiz-adv-x="1478" d="M86 0v160h82q35 0 51.5 16.5t16.5 69.5v446q0 53 -16.5 69.5t-51.5 16.5h-82v160h1307v-160h-82q-36 0 -52 -16.5t-16 -69.5v-446q0 -53 16.5 -69.5t51.5 -16.5h82v-160h-594v160h82q35 0 51 16.5t16 69.5v532h-418v-532q0 -53 16.5 -69.5t51.5 -16.5h82v-160h-594z" />
<glyph unicode="&#x440;" horiz-adv-x="1323" d="M57 -274h82q35 0 51.5 16.5t16.5 69.5v880q0 53 -16.5 69.5t-51.5 16.5h-82v160h437v-98q51 60 131 94.5t166 34.5q110 0 197.5 -40.5t142.5 -111t83.5 -162t28.5 -196.5q0 -119 -39.5 -215.5t-104.5 -155t-144 -90t-162 -31.5q-170 0 -291 121v-276q0 -53 16 -69.5 t51 -16.5h82v-160h-594v160zM487 459q10 -160 77.5 -245t154.5 -85q209 0 209 330q0 350 -203 350q-89 0 -158.5 -96t-79.5 -254z" />
<glyph unicode="&#x441;" horiz-adv-x="1138" d="M80 469q0 219 142 359.5t380 140.5q140 0 266 -72q83 -47 132 -115t49 -137q0 -65 -40.5 -110.5t-109.5 -45.5q-71 0 -114.5 36t-43.5 87q0 92 97 131q-25 35 -64.5 50.5t-105.5 15.5q-121 0 -197 -94.5t-76 -245.5q0 -69 13 -127.5t41.5 -109t80.5 -79t123 -28.5 q95 0 156 58t80 143h168q-49 -177 -160 -268t-299 -91q-240 0 -379 139t-139 363z" />
<glyph unicode="&#x442;" horiz-adv-x="1257" d="M57 522v416h1143v-416h-164v90q0 94 -44 130t-134 36h-82v-532q0 -53 16.5 -69.5t51.5 -16.5h82v-160h-594v160h82q35 0 51 16.5t16 69.5v532h-82q-90 0 -134 -36t-44 -130v-90h-164z" />
<glyph unicode="&#x443;" horiz-adv-x="1220" d="M-16 -223q0 70 55 120t129 50q64 0 110 -39.5t46 -95.5q0 -90 -84 -117q12 -12 34 -12q20 0 32.5 3t31.5 15t40.5 40.5t47.5 74.5l96 172l-364 706q-30 57 -48 70.5t-59 13.5h-31v160h584v-160h-106q-35 0 -35 -30q0 -21 10 -41l209 -420l209 405q20 42 20 60 q0 26 -32 26h-115v160h457v-160h-27q-24 0 -42 -5t-44.5 -29.5t-50.5 -69.5l-486 -914q-63 -118 -136.5 -175.5t-184.5 -57.5q-118 0 -192 75t-74 175z" />
<glyph unicode="&#x444;" horiz-adv-x="1957" d="M80 459q0 105 28.5 196.5t83.5 162t142.5 111t197.5 40.5q87 0 167.5 -34.5t131.5 -94.5v319q0 53 -16 69.5t-51 16.5h-82v160h444v-565q51 60 131.5 94.5t167.5 34.5q89 0 163.5 -26.5t127.5 -73.5t89.5 -111.5t54.5 -139.5t18 -159q0 -119 -39.5 -215.5t-105 -155 t-144.5 -90t-162 -31.5q-180 0 -301 121v-276q0 -53 16.5 -69.5t51.5 -16.5h82v-160h-594v160h82q35 0 51 16.5t16 69.5v276q-121 -121 -301 -121q-83 0 -162 31.5t-144 90t-104.5 155t-39.5 215.5zM395 459q0 -330 209 -330q87 0 155.5 85t76.5 245q-9 159 -79 254.5 t-159 95.5q-203 0 -203 -350zM1122 459q8 -160 76.5 -245t155.5 -85q209 0 209 330q0 350 -203 350q-89 0 -159 -95.5t-79 -254.5z" />
<glyph unicode="&#x445;" horiz-adv-x="1368" d="M57 0v160h41q29 0 47.5 3t51.5 20.5t75 52.5l258 219l-262 258q-49 47 -70 56t-79 9h-37v160h571v-160h-53q-14 0 -14 -10q0 -13 14 -27l131 -131l146 131q16 13 16 27q0 10 -19 10h-61v160h477v-160h-61q-70 0 -137 -57l-250 -215l272 -268q81 -78 172 -78h25v-160h-578 v160h53q21 0 21 16q0 15 -12 27l-154 147l-158 -147q-10 -10 -10 -23q0 -8 7 -14t18 -6h57v-160h-498z" />
<glyph unicode="&#x446;" horiz-adv-x="1474" d="M86 0v160h82q35 0 51.5 16.5t16.5 69.5v446q0 53 -16.5 69.5t-51.5 16.5h-82v160h594v-160h-82q-36 0 -52 -16.5t-16 -69.5v-532h418v532q0 53 -16 69.5t-51 16.5h-82v160h594v-160h-82q-36 0 -52 -16.5t-16 -69.5v-532h176v-453h-164v127q0 94 -44 130t-134 36h-991z " />
<glyph unicode="&#x447;" horiz-adv-x="1361" d="M27 778v160h594v-160h-82q-36 0 -52 -16.5t-16 -69.5v-114q0 -115 133 -115q117 0 227 45v184q0 53 -16 69.5t-51 16.5h-82v160h594v-160h-82q-36 0 -52 -16.5t-16 -69.5v-446q0 -53 16.5 -69.5t51.5 -16.5h82v-160h-655v160h143q35 0 51 16.5t16 69.5v125 q-139 -60 -292 -60q-49 0 -97.5 8t-97.5 27t-85.5 47t-59.5 72.5t-23 99.5v127q0 53 -16 69.5t-51 16.5h-82z" />
<glyph unicode="&#x448;" horiz-adv-x="2138" d="M86 0v160h82q35 0 51.5 16.5t16.5 69.5v446q0 53 -16.5 69.5t-51.5 16.5h-82v160h594v-160h-82q-36 0 -52 -16.5t-16 -69.5v-532h392v532q0 53 -16.5 69.5t-51.5 16.5h-82v160h594v-160h-82q-36 0 -51.5 -16.5t-15.5 -69.5v-532h391v532q0 53 -16.5 69.5t-51.5 16.5h-82 v160h594v-160h-82q-36 0 -51.5 -16.5t-15.5 -69.5v-446q0 -53 16 -69.5t51 -16.5h82v-160h-1966z" />
<glyph unicode="&#x449;" horiz-adv-x="2136" d="M86 0v160h82q35 0 51.5 16.5t16.5 69.5v446q0 53 -16.5 69.5t-51.5 16.5h-82v160h594v-160h-82q-36 0 -52 -16.5t-16 -69.5v-532h392v532q0 53 -16.5 69.5t-51.5 16.5h-82v160h594v-160h-82q-36 0 -51.5 -16.5t-15.5 -69.5v-532h391v532q0 53 -16.5 69.5t-51.5 16.5h-82 v160h594v-160h-82q-36 0 -51.5 -16.5t-15.5 -69.5v-532h176v-453h-164v127q0 94 -44 130t-134 36h-1651z" />
<glyph unicode="&#x44a;" horiz-adv-x="1480" d="M57 522v416h871v-160h-82q-36 0 -52 -16.5t-16 -69.5v-121h205q444 0 444 -286q0 -58 -21.5 -106.5t-70 -90t-139 -65t-215.5 -23.5h-647v160h82q35 0 51 16.5t16 69.5v532h-84q-90 0 -134 -36t-44 -130v-90h-164zM778 160h160q96 0 137 29.5t41 97.5q0 76 -38 100.5 t-140 24.5h-160v-252z" />
<glyph unicode="&#x44b;" horiz-adv-x="1863" d="M86 0v160h82q35 0 51.5 16.5t16.5 69.5v446q0 53 -16.5 69.5t-51.5 16.5h-82v160h594v-160h-82q-36 0 -52 -16.5t-16 -69.5v-121h205q125 0 213 -22t136 -62.5t69 -89.5t21 -112q0 -46 -12 -85.5t-43 -77t-80 -64t-127 -42.5t-179 -16h-647zM530 160h160q95 0 133.5 29 t38.5 98q0 77 -36 101t-136 24h-160v-252zM1184 0v160h82q35 0 51 16.5t16 69.5v446q0 53 -16 69.5t-51 16.5h-82v160h594v-160h-82q-36 0 -52 -16.5t-16 -69.5v-446q0 -53 16.5 -69.5t51.5 -16.5h82v-160h-594z" />
<glyph unicode="&#x44c;" horiz-adv-x="1232" d="M86 0v160h82q35 0 51.5 16.5t16.5 69.5v446q0 53 -16.5 69.5t-51.5 16.5h-82v160h594v-160h-82q-36 0 -52 -16.5t-16 -69.5v-121h205q445 0 445 -286q0 -58 -22 -106.5t-70.5 -90t-139 -65t-215.5 -23.5h-647zM530 160h160q96 0 137 29.5t41 97.5q0 76 -38 100.5 t-140 24.5h-160v-252z" />
<glyph unicode="&#x44d;" horiz-adv-x="1138" d="M90 291q0 65 40.5 110t109.5 45q71 0 114 -35.5t43 -86.5q0 -90 -88 -125q68 -76 180 -76q124 0 188.5 75.5t67.5 213.5h-276v159h272q-19 107 -82.5 173.5t-173.5 66.5q-146 0 -211 -137v-82h-151v346h117l34 -66q128 97 267 97q240 0 379 -139t139 -363 q0 -219 -142 -359.5t-380 -140.5q-113 0 -215.5 42.5t-167 118t-64.5 163.5z" />
<glyph unicode="&#x44e;" horiz-adv-x="1837" d="M86 0v160h82q35 0 51.5 16.5t16.5 69.5v446q0 53 -16.5 69.5t-51.5 16.5h-82v160h594v-160h-82q-36 0 -52 -16.5t-16 -69.5v-125h183q35 178 173 290t345 112q235 0 380.5 -142.5t145.5 -355.5q0 -214 -146 -359t-380 -145q-218 0 -359.5 126.5t-162.5 320.5h-179v-168 q0 -53 16.5 -69.5t51.5 -16.5h82v-160h-594zM1024 471q0 -183 51 -263.5t156 -80.5t156 80.5t51 263.5q0 180 -51 259t-156 79t-156 -79t-51 -259z" />
<glyph unicode="&#x44f;" horiz-adv-x="1343" d="M51 172v154h133v-154q0 -20 9.5 -32.5t19.5 -12.5q8 0 14.5 2t13.5 8t11 20t4 36v71q0 90 53.5 138t141.5 75v4q-137 10 -209 70t-72 154q0 104 112 168.5t363 64.5h612v-160h-81q-36 0 -52 -16.5t-16 -69.5v-446q0 -53 16.5 -69.5t51.5 -16.5h81v-160h-593v160h81 q35 0 51.5 16.5t16.5 69.5v168h-35q-42 0 -71.5 -2.5t-60.5 -11.5t-49 -25t-30 -44t-12 -67v-57q0 -44 -13 -84t-42.5 -76.5t-85 -58t-131.5 -21.5q-68 0 -117 21t-72 54.5t-33 65.5t-10 64zM477 680q0 -113 172 -113h164v211h-139q-101 0 -149 -21t-48 -77z" />
<glyph unicode="&#x451;" horiz-adv-x="1124" d="M80 469q0 125 45.5 223.5t121.5 157t167.5 89t191.5 30.5q149 0 260.5 -68t167.5 -179.5t56 -250.5v-37h-695v-18q0 -125 81.5 -208t187.5 -83q94 0 157 57t94 144h170q-110 -359 -473 -359q-166 0 -288.5 69t-183 181.5t-60.5 251.5zM193 1229q0 65 52.5 107t133.5 42 t133.5 -42t52.5 -107t-51 -107.5t-135 -42.5q-81 0 -133.5 42.5t-52.5 107.5zM399 578h408q-11 231 -197 231q-76 0 -139 -68.5t-72 -162.5zM633 1229q0 65 52.5 107t133.5 42q82 0 134.5 -42t52.5 -107t-51.5 -107.5t-135.5 -42.5q-81 0 -133.5 42.5t-52.5 107.5z" />
<glyph unicode="&#x452;" horiz-adv-x="1341" d="M2 1022v147h217q0 50 -10.5 63t-44.5 13h-82v160h432v-236h262v-147h-262v-184q180 131 352 131q38 0 78.5 -5t96 -25t97.5 -52t71.5 -92t29.5 -140v-761q0 -54 -9 -103t-33.5 -98.5t-63 -85t-101.5 -58t-145 -22.5q-160 0 -262.5 69.5t-102.5 178.5q0 74 51.5 123 t124.5 49q69 0 115.5 -36.5t46.5 -86.5q0 -51 -12.5 -81t-52.5 -52q16 -8 47 -8q43 0 78.5 40t35.5 91q0 28 -6 86.5t-6 93.5v657q0 67 -34 107.5t-99 40.5q-142 0 -297 -137v-416q0 -53 16.5 -69.5t51.5 -16.5h82v-160h-594v160h82q35 0 51 16.5t16 69.5v776h-217z" />
<glyph unicode="&#x453;" horiz-adv-x="1120" d="M86 0v160h82q35 0 51.5 16.5t16.5 69.5v446q0 53 -16.5 69.5t-51.5 16.5h-82v160h977v-416h-164v90q0 94 -44 130t-134 36h-191v-532q0 -53 16.5 -69.5t51.5 -16.5h82v-160h-594zM432 1042l201 228q10 11 33.5 42t40 50t46 36t62.5 17q45 0 74 -26t29 -64 q0 -22 -11.5 -41.5t-33 -36t-41.5 -29t-50 -29t-45 -26.5l-262 -166z" />
<glyph unicode="&#x454;" horiz-adv-x="1144" d="M82 453q0 219 142 359t380 140q141 0 266 -71q83 -47 132 -115t49 -137q0 -65 -40.5 -110.5t-109.5 -45.5q-71 0 -114.5 36t-43.5 87q0 92 97 131q-25 35 -64.5 50.5t-105.5 15.5q-96 0 -164.5 -61t-95.5 -165h221v-153h-234q3 -63 18.5 -115.5t45 -96.5t79 -68.5 t115.5 -24.5q95 0 156 57.5t80 142.5h168q-49 -177 -160 -267.5t-299 -90.5q-240 0 -379 139t-139 363z" />
<glyph unicode="&#x455;" horiz-adv-x="1112" d="M86 674q0 129 98 212t281 83q90 0 188.5 -34t161.5 -93l14 96h142v-330h-156q-22 86 -102 143.5t-205 57.5q-53 0 -91 -24.5t-38 -73.5q0 -25 12 -44t29.5 -31t49 -21.5t58 -15t70.5 -11.5q54 -8 97 -17.5t95.5 -26t91 -39.5t72.5 -54.5t52 -76.5t18 -100 q0 -148 -114.5 -227.5t-295.5 -79.5q-210 0 -356 133v-100h-160v348h172q20 -96 115 -159.5t207 -63.5q135 0 135 113q0 38 -35.5 61t-92 35t-124.5 23t-136.5 30.5t-125 50.5t-92 91t-35.5 145z" />
<glyph unicode="&#x456;" horiz-adv-x="716" d="M86 0v160h82q35 0 51.5 16.5t16.5 69.5v446q0 53 -16.5 69.5t-51.5 16.5h-82v160h444v-692q0 -53 16.5 -69.5t51.5 -16.5h82v-160h-594zM168 1229q0 64 57 106.5t140 42.5q82 0 139 -42.5t57 -106.5q0 -65 -55.5 -107.5t-140.5 -42.5q-82 0 -139.5 43t-57.5 107z" />
<glyph unicode="&#x457;" horiz-adv-x="735" d="M-59 1229q0 65 52.5 107t133.5 42t133.5 -42t52.5 -107t-51 -107.5t-135 -42.5q-81 0 -133.5 42.5t-52.5 107.5zM86 0v160h82q33 0 44 16.5t11 73.5v438q0 57 -11 73.5t-44 16.5h-82v160h436v-688q0 -57 11.5 -73.5t44.5 -16.5h81v-160h-573zM371 1229q0 65 52.5 107 t133.5 42t133.5 -42t52.5 -107t-51 -107.5t-135 -42.5q-81 0 -133.5 42.5t-52.5 107.5z" />
<glyph unicode="&#x458;" horiz-adv-x="677" d="M-184 -225q0 75 49 123.5t121 48.5q70 0 119 -36.5t49 -86.5q0 -51 -13 -81t-53 -52q16 -8 47 -8q44 0 79.5 36t35.5 86q0 28 -4 84.5t-4 94.5v708q0 53 -16.5 69.5t-51.5 16.5h-82v160h445v-1044q0 -53 -11.5 -103t-39.5 -98.5t-69.5 -85t-107 -58.5t-147.5 -22 q-153 0 -249.5 72.5t-96.5 175.5zM180 1229q0 64 57 106.5t140 42.5q82 0 139 -42.5t57 -106.5q0 -65 -55.5 -107.5t-140.5 -42.5q-82 0 -139.5 43t-57.5 107z" />
<glyph unicode="&#x459;" horiz-adv-x="1970" d="M20 213q0 70 52.5 120t126.5 50q65 0 110 -37t45 -92q0 -90 -84 -117q12 -12 35 -12q39 0 68 18t53.5 63t37.5 132t13 215v133q0 92 -119 92h-79v160h1126v-160h-82q-36 0 -52 -16.5t-16 -69.5v-121h205q445 0 445 -286q0 -58 -22 -106.5t-70.5 -90t-139 -65 t-215.5 -23.5h-647v160h82q35 0 51.5 16.5t16.5 69.5v532h-287q-4 0 -9.5 -0.5t-14.5 -8.5t-9 -24v-178q0 -77 -3.5 -138t-13 -125t-26 -112t-43.5 -91.5t-64.5 -71.5t-90.5 -44t-119 -16q-118 0 -189.5 72t-71.5 172zM1255 160h160q96 0 137 29.5t41 97.5q0 76 -38 100.5 t-140 24.5h-160v-252z" />
<glyph unicode="&#x45a;" horiz-adv-x="1949" d="M90 0v160h82q35 0 51.5 16.5t16.5 69.5v446q0 53 -16.5 69.5t-51.5 16.5h-82v160h594v-160h-82q-36 0 -51.5 -16.5t-15.5 -69.5v-125h417v125q0 53 -16 69.5t-51 16.5h-82v160h594v-160h-82q-36 0 -52 -16.5t-16 -69.5v-125h205q444 0 444 -282q0 -58 -21.5 -106.5 t-70 -90t-139 -65t-215.5 -23.5h-647v160h82q35 0 51 16.5t16 69.5v168h-417v-168q0 -53 16 -69.5t51 -16.5h82v-160h-594zM1247 160h160q96 0 137 29.5t41 97.5q0 77 -38.5 102t-139.5 25h-160v-254z" />
<glyph unicode="&#x45b;" horiz-adv-x="1441" d="M-2 1022v147h217q0 50 -10.5 63t-44.5 13h-82v160h432v-236h262v-147h-262v-184q180 131 352 131q38 0 78.5 -5t96 -25t97.5 -52t71.5 -92t29.5 -140v-409q0 -53 16.5 -69.5t51.5 -16.5h81v-160h-593v160h81q35 0 51.5 16.5t16.5 69.5v405q0 67 -34 107.5t-99 40.5 q-142 0 -297 -137v-416q0 -53 16.5 -69.5t51.5 -16.5h81v-160h-593v160h81q35 0 51.5 16.5t16.5 69.5v776h-217z" />
<glyph unicode="&#x45c;" horiz-adv-x="1413" d="M86 0v160h82q35 0 51.5 16.5t16.5 69.5v446q0 53 -16.5 69.5t-51.5 16.5h-82v160h594v-160h-82q-36 0 -52 -16.5t-16 -69.5v-125h60q54 0 88.5 4.5t64 18t43 40.5t13.5 70v41q0 96 71 162t181 66q117 0 184.5 -54.5t67.5 -146.5q0 -60 -38.5 -98.5t-107.5 -38.5 q-60 0 -94.5 35t-34.5 79q0 46 33 72q-12 8 -33 8q-29 0 -49.5 -28.5t-20.5 -57.5v-37q0 -147 -108 -202q35 -6 67 -16t67 -29t60.5 -44t42.5 -63t17 -84v-71q0 -41 10.5 -53.5t28.5 -12.5q10 0 18 12.5t8 32.5v154h134v-154q0 -26 -4.5 -50t-18.5 -53.5t-37 -51t-65 -36 t-97 -14.5q-76 0 -131.5 21.5t-85 58t-42.5 76.5t-13 84v57q0 39 -13 67t-33 44t-52.5 25t-62.5 11.5t-73 2.5h-45v-168q0 -53 16.5 -69.5t51.5 -16.5h82v-160h-594zM508 1038l207 234q9 10 35 43t41.5 50t44.5 33.5t59 16.5q44 0 69 -26t25 -64q0 -22 -11 -41.5t-33.5 -37 t-41 -29t-50 -29t-44.5 -25.5l-262 -166z" />
<glyph unicode="&#x45e;" horiz-adv-x="1290" d="M-16 -223q0 70 55 120t129 50q64 0 110 -39.5t46 -95.5q0 -90 -84 -117q12 -12 34 -12q21 0 33 2.5t32 14.5t41 40.5t46 75.5l94 176l-362 702q-30 57 -48 70.5t-59 13.5h-31v160h586v-160h-108q-35 0 -35 -30q0 -21 10 -41l209 -420l209 405q20 42 20 60q0 26 -32 26 h-113v160h455v-160h-27q-82 0 -137 -104l-486 -914q-63 -118 -136.5 -175.5t-184.5 -57.5q-118 0 -192 75t-74 175zM283 1243q0 55 49.5 94t120.5 39q63 0 108 -29.5t45 -70.5q0 -42 -23 -72t-59 -35q43 -28 162 -28t162 28q-36 5 -59 35t-23 72q0 41 44 70.5t105 29.5 q72 0 123.5 -39t51.5 -94q0 -40 -21 -78t-65.5 -73.5t-126.5 -57.5t-191 -22t-191 22t-126 57.5t-65 73.5t-21 78z" />
<glyph unicode="&#x45f;" horiz-adv-x="1486" d="M86 0v160h82q35 0 51.5 16.5t16.5 69.5v446q0 53 -16.5 69.5t-51.5 16.5h-82v160h594v-160h-82q-36 0 -52 -16.5t-16 -69.5v-532h416v532q0 53 -16 69.5t-51 16.5h-82v160h594v-160h-82q-36 0 -52 -16.5t-16 -69.5v-446q0 -53 16.5 -69.5t51.5 -16.5h82v-160h-369 q-102 0 -153.5 -46.5t-51.5 -150.5v-96h-158v96q0 197 -176 197h-397z" />
<glyph unicode="&#x462;" horiz-adv-x="1943" d="M55 727v563h551v125h344v-125h551v-395h-188q0 92 -55.5 152.5t-170.5 60.5h-137v-309h361q95 0 178 -14t155 -44.5t123 -76.5t80 -112.5t29 -148.5q0 -200 -140 -301.5t-411 -101.5h-930v182h123q88 0 88 80v846h-137q-115 0 -170 -60.5t-55 -168.5v-152h-189zM950 182 h299q140 0 208.5 58t68.5 166q0 217 -277 217h-299v-441z" />
<glyph unicode="&#x463;" horiz-adv-x="1501" d="M57 522v416h435v440h294v-440h418v-160h-418v-207h205q445 0 445 -286q0 -58 -22 -106.5t-70.5 -90t-139 -65t-215.5 -23.5h-647v160h82q35 0 51.5 16.5t16.5 69.5v532h-93q-90 0 -134 -36t-44 -130v-90h-164zM786 160h160q96 0 137 29.5t41 97.5q0 76 -38 100.5 t-140 24.5h-160v-252z" />
<glyph unicode="&#x490;" horiz-adv-x="1449" d="M94 0v182h123q88 0 88 80v854q0 80 -88 80h-123v182h973q74 0 110.5 42.5t36.5 117.5v115h189v-596h-189v73q0 29 -16.5 47.5t-50.5 18.5h-498v-934q0 -80 88 -80h123v-182h-766z" />
<glyph unicode="&#x491;" horiz-adv-x="1105" d="M86 0v160h82q34 0 44.5 15.5t10.5 70.5v446q0 55 -10.5 70.5t-44.5 15.5h-82v160h682q89 0 110 21.5t21 105.5v94h164v-446h-164q0 43 -12 54t-56 11h-309v-532q0 -55 11 -70.5t45 -15.5h81v-160h-573z" />
<glyph unicode="&#x2000;" horiz-adv-x="890" />
<glyph unicode="&#x2001;" horiz-adv-x="1780" />
<glyph unicode="&#x2002;" horiz-adv-x="890" />
<glyph unicode="&#x2003;" horiz-adv-x="1780" />
<glyph unicode="&#x2004;" horiz-adv-x="593" />
<glyph unicode="&#x2005;" horiz-adv-x="445" />
<glyph unicode="&#x2006;" horiz-adv-x="296" />
<glyph unicode="&#x2007;" horiz-adv-x="296" />
<glyph unicode="&#x2008;" horiz-adv-x="222" />
<glyph unicode="&#x2009;" horiz-adv-x="356" />
<glyph unicode="&#x200a;" horiz-adv-x="98" />
<glyph unicode="&#x2010;" horiz-adv-x="813" d="M141 434v160h531v-160h-531z" />
<glyph unicode="&#x2011;" horiz-adv-x="813" d="M141 434v160h531v-160h-531z" />
<glyph unicode="&#x2012;" horiz-adv-x="813" d="M141 434v160h531v-160h-531z" />
<glyph unicode="&#x2013;" horiz-adv-x="1433" d="M98 557v160h1237v-160h-1237z" />
<glyph unicode="&#x2014;" horiz-adv-x="2449" d="M147 453v122h2155v-122h-2155z" />
<glyph unicode="&#x2018;" horiz-adv-x="512" d="M70 1016q0 188 256 399l77 -80q-70 -56 -127 -128.5t-57 -104.5q31 16 80 16q61 0 102 -37.5t41 -105.5q0 -61 -54.5 -103.5t-131.5 -42.5q-88 0 -137 58.5t-49 128.5z" />
<glyph unicode="&#x2019;" horiz-adv-x="512" d="M70 1270q0 61 54.5 103t131.5 42q88 0 137 -58t49 -128q0 -189 -256 -400l-77 80q70 56 127 129t57 105q-33 -17 -80 -17q-61 0 -102 38t-41 106z" />
<glyph unicode="&#x201a;" horiz-adv-x="512" d="M70 127q0 61 54.5 103t131.5 42q88 0 137 -58t49 -128q0 -188 -256 -399l-77 80q70 56 127 128.5t57 104.5q-31 -16 -80 -16q-61 0 -102 37.5t-41 105.5z" />
<glyph unicode="&#x201c;" horiz-adv-x="1024" d="M72 1016q0 188 256 399l78 -80q-71 -56 -128 -129t-57 -104q31 16 80 16q61 0 102 -37.5t41 -105.5q0 -61 -54.5 -103.5t-131.5 -42.5q-88 0 -137 58.5t-49 128.5zM580 1016q0 188 256 399l77 -80q-70 -56 -127 -128.5t-57 -104.5q31 16 80 16q61 0 102 -37.5t41 -105.5 q0 -61 -54.5 -103.5t-131.5 -42.5q-88 0 -137 58.5t-49 128.5z" />
<glyph unicode="&#x201d;" horiz-adv-x="1024" d="M72 1270q0 61 54.5 103t131.5 42q88 0 137 -58t49 -128q0 -189 -256 -400l-77 80q70 56 127 129t57 105q-33 -17 -80 -17q-61 0 -102 38t-41 106zM580 1270q0 61 54.5 103t131.5 42q88 0 137 -58t49 -128q0 -189 -256 -400l-78 80q70 56 127.5 129.5t57.5 104.5 q-33 -17 -80 -17q-61 0 -102 38t-41 106z" />
<glyph unicode="&#x201e;" horiz-adv-x="1024" d="M72 119q0 61 54.5 103t131.5 42q88 0 137 -58t49 -128q0 -189 -256 -400l-77 80q70 56 127 129t57 105q-33 -17 -80 -17q-61 0 -102 38t-41 106zM580 119q0 61 54.5 103t131.5 42q88 0 137 -58t49 -128q0 -189 -256 -400l-78 80q70 56 127.5 129.5t57.5 104.5 q-33 -17 -80 -17q-61 0 -102 38t-41 106z" />
<glyph unicode="&#x2026;" horiz-adv-x="1474" d="M59 123q0 65 52.5 107t134.5 42q81 0 133.5 -42t52.5 -107t-51 -107.5t-135 -42.5q-81 0 -134 42.5t-53 107.5zM551 123q0 65 52.5 107t133.5 42q82 0 134.5 -42t52.5 -107t-51.5 -107.5t-135.5 -42.5q-81 0 -133.5 42.5t-52.5 107.5zM1042 123q0 65 52.5 107t134.5 42 q81 0 133.5 -42t52.5 -107t-51 -107.5t-135 -42.5q-81 0 -134 42.5t-53 107.5z" />
<glyph unicode="&#x202f;" horiz-adv-x="356" />
<glyph unicode="&#x2039;" horiz-adv-x="1138" d="M272 453l490 452l158 -76l-295 -376l295 -377l-158 -76z" />
<glyph unicode="&#x203a;" horiz-adv-x="1138" d="M272 76l295 377l-295 376l158 76l490 -452l-490 -453z" />
<glyph unicode="&#x205f;" horiz-adv-x="445" />
<glyph unicode="&#x20ac;" d="M45 514l47 98h98q-4 40 -4 68q0 6 1 27t1 30h-143l47 99h107q20 135 62.5 236.5t116 178t186 115.5t263.5 39q281 0 398 -109l16 -206h-55q-38 215 -289 215q-90 0 -155.5 -32.5t-108 -96t-66.5 -146t-35 -194.5h576l-47 -99h-535q0 -9 -1 -31t-1 -32q0 -46 2 -62h475 l-47 -98h-422q15 -215 110.5 -330.5t256.5 -115.5q112 0 190 51.5t97 159.5h55l-16 -197q-58 -53 -150 -83t-248 -30q-283 0 -434 138t-186 407h-162z" />
<glyph unicode="&#x2122;" horiz-adv-x="2207" d="M66 1198v313h800v-313h-102v45q0 46 -13 79.5t-29.5 49.5t-41 25t-39 10.5t-31.5 1.5h-30v-471q0 -32 16.5 -48t34.5 -16h61v-102h-452v102h67q15 0 30 16t15 48v471h-30q-16 0 -30.5 -1.5t-39 -11t-41.5 -25.5t-30 -49.5t-13 -78.5v-45h-102zM965 772v102h71q22 0 40 16 t18 48v440q0 13 -11 22t-26 9h-92v102h395l207 -440l188 440h385v-102h-84q-10 0 -17 -8.5t-7 -22.5v-458q0 -46 34 -46h74v-102h-448v102h80q32 0 32 46v385l-227 -533h-129l-246 533v-367q0 -30 20 -47t46 -17h63v-102h-366z" />
<glyph unicode="&#x25fc;" horiz-adv-x="942" d="M0 0v942h942v-942h-942z" />
</font>
</defs>
</svg>
