<?xml version="1.0" encoding="UTF-8" standalone="no"?>
<!DOCTYPE svg  PUBLIC '-//W3C//DTD SVG 1.1//EN'  'http://www.w3.org/Graphics/SVG/1.1/DTD/svg11.dtd'>
<svg xmlns="http://www.w3.org/2000/svg">
<defs>
<font id="Vaccine-Italic" horiz-adv-x="580">
<font-face slope="-8" underline-position="-50" font-weight="500" descent="-200" panose-1="2 8 6 4 3 5 5 9 2 4" units-per-em="1000" unicode-range="U+0020-2215" bbox="-255 -272 1046 953" x-height="487" underline-thickness="50" font-family="Vaccine" ascent="800" font-style="italic" cap-height="700"/>
<missing-glyph horiz-adv-x="1000"/>
<glyph glyph-name=".notdef" horiz-adv-x="1000"/>
<glyph glyph-name=".null" horiz-adv-x="0"/>
<glyph glyph-name="nonmarkingreturn" horiz-adv-x="333"/>
<glyph glyph-name="space" horiz-adv-x="350" unicode=" "/>
<glyph glyph-name="exclam" horiz-adv-x="304" unicode="!" d="M93 205l53 485q10 19 55 19q43 0 53 -19l-84 -485q-1 -10 -37 -10q-40 0 -40 10zM113 -9q-27 0 -45 19t-18 45t18 44.5t45 18.5q26 0 44.5 -17.5t18.5 -45.5q0 -27 -18 -45.5t-45 -18.5z"/>
<glyph glyph-name="quotedbl" horiz-adv-x="441" unicode='&quot;' d="M285 471l9 193q22 6 49 6q29 0 48 -6l-45 -193q-3 -14 -33 -14q-28 0 -28 14zM125 471l8 193q22 6 49 6q29 0 48 -6l-44 -193q-3 -14 -33 -14q-28 0 -28 14z"/>
<glyph glyph-name="numbersign" d="M204 252h142l28 171h-141zM102 49l22 141h-92q-9 0 -9 22q0 34 15 40h96l28 170h-91q-10 0 -10 22q0 33 16 40h95l24 141q2 13 36 13q28 0 35 -13l-24 -141h141l24 141q2 13 35 13q29 0 36 -13l-24 -141h93q9 0 9 -23q0 -31 -15 -39h-97l-28 -170h93q9 0 9 -22 q0 -32 -15 -40h-97l-23 -141q-4 -14 -36 -14q-31 0 -36 14l24 141h-141l-22 -141q-3 -14 -36 -14q-32 0 -35 14z" unicode="#"/>
<glyph glyph-name="dollar" d="M181 517q0 -73 88 -112l28 231q-55 -6 -85.5 -36.5t-30.5 -82.5zM413 188q0 41 -23 66t-72 47l-28 -238q55 6 89 36.5t34 88.5zM44 48l20 163q3 12 31 12q35 0 36 -17l-4 -108q39 -29 101 -35l31 262q-85 37 -125.5 76.5t-40.5 107.5q0 95 60 144t153 55l12 97 q2 12 33 12q29 0 29 -12l-12 -98q87 -6 155 -46l-20 -163q-6 -13 -31 -13q-15 0 -26 5t-11 13l4 108q-35 21 -80 26l-31 -256q95 -39 134 -76t39 -106q0 -52 -20.5 -92t-54 -63.5t-70 -36t-75.5 -15.5l-13 -106q-2 -12 -33 -12q-29 0 -29 12l13 107q-100 7 -175 55z" unicode="$"/>
<glyph glyph-name="percent" horiz-adv-x="860" unicode="%" d="M609 51q32 0 62 43.5t30 128.5q0 95 -61 95q-43 0 -68 -54t-25 -120q0 -93 62 -93zM607 -9q-65 0 -102.5 42t-37.5 113q0 97 50.5 164.5t129.5 67.5q61 0 97 -42t36 -113q0 -97 -50 -164.5t-123 -67.5zM135 23l534 690q3 4 9 4q13 0 28.5 -12t15.5 -23q0 -5 -2 -6 l-535 -691q-3 -4 -8 -4q-13 0 -28.5 12.5t-15.5 22.5q0 1 2 7zM222 382q32 0 62 43.5t30 128.5q0 95 -62 95q-43 0 -67.5 -54t-24.5 -121q0 -92 62 -92zM220 322q-65 0 -102.5 42t-37.5 113q0 97 50.5 164.5t129.5 67.5q61 0 97 -42t36 -113q0 -97 -50 -164.5t-123 -67.5z "/>
<glyph glyph-name="ampersand" horiz-adv-x="641" unicode="&amp;" d="M270 422q69 30 98.5 65.5t29.5 82.5q0 29 -20.5 51t-62.5 22q-39 0 -66 -23.5t-27 -70.5q0 -58 48 -127zM370 123l-138 213q-64 -32 -91.5 -65t-27.5 -98q0 -46 26.5 -78.5t86.5 -32.5q83 0 144 61zM456 0l-45 65q-82 -74 -193 -74q-95 0 -146.5 49t-51.5 127 q0 149 173 223q-61 94 -61 160q0 69 52.5 114t136.5 45q79 0 120 -34t41 -96q0 -131 -174 -209l118 -186q25 30 47 90q11 9 45 9t39 -10q-23 -79 -85 -151l38 -49l69 -7q12 -3 12 -27q0 -15 -5 -27t-13 -12h-117z"/>
<glyph glyph-name="quotesingle" horiz-adv-x="280" unicode="&apos;" d="M125 510l8 193q22 6 49 6q29 0 48 -6l-44 -193q-3 -14 -33 -14q-28 0 -28 14z"/>
<glyph glyph-name="parenleft" horiz-adv-x="328" unicode="(" d="M131 -198l-15 33q-56 131 -56 310q0 171 49 323t131 269l24 34q16 12 41 12q28 0 33 -13l-19 -34q-172 -294 -172 -603q0 -151 46 -296l10 -34q-10 -13 -36 -13q-25 0 -36 12z"/>
<glyph glyph-name="parenright" horiz-adv-x="328" unicode=")" d="M177 771l15 -33q56 -131 56 -310q0 -171 -49 -323t-131 -269l-24 -34q-16 -12 -41 -12q-28 0 -33 13l19 34q172 294 172 603q0 151 -46 296l-10 34q10 13 36 13q25 0 36 -12z"/>
<glyph glyph-name="asterisk" horiz-adv-x="500" unicode="*" d="M145 407h-2q-10 0 -21.5 18.5t-11.5 32.5q0 4 2 6l111 55v7l-111 56q-2 1 -2 6q0 15 12 33t22 18h1l103 -69l7 4l-8 124q0 11 33 11q12 0 22.5 -3.5t10.5 -7.5l-8 -124l6 -4l104 69h2q10 0 21.5 -18.5t11.5 -32.5q0 -4 -2 -6l-111 -56v-7l111 -55q2 -2 2 -6 q0 -15 -12 -33t-22 -18h-1l-104 68l-6 -3l8 -124q0 -11 -33 -11q-12 0 -22.5 3.5t-10.5 7.5l8 124l-7 3z"/>
<glyph glyph-name="plus" horiz-adv-x="660" unicode="+" d="M296 110v205h-205q-11 0 -11 34q0 36 11 36h205v204q0 10 34 10q35 0 35 -10v-204h205q10 0 10 -36q0 -34 -10 -34h-205v-205q0 -10 -35 -10q-34 0 -34 10z"/>
<glyph glyph-name="comma" horiz-adv-x="291" unicode="," d="M75 -97q39 50 52 90q-21 3 -36.5 18t-15.5 45q0 23 17.5 42t44.5 19q28 0 46 -18t18 -47q0 -40 -23.5 -88.5t-62.5 -88.5q-38 0 -40 28z"/>
<glyph glyph-name="hyphen" horiz-adv-x="486" unicode="-" d="M111 303h276q9 0 9 -31q0 -40 -9 -40h-276q-11 0 -11 35q0 36 11 36z"/>
<glyph glyph-name="period" horiz-adv-x="291" unicode="." d="M75 55q0 26 18 44t45 18q26 0 44.5 -17.5t18.5 -44.5t-18.5 -45.5t-44.5 -18.5q-27 0 -45 19t-18 45z"/>
<glyph glyph-name="slash" horiz-adv-x="560" unicode="/" d="M-15 -174l533 949q4 3 14 3q18 0 35.5 -9.5t17.5 -21.5l-531 -950q-8 -4 -16 -4q-18 0 -35.5 10t-17.5 23z"/>
<glyph glyph-name="zero" d="M252 64q70 0 123 101t53 284q0 91 -28 139t-78 48q-70 0 -123 -99.5t-53 -282.5q0 -93 27.5 -141.5t78.5 -48.5zM245 -9q-94 0 -143.5 68t-49.5 199q0 211 79 331t198 120q93 0 143 -66.5t50 -195.5q0 -213 -78.5 -334.5t-198.5 -121.5z" unicode="0"/>
<glyph glyph-name="one" d="M145 66l85 7l73 527l-144 -88q-30 20 -30 66l206 130q52 0 75 -14l-87 -621l82 -7q14 -3 14 -28q0 -15 -5 -26.5t-14 -11.5h-267q-12 0 -12 19q0 15 7.5 30.5t16.5 16.5z" unicode="1"/>
<glyph glyph-name="two" d="M46 83l182 168q100 93 142.5 156t42.5 127q0 46 -28.5 74t-79.5 28q-69 0 -115 -29l-26 -111q-2 -8 -16 -13.5t-30 -5.5q-26 0 -29 14l24 166q96 52 209 52q96 0 143.5 -42.5t47.5 -116.5q0 -47 -13.5 -87t-48.5 -84.5t-69 -78.5t-100 -95l-141 -129h259l25 112 q5 18 42 18q27 0 30 -13l-27 -193h-432q-8 9 -8 31q0 33 16 52z" unicode="2"/>
<glyph glyph-name="three" d="M223 395l208 231h-222l-22 -102q-6 -21 -44 -21q-27 0 -29 15l26 182h388q14 -14 14 -43q0 -13 -2 -20l-211 -226q50 -1 85.5 -17t53 -41.5t25 -50.5t7.5 -52q0 -113 -80 -186t-192 -73q-61 0 -117.5 20t-93.5 52q7 50 43 65q31 -21 49 -31t50.5 -19t72.5 -9 q75 0 124.5 45t49.5 128q0 102 -122 102h-50q-12 10 -12 33q0 12 1 18z" unicode="3"/>
<glyph glyph-name="four" d="M107 276h203l44 311zM205 64l74 7l18 132h-265q-19 19 -19 61l348 440q18 5 46 5q34 0 53 -12l-59 -420h102q11 0 11 -24q0 -18 -7 -34t-16 -16h-101l-18 -132l71 -7q12 -3 12 -27q0 -14 -5 -25.5t-13 -11.5h-244q-11 0 -11 18q0 14 7 29.5t16 16.5z" unicode="4"/>
<glyph glyph-name="five" d="M105 361l69 339h357l-24 -173q-6 -13 -33 -13q-40 0 -40 17l5 95h-202l-42 -202q59 21 111 21q97 0 144.5 -48t47.5 -135q0 -111 -78.5 -191t-192.5 -80q-120 0 -202 70q6 48 42 65q46 -31 79.5 -44t85.5 -13q73 0 123 52.5t50 132.5q0 59 -35.5 88t-85.5 29 q-70 0 -126 -32q-39 0 -53 22z" unicode="5"/>
<glyph glyph-name="six" d="M259 62q57 0 101 53.5t44 138.5q0 56 -28 87.5t-75 31.5q-55 0 -104 -52t-49 -131q0 -56 30.5 -92t80.5 -36zM148 343h2q65 104 176 104q77 0 124 -46.5t47 -133.5q0 -118 -71 -197t-169 -79q-96 0 -149 60.5t-53 165.5q0 116 32.5 210.5t88 155t127 93.5t150.5 33 q38 0 71 -7q2 -14 2 -19q0 -37 -20 -57q-35 5 -63 5q-104 0 -187.5 -78.5t-107.5 -209.5z" unicode="6"/>
<glyph glyph-name="seven" d="M89 503l28 197h416q16 -22 16 -59q-125 -148 -201.5 -312.5t-99.5 -326.5q-20 -8 -49 -8q-30 0 -49 8q26 155 105 319t194 305h-260l-27 -119q-5 -17 -43 -17q-26 0 -30 13z" unicode="7"/>
<glyph glyph-name="eight" d="M197 497q0 -46 27.5 -75t76.5 -29q58 0 96.5 42.5t38.5 100.5q0 45 -28 73.5t-77 28.5q-59 0 -96.5 -41.5t-37.5 -99.5zM140 174q0 -48 31.5 -80t84.5 -32q67 0 110 46t43 110q0 51 -31.5 83.5t-86.5 32.5q-64 0 -107.5 -46t-43.5 -114zM189 367v2q-41 16 -63 52.5 t-22 80.5q0 87 66 147t165 60q93 0 144.5 -46t51.5 -120q0 -53 -33 -104.5t-92 -69.5v-2q96 -32 96 -149q0 -97 -71 -162t-177 -65q-94 0 -150.5 49t-56.5 129q0 68 36.5 123t105.5 75z" unicode="8"/>
<glyph glyph-name="nine" d="M271 327q55 0 104 52t49 131q0 56 -31 92t-81 36q-56 0 -100 -53.5t-44 -138.5q0 -56 27.5 -87.5t75.5 -31.5zM424 357h-3q-65 -104 -178 -104q-76 0 -122 49.5t-46 137.5q0 117 71 193t170 76q98 0 150 -57.5t52 -163.5q0 -118 -32.5 -213.5t-87.5 -156.5t-126.5 -94 t-151.5 -33q-41 0 -71 7q-2 7 -2 19q0 38 19 57q35 -5 63 -5q105 0 188 78.5t107 209.5z" unicode="9"/>
<glyph glyph-name="colon" horiz-adv-x="302" unicode=":" d="M106 425q0 26 18 44t45 18q26 0 44.5 -17t18.5 -45q0 -27 -18 -45.5t-45 -18.5t-45 19t-18 45zM75 55q0 26 18 44t45 18q26 0 44.5 -17.5t18.5 -44.5t-18.5 -45.5t-44.5 -18.5q-27 0 -45 19t-18 45z"/>
<glyph glyph-name="semicolon" horiz-adv-x="302" unicode=";" d="M106 425q0 26 18 44t45 18q26 0 44.5 -17t18.5 -45q0 -27 -18 -45.5t-45 -18.5t-45 19t-18 45zM75 -97q39 50 52 90q-21 3 -36.5 18t-15.5 45q0 23 17.5 42t44.5 19q29 0 46.5 -18t17.5 -47q0 -40 -23.5 -89t-62.5 -88q-38 0 -40 28z"/>
<glyph glyph-name="less" horiz-adv-x="635" unicode="&lt;" d="M85 353l462 264q13 -22 13 -48q0 -21 -13 -28l-360 -206v-1l360 -205q13 -7 13 -32t-13 -44l-462 264q-10 6 -10 18t10 18z"/>
<glyph glyph-name="equal" horiz-adv-x="660" unicode="=" d="M91 290h479q10 0 10 -36q0 -34 -10 -34h-479q-11 0 -11 34q0 36 11 36zM91 470h479q10 0 10 -36q0 -34 -10 -34h-479q-11 0 -11 34q0 36 11 36z"/>
<glyph glyph-name="greater" horiz-adv-x="635" unicode="&gt;" d="M87 129l360 205v1l-360 206q-12 7 -12 31q0 23 12 45l463 -265q10 -6 10 -18t-10 -18l-463 -263q-12 24 -12 48q0 22 12 28z"/>
<glyph glyph-name="question" horiz-adv-x="482" unicode="?" d="M184 -9q-27 0 -45 19t-18 45t18.5 44.5t44.5 18.5t45 -17.5t19 -45.5q0 -27 -18.5 -45.5t-45.5 -18.5zM76 660q96 49 208 49q104 0 151 -41t47 -108q0 -60 -30 -102.5t-94 -95.5q-69 -56 -89 -82.5t-24 -65.5l-1 -9q-1 -11 -47 -11q-44 0 -44 11l1 9q10 72 69 126 q18 17 55.5 50t48 44t28.5 32.5t23 38.5t5 39q0 92 -112 92q-57 0 -120 -27l-22 -100q-2 -9 -15 -15t-28 -6q-27 0 -31 16z"/>
<glyph glyph-name="at" horiz-adv-x="840" unicode="@" d="M363 226q98 0 147 226q-17 9 -47 9q-68 0 -114.5 -53.5t-46.5 -121.5q0 -60 61 -60zM578 157q-37 0 -62.5 18t-25.5 51q0 25 10 55h-5q-57 -124 -163 -124q-46 0 -79.5 30t-33.5 95q0 56 26.5 110t83.5 93t132 39q44 0 89.5 -13.5t45.5 -35.5q0 -6 -1 -10l-32 -149 q-11 -49 -11 -69q0 -36 40 -36q53 0 90.5 46t37.5 136q0 111 -88 185t-204 74q-123 0 -215.5 -88t-92.5 -225q0 -133 86 -225t227 -92q83 0 159 40q12 -6 18.5 -21.5t6.5 -28.5q-83 -47 -189 -47q-69 0 -135 23t-121 67.5t-88.5 118t-33.5 165.5q0 161 112 265.5t263 104.5 q96 0 178 -37t134.5 -110.5t52.5 -168.5q0 -105 -61.5 -170.5t-150.5 -65.5z"/>
<glyph glyph-name="A" horiz-adv-x="736" unicode="A" d="M239 268h239l-72 336h-4zM-8 66l62 7l275 552l-69 7q-12 2 -12 28q0 40 19 40h209l139 -627l69 -7q12 -3 12 -27q0 -15 -5 -27t-13 -12h-230q-11 0 -11 18q0 16 6.5 31t17.5 17l59 7l-28 123h-283l-62 -123l66 -7q13 -3 13 -27q0 -15 -5 -27t-13 -12h-228q-12 0 -12 19 q0 15 7 30.5t17 16.5z"/>
<glyph glyph-name="B" horiz-adv-x="633" unicode="B" d="M223 395h128q24 0 46.5 5.5t47.5 19t40 42.5t15 70q0 98 -117 98h-128zM178 70h142q26 0 51.5 6.5t51.5 22t42 47t16 74.5q0 54 -36.5 79.5t-96.5 25.5h-135zM25 66l62 7l76 554l-69 7q-12 3 -12 27q0 39 19 39h303q52 0 92 -12.5t69.5 -49.5t29.5 -96q0 -65 -37.5 -113 t-96.5 -61v-5q115 -27 115 -142q0 -63 -27 -109t-69.5 -69t-82.5 -33t-78 -10h-306q-12 0 -12 19q0 15 7 30.5t17 16.5z"/>
<glyph glyph-name="C" horiz-adv-x="622" unicode="C" d="M513 493l5 118q-39 25 -106 25q-86 0 -150.5 -50.5t-95.5 -130t-31 -175.5t51.5 -153.5t145.5 -57.5q38 0 76.5 10t60.5 20t63 31q31 -20 31 -66q-47 -29 -115 -51t-131 -22q-56 0 -104 16t-87.5 48.5t-62 89t-22.5 132.5q0 105 31 188.5t84 136t120.5 80t142.5 27.5 q114 0 188 -46l-22 -175q-4 -13 -33 -13q-38 0 -39 18z"/>
<glyph glyph-name="D" horiz-adv-x="704" unicode="D" d="M180 71h72q58 0 112 19t101.5 58.5t76 110t28.5 163.5q0 107 -59.5 157t-158.5 50h-96zM25 66l62 7l76 554l-69 7q-12 3 -12 27q0 39 19 39h261q138 0 219.5 -65.5t81.5 -206.5q0 -102 -34.5 -185.5t-92.5 -135.5t-129 -79.5t-147 -27.5h-247q-12 0 -12 19q0 15 7 30.5 t17 16.5z"/>
<glyph glyph-name="E" horiz-adv-x="621" unicode="E" d="M25 66l62 7l76 554l-69 7q-12 3 -12 27q0 39 19 39h507l-25 -180q-4 -13 -33 -13q-40 0 -40 17l5 104h-259l-31 -230h222q11 0 11 -23q0 -17 -6 -33t-15 -16h-222l-35 -254h277l24 106q2 7 15.5 12.5t28.5 5.5q26 0 30 -13l-26 -183h-516q-12 0 -12 19q0 15 7 30.5 t17 16.5z"/>
<glyph glyph-name="F" horiz-adv-x="588" unicode="F" d="M25 66l62 7l76 554l-69 7q-12 3 -12 27q0 39 19 39h507l-25 -181q-4 -13 -33 -13q-40 0 -40 17l5 105h-259l-33 -241h222q11 0 11 -23q0 -17 -6.5 -33.5t-14.5 -16.5h-222l-33 -241l69 -7q13 -3 13 -27q0 -15 -5 -27t-14 -12h-230q-12 0 -12 19q0 15 7 30.5t17 16.5z"/>
<glyph glyph-name="G" horiz-adv-x="675" unicode="G" d="M496 111l22 161h-155q-12 0 -12 22q0 17 7 32.5t16 15.5h241l-38 -273q-49 -31 -120 -54.5t-139 -23.5q-55 0 -103 16t-88 48.5t-63 90t-23 132.5q0 104 32 188t86.5 136t123 79.5t143.5 27.5q132 0 207 -48q-9 -64 -22 -170q-4 -13 -33 -13q-39 0 -39 18l4 113 q-42 27 -125 27q-128 0 -205.5 -104t-77.5 -251q0 -96 51.5 -154t145.5 -58q89 0 164 42z"/>
<glyph glyph-name="H" horiz-adv-x="770" unicode="H" d="M25 66l62 7l76 554l-69 7q-12 3 -12 27q0 39 19 39h228q11 0 11 -19q0 -16 -7 -30.5t-18 -16.5l-59 -7l-31 -223h335l31 223l-66 7q-13 3 -13 27q0 15 5 27t14 12h227q11 0 11 -19q0 -16 -7 -30.5t-18 -16.5l-60 -7l-77 -554l69 -7q12 -3 12 -27q0 -15 -5 -27t-13 -12 h-228q-11 0 -11 18q0 16 6.5 31t17.5 17l59 7l36 259h-334l-36 -259l66 -7q13 -3 13 -27q0 -15 -5 -27t-13 -12h-228q-12 0 -12 19q0 15 7 30.5t17 16.5z"/>
<glyph glyph-name="I" horiz-adv-x="356" unicode="I" d="M25 66l69 7l76 554l-74 7q-13 1 -13 27q0 15 5 27t14 12h242q11 0 11 -19q0 -16 -6.5 -31t-17.5 -16l-68 -7l-76 -554l74 -7q12 -3 12 -27q0 -39 -18 -39h-242q-12 0 -12 19q0 15 7 30.5t17 16.5z"/>
<glyph glyph-name="J" horiz-adv-x="548" unicode="J" d="M7 34l21 151q2 14 32 14q38 0 40 -19l-5 -97q27 -19 83 -19q62 0 95.5 38.5t41.5 99.5l60 425l-69 7q-13 1 -13 27q0 39 19 39h229q12 0 12 -19q0 -16 -7 -30.5t-18 -16.5l-61 -7l-60 -426q-14 -101 -81 -155.5t-158 -54.5q-88 0 -161 43z"/>
<glyph glyph-name="K" horiz-adv-x="673" unicode="K" d="M25 66l62 7l76 554l-69 7q-12 3 -12 27q0 39 19 39h225q11 0 11 -19q0 -16 -6.5 -30t-17.5 -17l-57 -7l-34 -247l289 247l-54 7q-13 1 -13 28q0 15 5.5 26.5t14.5 11.5h226q13 0 13 -20q0 -15 -7.5 -29.5t-16.5 -16.5l-58 -7l-261 -220l173 -333l84 -8q12 -2 12 -28 q0 -15 -5 -26.5t-14 -11.5h-146l-177 353l-79 -70l-28 -210l64 -7q13 -3 13 -27q0 -39 -17 -39h-227q-12 0 -12 19q0 15 7 30.5t17 16.5z"/>
<glyph glyph-name="L" horiz-adv-x="583" unicode="L" d="M25 66l62 7l76 554l-69 7q-12 3 -12 27q0 39 19 39h229q11 0 11 -19q0 -16 -6.5 -30.5t-17.5 -16.5l-61 -7l-76 -555h257l27 123q2 7 16 12t28 5q26 0 29 -13l-28 -199h-496q-12 0 -12 19q0 15 7 30.5t17 16.5z"/>
<glyph glyph-name="M" horiz-adv-x="919" unicode="M" d="M833 627l-77 -554l69 -7q12 -3 12 -27q0 -15 -5 -27t-13 -12h-228q-11 0 -11 18q0 16 6.5 31t17.5 17l59 7l60 414q2 16 9 50t9 48h-6l-285 -579q-16 -6 -36 -6q-24 0 -38 6l-133 579h-6q-2 -13 -5.5 -47t-5.5 -52l-55 -413l63 -7q13 -3 13 -27q0 -15 -5 -27t-13 -12 h-216q-12 0 -12 19q0 15 7 30.5t17 16.5l62 7l76 554l-68 7q-13 1 -13 27q0 39 19 39h206l100 -461q10 -47 19 -124h4q32 80 52 122l225 463h200q11 0 11 -19q0 -16 -7 -30.5t-18 -16.5z"/>
<glyph glyph-name="N" horiz-adv-x="770" unicode="N" d="M693 627l-86 -620q-1 -6 -16 -11t-32 -5q-28 0 -43 11l-233 487q-27 57 -42 96h-5q-2 -36 -7 -80l-58 -432l68 -7q13 -3 13 -27q0 -15 -5 -27t-14 -12h-220q-12 0 -12 19q0 15 7 30.5t17 16.5l62 7l76 554l-68 7q-13 1 -13 27q0 39 19 39h181l217 -464q9 -19 24.5 -59 t16.5 -42h5q7 73 9 85l54 407l-66 7q-13 3 -13 27q0 15 5 27t14 12h219q11 0 11 -19q0 -16 -7 -30.5t-18 -16.5z"/>
<glyph glyph-name="O" horiz-adv-x="713" unicode="O" d="M321 64q56 0 101.5 24t74 61t47.5 84.5t27 92t8 86.5q0 94 -45.5 159t-141.5 65q-56 0 -101.5 -24t-74 -61t-47.5 -84.5t-27 -92t-8 -86.5q0 -94 45.5 -159t141.5 -65zM320 -9q-130 0 -204.5 76t-74.5 210q0 196 98 314t255 118q129 0 203.5 -76t74.5 -209 q0 -197 -97.5 -315t-254.5 -118z"/>
<glyph glyph-name="P" horiz-adv-x="600" unicode="P" d="M216 347h107q182 0 182 172q0 61 -37.5 86t-84.5 25h-128zM25 66l62 7l76 554l-69 7q-12 3 -12 27q0 39 19 39h298q27 0 52 -4t52.5 -16t47.5 -31t33.5 -51.5t13.5 -75.5q0 -120 -80 -183.5t-191 -63.5h-119l-28 -202l69 -7q13 -3 13 -27q0 -15 -5 -27t-14 -12h-230 q-12 0 -12 19q0 15 7 30.5t17 16.5z"/>
<glyph glyph-name="Q" horiz-adv-x="713" unicode="Q" d="M321 64q56 0 101.5 24t74 61t47.5 84.5t27 92t8 86.5q0 94 -45.5 159t-141.5 65q-56 0 -101.5 -24t-74 -61t-47.5 -84.5t-27 -92t-8 -86.5q0 -94 45.5 -159t141.5 -65zM533 -105l-194 97q-8 -1 -19 -1q-130 0 -204.5 76t-74.5 210q0 196 98 314t255 118q129 0 203.5 -76 t74.5 -209q0 -151 -59.5 -257t-162.5 -148l124 -50q7 -3 7 -15q0 -19 -14.5 -39t-33.5 -20z"/>
<glyph glyph-name="R" horiz-adv-x="653" unicode="R" d="M218 362h110q24 0 45.5 3.5t46.5 14t43 27.5t30 47t12 70q0 60 -38 83t-89 23h-123zM25 66l62 7l76 554l-69 7q-12 3 -12 27q0 39 19 39h292q206 0 206 -175q0 -95 -58 -152t-136 -69l96 -230l80 -8q12 -2 12 -28q0 -15 -5 -26.5t-14 -11.5h-143l-120 292h-101l-30 -219 l66 -7q13 -3 13 -27q0 -15 -5 -27t-14 -12h-227q-12 0 -12 19q0 15 7 30.5t17 16.5z"/>
<glyph glyph-name="S" horiz-adv-x="582" unicode="S" d="M28 48l21 163q5 12 34 12q36 0 39 -17l-5 -106q53 -36 141 -36q73 0 120 29t47 95q0 43 -26 67t-86 47q-41 16 -55.5 22t-47.5 20.5t-45.5 23.5t-33 25.5t-28.5 32t-15 37t-7 46.5q0 101 72.5 150.5t181.5 49.5q121 0 208 -48l-22 -163q-6 -13 -33 -13q-16 0 -28 5 t-12 13l5 106q-47 27 -121 27t-115.5 -30.5t-41.5 -88.5q0 -36 24.5 -63.5t84.5 -49.5q57 -21 87 -33.5t63.5 -31t49 -36.5t25.5 -44t10 -60q0 -57 -25.5 -99.5t-66.5 -65t-84 -33t-86 -10.5q-133 0 -229 57z"/>
<glyph glyph-name="T" horiz-adv-x="645" unicode="T" d="M169 66l69 7l77 556h-161l-29 -137q-2 -7 -16 -12t-29 -5q-25 0 -29 13l30 212h580l-30 -212q-4 -13 -34 -13q-37 0 -37 17l8 137h-160l-78 -556l74 -7q12 -3 12 -27q0 -39 -18 -39h-241q-12 0 -12 19q0 15 7 30.5t17 16.5z"/>
<glyph glyph-name="U" horiz-adv-x="739" unicode="U" d="M101 249l52 378l-69 7q-12 3 -12 27q0 39 19 39h227q12 0 12 -19q0 -16 -7 -30.5t-18 -16.5l-59 -7l-53 -379q-3 -23 -3 -45q0 -67 36.5 -103t108.5 -36q85 0 134 51t60 133l52 379l-66 7q-13 3 -13 27q0 15 5.5 27t14.5 12h219q11 0 11 -19q0 -16 -7 -30.5t-18 -16.5 l-60 -7l-52 -378q-17 -127 -95.5 -192.5t-196.5 -65.5q-108 0 -167 55.5t-59 153.5q0 17 4 49z"/>
<glyph glyph-name="V" horiz-adv-x="730" unicode="V" d="M745 634l-59 -7q-107 -209 -319 -625q-22 -11 -49 -11t-46 11l-146 625l-69 7q-12 3 -12 27q0 39 19 39h233q11 0 11 -19q0 -16 -7 -30.5t-18 -16.5l-59 -7l88 -427q12 -56 17 -104h5q14 37 44 99l210 432l-69 7q-12 3 -12 27q0 39 19 39h233q11 0 11 -19q0 -16 -7 -30.5 t-18 -16.5z"/>
<glyph glyph-name="W" horiz-adv-x="1010" unicode="W" d="M1021 634l-59 -7l-267 -625q-22 -11 -49 -11q-28 0 -46 11l-64 483q-1 4 -6 86h-5l-12.5 -37.5t-16.5 -47.5l-197 -484q-22 -11 -49 -11t-46 11l-75 625l-69 7q-12 3 -12 27q0 39 19 39h232q11 0 11 -19q0 -16 -7 -30.5t-18 -16.5l-59 -7l38 -431q3 -35 3 -86h5 q14 49 28 84l198 496q24 10 48 10t47 -10l61 -494q2 -16 4 -47.5t2 -38.5h5q15 51 28 84l173 433l-69 7q-12 3 -12 27q0 39 19 39h231q11 0 11 -19q0 -16 -7 -30.5t-18 -16.5z"/>
<glyph glyph-name="X" horiz-adv-x="697" unicode="X" d="M5 66l59 7l233 291l-134 263l-69 7q-12 3 -12 27q0 39 19 39h232q11 0 11 -19q0 -16 -7 -30.5t-18 -16.5l-53 -7l67 -141q6 -11 15 -33.5t12 -29.5h2q18 25 46 63l104 141l-67 7q-12 3 -12 27q0 39 19 39h234q11 0 11 -19q0 -16 -7 -30.5t-18 -16.5l-59 -7l-207 -262 l150 -292l69 -7q12 -3 12 -27q0 -39 -19 -39h-234q-11 0 -11 19q0 16 7 30.5t18 16.5l53 7l-74 156q-13 26 -35 74h-3q-45 -62 -54 -74l-120 -156l67 -7q12 -3 12 -27q0 -39 -19 -39h-234q-11 0 -11 19q0 16 7 30.5t18 16.5z"/>
<glyph glyph-name="Y" horiz-adv-x="660" unicode="Y" d="M670 634l-59 -7l-250 -363l-26 -191l74 -7q12 -3 12 -27q0 -39 -18 -39h-242q-12 0 -12 19q0 15 7 30.5t17 16.5l69 7l26 191l-140 363l-69 7q-12 3 -12 27q0 39 19 39h230q11 0 11 -19q0 -16 -7 -30.5t-18 -16.5l-56 -7l74 -206q6 -18 25 -80h2q35 61 47 79l138 207 l-64 7q-12 3 -12 27q0 39 19 39h229q11 0 11 -19q0 -16 -7 -30.5t-18 -16.5z"/>
<glyph glyph-name="Z" horiz-adv-x="612" unicode="Z" d="M7 63l395 484q28 33 70 79v2h-288l-28 -128q-5 -17 -45 -17q-25 0 -29 13l29 204h463q17 0 17 -37q0 -19 -6 -25l-397 -487q-14 -18 -39 -45.5t-29 -31.5v-2h328l26 121q2 7 16 12.5t29 5.5q25 0 29 -13l-28 -198h-502q-8 0 -13 11t-5 25q0 17 7 27z"/>
<glyph glyph-name="bracketleft" horiz-adv-x="339" unicode="[" d="M235 -210h-180q-25 0 -25 17q0 3 2 15l130 937q2 21 31 21h177q9 0 9 -19q0 -15 -6.5 -29.5t-15.5 -15.5l-115 -10l-117 -842l113 -10q12 -1 12 -27q0 -14 -4.5 -25.5t-10.5 -11.5z"/>
<glyph glyph-name="backslash" horiz-adv-x="554" unicode="\" d="M399 -203l-269 956q4 11 19.5 18.5t32.5 7.5q13 0 18 -4l269 -954q-3 -13 -17.5 -20.5t-31.5 -7.5q-9 0 -21 4z"/>
<glyph glyph-name="bracketright" horiz-adv-x="339" unicode="]" d="M94 780h180q25 0 25 -17q0 -3 -2 -15l-130 -937q-2 -21 -31 -21h-177q-9 0 -9 19q0 15 6.5 29.5t15.5 15.5l115 10l117 842l-113 10q-12 1 -12 27q0 14 4.5 25.5t10.5 11.5z"/>
<glyph glyph-name="asciicircum" horiz-adv-x="532" unicode="^" d="M65 421l185 277q7 11 17 11q9 0 16 -11l184 -277q-2 -17 -38 -17q-33 0 -44 17l-118 177l-119 -177q-11 -17 -43 -17q-37 0 -40 17z"/>
<glyph glyph-name="underscore" horiz-adv-x="478" unicode="_" d="M0 -180h478q10 0 10 -31q0 -29 -10 -29h-478q-10 0 -10 30t10 30z"/>
<glyph glyph-name="grave" horiz-adv-x="524" unicode="`" d="M263 555l-99 114q-4 4 -4 9q0 17 49 17q42 0 58 -19l54 -115q3 -5 3 -7q0 -11 -23 -11q-26 0 -38 12z"/>
<glyph glyph-name="a" horiz-adv-x="569" unicode="a" d="M400 418q-35 12 -82 12q-87 0 -139.5 -74.5t-52.5 -183.5q0 -103 71 -103q35 0 67.5 31.5t58 85.5t44 111t33.5 121zM439 74l71 -10q13 -3 13 -27q0 -14 -5 -25.5t-13 -11.5h-101q-51 0 -51 41q0 15 9 54q30 126 30 128h-6q-70 -232 -213 -232q-65 0 -99 46.5t-34 123.5 q0 63 18 121t52.5 107t93 78t133.5 29q57 0 123 -22q17 -6 23.5 -11.5t6.5 -18.5q0 -6 -2 -22z"/>
<glyph glyph-name="b" horiz-adv-x="558" unicode="b" d="M158 69q28 -12 85 -12q83 0 136 74t53 183q0 49 -18 76.5t-53 27.5t-67 -30.5t-57.5 -84t-44 -110.5t-34.5 -124zM243 677l-28 -200q-6 -38 -26 -116t-23 -97h6q71 232 212 232q65 0 99.5 -47t34.5 -125q0 -62 -18.5 -121t-53.5 -106.5t-91.5 -76.5t-125.5 -29 q-67 0 -130 24q-11 5 -16.5 8t-9 9.5t-3.5 17.5q0 4 2 24l83 592l-71 10q-13 1 -13 26q0 38 17 38h108q49 0 49 -44q0 -5 -2 -19z"/>
<glyph glyph-name="c" horiz-adv-x="464" unicode="c" d="M359 333l3 87q-26 10 -61 10q-81 0 -128 -69.5t-47 -164.5q0 -63 30 -99.5t92 -36.5q12 0 23 1t22.5 4.5t18.5 5.5t19 7.5t16 7.5l17 8.5l15 7.5q29 -11 29 -54q-28 -22 -79 -39.5t-98 -17.5q-36 0 -68 10t-61 31.5t-45.5 62.5t-16.5 98q0 143 77.5 223t185.5 80 q80 0 139 -31l-17 -137q-2 -12 -30 -12q-13 0 -24 5t-12 12z"/>
<glyph glyph-name="d" horiz-adv-x="569" unicode="d" d="M400 418q-31 12 -82 12q-87 0 -139.5 -74.5t-52.5 -183.5q0 -103 71 -103q35 0 67.5 31t57.5 85t44 110.5t34 122.5zM439 74l71 -10q13 -3 13 -27q0 -14 -5 -25.5t-13 -11.5h-102q-50 0 -50 41q0 15 9 54q30 126 30 128h-6q-70 -232 -213 -232q-65 0 -99 46.5t-34 123.5 q0 63 18 121t53 106.5t92.5 78t129.5 29.5q41 0 78 -12l24 182l-71 10q-13 1 -13 26q0 38 17 38h108q49 0 49 -44q0 -5 -2 -19z"/>
<glyph glyph-name="e" horiz-adv-x="475" unicode="e" d="M130 259q54 5 93 11.5t74 19t53.5 33t18.5 49.5q0 58 -68 58q-59 0 -109.5 -47t-61.5 -124zM380 103q31 -9 31 -53q-80 -59 -174 -59q-197 0 -197 200q0 132 77 218.5t198 86.5q69 0 104.5 -31.5t35.5 -80.5q0 -153 -328 -184q0 -3 -0.5 -8.5t-0.5 -6.5q0 -125 124 -125 q64 0 130 43z"/>
<glyph glyph-name="f" horiz-adv-x="356" unicode="f" d="M72 -10l61 431h-75q-12 0 -12 21q0 16 6 30.5t15 14.5h75l8 60q12 94 60 143.5t127 49.5q64 0 124 -36q0 -51 -30 -55q-44 22 -95 22q-38 0 -63 -26.5t-36 -98.5l-9 -59h119q12 0 12 -23q0 -16 -6 -29.5t-15 -13.5h-119l-60 -426q-13 -92 -57 -154.5t-136 -89.5 q-21 10 -21 37q0 10 3 19q53 23 83 64.5t41 118.5z"/>
<glyph glyph-name="g" horiz-adv-x="541" unicode="g" d="M400 418q-31 12 -82 12q-86 0 -139 -73.5t-53 -184.5q0 -103 71 -103q119 0 203 349zM340 -9l4 25q6 39 24.5 109t23.5 98h-6q-71 -232 -213 -232q-65 0 -99 46.5t-34 124.5q0 86 30.5 159.5t99.5 124t165 50.5q60 0 125 -22q17 -6 23.5 -11.5t6.5 -18.5q0 -4 -2 -22 l-59 -418q-17 -120 -83.5 -186.5t-171.5 -66.5q-93 0 -165 52q0 46 34 55q74 -38 133 -38q35 0 62.5 12t44.5 29.5t29.5 42.5t18 45t9.5 42z"/>
<glyph glyph-name="h" horiz-adv-x="589" unicode="h" d="M249 677l-28 -200q-5 -35 -25.5 -113.5t-23.5 -99.5h6q35 114 90.5 173t123.5 59q49 0 78.5 -29t29.5 -84q0 -39 -6 -79l-32 -230l71 -10q13 -1 13 -27q0 -15 -5 -26t-13 -11h-108q-48 0 -48 43q0 5 2 19l32 228q7 47 7 72q0 26 -13 41t-35 15q-48 0 -94.5 -70.5 t-75.5 -161t-39 -171.5l-1 -8q-3 -11 -46 -11q-40 0 -41 11l93 659l-71 10q-13 1 -13 26q0 38 17 38h108q49 0 49 -44q0 -5 -2 -19z"/>
<glyph glyph-name="i" horiz-adv-x="299" unicode="i" d="M119 614q0 25 17.5 42.5t41.5 17.5q25 0 42.5 -17.5t17.5 -42.5q0 -24 -17.5 -41.5t-42.5 -17.5q-24 0 -41.5 17.5t-17.5 41.5zM81 62l49 351l-71 10q-13 1 -13 26q0 38 17 38h108q49 0 49 -44q0 -5 -2 -19l-49 -350l72 -10q12 -2 12 -27q0 -37 -17 -37h-108 q-49 0 -49 43q0 5 2 19z"/>
<glyph glyph-name="j" horiz-adv-x="279" unicode="j" d="M119 614q0 25 17.5 42.5t41.5 17.5q25 0 42.5 -17.5t17.5 -42.5q0 -24 -17.5 -41.5t-42.5 -17.5q-24 0 -41.5 17.5t-17.5 41.5zM218 424l-59 -429q-27 -195 -194 -244q-21 10 -21 37q0 10 3 19q53 23 83 64.5t41 118.5l59 423l-71 10q-13 1 -13 26q0 38 17 38h108 q49 0 49 -44q0 -5 -2 -19z"/>
<glyph glyph-name="k" horiz-adv-x="549" unicode="k" d="M211 245q49 4 94.5 19t79.5 44.5t34 67.5q0 42 -47 42q-84 0 -161 -173zM249 677l-28 -200q-6 -42 -23.5 -106.5t-21.5 -85.5h7q40 108 93.5 159.5t127.5 51.5q49 0 77 -28.5t28 -73.5q0 -71 -59.5 -115.5t-142.5 -62.5l113 -142q13 -2 37 -5.5t34 -4.5q13 -3 13 -25 q0 -39 -16 -39h-90q-30 0 -52 29l-143 188h-5q-24 -67 -42 -202l-1 -8q-2 -11 -46 -11q-40 0 -41 11q14 102 45.5 323t47.5 336l-71 10q-13 1 -13 26q0 38 17 38h108q49 0 49 -44q0 -5 -2 -19z"/>
<glyph glyph-name="l" horiz-adv-x="296" unicode="l" d="M76 62l84 604l-71 10q-13 1 -13 26q0 38 17 38h108q49 0 49 -44q0 -5 -2 -19l-84 -603l72 -10q12 -2 12 -27q0 -37 -17 -37h-108q-49 0 -49 43q0 5 2 19z"/>
<glyph glyph-name="m" horiz-adv-x="842" unicode="m" d="M74 7l57 405l-72 9q-13 3 -13 28q0 15 5 26.5t13 11.5h102q50 0 50 -42q0 -15 -9 -54q-2 -8 -15 -59t-15 -68h6q72 232 201 232q45 0 68 -26t23 -69q0 -20 -4 -42.5t-13 -55.5t-10 -39h6q71 232 200 232q47 0 73 -29.5t26 -83.5q0 -39 -6 -79l-32 -230l72 -10 q12 -2 12 -27q0 -15 -5 -26t-12 -11h-108q-49 0 -49 43q0 5 2 19l32 228q7 49 7 72q0 56 -42 56q-43 0 -84.5 -70t-67.5 -159t-38 -174l-1 -8q-2 -11 -44 -11q-41 0 -42 11l40 276q7 45 7 83q0 52 -43 52q-42 0 -83 -70t-67.5 -159.5t-38.5 -173.5l-1 -8q-2 -11 -45 -11 q-41 0 -42 11z"/>
<glyph glyph-name="n" horiz-adv-x="594" unicode="n" d="M73 7l57 406l-71 10q-13 3 -13 26q0 38 17 38h103q50 0 50 -42q0 -12 -9 -54q-29 -122 -30 -127h6q35 114 91 173t124 59q49 0 78 -29t29 -84q0 -39 -6 -79l-32 -230l71 -10q13 -1 13 -27q0 -15 -5 -26t-13 -11h-108q-48 0 -48 43q0 5 2 19l32 228q7 47 7 72 q0 26 -12.5 41t-34.5 15q-47 0 -93 -67t-75 -157t-42 -179l-1 -8q-3 -11 -46 -11q-40 0 -41 11z"/>
<glyph glyph-name="o" horiz-adv-x="521" unicode="o" d="M237 57q74 0 116 68t42 157q0 77 -31.5 112.5t-80.5 35.5q-74 0 -115.5 -67.5t-41.5 -156.5q0 -77 31.5 -113t79.5 -36zM235 -9q-89 0 -142 55.5t-53 157.5q0 73 26.5 138t84 109.5t135.5 44.5q90 0 142.5 -55t52.5 -157q0 -75 -27 -140.5t-84.5 -109t-134.5 -43.5z"/>
<glyph glyph-name="p" horiz-adv-x="570" unicode="p" d="M169 69q35 -12 82 -12q87 0 139.5 74.5t52.5 183.5q0 103 -71 103q-35 0 -68 -33t-58.5 -87t-44 -111t-32.5 -118zM130 413l-71 10q-13 3 -13 27q0 14 5 25.5t13 11.5h101q51 0 51 -41q0 -15 -9 -54q-30 -126 -30 -128h6q70 232 213 232q65 0 99 -46.5t34 -123.5 q0 -63 -18 -121t-53 -106.5t-92.5 -78t-129.5 -29.5q-40 0 -78 12l-23 -171l65 -9q12 -1 12 -25q0 -15 -5 -26.5t-13 -11.5h-208q-12 0 -12 20q0 15 5.5 28.5t14.5 14.5l55 9z"/>
<glyph glyph-name="q" horiz-adv-x="543" unicode="q" d="M400 418q-35 12 -82 12q-86 0 -139 -74t-53 -184q0 -103 71 -103q119 0 203 349zM255 -177l64 9l24 177q5 40 24.5 113.5t24.5 100.5h-6q-70 -232 -213 -232q-65 0 -99 46.5t-34 124.5q0 63 18.5 121.5t53.5 106.5t93 77t131 29q59 0 124 -22q17 -6 23.5 -11.5t6.5 -18.5 q0 -4 -2 -22l-83 -590l56 -9q12 -1 12 -25q0 -15 -5 -26.5t-13 -11.5h-208q-12 0 -12 20q0 15 5.5 28.5t14.5 14.5z"/>
<glyph glyph-name="r" horiz-adv-x="433" unicode="r" d="M73 7l57 406q-32 5 -71 10q-13 3 -13 26q0 38 17 38h103q50 0 50 -41q0 -19 -9 -55q-27 -107 -30 -127h6q40 123 86.5 177.5t124.5 54.5q21 0 36 -5q10 -3 10 -25q0 -19 -6 -36t-14 -17h-33q-39 0 -73.5 -27.5t-58.5 -74t-42 -91.5t-30 -97.5t-16 -72.5t-6 -35l-1 -8 q-3 -11 -46 -11q-40 0 -41 11z"/>
<glyph glyph-name="s" horiz-adv-x="482" unicode="s" d="M45 27l15 130q3 13 27 13q37 0 40 -17l-3 -80q43 -16 95 -16q111 0 111 68q0 29 -21 46t-81 42q-84 35 -117.5 66t-33.5 82q0 61 52.5 98t138.5 37q94 0 169 -29l-15 -131q-1 -13 -30 -13q-34 0 -37 18l2 79q-32 10 -83 10q-47 0 -76 -16t-29 -49q0 -27 22 -43.5 t86 -42.5q78 -32 112 -62.5t34 -82.5q0 -70 -57.5 -106.5t-143.5 -36.5q-97 0 -177 36z"/>
<glyph glyph-name="t" horiz-adv-x="380" unicode="t" d="M90 159l36 262h-75q-12 0 -12 23q0 15 6.5 29t15.5 14h75l28 121q3 12 17.5 19.5t31.5 7.5q21 0 29 -11l-20 -137h119q12 0 12 -22q0 -16 -6 -30t-15 -14h-119l-37 -259q-3 -19 -3 -47q0 -55 63 -55q27 0 82 23q25 -12 25 -55q-66 -37 -127 -37q-129 0 -129 124 q0 20 3 44z"/>
<glyph glyph-name="u" horiz-adv-x="594" unicode="u" d="M521 480l-57 -406l71 -10q13 -3 13 -26q0 -38 -17 -38h-103q-50 0 -50 42q0 12 9 54q29 122 30 127h-6q-35 -114 -91 -173t-124 -59q-49 0 -78 29t-29 84q0 38 6 79l32 230l-71 10q-13 1 -13 27q0 15 5 26t13 11h108q48 0 48 -43q0 -5 -2 -19l-32 -228q-7 -47 -7 -72 q0 -26 12.5 -41t34.5 -15q47 0 93 67t75 157t42 179l1 8q3 11 46 11q40 0 41 -11z"/>
<glyph glyph-name="v" horiz-adv-x="554" unicode="v" d="M104 259l16 154l-72 10q-12 1 -12 26q0 38 16 38h109q49 0 49 -38q0 -9 -3 -39l-17 -151q-7 -72 -7 -109q0 -87 63 -87q47 0 84 52t57.5 127t31.5 171l-70 10q-13 1 -13 26q0 38 17 38h104q51 0 51 -44q0 -14 -1 -24q-14 -104 -37.5 -182.5t-50 -124t-60 -74t-62 -38 t-60.5 -9.5q-71 0 -105.5 44.5t-34.5 115.5q0 47 7 108z"/>
<glyph glyph-name="w" horiz-adv-x="829" unicode="w" d="M97 144q0 33 7 115l16 154l-72 10q-12 1 -12 26q0 38 16 38h109q49 0 49 -38q0 -9 -3 -39l-16 -140q-8 -70 -8 -115q0 -44 15.5 -65t50.5 -21q38 0 70 55.5t50 128t29 158.5l9 70q2 10 47 10q38 0 41 -10l-9 -70q-23 -173 -23 -252q0 -90 62 -90q64 0 106 94.5t62 249.5 l-68 9q-12 2 -12 27q0 38 16 38h104q49 0 49 -38q0 -19 -2 -39q-12 -98 -35.5 -175t-51 -121.5t-60 -73.5t-60 -39t-53.5 -10q-57 0 -85 32.5t-32 98.5q0 33 2 51h-6q-24 -93 -72.5 -137.5t-100.5 -44.5q-64 0 -96.5 43t-32.5 110z"/>
<glyph glyph-name="x" horiz-adv-x="545" unicode="x" d="M31 64l194 191l-87 158l-72 10q-13 2 -13 27q0 37 18 37h86q25 0 35.5 -6.5t19.5 -23.5l56 -115q13 -24 22 -44h2q17 21 29 34l82 85l-55 6q-12 3 -12 28q0 36 18 36h158q11 0 11 -24q0 -28 -12 -40l-180 -174l99 -175l70 -10q13 -1 13 -27q0 -37 -17 -37h-97 q-16 0 -24.5 7.5t-18.5 26.5l-74 136q-13 22 -17 33h-2q-14 -18 -41 -45l-91 -88l60 -6q12 -3 12 -29q0 -35 -16 -35h-158q-13 0 -13 24q0 28 15 40z"/>
<glyph glyph-name="y" horiz-adv-x="511" unicode="y" d="M169 -76l40 66l-135 423l-72 10q-12 1 -12 26q0 38 18 38h101q25 0 34 -10.5t18 -41.5l83 -285q9 -31 17 -79h2q39 65 78.5 170t47.5 172l-72 10q-12 1 -12 26q0 38 17 38h110q49 0 49 -41q0 -69 -64 -221.5t-163 -309.5q-58 -92 -109.5 -128t-112.5 -36t-97 20 q0 45 30 64q35 -13 64 -13q39 0 71 20.5t69 81.5z"/>
<glyph glyph-name="z" horiz-adv-x="502" unicode="z" d="M33 60l270 312q21 24 49 47v2h-192l-20 -82q-5 -20 -40 -20q-24 0 -27 15l21 153h359q11 0 11 -25q0 -20 -5 -30l-281 -320q-14 -16 -42 -44v-2h218l20 82q2 8 14.5 13.5t25.5 5.5q24 0 27 -14l-21 -153h-381q-12 0 -12 33q0 19 6 27z"/>
<glyph glyph-name="braceleft" horiz-adv-x="355" unicode="{" d="M91 -26l23 165q2 22 2 35q0 74 -53 74h-24q-9 0 -9 19q0 21 5.5 38t14.5 17h24q66 0 81 109l25 175q12 89 54 131.5t138 42.5h22q11 0 11 -22q0 -17 -7 -29.5t-17 -13.5l-36 -5q-40 -5 -56 -30t-22 -70l-25 -179q-8 -58 -31 -94.5t-78 -49.5l-1 -4q73 -21 73 -94 q0 -16 -4 -50l-25 -179q-3 -19 -3 -43q0 -49 53 -57l35 -5q14 -1 14 -23q0 -15 -5.5 -28.5t-14.5 -13.5h-22q-80 0 -113 33.5t-33 99.5q0 27 4 51z"/>
<glyph glyph-name="bar" horiz-adv-x="270" unicode="|" d="M92 -196v962q0 14 43 14q44 0 44 -14v-962q0 -14 -44 -14q-43 0 -43 14z"/>
<glyph glyph-name="braceright" horiz-adv-x="355" unicode="}" d="M254 596l-23 -165q-2 -22 -2 -35q0 -74 53 -74h24q9 0 9 -19q0 -21 -5.5 -38t-14.5 -17h-24q-66 0 -81 -109l-25 -175q-12 -89 -54 -131.5t-138 -42.5h-22q-11 0 -11 22q0 17 7 29.5t17 13.5l36 5q40 5 56 30t22 70l25 179q8 58 31 94.5t78 49.5l1 4q-73 21 -73 94 q0 16 4 50l25 179q3 20 3 43q0 49 -53 57l-35 5q-14 1 -14 23q0 15 5.5 28.5t14.5 13.5h22q80 0 113 -33.5t33 -99.5q0 -27 -4 -51z"/>
<glyph glyph-name="asciitilde" horiz-adv-x="632" unicode="~" d="M80 324q60 86 145 86q49 0 103 -27q46 -21 81 -21q61 0 97 44q35 -2 46 -35q-59 -82 -142 -82q-46 0 -115 28q-48 20 -75 20q-51 0 -94 -50q-35 4 -46 37z"/>
<glyph glyph-name="uni00A0" horiz-adv-x="350" unicode=" "/>
<glyph glyph-name="exclamdown" horiz-adv-x="304" unicode="¡" d="M191 295l-53 -485q-10 -19 -55 -19q-43 0 -53 19l84 485q1 10 37 10q40 0 40 -10zM171 509q27 0 45 -19t18 -45t-18 -44.5t-45 -18.5q-26 0 -44.5 17.5t-18.5 45.5q0 27 18 45.5t45 18.5z"/>
<glyph glyph-name="cent" d="M166 196q0 -98 65 -126l48 347q-53 -25 -83 -86.5t-30 -134.5zM399 333l3 87q-26 10 -61 10l-53 -370q12 0 23 1t22.5 4.5t18.5 5.5t19 7.5t16 7.5l17 8.5l15 7.5q29 -11 29 -54q-27 -20 -75 -37.5t-94 -19.5l-13 -94q-2 -8 -32 -8q-27 0 -27 8l14 99q-141 29 -141 197 q0 124 59.5 201t149.5 96l15 105q0 8 31 8q28 0 28 -8l-14 -99q76 -2 133 -31l-17 -137q-2 -12 -30 -12q-13 0 -24 5t-12 12z" unicode="¢"/>
<glyph glyph-name="sterling" d="M24 65l61 8l36 254h-62q-9 0 -9 20q0 16 5.5 31t12.5 15h62l12 83q16 112 82.5 172.5t178.5 60.5q85 0 165 -31l-21 -153q-4 -14 -35 -14q-32 0 -34 17l2 100q-30 11 -83 11q-142 0 -166 -165l-12 -81h180q7 0 7 -20q0 -16 -4.5 -31t-11.5 -15h-180l-36 -258h240l25 106 q6 20 42 20q27 0 28 -15l-25 -180h-472q-12 0 -12 20q0 16 7.5 30t16.5 15z" unicode="£"/>
<glyph glyph-name="currency" d="M290 166q68 0 118 50t50 119q0 70 -50 120.5t-118 50.5q-69 0 -117.5 -50t-48.5 -121q0 -70 48.5 -119.5t117.5 -49.5zM20 115l78 79q-46 62 -46 141q0 77 46 141l-78 79q-4 3 -4 7q0 14 17 30.5t30 16.5q3 0 8 -3l79 -79q60 47 140 47q74 0 141 -47l79 79q2 2 9 2 q13 0 29 -16t16 -30q0 -5 -2 -7l-79 -79q46 -55 46 -141q0 -83 -46 -141l79 -79q2 -4 2 -8q0 -13 -16 -30t-29 -17q-6 0 -9 3l-79 79q-61 -45 -141 -45q-81 0 -140 45l-79 -79q-5 -3 -8 -3q-14 0 -30.5 17t-16.5 31q0 3 4 7z" unicode="¤"/>
<glyph glyph-name="yen" d="M607 634l-57 -7l-189 -296h101q5 0 5 -16q0 -14 -4 -28t-9 -14h-130l-5 -9l-7 -50h134q5 0 5 -16q0 -13 -4 -27t-9 -15h-135l-11 -83l72 -7q11 -3 11 -27q0 -15 -5 -27t-13 -12h-234q-11 0 -11 16t6.5 32.5t17.5 17.5l66 7l11 83h-132q-7 0 -7 16q0 14 5 28t11 14h131 l7 50l-3 9h-127q-8 0 -8 17q0 12 4.5 25.5t10.5 15.5h100l-102 296l-66 7q-12 3 -12 27q0 16 5.5 27.5t14.5 11.5h221q10 0 10 -16t-6.5 -32t-17.5 -18l-54 -7l62 -206q22 -76 23 -81h2q6 10 20.5 38t23.5 42l125 207l-62 7q-11 3 -11 27q0 15 5.5 27t13.5 12h221 q10 0 10 -16t-6.5 -32t-17.5 -18z" unicode="¥"/>
<glyph glyph-name="brokenbar" horiz-adv-x="270" unicode="¦" d="M92 -196v402q0 14 43 14q44 0 44 -14v-402q0 -14 -44 -14q-43 0 -43 14zM92 364v402q0 14 43 14q44 0 44 -14v-402q0 -14 -44 -14q-43 0 -43 14z"/>
<glyph glyph-name="section" horiz-adv-x="543" unicode="§" d="M290 82q102 82 102 163q0 39 -47 76q-54 43 -105 66q-111 -68 -111 -143q0 -27 13 -49.5t25 -32.5t33 -23q84 -54 90 -57zM20 -207q7 45 19 137q5 15 33 15q36 0 38 -21l-4 -86q40 -10 76 -10q47 0 81 24.5t34 77.5q0 22 -9.5 40.5t-29 34.5t-36 27t-43.5 26t-39 23 q-27 17 -45 32.5t-36.5 49t-18.5 74.5q0 54 34 100.5t109 94.5q-25 25 -36.5 48t-11.5 61q0 86 62.5 127t152.5 41q72 0 148 -34l-19 -137q-5 -15 -33 -15q-37 0 -38 21l5 85q-38 11 -71 11q-50 0 -82 -28t-32 -71q0 -28 17 -49t60 -47q7 -4 35.5 -20.5t41.5 -24.5t36 -26.5 t34 -34.5t20.5 -40t9.5 -50q0 -98 -136 -206q24 -23 34.5 -46.5t10.5 -61.5q0 -69 -55.5 -122.5t-150.5 -53.5q-89 0 -165 34z"/>
<glyph glyph-name="dieresis" horiz-adv-x="475" unicode="¨" d="M330 611q0 24 16.5 41t40.5 17q23 0 40 -17t17 -41q0 -22 -17.5 -39t-39.5 -17q-24 0 -40.5 17t-16.5 39zM150 611q0 24 16.5 41t39.5 17t40.5 -17t17.5 -41q0 -22 -17.5 -39t-40.5 -17q-22 0 -39 17t-17 39z"/>
<glyph glyph-name="copyright" horiz-adv-x="887" unicode="©" d="M522 426l-9 61q-23 10 -58 10q-62 0 -91 -41t-29 -105q0 -71 33 -101t85 -30t114 30q23 -12 23 -51q-57 -38 -143 -38q-83 0 -136 45t-53 145q0 102 55.5 152.5t142.5 50.5q69 0 122 -25v-105q-1 -11 -25 -11q-30 0 -31 13zM146 350q0 -124 87.5 -211t210.5 -87 q124 0 210.5 86.5t86.5 211.5q0 124 -86.5 211.5t-210.5 87.5q-123 0 -210.5 -88t-87.5 -211zM80 350q0 151 106.5 257.5t257.5 106.5q150 0 256.5 -107t106.5 -257q0 -149 -106.5 -256t-256.5 -107t-257 107t-107 256z"/>
<glyph glyph-name="ordfeminine" horiz-adv-x="440" unicode="ª" d="M310 644q-21 8 -49 8q-53 0 -83.5 -47t-30.5 -110q0 -60 41 -60q39 0 70.5 60.5t51.5 148.5zM360 435l49 -7q11 -2 11 -23q0 -34 -16 -34h-80q-38 0 -38 32q0 15 7 41q2 8 8.5 35t7.5 32h-5q-46 -146 -142 -146q-44 0 -68 31.5t-24 83.5q0 96 55 162.5t153 66.5 q41 0 89 -15q13 -5 18.5 -10.5t5.5 -15.5t-1 -16z"/>
<glyph glyph-name="guillemotleft" horiz-adv-x="488" unicode="«" d="M167 54l-103 197q-4 7 -4 13q1 8 8 16l156 198q48 -1 59 -39l-131 -173l82 -182q-17 -30 -67 -30zM339 75l-87 177q-3 6 -3 12q2 10 7 16l135 177q46 0 57 -37l-110 -157l66 -157q-18 -31 -65 -31z"/>
<glyph glyph-name="logicalnot" horiz-adv-x="729" unicode="¬" d="M70 431h559v-222q0 -11 -35 -11t-35 11v156h-489q-10 0 -10 33t10 33z"/>
<glyph glyph-name="uni00AD" horiz-adv-x="486" unicode="­" d="M111 303h276q9 0 9 -31q0 -40 -9 -40h-276q-11 0 -11 35q0 36 11 36z"/>
<glyph glyph-name="registered" horiz-adv-x="887" unicode="®" d="M392 373h55q27 0 49 14.5t22 48.5q0 59 -66 59h-60v-122zM283 218l35 4v273l-40 4q-13 3 -13 28q0 22 11 22h178q141 0 141 -113q0 -44 -25.5 -71.5t-60.5 -36.5l67 -106l45 -4q14 -1 14 -26q0 -24 -11 -24h-97l-91 151h-42v-97l37 -4q14 -1 14 -26q0 -24 -11 -24h-153 q-10 0 -10 23q0 25 12 27zM146 350q0 -124 87.5 -211t210.5 -87q124 0 210.5 86.5t86.5 211.5q0 124 -86.5 211.5t-210.5 87.5q-123 0 -210.5 -88t-87.5 -211zM80 350q0 151 106.5 257.5t257.5 106.5q150 0 256.5 -107t106.5 -257q0 -149 -106.5 -256t-256.5 -107t-257 107 t-107 256z"/>
<glyph glyph-name="macron" horiz-adv-x="523" unicode="¯" d="M183 639h251q10 0 10 -32q0 -33 -10 -33h-252q-11 0 -11 32q0 33 12 33z"/>
<glyph glyph-name="degree" horiz-adv-x="350" unicode="°" d="M140 594q0 -23 18 -40.5t42 -17.5q25 0 43 17.5t18 40.5q0 28 -19.5 45.5t-41.5 17.5q-24 0 -42 -19.5t-18 -43.5zM85 595q0 48 34 81t82 33t81 -33t33 -81q0 -46 -33.5 -79t-80.5 -33t-81.5 33t-34.5 79z"/>
<glyph glyph-name="plusminus" horiz-adv-x="660" unicode="±" d="M90 106h480q10 0 10 -36q0 -34 -10 -34h-480q-10 0 -10 34q0 36 10 36zM295 168v166h-205q-10 0 -10 35q0 36 10 36h205v167q0 9 34 9q36 0 36 -9v-167h205q10 0 10 -36q0 -35 -10 -35h-205v-166q0 -10 -36 -10q-34 0 -34 10z"/>
<glyph glyph-name="twosuperior" horiz-adv-x="400" unicode="²" d="M62 371l104 89q59 49 83 82t24 68q0 20 -14 32t-38 12q-33 0 -59 -13l-16 -59q-5 -13 -32 -13q-23 0 -23 11l14 100q61 29 130 29q59 0 87 -24.5t28 -64.5q0 -52 -32 -91.5t-110 -102.5l-69 -56h134l15 56q3 13 31 13q20 0 22 -11l-16 -115h-266q-7 11 -7 25q0 20 10 33z "/>
<glyph glyph-name="threesuperior" horiz-adv-x="400" unicode="³" d="M116 579q-23 0 -23 11l16 110h241q10 -10 10 -29q0 -11 -1 -16l-117 -115q95 -5 95 -87q0 -65 -50 -106t-122 -41q-34 0 -72 11t-53 28q2 15 10 30t21 20q49 -32 100 -32q41 0 67.5 20t26.5 60q0 50 -64 50h-33q-7 6 -7 27q0 3 2 9l109 114h-109l-15 -51q-5 -13 -32 -13z "/>
<glyph glyph-name="acute" horiz-adv-x="619" unicode="´" d="M257 561l75 124q16 19 63 19q49 0 49 -18q0 -4 -4 -8l-123 -122q-12 -13 -39 -13q-24 0 -24 11q0 2 3 7z"/>
<glyph glyph-name="paragraph" horiz-adv-x="495" unicode="¶" d="M249 -237l132 937h64l-132 -937q-1 -12 -35 -12q-29 0 -29 12zM118 -237l91 646q-71 1 -107.5 36.5t-36.5 89.5q0 65 47.5 115t139.5 50h62l-132 -937q-2 -12 -35 -12q-29 0 -29 12z"/>
<glyph glyph-name="periodcentered" horiz-adv-x="281" unicode="·" d="M70 351q0 29 21.5 50t50.5 21q28 0 48.5 -21t20.5 -50q0 -28 -20.5 -48.5t-48.5 -20.5q-29 0 -50.5 20.5t-21.5 48.5z"/>
<glyph glyph-name="cedilla" horiz-adv-x="468" unicode="¸" d="M169 -90l25 90h56l-14 -47q41 0 61.5 -17t20.5 -47q0 -44 -33.5 -69t-81.5 -25q-59 0 -83 22q6 34 30 43q25 -16 56 -16q20 0 31 11t11 27q0 31 -42 31q-18 0 -37 -3z"/>
<glyph glyph-name="onesuperior" horiz-adv-x="400" unicode="¹" d="M122 362l54 4l36 266l-84 -46q-23 10 -23 36q0 6 1 10l131 77q40 0 57 -11l-47 -332l49 -4q10 -1 10 -20q0 -11 -4 -20t-10 -9h-178q-8 0 -8 14q0 12 4.5 23t11.5 12z"/>
<glyph glyph-name="ordmasculine" horiz-adv-x="440" unicode="º" d="M233 423q41 0 67 39.5t26 99.5q0 47 -18.5 68t-46.5 21q-41 0 -66.5 -40t-25.5 -100q0 -46 18 -67t46 -21zM230 365q-64 0 -102 37t-38 107q0 83 48 141.5t127 58.5q63 0 101.5 -37.5t38.5 -107.5q0 -85 -48.5 -142t-126.5 -57z"/>
<glyph glyph-name="guillemotright" horiz-adv-x="488" unicode="»" d="M205 93l131 173l-82 183q16 29 67 29l103 -197q3 -5 3 -14q0 -8 -7 -15l-157 -198q-49 1 -58 39zM40 112l110 158l-67 156q19 31 66 31l86 -177q4 -7 4 -13q-2 -9 -8 -15l-134 -177q-46 0 -57 37z"/>
<glyph glyph-name="onequarter" horiz-adv-x="890" unicode="¼" d="M117 362l54 4l36 266l-84 -46q-23 10 -23 36q0 6 1 10l131 77q40 0 57 -11l-47 -332l49 -4q10 -1 10 -20q0 -11 -4 -20t-10 -9h-178q-8 0 -8 14q0 12 4.5 23t11.5 12zM181 -27l447 769q37 0 53 -26l-445 -769q-39 0 -55 26zM530 162h104l21 146zM459 152l206 241 q14 3 32 3q21 0 38 -7l-32 -224h59q8 0 8 -18q0 -13 -4.5 -26t-11.5 -13h-58l-9 -56l42 -4q9 -3 9 -20q0 -28 -14 -28h-159q-8 0 -8 12q0 34 16 35l43 5l9 56h-155q-13 10 -13 31q0 5 2 13z"/>
<glyph glyph-name="onehalf" horiz-adv-x="890" unicode="½" d="M512 58l104 89q59 49 83 82t24 68q0 20 -14 32t-38 12q-33 0 -59 -13l-16 -59q-5 -13 -32 -13q-23 0 -23 11l14 100q61 29 130 29q59 0 87 -24.5t28 -64.5q0 -52 -32 -91.5t-110 -102.5l-69 -56h134l15 56q3 13 31 13q20 0 22 -11l-16 -115h-266q-7 10 -7 25q0 20 10 33z M112 362l54 4l36 266l-84 -46q-23 10 -23 36q0 6 1 10l131 77q40 0 57 -11l-47 -332l49 -4q10 -1 10 -20q0 -11 -4 -20t-10 -9h-178q-8 0 -8 14q0 12 4.5 23t11.5 12zM176 -27l447 769q37 0 53 -26l-445 -769q-39 0 -55 26z"/>
<glyph glyph-name="threequarters" horiz-adv-x="890" unicode="¾" d="M126 579q-23 0 -23 11l16 110h241q10 -10 10 -29q0 -11 -1 -16l-117 -115q95 -5 95 -87q0 -65 -50 -106t-122 -41q-34 0 -72 11t-53 28q2 15 10 30t21 20q49 -32 100 -32q41 0 67.5 20t26.5 60q0 50 -64 50h-33q-7 6 -7 27q0 3 2 9l109 114h-109l-15 -51q-5 -13 -32 -13z M191 -27l447 769q37 0 53 -26l-445 -769q-39 0 -55 26zM540 162h104l21 146zM469 152l206 241q13 3 32 3q21 0 38 -7l-32 -224h59q8 0 8 -18q0 -13 -4.5 -26t-11.5 -13h-58l-9 -56l42 -4q9 -3 9 -20q0 -28 -14 -28h-159q-8 0 -8 12q0 34 16 35l43 5l9 56h-155q-13 10 -13 31 q0 5 2 13z"/>
<glyph glyph-name="questiondown" horiz-adv-x="482" unicode="¿" d="M283 509q27 0 45 -19t18 -45t-18.5 -44.5t-44.5 -18.5t-45 17.5t-19 45.5q0 27 18.5 45.5t45.5 18.5zM391 -160q-96 -49 -208 -49q-104 0 -151 41t-47 108q0 60 30 102.5t94 95.5q69 56 89 82.5t24 65.5l1 9q1 11 47 11q44 0 44 -11l-1 -9q-10 -72 -69 -126 q-18 -17 -55.5 -50t-48 -44t-28.5 -32.5t-23 -38.5t-5 -39q0 -92 112 -92q57 0 120 27l22 100q2 9 15 15t28 6q27 0 31 -16z"/>
<glyph glyph-name="Agrave" horiz-adv-x="736" unicode="À" d="M380 773l-110 134q-4 4 -4 8q0 19 50 19q49 0 61 -19l67 -138q1 -2 1 -5q0 -12 -27 -12t-38 13zM239 268h239l-72 336h-4zM-8 66l62 7l275 552l-69 7q-12 2 -12 28q0 40 19 40h209l139 -627l69 -7q12 -3 12 -27q0 -15 -5 -27t-13 -12h-230q-11 0 -11 18q0 16 6.5 31 t17.5 17l59 7l-28 123h-283l-62 -123l66 -7q13 -3 13 -27q0 -15 -5 -27t-13 -12h-228q-12 0 -12 19q0 15 7 30.5t17 16.5z"/>
<glyph glyph-name="Aacute" horiz-adv-x="736" unicode="Á" d="M343 777l79 137q14 20 64 20q20 0 34 -5.5t14 -13.5q0 -5 -4 -9l-123 -133q-10 -13 -38 -13t-28 11q0 2 2 6zM239 268h239l-72 336h-4zM-8 66l62 7l275 552l-69 7q-12 2 -12 28q0 40 19 40h209l139 -627l69 -7q12 -3 12 -27q0 -15 -5 -27t-13 -12h-230q-11 0 -11 18 q0 16 6.5 31t17.5 17l59 7l-28 123h-283l-62 -123l66 -7q13 -3 13 -27q0 -15 -5 -27t-13 -12h-228q-12 0 -12 19q0 15 7 30.5t17 16.5z"/>
<glyph glyph-name="Acircumflex" horiz-adv-x="736" unicode="Â" d="M238 783l130 123q11 9 49 9q36 0 43 -9l92 -121q3 -4 3 -9q0 -16 -30 -16q-36 0 -51 19l-62 68l-92 -72q-16 -15 -52 -15q-35 0 -35 15q0 3 5 8zM239 268h239l-72 336h-4zM-8 66l62 7l275 552l-69 7q-12 2 -12 28q0 40 19 40h209l139 -627l69 -7q12 -3 12 -27 q0 -15 -5 -27t-13 -12h-230q-11 0 -11 18q0 16 6.5 31t17.5 17l59 7l-28 123h-283l-62 -123l66 -7q13 -3 13 -27q0 -15 -5 -27t-13 -12h-228q-12 0 -12 19q0 15 7 30.5t17 16.5z"/>
<glyph glyph-name="Atilde" horiz-adv-x="736" unicode="Ã" d="M222 783q2 42 28.5 71.5t71.5 29.5q22 0 78 -20q42 -17 60 -17q14 0 21.5 6.5t11.5 26.5q6 8 29 8q22 0 32 -8q-2 -46 -28.5 -74.5t-62.5 -28.5q-23 0 -80 21q-47 18 -60 18q-28 0 -35 -33q-10 -10 -33 -10t-33 10zM239 268h239l-72 336h-4zM-8 66l62 7l275 552l-69 7 q-12 2 -12 28q0 40 19 40h209l139 -627l69 -7q12 -3 12 -27q0 -15 -5 -27t-13 -12h-230q-11 0 -11 18q0 16 6.5 31t17.5 17l59 7l-28 123h-283l-62 -123l66 -7q13 -3 13 -27q0 -15 -5 -27t-13 -12h-228q-12 0 -12 19q0 15 7 30.5t17 16.5z"/>
<glyph glyph-name="Adieresis" horiz-adv-x="736" unicode="Ä" d="M431 835q0 28 18 46.5t43 18.5q27 0 45 -17.5t18 -47.5q0 -26 -17.5 -42.5t-45.5 -16.5q-26 0 -43.5 17.5t-17.5 41.5zM215 835q0 28 17 46.5t43 18.5q27 0 45.5 -17.5t18.5 -47.5q0 -25 -18.5 -42t-45.5 -17q-26 0 -43 17.5t-17 41.5zM239 268h239l-72 336h-4zM-8 66 l62 7l275 552l-69 7q-12 2 -12 28q0 40 19 40h209l139 -627l69 -7q12 -3 12 -27q0 -15 -5 -27t-13 -12h-230q-11 0 -11 18q0 16 6.5 31t17.5 17l59 7l-28 123h-283l-62 -123l66 -7q13 -3 13 -27q0 -15 -5 -27t-13 -12h-228q-12 0 -12 19q0 15 7 30.5t17 16.5z"/>
<glyph glyph-name="Aring" horiz-adv-x="736" unicode="Å" d="M392 802q20 0 35 14.5t15 34.5q0 19 -15 33t-35 14q-19 0 -33 -14t-14 -33q0 -20 14 -34.5t33 -14.5zM290 851q0 43 29.5 72.5t72.5 29.5q44 0 73.5 -29.5t29.5 -72.5q0 -44 -29.5 -73.5t-73.5 -29.5q-43 0 -72.5 30t-29.5 73zM239 268h239l-72 336h-4zM-8 66l62 7 l275 552l-69 7q-12 2 -12 28q0 40 19 40h209l139 -627l69 -7q12 -3 12 -27q0 -15 -5 -27t-13 -12h-230q-11 0 -11 18q0 16 6.5 31t17.5 17l59 7l-28 123h-283l-62 -123l66 -7q13 -3 13 -27q0 -15 -5 -27t-13 -12h-228q-12 0 -12 19q0 15 7 30.5t17 16.5z"/>
<glyph glyph-name="AE" horiz-adv-x="1026" unicode="Æ" d="M290 268h229l49 358h-12zM-9 66l62 7l410 551l-75 8q-14 3 -14 28q0 15 5.5 27.5t13.5 12.5h620l-25 -180q-4 -13 -34 -13q-39 0 -39 17l5 104h-259l-31 -230h222q11 0 11 -23q0 -17 -6 -33t-15 -16h-222l-35 -254h277l24 106q1 7 15 12.5t29 5.5q26 0 30 -13l-26 -183 h-514q-11 0 -11 19q0 15 7 30.5t17 16.5l59 7l17 125h-270l-93 -125l65 -7q13 -3 13 -28q0 -38 -18 -38h-227q-11 0 -11 19q0 15 7 30.5t16 16.5z"/>
<glyph glyph-name="Ccedilla" horiz-adv-x="622" unicode="Ç" d="M249 -95l25 89q-103 11 -168 80.5t-65 202.5q0 105 31 188.5t84 136t120.5 80t142.5 27.5q114 0 188 -46l-22 -175q-4 -13 -33 -13q-38 0 -39 18l5 118q-39 25 -106 25q-86 0 -150.5 -50.5t-95.5 -130t-31 -175.5t51.5 -153.5t145.5 -57.5q38 0 76.5 10t60.5 20t63 31 q31 -20 31 -66q-106 -66 -229 -72l-13 -43q44 0 66 -18.5t22 -51.5q0 -46 -35.5 -72.5t-88.5 -26.5q-63 0 -88 23q4 36 31 46q25 -16 60 -16q22 0 35 11.5t13 28.5q0 34 -45 34q-28 0 -42 -2z"/>
<glyph glyph-name="Egrave" horiz-adv-x="621" unicode="È" d="M322 773l-110 134q-4 4 -4 8q0 19 50 19q49 0 61 -19l67 -138q1 -2 1 -5q0 -12 -27 -12t-38 13zM25 66l62 7l76 554l-69 7q-12 3 -12 27q0 39 19 39h507l-25 -180q-4 -13 -33 -13q-40 0 -40 17l5 104h-259l-31 -230h222q11 0 11 -23q0 -17 -6 -33t-15 -16h-222l-35 -254 h277l24 106q2 7 15.5 12.5t28.5 5.5q26 0 30 -13l-26 -183h-516q-12 0 -12 19q0 15 7 30.5t17 16.5z"/>
<glyph glyph-name="Eacute" horiz-adv-x="621" unicode="É" d="M325 777l79 137q14 20 64 20q20 0 34 -5.5t14 -13.5q0 -5 -4 -9l-123 -133q-10 -13 -38 -13t-28 11q0 2 2 6zM25 66l62 7l76 554l-69 7q-12 3 -12 27q0 39 19 39h507l-25 -180q-4 -13 -33 -13q-40 0 -40 17l5 104h-259l-31 -230h222q11 0 11 -23q0 -17 -6 -33t-15 -16 h-222l-35 -254h277l24 106q2 7 15.5 12.5t28.5 5.5q26 0 30 -13l-26 -183h-516q-12 0 -12 19q0 15 7 30.5t17 16.5z"/>
<glyph glyph-name="Ecircumflex" horiz-adv-x="621" unicode="Ê" d="M220 783l130 123q11 9 49 9q36 0 43 -9l92 -121q3 -4 3 -9q0 -16 -30 -16q-36 0 -51 19l-62 68l-92 -72q-16 -15 -52 -15q-35 0 -35 15q0 3 5 8zM25 66l62 7l76 554l-69 7q-12 3 -12 27q0 39 19 39h507l-25 -180q-4 -13 -33 -13q-40 0 -40 17l5 104h-259l-31 -230h222 q11 0 11 -23q0 -17 -6 -33t-15 -16h-222l-35 -254h277l24 106q2 7 15.5 12.5t28.5 5.5q26 0 30 -13l-26 -183h-516q-12 0 -12 19q0 15 7 30.5t17 16.5z"/>
<glyph glyph-name="Edieresis" horiz-adv-x="621" unicode="Ë" d="M416 835q0 28 18 46.5t43 18.5q27 0 45 -17.5t18 -47.5q0 -26 -17.5 -42.5t-45.5 -16.5q-26 0 -43.5 17.5t-17.5 41.5zM200 835q0 28 17 46.5t43 18.5q27 0 45.5 -17.5t18.5 -47.5q0 -25 -18.5 -42t-45.5 -17q-26 0 -43 17.5t-17 41.5zM25 66l62 7l76 554l-69 7 q-12 3 -12 27q0 39 19 39h507l-25 -180q-4 -13 -33 -13q-40 0 -40 17l5 104h-259l-31 -230h222q11 0 11 -23q0 -17 -6 -33t-15 -16h-222l-35 -254h277l24 106q2 7 15.5 12.5t28.5 5.5q26 0 30 -13l-26 -183h-516q-12 0 -12 19q0 15 7 30.5t17 16.5z"/>
<glyph glyph-name="Igrave" horiz-adv-x="356" unicode="Ì" d="M190 773l-110 134q-4 4 -4 8q0 19 50 19q49 0 61 -19l67 -138q1 -2 1 -5q0 -12 -27 -12t-38 13zM25 66l69 7l76 554l-74 7q-13 1 -13 27q0 15 5 27t14 12h242q11 0 11 -19q0 -16 -6.5 -31t-17.5 -16l-68 -7l-76 -554l74 -7q12 -3 12 -27q0 -39 -18 -39h-242q-12 0 -12 19 q0 15 7 30.5t17 16.5z"/>
<glyph glyph-name="Iacute" horiz-adv-x="356" unicode="Í" d="M193 777l79 137q14 20 64 20q20 0 34 -5.5t14 -13.5q0 -5 -4 -9l-123 -133q-10 -13 -38 -13t-28 11q0 2 2 6zM25 66l69 7l76 554l-74 7q-13 1 -13 27q0 15 5 27t14 12h242q11 0 11 -19q0 -16 -6.5 -31t-17.5 -16l-68 -7l-76 -554l74 -7q12 -3 12 -27q0 -39 -18 -39h-242 q-12 0 -12 19q0 15 7 30.5t17 16.5z"/>
<glyph glyph-name="Icircumflex" horiz-adv-x="356" unicode="Î" d="M78 783l130 123q11 9 49 9q36 0 43 -9l92 -121q3 -4 3 -9q0 -16 -30 -16q-36 0 -51 19l-62 68l-92 -72q-16 -15 -52 -15q-35 0 -35 15q0 3 5 8zM25 66l69 7l76 554l-74 7q-13 1 -13 27q0 15 5 27t14 12h242q11 0 11 -19q0 -16 -6.5 -31t-17.5 -16l-68 -7l-76 -554l74 -7 q12 -3 12 -27q0 -39 -18 -39h-242q-12 0 -12 19q0 15 7 30.5t17 16.5z"/>
<glyph glyph-name="Idieresis" horiz-adv-x="356" unicode="Ï" d="M284 835q0 28 18 46.5t43 18.5q27 0 45 -17.5t18 -47.5q0 -26 -17.5 -42.5t-45.5 -16.5q-26 0 -43.5 17.5t-17.5 41.5zM68 835q0 28 17 46.5t43 18.5q27 0 45.5 -17.5t18.5 -47.5q0 -25 -18.5 -42t-45.5 -17q-26 0 -43 17.5t-17 41.5zM25 66l69 7l76 554l-74 7 q-13 1 -13 27q0 15 5 27t14 12h242q11 0 11 -19q0 -16 -6.5 -31t-17.5 -16l-68 -7l-76 -554l74 -7q12 -3 12 -27q0 -39 -18 -39h-242q-12 0 -12 19q0 15 7 30.5t17 16.5z"/>
<glyph glyph-name="Eth" horiz-adv-x="704" unicode="Ð" d="M180 71h72q58 0 112 19t101.5 58.5t76 110t28.5 163.5q0 107 -59.5 157t-158.5 50h-96l-31 -225h148q8 0 8 -22q0 -17 -5.5 -33.5t-12.5 -16.5h-148zM25 66l62 7l35 259h-97q-8 0 -8 21q0 18 5 34.5t13 16.5h97l31 223l-69 7q-12 3 -12 27q0 39 19 39h261 q138 0 219.5 -65.5t81.5 -206.5q0 -102 -34.5 -185.5t-92.5 -135.5t-129 -79.5t-147 -27.5h-247q-12 0 -12 19q0 15 7 30.5t17 16.5z"/>
<glyph glyph-name="Ntilde" horiz-adv-x="770" unicode="Ñ" d="M269 783q2 42 28.5 71.5t71.5 29.5q22 0 78 -20q43 -17 60 -17q14 0 21.5 6.5t11.5 26.5q6 8 29 8q22 0 32 -8q-2 -46 -28.5 -74.5t-62.5 -28.5q-23 0 -80 21q-47 18 -60 18q-28 0 -35 -33q-10 -10 -33 -10t-33 10zM693 627l-86 -620q-1 -6 -16 -11t-32 -5q-28 0 -43 11 l-233 487q-27 57 -42 96h-5q-2 -36 -7 -80l-58 -432l68 -7q13 -3 13 -27q0 -15 -5 -27t-14 -12h-220q-12 0 -12 19q0 15 7 30.5t17 16.5l62 7l76 554l-68 7q-13 1 -13 27q0 39 19 39h181l217 -464q9 -19 24.5 -59t16.5 -42h5q7 73 9 85l54 407l-66 7q-13 3 -13 27q0 15 5 27 t14 12h219q11 0 11 -19q0 -16 -7 -30.5t-18 -16.5z"/>
<glyph glyph-name="Ograve" horiz-adv-x="713" unicode="Ò" d="M368 773l-110 134q-4 4 -4 8q0 19 50 19q49 0 61 -19l67 -138q1 -2 1 -5q0 -12 -27 -12t-38 13zM321 64q56 0 101.5 24t74 61t47.5 84.5t27 92t8 86.5q0 94 -45.5 159t-141.5 65q-56 0 -101.5 -24t-74 -61t-47.5 -84.5t-27 -92t-8 -86.5q0 -94 45.5 -159t141.5 -65z M320 -9q-130 0 -204.5 76t-74.5 210q0 196 98 314t255 118q129 0 203.5 -76t74.5 -209q0 -197 -97.5 -315t-254.5 -118z"/>
<glyph glyph-name="Oacute" horiz-adv-x="713" unicode="Ó" d="M381 777l79 137q14 20 64 20q20 0 34 -5.5t14 -13.5q0 -5 -4 -9l-123 -133q-10 -13 -38 -13t-28 11q0 2 2 6zM321 64q56 0 101.5 24t74 61t47.5 84.5t27 92t8 86.5q0 94 -45.5 159t-141.5 65q-56 0 -101.5 -24t-74 -61t-47.5 -84.5t-27 -92t-8 -86.5q0 -94 45.5 -159 t141.5 -65zM320 -9q-130 0 -204.5 76t-74.5 210q0 196 98 314t255 118q129 0 203.5 -76t74.5 -209q0 -197 -97.5 -315t-254.5 -118z"/>
<glyph glyph-name="Ocircumflex" horiz-adv-x="713" unicode="Ô" d="M266 783l130 123q11 9 49 9q36 0 43 -9l92 -121q3 -4 3 -9q0 -16 -30 -16q-36 0 -51 19l-62 68l-92 -72q-16 -15 -52 -15q-35 0 -35 15q0 3 5 8zM321 64q56 0 101.5 24t74 61t47.5 84.5t27 92t8 86.5q0 94 -45.5 159t-141.5 65q-56 0 -101.5 -24t-74 -61t-47.5 -84.5 t-27 -92t-8 -86.5q0 -94 45.5 -159t141.5 -65zM320 -9q-130 0 -204.5 76t-74.5 210q0 196 98 314t255 118q129 0 203.5 -76t74.5 -209q0 -197 -97.5 -315t-254.5 -118z"/>
<glyph glyph-name="Otilde" horiz-adv-x="713" unicode="Õ" d="M240 783q2 42 28.5 71.5t71.5 29.5q22 0 78 -20q42 -17 60 -17q14 0 21.5 6.5t11.5 26.5q6 8 29 8q22 0 32 -8q-2 -46 -28.5 -74.5t-62.5 -28.5q-23 0 -80 21q-47 18 -60 18q-28 0 -35 -33q-10 -10 -33 -10t-33 10zM321 64q56 0 101.5 24t74 61t47.5 84.5t27 92t8 86.5 q0 94 -45.5 159t-141.5 65q-56 0 -101.5 -24t-74 -61t-47.5 -84.5t-27 -92t-8 -86.5q0 -94 45.5 -159t141.5 -65zM320 -9q-130 0 -204.5 76t-74.5 210q0 196 98 314t255 118q129 0 203.5 -76t74.5 -209q0 -197 -97.5 -315t-254.5 -118z"/>
<glyph glyph-name="Odieresis" horiz-adv-x="713" unicode="Ö" d="M462 835q0 28 18 46.5t43 18.5q27 0 45 -17.5t18 -47.5q0 -26 -17.5 -42.5t-45.5 -16.5q-26 0 -43.5 17.5t-17.5 41.5zM246 835q0 28 17 46.5t43 18.5q27 0 45.5 -17.5t18.5 -47.5q0 -25 -18.5 -42t-45.5 -17q-26 0 -43 17.5t-17 41.5zM321 64q56 0 101.5 24t74 61 t47.5 84.5t27 92t8 86.5q0 94 -45.5 159t-141.5 65q-56 0 -101.5 -24t-74 -61t-47.5 -84.5t-27 -92t-8 -86.5q0 -94 45.5 -159t141.5 -65zM320 -9q-130 0 -204.5 76t-74.5 210q0 196 98 314t255 118q129 0 203.5 -76t74.5 -209q0 -197 -97.5 -315t-254.5 -118z"/>
<glyph glyph-name="multiply" horiz-adv-x="598" unicode="×" d="M95 194l155 155l-155 155q0 15 18 32.5t32 17.5l155 -155l155 155q13 0 30.5 -18t17.5 -32l-155 -155l155 -155q0 -14 -17.5 -31.5t-30.5 -17.5l-155 154l-155 -154q-14 0 -32 17.5t-18 31.5z"/>
<glyph glyph-name="Oslash" horiz-adv-x="713" unicode="Ø" d="M134 288q0 -76 27 -130l347 439q-45 39 -116 39q-56 0 -101.5 -24t-74 -61t-47.5 -84.5t-27 -92t-8 -86.5zM321 64q56 0 101.5 24t74 61t47.5 84.5t27 92t8 86.5q0 80 -32 138l-350 -441q47 -45 124 -45zM24 -16l78 98q-61 73 -61 195q0 196 98 314t255 118q99 0 166 -46 l72 91q40 0 49 -35l-75 -95q66 -77 66 -200q0 -197 -97.5 -315t-254.5 -118q-105 0 -176 51l-73 -93q-18 0 -32 10t-15 25z"/>
<glyph glyph-name="Ugrave" horiz-adv-x="739" unicode="Ù" d="M381 773l-110 134q-4 4 -4 8q0 19 50 19q49 0 61 -19l67 -138q1 -2 1 -5q0 -12 -27 -12t-38 13zM101 249l52 378l-69 7q-12 3 -12 27q0 39 19 39h227q12 0 12 -19q0 -16 -7 -30.5t-18 -16.5l-59 -7l-53 -379q-3 -23 -3 -45q0 -67 36.5 -103t108.5 -36q85 0 134 51t60 133 l52 379l-66 7q-13 3 -13 27q0 15 5.5 27t14.5 12h219q11 0 11 -19q0 -16 -7 -30.5t-18 -16.5l-60 -7l-52 -378q-17 -127 -95.5 -192.5t-196.5 -65.5q-108 0 -167 55.5t-59 153.5q0 17 4 49z"/>
<glyph glyph-name="Uacute" horiz-adv-x="739" unicode="Ú" d="M394 777l79 137q14 20 64 20q20 0 34 -5.5t14 -13.5q0 -5 -4 -9l-123 -133q-10 -13 -38 -13t-28 11q0 2 2 6zM101 249l52 378l-69 7q-12 3 -12 27q0 39 19 39h227q12 0 12 -19q0 -16 -7 -30.5t-18 -16.5l-59 -7l-53 -379q-3 -23 -3 -45q0 -67 36.5 -103t108.5 -36 q85 0 134 51t60 133l52 379l-66 7q-13 3 -13 27q0 15 5.5 27t14.5 12h219q11 0 11 -19q0 -16 -7 -30.5t-18 -16.5l-60 -7l-52 -378q-17 -127 -95.5 -192.5t-196.5 -65.5q-108 0 -167 55.5t-59 153.5q0 17 4 49z"/>
<glyph glyph-name="Ucircumflex" horiz-adv-x="739" unicode="Û" d="M279 783l130 123q11 9 49 9q36 0 43 -9l92 -121q3 -4 3 -9q0 -16 -30 -16q-36 0 -51 19l-62 68l-92 -72q-16 -15 -52 -15q-35 0 -35 15q0 3 5 8zM101 249l52 378l-69 7q-12 3 -12 27q0 39 19 39h227q12 0 12 -19q0 -16 -7 -30.5t-18 -16.5l-59 -7l-53 -379q-3 -23 -3 -45 q0 -67 36.5 -103t108.5 -36q85 0 134 51t60 133l52 379l-66 7q-13 3 -13 27q0 15 5.5 27t14.5 12h219q11 0 11 -19q0 -16 -7 -30.5t-18 -16.5l-60 -7l-52 -378q-17 -127 -95.5 -192.5t-196.5 -65.5q-108 0 -167 55.5t-59 153.5q0 17 4 49z"/>
<glyph glyph-name="Udieresis" horiz-adv-x="739" unicode="Ü" d="M475 835q0 28 18 46.5t43 18.5q27 0 45 -17.5t18 -47.5q0 -26 -17.5 -42.5t-45.5 -16.5q-26 0 -43.5 17.5t-17.5 41.5zM259 835q0 28 17 46.5t43 18.5q27 0 45.5 -17.5t18.5 -47.5q0 -25 -18.5 -42t-45.5 -17q-26 0 -43 17.5t-17 41.5zM101 249l52 378l-69 7 q-12 3 -12 27q0 39 19 39h227q12 0 12 -19q0 -16 -7 -30.5t-18 -16.5l-59 -7l-53 -379q-3 -23 -3 -45q0 -67 36.5 -103t108.5 -36q85 0 134 51t60 133l52 379l-66 7q-13 3 -13 27q0 15 5.5 27t14.5 12h219q11 0 11 -19q0 -16 -7 -30.5t-18 -16.5l-60 -7l-52 -378 q-17 -127 -95.5 -192.5t-196.5 -65.5q-108 0 -167 55.5t-59 153.5q0 17 4 49z"/>
<glyph glyph-name="Yacute" horiz-adv-x="660" unicode="Ý" d="M335 777l79 137q14 20 64 20q20 0 34 -5.5t14 -13.5q0 -5 -4 -9l-123 -133q-10 -13 -38 -13t-28 11q0 2 2 6zM670 634l-59 -7l-250 -363l-26 -191l74 -7q12 -3 12 -27q0 -39 -18 -39h-242q-12 0 -12 19q0 15 7 30.5t17 16.5l69 7l26 191l-140 363l-69 7q-12 3 -12 27 q0 39 19 39h230q11 0 11 -19q0 -16 -7 -30.5t-18 -16.5l-56 -7l74 -206q6 -18 25 -80h2q35 61 47 79l138 207l-64 7q-12 3 -12 27q0 39 19 39h229q11 0 11 -19q0 -16 -7 -30.5t-18 -16.5z"/>
<glyph glyph-name="Thorn" horiz-adv-x="601" unicode="Þ" d="M357 493h-125l-37 -273h102q179 0 179 165q0 32 -11.5 54.5t-31 33.5t-38 15.5t-38.5 4.5zM25 66l62 7l77 563l-67 7q-13 1 -13 27q0 15 5 27t14 12h228q11 0 11 -19q0 -16 -6.5 -31t-17.5 -16l-61 -7l-10 -74h124q86 0 143 -40.5t57 -133.5q0 -50 -16.5 -91t-43.5 -67.5 t-63 -45t-72.5 -26t-74.5 -7.5h-111l-10 -78l67 -7q12 -3 12 -27q0 -39 -18 -39h-228q-12 0 -12 19q0 15 7 30.5t17 16.5z"/>
<glyph glyph-name="germandbls" horiz-adv-x="558" unicode="ß" d="M-68 -193q53 23 83 64.5t41 118.5l70 512q5 35 10.5 60t21 61.5t38 59.5t63.5 40t95 17q75 0 121.5 -39t46.5 -120q0 -65 -30 -115.5t-86 -67.5v-3q47 -8 74.5 -45.5t27.5 -95.5q0 -68 -20 -121t-52.5 -82.5t-69 -44.5t-73.5 -15q-57 0 -78 16q0 41 17 56q18 -6 50 -6 q23 0 44.5 8.5t44.5 28t37 60.5t14 98q0 55 -27.5 81.5t-68.5 26.5h-48q-8 0 -8 19q0 15 5.5 30.5t12.5 15.5h41q41 0 74 37.5t33 113.5q0 46 -24 72t-66 26q-109 0 -129 -149l-73 -530q-27 -195 -194 -244q-21 10 -21 37q0 10 3 19z"/>
<glyph glyph-name="agrave" horiz-adv-x="569" unicode="à" d="M305 555l-99 114q-4 4 -4 9q0 17 49 17q42 0 58 -19l54 -115q3 -5 3 -7q0 -11 -23 -11q-26 0 -38 12zM400 418q-35 12 -82 12q-87 0 -139.5 -74.5t-52.5 -183.5q0 -103 71 -103q35 0 67.5 31.5t58 85.5t44 111t33.5 121zM439 74l71 -10q13 -3 13 -27q0 -14 -5 -25.5 t-13 -11.5h-101q-51 0 -51 41q0 15 9 54q30 126 30 128h-6q-70 -232 -213 -232q-65 0 -99 46.5t-34 123.5q0 63 18 121t52.5 107t93 78t133.5 29q57 0 123 -22q17 -6 23.5 -11.5t6.5 -18.5q0 -6 -2 -22z"/>
<glyph glyph-name="aacute" horiz-adv-x="569" unicode="á" d="M282 561l75 124q16 19 63 19q49 0 49 -18q0 -4 -4 -8l-123 -122q-12 -13 -39 -13q-24 0 -24 11q0 2 3 7zM400 418q-35 12 -82 12q-87 0 -139.5 -74.5t-52.5 -183.5q0 -103 71 -103q35 0 67.5 31.5t58 85.5t44 111t33.5 121zM439 74l71 -10q13 -3 13 -27q0 -14 -5 -25.5 t-13 -11.5h-101q-51 0 -51 41q0 15 9 54q30 126 30 128h-6q-70 -232 -213 -232q-65 0 -99 46.5t-34 123.5q0 63 18 121t52.5 107t93 78t133.5 29q57 0 123 -22q17 -6 23.5 -11.5t6.5 -18.5q0 -6 -2 -22z"/>
<glyph glyph-name="acircumflex" horiz-adv-x="569" unicode="â" d="M207 566l114 116q7 9 44 9q33 0 39 -9l79 -115q3 -5 3 -9q0 -15 -28 -15q-31 0 -45 19l-53 67l-79 -71q-18 -15 -47 -15q-31 0 -31 14q0 5 4 9zM400 418q-35 12 -82 12q-87 0 -139.5 -74.5t-52.5 -183.5q0 -103 71 -103q35 0 67.5 31.5t58 85.5t44 111t33.5 121zM439 74 l71 -10q13 -3 13 -27q0 -14 -5 -25.5t-13 -11.5h-101q-51 0 -51 41q0 15 9 54q30 126 30 128h-6q-70 -232 -213 -232q-65 0 -99 46.5t-34 123.5q0 63 18 121t52.5 107t93 78t133.5 29q57 0 123 -22q17 -6 23.5 -11.5t6.5 -18.5q0 -6 -2 -22z"/>
<glyph glyph-name="atilde" horiz-adv-x="569" unicode="ã" d="M192 560q0 39 22.5 66.5t60.5 27.5q25 0 72 -19q7 -2 19 -7t20 -7.5t12 -2.5q26 0 31 29q5 9 28 9q22 0 28 -9q0 -44 -24.5 -69t-57.5 -25q-22 0 -70 19q-46 18 -53 18q-25 0 -30 -31q-6 -8 -30 -8q-19 0 -28 9zM400 418q-35 12 -82 12q-87 0 -139.5 -74.5t-52.5 -183.5 q0 -103 71 -103q35 0 67.5 31.5t58 85.5t44 111t33.5 121zM439 74l71 -10q13 -3 13 -27q0 -14 -5 -25.5t-13 -11.5h-101q-51 0 -51 41q0 15 9 54q30 126 30 128h-6q-70 -232 -213 -232q-65 0 -99 46.5t-34 123.5q0 63 18 121t52.5 107t93 78t133.5 29q57 0 123 -22 q17 -6 23.5 -11.5t6.5 -18.5q0 -6 -2 -22z"/>
<glyph glyph-name="adieresis" horiz-adv-x="569" unicode="ä" d="M387 611q0 24 16.5 41t40.5 17q23 0 40 -17t17 -41q0 -22 -17.5 -39t-39.5 -17q-24 0 -40.5 17t-16.5 39zM207 611q0 24 16.5 41t39.5 17t40.5 -17t17.5 -41q0 -22 -17.5 -39t-40.5 -17q-22 0 -39 17t-17 39zM400 418q-35 12 -82 12q-87 0 -139.5 -74.5t-52.5 -183.5 q0 -103 71 -103q35 0 67.5 31.5t58 85.5t44 111t33.5 121zM439 74l71 -10q13 -3 13 -27q0 -14 -5 -25.5t-13 -11.5h-101q-51 0 -51 41q0 15 9 54q30 126 30 128h-6q-70 -232 -213 -232q-65 0 -99 46.5t-34 123.5q0 63 18 121t52.5 107t93 78t133.5 29q57 0 123 -22 q17 -6 23.5 -11.5t6.5 -18.5q0 -6 -2 -22z"/>
<glyph glyph-name="aring" horiz-adv-x="569" unicode="å" d="M347 585q19 0 32.5 14t13.5 33q0 18 -13.5 32t-32.5 14q-20 0 -33 -13.5t-13 -32.5t13 -33t33 -14zM347 534q-41 0 -69 28.5t-28 69.5t28 69t69 28t69 -28t28 -69t-28 -69.5t-69 -28.5zM400 418q-35 12 -82 12q-87 0 -139.5 -74.5t-52.5 -183.5q0 -103 71 -103 q35 0 67.5 31.5t58 85.5t44 111t33.5 121zM439 74l71 -10q13 -3 13 -27q0 -14 -5 -25.5t-13 -11.5h-101q-51 0 -51 41q0 15 9 54q30 126 30 128h-6q-70 -232 -213 -232q-65 0 -99 46.5t-34 123.5q0 63 18 121t52.5 107t93 78t133.5 29q57 0 123 -22q17 -6 23.5 -11.5 t6.5 -18.5q0 -6 -2 -22z"/>
<glyph glyph-name="ae" horiz-adv-x="766" unicode="æ" d="M421 272q115 0 177 21t62 76q0 61 -68 61q-61 0 -110.5 -41t-60.5 -117zM323 180l6 41h-64q-85 0 -122 -17.5t-37 -74.5q0 -32 23 -51.5t62 -19.5q49 0 87 33t45 89zM671 103q31 -9 31 -53q-80 -59 -174 -59q-130 0 -175 90q-57 -90 -184 -90q-60 0 -104.5 36t-44.5 98 q0 41 15.5 71t37.5 46t57 25.5t64 11.5t68 2h75q4 20 4 59q0 25 -8 43q-17 44 -84 44q-57 0 -148 -40q-9 1 -15.5 15.5t-6.5 30.5q24 21 80 42t116 21q105 0 136 -83q77 83 195 83q68 0 104 -32.5t36 -82.5q0 -48 -29 -82.5t-79 -52t-103.5 -25.5t-116.5 -8v-16l-1 -12 q0 -125 124 -125q64 0 130 43z"/>
<glyph glyph-name="ccedilla" horiz-adv-x="464" unicode="ç" d="M167 -90l23 84q-66 10 -108 57.5t-42 141.5q0 143 77.5 223t185.5 80q80 0 139 -31l-17 -137q-2 -12 -30 -12q-13 0 -24 5t-12 12l3 87q-26 10 -61 10q-81 0 -128 -69.5t-47 -164.5q0 -63 30 -99.5t92 -36.5q12 0 23 1t22.5 4.5t18.5 5.5t19 7.5t16 7.5l17 8.5l15 7.5 q29 -11 29 -54q-26 -20 -72 -36.5t-91 -19.5l-11 -39q41 0 61.5 -17t20.5 -47q0 -44 -33.5 -69t-81.5 -25q-59 0 -83 22q6 34 30 43q25 -16 56 -16q20 0 31 11t11 27q0 31 -42 31q-18 0 -37 -3z"/>
<glyph glyph-name="egrave" horiz-adv-x="475" unicode="è" d="M278 555l-99 114q-4 4 -4 9q0 17 49 17q42 0 58 -19l54 -115q3 -5 3 -7q0 -11 -23 -11q-26 0 -38 12zM130 259q54 5 93 11.5t74 19t53.5 33t18.5 49.5q0 58 -68 58q-59 0 -109.5 -47t-61.5 -124zM380 103q31 -9 31 -53q-80 -59 -174 -59q-197 0 -197 200q0 132 77 218.5 t198 86.5q69 0 104.5 -31.5t35.5 -80.5q0 -153 -328 -184q0 -3 -0.5 -8.5t-0.5 -6.5q0 -125 124 -125q64 0 130 43z"/>
<glyph glyph-name="eacute" horiz-adv-x="475" unicode="é" d="M245 561l75 124q16 19 63 19q49 0 49 -18q0 -4 -4 -8l-123 -122q-12 -13 -39 -13q-24 0 -24 11q0 2 3 7zM130 259q54 5 93 11.5t74 19t53.5 33t18.5 49.5q0 58 -68 58q-59 0 -109.5 -47t-61.5 -124zM380 103q31 -9 31 -53q-80 -59 -174 -59q-197 0 -197 200 q0 132 77 218.5t198 86.5q69 0 104.5 -31.5t35.5 -80.5q0 -153 -328 -184q0 -3 -0.5 -8.5t-0.5 -6.5q0 -125 124 -125q64 0 130 43z"/>
<glyph glyph-name="ecircumflex" horiz-adv-x="475" unicode="ê" d="M160 566l114 116q8 9 44 9q33 0 39 -9l79 -115q3 -5 3 -9q0 -15 -28 -15q-31 0 -45 19l-53 67l-79 -71q-18 -15 -47 -15q-31 0 -31 14q0 5 4 9zM130 259q54 5 93 11.5t74 19t53.5 33t18.5 49.5q0 58 -68 58q-59 0 -109.5 -47t-61.5 -124zM380 103q31 -9 31 -53 q-80 -59 -174 -59q-197 0 -197 200q0 132 77 218.5t198 86.5q69 0 104.5 -31.5t35.5 -80.5q0 -153 -328 -184q0 -3 -0.5 -8.5t-0.5 -6.5q0 -125 124 -125q64 0 130 43z"/>
<glyph glyph-name="edieresis" horiz-adv-x="475" unicode="ë" d="M340 611q0 24 16.5 41t40.5 17q23 0 40 -17t17 -41q0 -22 -17.5 -39t-39.5 -17q-24 0 -40.5 17t-16.5 39zM160 611q0 24 16.5 41t39.5 17t40.5 -17t17.5 -41q0 -22 -17.5 -39t-40.5 -17q-22 0 -39 17t-17 39zM130 259q54 5 93 11.5t74 19t53.5 33t18.5 49.5q0 58 -68 58 q-59 0 -109.5 -47t-61.5 -124zM380 103q31 -9 31 -53q-80 -59 -174 -59q-197 0 -197 200q0 132 77 218.5t198 86.5q69 0 104.5 -31.5t35.5 -80.5q0 -153 -328 -184q0 -3 -0.5 -8.5t-0.5 -6.5q0 -125 124 -125q64 0 130 43z"/>
<glyph glyph-name="igrave" horiz-adv-x="299" unicode="ì" d="M130 555l-99 114q-4 4 -4 9q0 17 49 17q42 0 58 -19l54 -115q3 -5 3 -7q0 -11 -23 -11q-26 0 -38 12zM81 62l49 351l-71 10q-13 1 -13 26q0 38 17 38h108q49 0 49 -44q0 -5 -2 -19l-49 -350l72 -10q12 -2 12 -27q0 -37 -17 -37h-108q-49 0 -49 43q0 5 2 19z"/>
<glyph glyph-name="iacute" horiz-adv-x="299" unicode="í" d="M107 561l75 124q16 19 63 19q49 0 49 -18q0 -4 -4 -8l-123 -122q-12 -13 -39 -13q-24 0 -24 11q0 2 3 7zM81 62l49 351l-71 10q-13 1 -13 26q0 38 17 38h108q49 0 49 -44q0 -5 -2 -19l-49 -350l72 -10q12 -2 12 -27q0 -37 -17 -37h-108q-49 0 -49 43q0 5 2 19z"/>
<glyph glyph-name="icircumflex" horiz-adv-x="299" unicode="î" d="M4 566l114 116q7 9 44 9q33 0 39 -9l79 -115q3 -5 3 -9q0 -15 -28 -15q-31 0 -45 19l-53 67l-79 -71q-18 -15 -47 -15q-31 0 -31 14q0 5 4 9zM81 62l49 351l-71 10q-13 1 -13 26q0 38 17 38h108q49 0 49 -44q0 -5 -2 -19l-49 -350l72 -10q12 -2 12 -27q0 -37 -17 -37 h-108q-49 0 -49 43q0 5 2 19z"/>
<glyph glyph-name="idieresis" horiz-adv-x="299" unicode="ï" d="M180 611q0 24 16.5 41t40.5 17q23 0 40 -17t17 -41q0 -22 -17.5 -39t-39.5 -17q-24 0 -40.5 17t-16.5 39zM0 611q0 24 16.5 41t39.5 17t40.5 -17t17.5 -41q0 -22 -17.5 -39t-40.5 -17q-22 0 -39 17t-17 39zM81 62l49 351l-71 10q-13 1 -13 26q0 38 17 38h108q49 0 49 -44 q0 -5 -2 -19l-49 -350l72 -10q12 -2 12 -27q0 -37 -17 -37h-108q-49 0 -49 43q0 5 2 19z"/>
<glyph glyph-name="eth" horiz-adv-x="532" unicode="ð" d="M241 57q43 0 75.5 23t49 58.5t24 68.5t7.5 63q0 63 -33 103.5t-84 40.5q-72 0 -113 -63.5t-41 -146.5q0 -60 27 -103.5t88 -43.5zM201 568l84 70q-55 31 -119 37q-7 10 -7 27q0 33 20 44q95 -14 167 -57l99 82q11 0 22.5 -13t11.5 -27l-89 -74q109 -98 109 -279 q0 -55 -9 -108.5t-30 -104.5t-51 -89t-76.5 -61.5t-102.5 -23.5q-76 0 -133 51t-57 157q0 123 66.5 203.5t173.5 80.5q44 0 82 -22.5t56 -64.5h5q-3 135 -91 211l-98 -81q-14 1 -23.5 15t-9.5 27z"/>
<glyph glyph-name="ntilde" horiz-adv-x="594" unicode="ñ" d="M185 560q0 39 22.5 66.5t60.5 27.5q24 0 72 -19q7 -2 19 -7t20 -7.5t12 -2.5q26 0 31 29q5 9 28 9q22 0 28 -9q0 -44 -24.5 -69t-57.5 -25q-22 0 -70 19q-46 18 -53 18q-25 0 -30 -31q-6 -8 -30 -8q-19 0 -28 9zM73 7l57 406l-71 10q-13 3 -13 26q0 38 17 38h103 q50 0 50 -42q0 -12 -9 -54q-29 -122 -30 -127h6q35 114 91 173t124 59q49 0 78 -29t29 -84q0 -39 -6 -79l-32 -230l71 -10q13 -1 13 -27q0 -15 -5 -26t-13 -11h-108q-48 0 -48 43q0 5 2 19l32 228q7 47 7 72q0 26 -12.5 41t-34.5 15q-47 0 -93 -67t-75 -157t-42 -179l-1 -8 q-3 -11 -46 -11q-40 0 -41 11z"/>
<glyph glyph-name="ograve" horiz-adv-x="521" unicode="ò" d="M261 555l-99 114q-4 4 -4 9q0 17 49 17q42 0 58 -19l54 -115q3 -5 3 -7q0 -11 -23 -11q-26 0 -38 12zM237 57q74 0 116 68t42 157q0 77 -31.5 112.5t-80.5 35.5q-74 0 -115.5 -67.5t-41.5 -156.5q0 -77 31.5 -113t79.5 -36zM235 -9q-89 0 -142 55.5t-53 157.5 q0 73 26.5 138t84 109.5t135.5 44.5q90 0 142.5 -55t52.5 -157q0 -75 -27 -140.5t-84.5 -109t-134.5 -43.5z"/>
<glyph glyph-name="oacute" horiz-adv-x="521" unicode="ó" d="M258 561l75 124q16 19 63 19q49 0 49 -18q0 -4 -4 -8l-123 -122q-12 -13 -39 -13q-24 0 -24 11q0 2 3 7zM237 57q74 0 116 68t42 157q0 77 -31.5 112.5t-80.5 35.5q-74 0 -115.5 -67.5t-41.5 -156.5q0 -77 31.5 -113t79.5 -36zM235 -9q-89 0 -142 55.5t-53 157.5 q0 73 26.5 138t84 109.5t135.5 44.5q90 0 142.5 -55t52.5 -157q0 -75 -27 -140.5t-84.5 -109t-134.5 -43.5z"/>
<glyph glyph-name="ocircumflex" horiz-adv-x="521" unicode="ô" d="M173 566l114 116q7 9 44 9q33 0 39 -9l79 -115q3 -5 3 -9q0 -15 -28 -15q-31 0 -45 19l-53 67l-79 -71q-18 -15 -47 -15q-31 0 -31 14q0 5 4 9zM237 57q74 0 116 68t42 157q0 77 -31.5 112.5t-80.5 35.5q-74 0 -115.5 -67.5t-41.5 -156.5q0 -77 31.5 -113t79.5 -36z M235 -9q-89 0 -142 55.5t-53 157.5q0 73 26.5 138t84 109.5t135.5 44.5q90 0 142.5 -55t52.5 -157q0 -75 -27 -140.5t-84.5 -109t-134.5 -43.5z"/>
<glyph glyph-name="otilde" horiz-adv-x="521" unicode="õ" d="M149 560q0 39 22.5 66.5t60.5 27.5q24 0 72 -19q7 -2 19 -7t20 -7.5t12 -2.5q26 0 31 29q5 9 28 9q22 0 28 -9q0 -44 -24.5 -69t-57.5 -25q-22 0 -70 19q-46 18 -53 18q-25 0 -30 -31q-6 -8 -30 -8q-19 0 -28 9zM237 57q74 0 116 68t42 157q0 77 -31.5 112.5t-80.5 35.5 q-74 0 -115.5 -67.5t-41.5 -156.5q0 -77 31.5 -113t79.5 -36zM235 -9q-89 0 -142 55.5t-53 157.5q0 73 26.5 138t84 109.5t135.5 44.5q90 0 142.5 -55t52.5 -157q0 -75 -27 -140.5t-84.5 -109t-134.5 -43.5z"/>
<glyph glyph-name="odieresis" horiz-adv-x="521" unicode="ö" d="M349 611q0 24 16.5 41t40.5 17q23 0 40 -17t17 -41q0 -22 -17.5 -39t-39.5 -17q-24 0 -40.5 17t-16.5 39zM169 611q0 24 16.5 41t39.5 17t40.5 -17t17.5 -41q0 -22 -17.5 -39t-40.5 -17q-22 0 -39 17t-17 39zM237 57q74 0 116 68t42 157q0 77 -31.5 112.5t-80.5 35.5 q-74 0 -115.5 -67.5t-41.5 -156.5q0 -77 31.5 -113t79.5 -36zM235 -9q-89 0 -142 55.5t-53 157.5q0 73 26.5 138t84 109.5t135.5 44.5q90 0 142.5 -55t52.5 -157q0 -75 -27 -140.5t-84.5 -109t-134.5 -43.5z"/>
<glyph glyph-name="divide" horiz-adv-x="660" unicode="÷" d="M91 369h479q10 0 10 -36q0 -34 -10 -34h-479q-11 0 -11 34q0 36 11 36zM325 109q-25 0 -43 18.5t-18 44.5t17.5 43.5t43.5 17.5t43.5 -17.5t17.5 -43.5t-18 -44.5t-43 -18.5zM264 496q0 26 18 43.5t43 17.5t43 -17.5t18 -43.5t-18 -43.5t-43 -17.5t-43 17.5t-18 43.5z "/>
<glyph glyph-name="oslash" horiz-adv-x="521" unicode="ø" d="M126 206q0 -46 12 -78l213 279q-29 23 -68 23q-74 0 -115.5 -67.5t-41.5 -156.5zM237 57q74 0 116 68t42 157q0 46 -12 78l-213 -280q27 -23 67 -23zM25 -19l58 76q-43 55 -43 147q0 73 26.5 138t84 109.5t135.5 44.5q64 0 111 -29l56 73q37 0 43 -31l-59 -78 q44 -55 44 -147q0 -75 -27 -140.5t-84.5 -109t-134.5 -43.5q-65 0 -111 29l-56 -73q-16 0 -29 10t-14 24z"/>
<glyph glyph-name="ugrave" horiz-adv-x="594" unicode="ù" d="M298 555l-99 114q-4 4 -4 9q0 17 49 17q42 0 58 -19l54 -115q3 -5 3 -7q0 -11 -23 -11q-26 0 -38 12zM521 480l-57 -406l71 -10q13 -3 13 -26q0 -38 -17 -38h-103q-50 0 -50 42q0 12 9 54q29 122 30 127h-6q-35 -114 -91 -173t-124 -59q-49 0 -78 29t-29 84q0 38 6 79 l32 230l-71 10q-13 1 -13 27q0 15 5 26t13 11h108q48 0 48 -43q0 -5 -2 -19l-32 -228q-7 -47 -7 -72q0 -26 12.5 -41t34.5 -15q47 0 93 67t75 157t42 179l1 8q3 11 46 11q40 0 41 -11z"/>
<glyph glyph-name="uacute" horiz-adv-x="594" unicode="ú" d="M284 561l75 124q16 19 63 19q49 0 49 -18q0 -4 -4 -8l-123 -122q-12 -13 -39 -13q-24 0 -24 11q0 2 3 7zM521 480l-57 -406l71 -10q13 -3 13 -26q0 -38 -17 -38h-103q-50 0 -50 42q0 12 9 54q29 122 30 127h-6q-35 -114 -91 -173t-124 -59q-49 0 -78 29t-29 84q0 38 6 79 l32 230l-71 10q-13 1 -13 27q0 15 5 26t13 11h108q48 0 48 -43q0 -5 -2 -19l-32 -228q-7 -47 -7 -72q0 -26 12.5 -41t34.5 -15q47 0 93 67t75 157t42 179l1 8q3 11 46 11q40 0 41 -11z"/>
<glyph glyph-name="ucircumflex" horiz-adv-x="594" unicode="û" d="M189 566l114 116q7 9 44 9q33 0 39 -9l79 -115q3 -5 3 -9q0 -15 -28 -15q-31 0 -45 19l-53 67l-79 -71q-18 -15 -47 -15q-31 0 -31 14q0 5 4 9zM521 480l-57 -406l71 -10q13 -3 13 -26q0 -38 -17 -38h-103q-50 0 -50 42q0 12 9 54q29 122 30 127h-6q-35 -114 -91 -173 t-124 -59q-49 0 -78 29t-29 84q0 38 6 79l32 230l-71 10q-13 1 -13 27q0 15 5 26t13 11h108q48 0 48 -43q0 -5 -2 -19l-32 -228q-7 -47 -7 -72q0 -26 12.5 -41t34.5 -15q47 0 93 67t75 157t42 179l1 8q3 11 46 11q40 0 41 -11z"/>
<glyph glyph-name="udieresis" horiz-adv-x="594" unicode="ü" d="M359 611q0 24 16.5 41t40.5 17q23 0 40 -17t17 -41q0 -22 -17.5 -39t-39.5 -17q-24 0 -40.5 17t-16.5 39zM179 611q0 24 16.5 41t39.5 17t40.5 -17t17.5 -41q0 -22 -17.5 -39t-40.5 -17q-22 0 -39 17t-17 39zM521 480l-57 -406l71 -10q13 -3 13 -26q0 -38 -17 -38h-103 q-50 0 -50 42q0 12 9 54q29 122 30 127h-6q-35 -114 -91 -173t-124 -59q-49 0 -78 29t-29 84q0 38 6 79l32 230l-71 10q-13 1 -13 27q0 15 5 26t13 11h108q48 0 48 -43q0 -5 -2 -19l-32 -228q-7 -47 -7 -72q0 -26 12.5 -41t34.5 -15q47 0 93 67t75 157t42 179l1 8 q3 11 46 11q40 0 41 -11z"/>
<glyph glyph-name="yacute" horiz-adv-x="511" unicode="ý" d="M212 561l75 124q16 19 63 19q49 0 49 -18q0 -4 -4 -8l-123 -122q-12 -13 -39 -13q-24 0 -24 11q0 2 3 7zM169 -76l40 66l-135 423l-72 10q-12 1 -12 26q0 38 18 38h101q25 0 34 -10.5t18 -41.5l83 -285q9 -31 17 -79h2q39 65 78.5 170t47.5 172l-72 10q-12 1 -12 26 q0 38 17 38h110q49 0 49 -41q0 -69 -64 -221.5t-163 -309.5q-58 -92 -109.5 -128t-112.5 -36t-97 20q0 45 30 64q35 -13 64 -13q39 0 71 20.5t69 81.5z"/>
<glyph glyph-name="thorn" horiz-adv-x="570" unicode="þ" d="M169 69q35 -12 82 -12q87 0 139.5 74.5t52.5 183.5q0 103 -71 103q-35 0 -68 -33t-58.5 -87t-44 -111t-32.5 -118zM253 677l-28 -200q-5 -35 -25.5 -113.5t-23.5 -99.5h7q70 232 213 232q65 0 99 -46.5t34 -123.5q0 -63 -18 -121t-53 -106.5t-92.5 -78t-129.5 -29.5 q-40 0 -78 12l-23 -171l65 -9q12 -1 12 -25q0 -15 -5 -26.5t-13 -11.5h-208q-12 0 -12 20q0 15 5.5 28.5t14.5 14.5l55 9l116 834l-71 10q-13 1 -13 26q0 38 17 38h108q49 0 49 -44q0 -5 -2 -19z"/>
<glyph glyph-name="ydieresis" horiz-adv-x="511" unicode="ÿ" d="M298 611q0 24 16.5 41t40.5 17q23 0 40 -17t17 -41q0 -22 -17.5 -39t-39.5 -17q-24 0 -40.5 17t-16.5 39zM118 611q0 24 16.5 41t39.5 17t40.5 -17t17.5 -41q0 -22 -17.5 -39t-40.5 -17q-22 0 -39 17t-17 39zM169 -76l40 66l-135 423l-72 10q-12 1 -12 26q0 38 18 38h101 q25 0 34 -10.5t18 -41.5l83 -285q9 -31 17 -79h2q39 65 78.5 170t47.5 172l-72 10q-12 1 -12 26q0 38 17 38h110q49 0 49 -41q0 -69 -64 -221.5t-163 -309.5q-58 -92 -109.5 -128t-112.5 -36t-97 20q0 45 30 64q35 -13 64 -13q39 0 71 20.5t69 81.5z"/>
<glyph glyph-name="Amacron" horiz-adv-x="736" unicode="Ā" d="M245 865h292q11 0 11 -35q0 -33 -11 -33h-292q-10 0 -10 33q0 35 10 35zM239 268h239l-72 336h-4zM-8 66l62 7l275 552l-69 7q-12 2 -12 28q0 40 19 40h209l139 -627l69 -7q12 -3 12 -27q0 -15 -5 -27t-13 -12h-230q-11 0 -11 18q0 16 6.5 31t17.5 17l59 7l-28 123h-283 l-62 -123l66 -7q13 -3 13 -27q0 -15 -5 -27t-13 -12h-228q-12 0 -12 19q0 15 7 30.5t17 16.5z"/>
<glyph glyph-name="amacron" horiz-adv-x="569" unicode="ā" d="M216 639h251q10 0 10 -32q0 -33 -10 -33h-252q-11 0 -11 32q0 33 12 33zM400 418q-35 12 -82 12q-87 0 -139.5 -74.5t-52.5 -183.5q0 -103 71 -103q35 0 67.5 31.5t58 85.5t44 111t33.5 121zM439 74l71 -10q13 -3 13 -27q0 -14 -5 -25.5t-13 -11.5h-101q-51 0 -51 41 q0 15 9 54q30 126 30 128h-6q-70 -232 -213 -232q-65 0 -99 46.5t-34 123.5q0 63 18 121t52.5 107t93 78t133.5 29q57 0 123 -22q17 -6 23.5 -11.5t6.5 -18.5q0 -6 -2 -22z"/>
<glyph glyph-name="Abreve" horiz-adv-x="736" unicode="Ă" d="M313 898l7 -21q17 -53 78 -53q67 0 95 54l9 19q9 10 32 10q29 0 35 -17q-18 -66 -66.5 -98t-109.5 -32q-55 0 -98 32t-48 101q7 14 35 14q19 0 31 -9zM239 268h239l-72 336h-4zM-8 66l62 7l275 552l-69 7q-12 2 -12 28q0 40 19 40h209l139 -627l69 -7q12 -3 12 -27 q0 -15 -5 -27t-13 -12h-230q-11 0 -11 18q0 16 6.5 31t17.5 17l59 7l-28 123h-283l-62 -123l66 -7q13 -3 13 -27q0 -15 -5 -27t-13 -12h-228q-12 0 -12 19q0 15 7 30.5t17 16.5z"/>
<glyph glyph-name="abreve" horiz-adv-x="569" unicode="ă" d="M279 665l4 -15q12 -45 63 -45q52 0 77 46l7 13q10 10 32 10q28 0 34 -16q-15 -58 -58.5 -86.5t-95.5 -28.5q-46 0 -85.5 28.5t-43.5 86.5q10 16 36 16q19 0 30 -9zM400 418q-35 12 -82 12q-87 0 -139.5 -74.5t-52.5 -183.5q0 -103 71 -103q35 0 67.5 31.5t58 85.5t44 111 t33.5 121zM439 74l71 -10q13 -3 13 -27q0 -14 -5 -25.5t-13 -11.5h-101q-51 0 -51 41q0 15 9 54q30 126 30 128h-6q-70 -232 -213 -232q-65 0 -99 46.5t-34 123.5q0 63 18 121t52.5 107t93 78t133.5 29q57 0 123 -22q17 -6 23.5 -11.5t6.5 -18.5q0 -6 -2 -22z"/>
<glyph glyph-name="Aogonek" horiz-adv-x="736" unicode="Ą" d="M239 268h239l-72 336h-4zM689 -176l-11 -5q-37 -21 -80 -21q-48 0 -73 22.5t-25 58.5q0 65 78 121h-130q-11 0 -11 18q0 16 6.5 31t17.5 17l59 7l-28 123h-283l-62 -123l66 -7q13 -3 13 -27q0 -15 -5 -27t-13 -12h-228q-12 0 -12 19q0 15 7 30.5t17 16.5l62 7l275 552 l-69 7q-12 2 -12 28q0 40 19 40h209l139 -627l69 -7q12 -3 12 -27q0 -15 -5 -27t-13 -12h-29q-73 -52 -73 -100q0 -40 44 -40q25 0 52 15q19 -7 19 -37q0 -4 -2 -14z"/>
<glyph glyph-name="aogonek" horiz-adv-x="569" unicode="ą" d="M400 418q-35 12 -82 12q-87 0 -139.5 -74.5t-52.5 -183.5q0 -103 71 -103q35 0 67.5 31.5t58 85.5t44 111t33.5 121zM522 -165l-10 -6q-36 -18 -78 -18t-63.5 20.5t-21.5 53.5q0 63 77 115h-22q-51 0 -51 41q0 15 9 54q30 126 30 128h-6q-70 -232 -213 -232 q-65 0 -99 46.5t-34 123.5q0 63 18 121t52.5 107t93 78t133.5 29q57 0 123 -22q17 -6 23.5 -11.5t6.5 -18.5q0 -6 -2 -22l-49 -348l71 -10q13 -3 13 -27q0 -14 -5 -25.5t-13 -11.5h-14q-72 -50 -72 -96q0 -37 39 -37q21 0 47 14q18 -7 18 -34q0 -9 -1 -12z"/>
<glyph glyph-name="Cacute" horiz-adv-x="622" unicode="Ć" d="M386 777l79 137q14 20 64 20q20 0 34 -5.5t14 -13.5q0 -5 -4 -9l-123 -133q-10 -13 -38 -13t-28 11q0 2 2 6zM513 493l5 118q-39 25 -106 25q-86 0 -150.5 -50.5t-95.5 -130t-31 -175.5t51.5 -153.5t145.5 -57.5q38 0 76.5 10t60.5 20t63 31q31 -20 31 -66 q-47 -29 -115 -51t-131 -22q-56 0 -104 16t-87.5 48.5t-62 89t-22.5 132.5q0 105 31 188.5t84 136t120.5 80t142.5 27.5q114 0 188 -46l-22 -175q-4 -13 -33 -13q-38 0 -39 18z"/>
<glyph glyph-name="cacute" horiz-adv-x="464" unicode="ć" d="M259 561l75 124q16 19 63 19q49 0 49 -18q0 -4 -4 -8l-123 -122q-12 -13 -39 -13q-24 0 -24 11q0 2 3 7zM359 333l3 87q-26 10 -61 10q-81 0 -128 -69.5t-47 -164.5q0 -63 30 -99.5t92 -36.5q12 0 23 1t22.5 4.5t18.5 5.5t19 7.5t16 7.5l17 8.5l15 7.5q29 -11 29 -54 q-28 -22 -79 -39.5t-98 -17.5q-36 0 -68 10t-61 31.5t-45.5 62.5t-16.5 98q0 143 77.5 223t185.5 80q80 0 139 -31l-17 -137q-2 -12 -30 -12q-13 0 -24 5t-12 12z"/>
<glyph glyph-name="Ccircumflex" horiz-adv-x="622" unicode="Ĉ" d="M281 783l130 123q11 9 49 9q36 0 43 -9l92 -121q3 -4 3 -9q0 -16 -30 -16q-36 0 -51 19l-62 68l-92 -72q-16 -15 -52 -15q-35 0 -35 15q0 3 5 8zM513 493l5 118q-39 25 -106 25q-86 0 -150.5 -50.5t-95.5 -130t-31 -175.5t51.5 -153.5t145.5 -57.5q38 0 76.5 10t60.5 20 t63 31q31 -20 31 -66q-47 -29 -115 -51t-131 -22q-56 0 -104 16t-87.5 48.5t-62 89t-22.5 132.5q0 105 31 188.5t84 136t120.5 80t142.5 27.5q114 0 188 -46l-22 -175q-4 -13 -33 -13q-38 0 -39 18z"/>
<glyph glyph-name="ccircumflex" horiz-adv-x="464" unicode="ĉ" d="M174 566l114 116q8 9 44 9q33 0 39 -9l79 -115q3 -5 3 -9q0 -15 -28 -15q-31 0 -45 19l-53 67l-79 -71q-18 -15 -47 -15q-31 0 -31 14q0 5 4 9zM359 333l3 87q-26 10 -61 10q-81 0 -128 -69.5t-47 -164.5q0 -63 30 -99.5t92 -36.5q12 0 23 1t22.5 4.5t18.5 5.5t19 7.5 t16 7.5l17 8.5l15 7.5q29 -11 29 -54q-28 -22 -79 -39.5t-98 -17.5q-36 0 -68 10t-61 31.5t-45.5 62.5t-16.5 98q0 143 77.5 223t185.5 80q80 0 139 -31l-17 -137q-2 -12 -30 -12q-13 0 -24 5t-12 12z"/>
<glyph glyph-name="Cdotaccent" horiz-adv-x="622" unicode="Ċ" d="M436 768q-26 0 -45.5 19.5t-19.5 46.5q0 26 19.5 45.5t45.5 19.5q27 0 46.5 -19.5t19.5 -45.5q0 -27 -19.5 -46.5t-46.5 -19.5zM513 493l5 118q-39 25 -106 25q-86 0 -150.5 -50.5t-95.5 -130t-31 -175.5t51.5 -153.5t145.5 -57.5q38 0 76.5 10t60.5 20t63 31 q31 -20 31 -66q-47 -29 -115 -51t-131 -22q-56 0 -104 16t-87.5 48.5t-62 89t-22.5 132.5q0 105 31 188.5t84 136t120.5 80t142.5 27.5q114 0 188 -46l-22 -175q-4 -13 -33 -13q-38 0 -39 18z"/>
<glyph glyph-name="cdotaccent" horiz-adv-x="464" unicode="ċ" d="M279 614q0 25 17.5 42.5t41.5 17.5q25 0 42.5 -17.5t17.5 -42.5q0 -24 -17.5 -41.5t-42.5 -17.5q-24 0 -41.5 17.5t-17.5 41.5zM359 333l3 87q-26 10 -61 10q-81 0 -128 -69.5t-47 -164.5q0 -63 30 -99.5t92 -36.5q12 0 23 1t22.5 4.5t18.5 5.5t19 7.5t16 7.5l17 8.5 l15 7.5q29 -11 29 -54q-28 -22 -79 -39.5t-98 -17.5q-36 0 -68 10t-61 31.5t-45.5 62.5t-16.5 98q0 143 77.5 223t185.5 80q80 0 139 -31l-17 -137q-2 -12 -30 -12q-13 0 -24 5t-12 12z"/>
<glyph glyph-name="Ccaron" horiz-adv-x="622" unicode="Č" d="M391 769l-92 121q-3 5 -3 9q0 16 30 16q35 0 51 -19l62 -69l92 73q18 15 52 15q35 0 35 -15q0 -4 -4 -9l-131 -122q-9 -9 -49 -9q-37 0 -43 9zM513 493l5 118q-39 25 -106 25q-86 0 -150.5 -50.5t-95.5 -130t-31 -175.5t51.5 -153.5t145.5 -57.5q38 0 76.5 10t60.5 20 t63 31q31 -20 31 -66q-47 -29 -115 -51t-131 -22q-56 0 -104 16t-87.5 48.5t-62 89t-22.5 132.5q0 105 31 188.5t84 136t120.5 80t142.5 27.5q114 0 188 -46l-22 -175q-4 -13 -33 -13q-38 0 -39 18z"/>
<glyph glyph-name="ccaron" horiz-adv-x="464" unicode="č" d="M277 552l-78 115q-4 6 -4 10q0 14 28 14q31 0 46 -19l52 -66l80 70q18 15 46 15q31 0 31 -13q0 -5 -4 -9l-114 -117q-7 -9 -43 -9q-31 0 -40 9zM359 333l3 87q-26 10 -61 10q-81 0 -128 -69.5t-47 -164.5q0 -63 30 -99.5t92 -36.5q12 0 23 1t22.5 4.5t18.5 5.5t19 7.5 t16 7.5l17 8.5l15 7.5q29 -11 29 -54q-28 -22 -79 -39.5t-98 -17.5q-36 0 -68 10t-61 31.5t-45.5 62.5t-16.5 98q0 143 77.5 223t185.5 80q80 0 139 -31l-17 -137q-2 -12 -30 -12q-13 0 -24 5t-12 12z"/>
<glyph glyph-name="Dcaron" horiz-adv-x="704" unicode="Ď" d="M332 769l-92 121q-3 5 -3 9q0 16 30 16q35 0 51 -19l62 -69l92 73q18 15 52 15q35 0 35 -15q0 -4 -4 -9l-131 -122q-9 -9 -49 -9q-37 0 -43 9zM180 71h72q58 0 112 19t101.5 58.5t76 110t28.5 163.5q0 107 -59.5 157t-158.5 50h-96zM25 66l62 7l76 554l-69 7 q-12 3 -12 27q0 39 19 39h261q138 0 219.5 -65.5t81.5 -206.5q0 -102 -34.5 -185.5t-92.5 -135.5t-129 -79.5t-147 -27.5h-247q-12 0 -12 19q0 15 7 30.5t17 16.5z"/>
<glyph glyph-name="dcaron" horiz-adv-x="649" unicode="ď" d="M579 520q3 3 11.5 12.5t12 13.5t10 12t10 16.5t6.5 17.5q-19 2 -34.5 16.5t-15.5 42.5q0 22 17 40t43 18t43 -17.5t17 -44.5q0 -79 -81 -157q-15 0 -26.5 8.5t-12.5 21.5zM400 418q-31 12 -82 12q-87 0 -139.5 -74.5t-52.5 -183.5q0 -103 71 -103q35 0 67.5 31t57.5 85 t44 110.5t34 122.5zM439 74l71 -10q13 -3 13 -27q0 -14 -5 -25.5t-13 -11.5h-102q-50 0 -50 41q0 15 9 54q30 126 30 128h-6q-70 -232 -213 -232q-65 0 -99 46.5t-34 123.5q0 63 18 121t53 106.5t92.5 78t129.5 29.5q41 0 78 -12l24 182l-71 10q-13 1 -13 26q0 38 17 38h108 q49 0 49 -44q0 -5 -2 -19z"/>
<glyph glyph-name="Dcroat" horiz-adv-x="704" unicode="Đ" d="M180 71h72q58 0 112 19t101.5 58.5t76 110t28.5 163.5q0 107 -59.5 157t-158.5 50h-96l-31 -225h148q8 0 8 -22q0 -17 -5.5 -33.5t-12.5 -16.5h-148zM25 66l62 7l35 259h-97q-8 0 -8 21q0 18 5 34.5t13 16.5h97l31 223l-69 7q-12 3 -12 27q0 39 19 39h261 q138 0 219.5 -65.5t81.5 -206.5q0 -102 -34.5 -185.5t-92.5 -135.5t-129 -79.5t-147 -27.5h-247q-12 0 -12 19q0 15 7 30.5t17 16.5z"/>
<glyph glyph-name="dcroat" horiz-adv-x="569" unicode="đ" d="M397 402q-31 12 -82 12q-88 0 -138.5 -67t-50.5 -175q0 -103 71 -103q35 0 67 28.5t56.5 79t43 105.5t33.5 120zM439 74l71 -10q13 -3 13 -27q0 -14 -5 -25.5t-13 -11.5h-102q-50 0 -50 41q0 15 9 54q30 126 30 128h-6q-70 -232 -213 -232q-65 0 -99 46.5t-34 123.5 q0 62 17.5 118t52 101.5t91.5 72.5t129 27q40 0 78 -12l10 72h-190q-7 0 -7 15q0 14 5 28t11 14h189l9 69l-71 10q-13 1 -13 26q0 38 17 38h108q49 0 49 -44q0 -5 -2 -19l-11 -80h87q7 0 7 -16q0 -14 -4.5 -27.5t-10.5 -13.5h-87z"/>
<glyph glyph-name="Emacron" horiz-adv-x="621" unicode="Ē" d="M227 865h292q11 0 11 -35q0 -33 -11 -33h-292q-10 0 -10 33q0 35 10 35zM25 66l62 7l76 554l-69 7q-12 3 -12 27q0 39 19 39h507l-25 -180q-4 -13 -33 -13q-40 0 -40 17l5 104h-259l-31 -230h222q11 0 11 -23q0 -17 -6 -33t-15 -16h-222l-35 -254h277l24 106 q2 7 15.5 12.5t28.5 5.5q26 0 30 -13l-26 -183h-516q-12 0 -12 19q0 15 7 30.5t17 16.5z"/>
<glyph glyph-name="emacron" horiz-adv-x="475" unicode="ē" d="M199 639h251q10 0 10 -32q0 -33 -10 -33h-252q-11 0 -11 32q0 33 12 33zM130 259q54 5 93 11.5t74 19t53.5 33t18.5 49.5q0 58 -68 58q-59 0 -109.5 -47t-61.5 -124zM380 103q31 -9 31 -53q-80 -59 -174 -59q-197 0 -197 200q0 132 77 218.5t198 86.5q69 0 104.5 -31.5 t35.5 -80.5q0 -153 -328 -184q0 -3 -0.5 -8.5t-0.5 -6.5q0 -125 124 -125q64 0 130 43z"/>
<glyph glyph-name="Edotaccent" horiz-adv-x="621" unicode="Ė" d="M360 768q-26 0 -45.5 19.5t-19.5 46.5q0 26 19.5 45.5t45.5 19.5q27 0 46.5 -19.5t19.5 -45.5q0 -27 -19.5 -46.5t-46.5 -19.5zM25 66l62 7l76 554l-69 7q-12 3 -12 27q0 39 19 39h507l-25 -180q-4 -13 -33 -13q-40 0 -40 17l5 104h-259l-31 -230h222q11 0 11 -23 q0 -17 -6 -33t-15 -16h-222l-35 -254h277l24 106q2 7 15.5 12.5t28.5 5.5q26 0 30 -13l-26 -183h-516q-12 0 -12 19q0 15 7 30.5t17 16.5z"/>
<glyph glyph-name="edotaccent" horiz-adv-x="475" unicode="ė" d="M277 614q0 25 17.5 42.5t41.5 17.5q25 0 42.5 -17.5t17.5 -42.5q0 -24 -17.5 -41.5t-42.5 -17.5q-24 0 -41.5 17.5t-17.5 41.5zM130 259q54 5 93 11.5t74 19t53.5 33t18.5 49.5q0 58 -68 58q-59 0 -109.5 -47t-61.5 -124zM380 103q31 -9 31 -53q-80 -59 -174 -59 q-197 0 -197 200q0 132 77 218.5t198 86.5q69 0 104.5 -31.5t35.5 -80.5q0 -153 -328 -184q0 -3 -0.5 -8.5t-0.5 -6.5q0 -125 124 -125q64 0 130 43z"/>
<glyph glyph-name="Eogonek" horiz-adv-x="621" unicode="Ę" d="M525 -176l-11 -5q-37 -21 -80 -21q-48 0 -73 22.5t-25 58.5q0 65 78 121h-401q-12 0 -12 19q0 15 7 30.5t17 16.5l62 7l76 554l-69 7q-12 3 -12 27q0 39 19 39h507l-25 -180q-4 -13 -33 -13q-40 0 -40 17l5 104h-259l-31 -230h222q11 0 11 -23q0 -17 -6 -33t-15 -16h-222 l-35 -254h277l24 106q2 7 15.5 12.5t28.5 5.5q26 0 30 -13l-26 -183h-44q-73 -52 -73 -100q0 -40 44 -40q25 0 52 15q19 -7 19 -37q0 -4 -2 -14z"/>
<glyph glyph-name="eogonek" horiz-adv-x="475" unicode="ę" d="M130 259q54 5 93 11.5t74 19t53.5 33t18.5 49.5q0 58 -68 58q-59 0 -109.5 -47t-61.5 -124zM354 -165l-10 -6q-36 -18 -78 -18t-63.5 20.5t-21.5 53.5q0 58 65 106h-9q-197 0 -197 200q0 132 77 218.5t198 86.5q69 0 104.5 -31.5t35.5 -80.5q0 -153 -328 -184 q0 -3 -0.5 -8.5t-0.5 -6.5q0 -125 124 -125q64 0 130 43q31 -9 31 -53q-30 -22 -69 -38q-91 -57 -91 -108q0 -37 39 -37q21 0 47 14q18 -7 18 -34q0 -9 -1 -12z"/>
<glyph glyph-name="Ecaron" horiz-adv-x="621" unicode="Ě" d="M320 769l-92 121q-3 5 -3 9q0 16 30 16q35 0 51 -19l62 -69l92 73q18 15 52 15q35 0 35 -15q0 -4 -4 -9l-131 -122q-9 -9 -49 -9q-37 0 -43 9zM25 66l62 7l76 554l-69 7q-12 3 -12 27q0 39 19 39h507l-25 -180q-4 -13 -33 -13q-40 0 -40 17l5 104h-259l-31 -230h222 q11 0 11 -23q0 -17 -6 -33t-15 -16h-222l-35 -254h277l24 106q2 7 15.5 12.5t28.5 5.5q26 0 30 -13l-26 -183h-516q-12 0 -12 19q0 15 7 30.5t17 16.5z"/>
<glyph glyph-name="ecaron" horiz-adv-x="475" unicode="ě" d="M273 552l-78 115q-4 6 -4 10q0 14 28 14q31 0 46 -19l52 -66l80 70q18 15 46 15q31 0 31 -13q0 -5 -4 -9l-114 -117q-7 -9 -43 -9q-31 0 -40 9zM130 259q54 5 93 11.5t74 19t53.5 33t18.5 49.5q0 58 -68 58q-59 0 -109.5 -47t-61.5 -124zM380 103q31 -9 31 -53 q-80 -59 -174 -59q-197 0 -197 200q0 132 77 218.5t198 86.5q69 0 104.5 -31.5t35.5 -80.5q0 -153 -328 -184q0 -3 -0.5 -8.5t-0.5 -6.5q0 -125 124 -125q64 0 130 43z"/>
<glyph glyph-name="Gcircumflex" horiz-adv-x="675" unicode="Ĝ" d="M287 783l130 123q11 9 49 9q36 0 43 -9l92 -121q3 -4 3 -9q0 -16 -30 -16q-36 0 -51 19l-62 68l-92 -72q-16 -15 -52 -15q-35 0 -35 15q0 3 5 8zM496 111l22 161h-155q-12 0 -12 22q0 17 7 32.5t16 15.5h241l-38 -273q-49 -31 -120 -54.5t-139 -23.5q-55 0 -103 16 t-88 48.5t-63 90t-23 132.5q0 104 32 188t86.5 136t123 79.5t143.5 27.5q132 0 207 -48q-9 -64 -22 -170q-4 -13 -33 -13q-39 0 -39 18l4 113q-42 27 -125 27q-128 0 -205.5 -104t-77.5 -251q0 -96 51.5 -154t145.5 -58q89 0 164 42z"/>
<glyph glyph-name="gcircumflex" horiz-adv-x="541" unicode="ĝ" d="M193 566l114 116q7 9 44 9q33 0 39 -9l79 -115q3 -5 3 -9q0 -15 -28 -15q-31 0 -45 19l-53 67l-79 -71q-18 -15 -47 -15q-31 0 -31 14q0 5 4 9zM400 418q-31 12 -82 12q-86 0 -139 -73.5t-53 -184.5q0 -103 71 -103q119 0 203 349zM340 -9l4 25q6 39 24.5 109t23.5 98h-6 q-71 -232 -213 -232q-65 0 -99 46.5t-34 124.5q0 86 30.5 159.5t99.5 124t165 50.5q60 0 125 -22q17 -6 23.5 -11.5t6.5 -18.5q0 -4 -2 -22l-59 -418q-17 -120 -83.5 -186.5t-171.5 -66.5q-93 0 -165 52q0 46 34 55q74 -38 133 -38q35 0 62.5 12t44.5 29.5t29.5 42.5t18 45 t9.5 42z"/>
<glyph glyph-name="Gbreve" horiz-adv-x="675" unicode="Ğ" d="M332 898l7 -21q17 -53 78 -53q67 0 95 54l9 19q9 10 32 10q29 0 35 -17q-18 -66 -66.5 -98t-109.5 -32q-55 0 -98 32t-48 101q7 14 35 14q19 0 31 -9zM496 111l22 161h-155q-12 0 -12 22q0 17 7 32.5t16 15.5h241l-38 -273q-49 -31 -120 -54.5t-139 -23.5q-55 0 -103 16 t-88 48.5t-63 90t-23 132.5q0 104 32 188t86.5 136t123 79.5t143.5 27.5q132 0 207 -48q-9 -64 -22 -170q-4 -13 -33 -13q-39 0 -39 18l4 113q-42 27 -125 27q-128 0 -205.5 -104t-77.5 -251q0 -96 51.5 -154t145.5 -58q89 0 164 42z"/>
<glyph glyph-name="gbreve" horiz-adv-x="541" unicode="ğ" d="M275 665l4 -15q12 -45 63 -45q52 0 77 46l7 13q10 10 32 10q28 0 34 -16q-15 -58 -58.5 -86.5t-95.5 -28.5q-46 0 -85.5 28.5t-43.5 86.5q10 16 36 16q19 0 30 -9zM400 418q-31 12 -82 12q-86 0 -139 -73.5t-53 -184.5q0 -103 71 -103q119 0 203 349zM340 -9l4 25 q6 39 24.5 109t23.5 98h-6q-71 -232 -213 -232q-65 0 -99 46.5t-34 124.5q0 86 30.5 159.5t99.5 124t165 50.5q60 0 125 -22q17 -6 23.5 -11.5t6.5 -18.5q0 -4 -2 -22l-59 -418q-17 -120 -83.5 -186.5t-171.5 -66.5q-93 0 -165 52q0 46 34 55q74 -38 133 -38q35 0 62.5 12 t44.5 29.5t29.5 42.5t18 45t9.5 42z"/>
<glyph glyph-name="Gdotaccent" horiz-adv-x="675" unicode="Ġ" d="M465 768q-26 0 -45.5 19.5t-19.5 46.5q0 26 19.5 45.5t45.5 19.5q27 0 46.5 -19.5t19.5 -45.5q0 -27 -19.5 -46.5t-46.5 -19.5zM496 111l22 161h-155q-12 0 -12 22q0 17 7 32.5t16 15.5h241l-38 -273q-49 -31 -120 -54.5t-139 -23.5q-55 0 -103 16t-88 48.5t-63 90 t-23 132.5q0 104 32 188t86.5 136t123 79.5t143.5 27.5q132 0 207 -48q-9 -64 -22 -170q-4 -13 -33 -13q-39 0 -39 18l4 113q-42 27 -125 27q-128 0 -205.5 -104t-77.5 -251q0 -96 51.5 -154t145.5 -58q89 0 164 42z"/>
<glyph glyph-name="gdotaccent" horiz-adv-x="541" unicode="ġ" d="M291 614q0 25 17.5 42.5t41.5 17.5q25 0 42.5 -17.5t17.5 -42.5q0 -24 -17.5 -41.5t-42.5 -17.5q-24 0 -41.5 17.5t-17.5 41.5zM400 418q-31 12 -82 12q-86 0 -139 -73.5t-53 -184.5q0 -103 71 -103q119 0 203 349zM340 -9l4 25q6 39 24.5 109t23.5 98h-6 q-71 -232 -213 -232q-65 0 -99 46.5t-34 124.5q0 86 30.5 159.5t99.5 124t165 50.5q60 0 125 -22q17 -6 23.5 -11.5t6.5 -18.5q0 -4 -2 -22l-59 -418q-17 -120 -83.5 -186.5t-171.5 -66.5q-93 0 -165 52q0 46 34 55q74 -38 133 -38q35 0 62.5 12t44.5 29.5t29.5 42.5t18 45 t9.5 42z"/>
<glyph glyph-name="Gcommaaccent" horiz-adv-x="675" unicode="Ģ" d="M256 -242q39 43 51 76q-20 3 -35.5 18t-15.5 44q0 23 17 41t44 18q28 0 45 -17.5t17 -45.5q0 -86 -83 -164q-34 0 -40 30zM496 111l22 161h-155q-12 0 -12 22q0 17 7 32.5t16 15.5h241l-38 -273q-49 -31 -120 -54.5t-139 -23.5q-55 0 -103 16t-88 48.5t-63 90t-23 132.5 q0 104 32 188t86.5 136t123 79.5t143.5 27.5q132 0 207 -48q-9 -64 -22 -170q-4 -13 -33 -13q-39 0 -39 18l4 113q-42 27 -125 27q-128 0 -205.5 -104t-77.5 -251q0 -96 51.5 -154t145.5 -58q89 0 164 42z"/>
<glyph glyph-name="gcommaaccent" horiz-adv-x="541" unicode="ģ" d="M419 742q-2 -2 -9.5 -10t-10 -11t-8.5 -10.5t-8.5 -12.5t-6.5 -12.5t-6 -15.5q19 -2 34 -16.5t15 -42.5q0 -22 -16.5 -40t-42.5 -18q-27 0 -44 17.5t-17 44.5q0 79 81 157q15 0 26.5 -8.5t12.5 -21.5zM400 418q-31 12 -82 12q-86 0 -139 -73.5t-53 -184.5q0 -103 71 -103 q119 0 203 349zM340 -9l4 25q6 39 24.5 109t23.5 98h-6q-71 -232 -213 -232q-65 0 -99 46.5t-34 124.5q0 86 30.5 159.5t99.5 124t165 50.5q60 0 125 -22q17 -6 23.5 -11.5t6.5 -18.5q0 -4 -2 -22l-59 -418q-17 -120 -83.5 -186.5t-171.5 -66.5q-93 0 -165 52q0 46 34 55 q74 -38 133 -38q35 0 62.5 12t44.5 29.5t29.5 42.5t18 45t9.5 42z"/>
<glyph glyph-name="Hcircumflex" horiz-adv-x="770" unicode="Ĥ" d="M295 783l130 123q11 9 49 9q36 0 43 -9l92 -121q3 -4 3 -9q0 -16 -30 -16q-36 0 -51 19l-62 68l-92 -72q-16 -15 -52 -15q-35 0 -35 15q0 3 5 8zM25 66l62 7l76 554l-69 7q-12 3 -12 27q0 39 19 39h228q11 0 11 -19q0 -16 -7 -30.5t-18 -16.5l-59 -7l-31 -223h335l31 223 l-66 7q-13 3 -13 27q0 15 5 27t14 12h227q11 0 11 -19q0 -16 -7 -30.5t-18 -16.5l-60 -7l-77 -554l69 -7q12 -3 12 -27q0 -15 -5 -27t-13 -12h-228q-11 0 -11 18q0 16 6.5 31t17.5 17l59 7l36 259h-334l-36 -259l66 -7q13 -3 13 -27q0 -15 -5 -27t-13 -12h-228q-12 0 -12 19 q0 15 7 30.5t17 16.5z"/>
<glyph glyph-name="hcircumflex" horiz-adv-x="589" unicode="ĥ" d="M32 809l114 116q8 9 44 9q33 0 39 -9l79 -115q3 -4 3 -9q0 -15 -28 -15q-31 0 -45 19l-53 67l-79 -71q-18 -15 -47 -15q-31 0 -31 14q0 5 4 9zM249 677l-28 -200q-5 -35 -25.5 -113.5t-23.5 -99.5h6q35 114 90.5 173t123.5 59q49 0 78.5 -29t29.5 -84q0 -39 -6 -79 l-32 -230l71 -10q13 -1 13 -27q0 -15 -5 -26t-13 -11h-108q-48 0 -48 43q0 5 2 19l32 228q7 47 7 72q0 26 -13 41t-35 15q-48 0 -94.5 -70.5t-75.5 -161t-39 -171.5l-1 -8q-3 -11 -46 -11q-40 0 -41 11l93 659l-71 10q-13 1 -13 26q0 38 17 38h108q49 0 49 -44q0 -5 -2 -19z "/>
<glyph glyph-name="Hbar" horiz-adv-x="770" unicode="Ħ" d="M223 394h335l13 96h-335zM739 490h-74l-58 -417l69 -7q12 -3 12 -27q0 -15 -5 -27t-13 -12h-228q-11 0 -11 18q0 16 6.5 31t17.5 17l59 7l35 253h-334l-35 -253l66 -7q13 -3 13 -27q0 -15 -5 -27t-13 -12h-228q-12 0 -12 19q0 15 7 30.5t17 16.5l62 7l57 417h-77 q-8 2 -8 17q0 14 5 27.5t12 13.5h76l11 79l-69 7q-12 3 -12 27q0 39 19 39h228q11 0 11 -19q0 -16 -7 -30.5t-18 -16.5l-59 -7l-11 -79h335l11 79l-66 7q-13 3 -13 27q0 15 5 27t14 12h227q11 0 11 -19q0 -16 -7 -30.5t-18 -16.5l-60 -7l-11 -79h75q6 0 6 -15t-4.5 -29 t-10.5 -14z"/>
<glyph glyph-name="hbar" horiz-adv-x="589" unicode="ħ" d="M249 677l-11 -80h177q7 0 7 -16q0 -14 -4.5 -27.5t-10.5 -13.5h-177l-9 -63q-5 -35 -25.5 -113.5t-23.5 -99.5h6q68 223 212 223q49 0 78.5 -29t29.5 -84q0 -38 -6 -79l-30 -221l71 -10q13 -1 13 -27q0 -15 -5 -26t-13 -11h-108q-48 0 -48 43q0 5 2 19l30 219q7 47 7 72 q0 26 -13 41t-35 15q-48 0 -94 -68.5t-74.5 -156.5t-38.5 -169l-1 -8q-3 -11 -46 -11q-40 0 -41 11l75 533h-95q-8 0 -8 15q0 13 5 27.5t11 14.5h95l10 69l-71 10q-13 1 -13 26q0 38 17 38h108q49 0 49 -44q0 -5 -2 -19z"/>
<glyph glyph-name="Imacron" horiz-adv-x="356" unicode="Ī" d="M84 865h292q11 0 11 -35q0 -33 -11 -33h-292q-10 0 -10 33q0 35 10 35zM25 66l69 7l76 554l-74 7q-13 1 -13 27q0 15 5 27t14 12h242q11 0 11 -19q0 -16 -6.5 -31t-17.5 -16l-68 -7l-76 -554l74 -7q12 -3 12 -27q0 -39 -18 -39h-242q-12 0 -12 19q0 15 7 30.5t17 16.5z "/>
<glyph glyph-name="imacron" horiz-adv-x="299" unicode="ī" d="M21 639h251q10 0 10 -32q0 -33 -10 -33h-252q-11 0 -11 32q0 33 12 33zM81 62l49 351l-71 10q-13 1 -13 26q0 38 17 38h108q49 0 49 -44q0 -5 -2 -19l-49 -350l72 -10q12 -2 12 -27q0 -37 -17 -37h-108q-49 0 -49 43q0 5 2 19z"/>
<glyph glyph-name="Iogonek" horiz-adv-x="356" unicode="Į" d="M260 -176l-11 -5q-37 -21 -80 -21q-48 0 -73 22.5t-25 58.5q0 65 78 121h-136q-12 0 -12 19q0 15 7 30.5t17 16.5l69 7l76 554l-74 7q-13 1 -13 27q0 15 5 27t14 12h242q11 0 11 -19q0 -16 -6.5 -31t-17.5 -16l-68 -7l-76 -554l74 -7q12 -3 12 -27q0 -39 -18 -39h-35 q-73 -52 -73 -100q0 -40 44 -40q25 0 52 15q19 -7 19 -37q0 -4 -2 -14z"/>
<glyph glyph-name="iogonek" horiz-adv-x="299" unicode="į" d="M119 614q0 25 17.5 42.5t41.5 17.5q25 0 42.5 -17.5t17.5 -42.5q0 -24 -17.5 -41.5t-42.5 -17.5q-24 0 -41.5 17.5t-17.5 41.5zM236 -165l-10 -6q-36 -18 -78 -18t-63.5 20.5t-21.5 53.5q0 63 77 115h-12q-49 0 -49 43q0 5 2 19l49 351l-71 10q-13 1 -13 26q0 38 17 38 h108q49 0 49 -44q0 -5 -2 -19l-49 -350l72 -10q12 -2 12 -27q0 -37 -17 -37h-26q-72 -50 -72 -96q0 -37 34 -37q21 0 47 14q18 -7 18 -34q0 -9 -1 -12z"/>
<glyph glyph-name="Idotaccent" horiz-adv-x="356" unicode="İ" d="M227 768q-26 0 -45.5 19.5t-19.5 46.5q0 26 19.5 45.5t45.5 19.5q27 0 46.5 -19.5t19.5 -45.5q0 -27 -19.5 -46.5t-46.5 -19.5zM25 66l69 7l76 554l-74 7q-13 1 -13 27q0 15 5 27t14 12h242q11 0 11 -19q0 -16 -6.5 -31t-17.5 -16l-68 -7l-76 -554l74 -7q12 -3 12 -27 q0 -39 -18 -39h-242q-12 0 -12 19q0 15 7 30.5t17 16.5z"/>
<glyph glyph-name="dotlessi" horiz-adv-x="299" unicode="ı" d="M81 62l49 351l-71 10q-13 1 -13 26q0 38 17 38h108q49 0 49 -44q0 -5 -2 -19l-49 -350l72 -10q12 -2 12 -27q0 -37 -17 -37h-108q-49 0 -49 43q0 5 2 19z"/>
<glyph glyph-name="Jcircumflex" horiz-adv-x="548" unicode="Ĵ" d="M272 783l130 123q11 9 49 9q36 0 43 -9l92 -121q3 -4 3 -9q0 -16 -30 -16q-36 0 -51 19l-62 68l-92 -72q-16 -15 -52 -15q-35 0 -35 15q0 3 5 8zM7 34l21 151q2 14 32 14q38 0 40 -19l-5 -97q27 -19 83 -19q62 0 95.5 38.5t41.5 99.5l60 425l-69 7q-13 1 -13 27 q0 39 19 39h229q12 0 12 -19q0 -16 -7 -30.5t-18 -16.5l-61 -7l-60 -426q-14 -101 -81 -155.5t-158 -54.5q-88 0 -161 43z"/>
<glyph glyph-name="jcircumflex" horiz-adv-x="279" unicode="ĵ" d="M14 566l114 116q7 9 44 9q33 0 39 -9l79 -115q3 -5 3 -9q0 -15 -28 -15q-31 0 -45 19l-53 67l-79 -71q-18 -15 -47 -15q-31 0 -31 14q0 5 4 9zM218 424l-59 -429q-27 -195 -194 -244q-21 10 -21 37q0 10 3 19q53 23 83 64.5t41 118.5l59 423l-71 10q-13 1 -13 26 q0 38 17 38h108q49 0 49 -44q0 -5 -2 -19z"/>
<glyph glyph-name="Kcommaaccent" horiz-adv-x="673" unicode="Ķ" d="M265 -242q39 43 51 76q-20 3 -35.5 18t-15.5 44q0 23 17 41t44 18q28 0 45 -17.5t17 -45.5q0 -86 -83 -164q-34 0 -40 30zM25 66l62 7l76 554l-69 7q-12 3 -12 27q0 39 19 39h225q11 0 11 -19q0 -16 -6.5 -30t-17.5 -17l-57 -7l-34 -247l289 247l-54 7q-13 1 -13 28 q0 15 5.5 26.5t14.5 11.5h226q13 0 13 -20q0 -15 -7.5 -29.5t-16.5 -16.5l-58 -7l-261 -220l173 -333l84 -8q12 -2 12 -28q0 -15 -5 -26.5t-14 -11.5h-146l-177 353l-79 -70l-28 -210l64 -7q13 -3 13 -27q0 -39 -17 -39h-227q-12 0 -12 19q0 15 7 30.5t17 16.5z"/>
<glyph glyph-name="kcommaaccent" horiz-adv-x="549" unicode="ķ" d="M177 -234q2 2 9.5 10t10 11t8.5 10.5t8.5 12.5t6.5 12.5t6 15.5q-19 2 -34 16.5t-15 42.5q0 22 16.5 40t42.5 18q27 0 44 -17.5t17 -44.5q0 -79 -81 -157q-15 0 -26.5 8.5t-12.5 21.5zM211 245q49 4 94.5 19t79.5 44.5t34 67.5q0 42 -47 42q-84 0 -161 -173zM249 677 l-28 -200q-6 -42 -23.5 -106.5t-21.5 -85.5h7q40 108 93.5 159.5t127.5 51.5q49 0 77 -28.5t28 -73.5q0 -71 -59.5 -115.5t-142.5 -62.5l113 -142q13 -2 37 -5.5t34 -4.5q13 -3 13 -25q0 -39 -16 -39h-90q-30 0 -52 29l-143 188h-5q-24 -67 -42 -202l-1 -8q-2 -11 -46 -11 q-40 0 -41 11q14 102 45.5 323t47.5 336l-71 10q-13 1 -13 26q0 38 17 38h108q49 0 49 -44q0 -5 -2 -19z"/>
<glyph glyph-name="Lacute" horiz-adv-x="583" unicode="Ĺ" d="M196 777l79 137q14 20 64 20q20 0 34 -5.5t14 -13.5q0 -5 -4 -9l-123 -133q-10 -13 -38 -13t-28 11q0 2 2 6zM25 66l62 7l76 554l-69 7q-12 3 -12 27q0 39 19 39h229q11 0 11 -19q0 -16 -6.5 -30.5t-17.5 -16.5l-61 -7l-76 -555h257l27 123q2 7 16 12t28 5q26 0 29 -13 l-28 -199h-496q-12 0 -12 19q0 15 7 30.5t17 16.5z"/>
<glyph glyph-name="lacute" horiz-adv-x="296" unicode="ĺ" d="M145 801l75 124q16 19 63 19q49 0 49 -18q0 -4 -4 -8l-123 -122q-12 -13 -39 -13q-24 0 -24 11q0 2 3 7zM76 62l84 604l-71 10q-13 1 -13 26q0 38 17 38h108q49 0 49 -44q0 -5 -2 -19l-84 -603l72 -10q12 -2 12 -27q0 -37 -17 -37h-108q-49 0 -49 43q0 5 2 19z"/>
<glyph glyph-name="Lcommaaccent" horiz-adv-x="583" unicode="Ļ" d="M210 -242q39 43 51 76q-20 3 -35.5 18t-15.5 44q0 23 17 41t44 18q28 0 45 -17.5t17 -45.5q0 -86 -83 -164q-34 0 -40 30zM25 66l62 7l76 554l-69 7q-12 3 -12 27q0 39 19 39h229q11 0 11 -19q0 -16 -6.5 -30.5t-17.5 -16.5l-61 -7l-76 -555h257l27 123q2 7 16 12t28 5 q26 0 29 -13l-28 -199h-496q-12 0 -12 19q0 15 7 30.5t17 16.5z"/>
<glyph glyph-name="lcommaaccent" horiz-adv-x="296" unicode="ļ" d="M88 -234q2 2 9.5 10t10 11t8.5 10.5t8.5 12.5t6.5 12.5t6 15.5q-19 2 -34 16.5t-15 42.5q0 22 16.5 40t42.5 18q27 0 44 -17.5t17 -44.5q0 -79 -81 -157q-15 0 -26.5 8.5t-12.5 21.5zM76 62l84 604l-71 10q-13 1 -13 26q0 38 17 38h108q49 0 49 -44q0 -5 -2 -19l-84 -603 l72 -10q12 -2 12 -27q0 -37 -17 -37h-108q-49 0 -49 43q0 5 2 19z"/>
<glyph glyph-name="Lcaron" horiz-adv-x="583" unicode="Ľ" d="M460 512q39 43 51 76q-20 3 -35.5 18t-15.5 44q0 23 17 41t44 18q28 0 45 -17.5t17 -45.5q0 -86 -83 -164q-35 0 -40 30zM25 66l62 7l76 554l-69 7q-12 3 -12 27q0 39 19 39h229q11 0 11 -19q0 -16 -6.5 -30.5t-17.5 -16.5l-61 -7l-76 -555h257l27 123q2 7 16 12t28 5 q26 0 29 -13l-28 -199h-496q-12 0 -12 19q0 15 7 30.5t17 16.5z"/>
<glyph glyph-name="lcaron" horiz-adv-x="374" unicode="ľ" d="M304 520q3 3 11.5 12.5t12 13.5t10 12t10 16.5t6.5 17.5q-19 2 -34.5 16.5t-15.5 42.5q0 22 17 40t43 18t43 -17.5t17 -44.5q0 -79 -81 -157q-15 0 -26.5 8.5t-12.5 21.5zM76 62l84 604l-71 10q-13 1 -13 26q0 38 17 38h108q49 0 49 -44q0 -5 -2 -19l-84 -603l72 -10 q12 -2 12 -27q0 -37 -17 -37h-108q-49 0 -49 43q0 5 2 19z"/>
<glyph glyph-name="Ldot" horiz-adv-x="583" unicode="Ŀ" d="M444 395q0 29 21.5 50t50.5 21q28 0 48.5 -21t20.5 -50q0 -28 -20.5 -48.5t-48.5 -20.5q-29 0 -50.5 20.5t-21.5 48.5zM25 66l62 7l76 554l-69 7q-12 3 -12 27q0 39 19 39h229q11 0 11 -19q0 -16 -6.5 -30.5t-17.5 -16.5l-61 -7l-76 -555h257l27 123q2 7 16 12t28 5 q26 0 29 -13l-28 -199h-496q-12 0 -12 19q0 15 7 30.5t17 16.5z"/>
<glyph glyph-name="ldot" horiz-adv-x="427" unicode="ŀ" d="M296 351q0 29 21.5 50t50.5 21q28 0 48.5 -21t20.5 -50q0 -28 -20.5 -48.5t-48.5 -20.5q-29 0 -50.5 20.5t-21.5 48.5zM76 62l84 604l-71 10q-13 1 -13 26q0 38 17 38h108q49 0 49 -44q0 -5 -2 -19l-84 -603l72 -10q12 -2 12 -27q0 -37 -17 -37h-108q-49 0 -49 43 q0 5 2 19z"/>
<glyph glyph-name="Lslash" horiz-adv-x="592" unicode="Ł" d="M34 66l62 7l27 199l-113 -71q-14 4 -23 18.5t-9 32.5l156 98l38 277l-69 7q-12 3 -12 27q0 39 19 39h229q11 0 11 -19q0 -16 -6.5 -30.5t-17.5 -16.5l-61 -7l-29 -213l165 105q32 -13 32 -52l-208 -131l-36 -264h257l27 123q2 7 16 12t28 5q26 0 29 -13l-28 -199h-496 q-12 0 -12 19q0 15 7 30.5t17 16.5z"/>
<glyph glyph-name="lslash" horiz-adv-x="337" unicode="ł" d="M86 62l32 232l-88 -53q-28 10 -28 48l126 76l42 301l-71 10q-13 1 -13 26q0 38 17 38h108q49 0 49 -44q0 -5 -2 -19l-36 -256l103 62q29 -11 29 -47l-142 -86l-38 -276l72 -10q12 -2 12 -27q0 -37 -17 -37h-108q-49 0 -49 43q0 5 2 19z"/>
<glyph glyph-name="Nacute" horiz-adv-x="770" unicode="Ń" d="M400 777l79 137q14 20 64 20q20 0 34 -5.5t14 -13.5q0 -5 -4 -9l-123 -133q-10 -13 -38 -13t-28 11q0 2 2 6zM693 627l-86 -620q-1 -6 -16 -11t-32 -5q-28 0 -43 11l-233 487q-27 57 -42 96h-5q-2 -36 -7 -80l-58 -432l68 -7q13 -3 13 -27q0 -15 -5 -27t-14 -12h-220 q-12 0 -12 19q0 15 7 30.5t17 16.5l62 7l76 554l-68 7q-13 1 -13 27q0 39 19 39h181l217 -464q9 -19 24.5 -59t16.5 -42h5q7 73 9 85l54 407l-66 7q-13 3 -13 27q0 15 5 27t14 12h219q11 0 11 -19q0 -16 -7 -30.5t-18 -16.5z"/>
<glyph glyph-name="nacute" horiz-adv-x="594" unicode="ń" d="M267 561l75 124q16 19 63 19q49 0 49 -18q0 -4 -4 -8l-123 -122q-12 -13 -39 -13q-24 0 -24 11q0 2 3 7zM73 7l57 406l-71 10q-13 3 -13 26q0 38 17 38h103q50 0 50 -42q0 -12 -9 -54q-29 -122 -30 -127h6q35 114 91 173t124 59q49 0 78 -29t29 -84q0 -39 -6 -79 l-32 -230l71 -10q13 -1 13 -27q0 -15 -5 -26t-13 -11h-108q-48 0 -48 43q0 5 2 19l32 228q7 47 7 72q0 26 -12.5 41t-34.5 15q-47 0 -93 -67t-75 -157t-42 -179l-1 -8q-3 -11 -46 -11q-40 0 -41 11z"/>
<glyph glyph-name="Ncommaaccent" horiz-adv-x="770" unicode="Ņ" d="M283 -242q39 43 51 76q-20 3 -35.5 18t-15.5 44q0 23 17 41t44 18q28 0 45 -17.5t17 -45.5q0 -86 -83 -164q-34 0 -40 30zM693 627l-86 -620q-1 -6 -16 -11t-32 -5q-28 0 -43 11l-233 487q-27 57 -42 96h-5q-2 -36 -7 -80l-58 -432l68 -7q13 -3 13 -27q0 -15 -5 -27 t-14 -12h-220q-12 0 -12 19q0 15 7 30.5t17 16.5l62 7l76 554l-68 7q-13 1 -13 27q0 39 19 39h181l217 -464q9 -19 24.5 -59t16.5 -42h5q7 73 9 85l54 407l-66 7q-13 3 -13 27q0 15 5 27t14 12h219q11 0 11 -19q0 -16 -7 -30.5t-18 -16.5z"/>
<glyph glyph-name="ncommaaccent" horiz-adv-x="594" unicode="ņ" d="M203 -234q2 2 9.5 10t10 11t8.5 10.5t8.5 12.5t6.5 12.5t6 15.5q-19 2 -34 16.5t-15 42.5q0 22 16.5 40t42.5 18q27 0 44 -17.5t17 -44.5q0 -79 -81 -157q-15 0 -26.5 8.5t-12.5 21.5zM73 7l57 406l-71 10q-13 3 -13 26q0 38 17 38h103q50 0 50 -42q0 -12 -9 -54 q-29 -122 -30 -127h6q35 114 91 173t124 59q49 0 78 -29t29 -84q0 -39 -6 -79l-32 -230l71 -10q13 -1 13 -27q0 -15 -5 -26t-13 -11h-108q-48 0 -48 43q0 5 2 19l32 228q7 47 7 72q0 26 -12.5 41t-34.5 15q-47 0 -93 -67t-75 -157t-42 -179l-1 -8q-3 -11 -46 -11 q-40 0 -41 11z"/>
<glyph glyph-name="Ncaron" horiz-adv-x="770" unicode="Ň" d="M395 769l-92 121q-3 5 -3 9q0 16 30 16q35 0 51 -19l62 -69l92 73q18 15 52 15q35 0 35 -15q0 -4 -4 -9l-131 -122q-9 -9 -49 -9q-37 0 -43 9zM693 627l-86 -620q-1 -6 -16 -11t-32 -5q-28 0 -43 11l-233 487q-27 57 -42 96h-5q-2 -36 -7 -80l-58 -432l68 -7 q13 -3 13 -27q0 -15 -5 -27t-14 -12h-220q-12 0 -12 19q0 15 7 30.5t17 16.5l62 7l76 554l-68 7q-13 1 -13 27q0 39 19 39h181l217 -464q9 -19 24.5 -59t16.5 -42h5q7 73 9 85l54 407l-66 7q-13 3 -13 27q0 15 5 27t14 12h219q11 0 11 -19q0 -16 -7 -30.5t-18 -16.5z"/>
<glyph glyph-name="ncaron" horiz-adv-x="594" unicode="ň" d="M302 552l-78 115q-4 6 -4 10q0 14 28 14q31 0 46 -19l52 -66l80 70q18 15 46 15q31 0 31 -13q0 -5 -4 -9l-114 -117q-7 -9 -43 -9q-31 0 -40 9zM73 7l57 406l-71 10q-13 3 -13 26q0 38 17 38h103q50 0 50 -42q0 -12 -9 -54q-29 -122 -30 -127h6q35 114 91 173t124 59 q49 0 78 -29t29 -84q0 -39 -6 -79l-32 -230l71 -10q13 -1 13 -27q0 -15 -5 -26t-13 -11h-108q-48 0 -48 43q0 5 2 19l32 228q7 47 7 72q0 26 -12.5 41t-34.5 15q-47 0 -93 -67t-75 -157t-42 -179l-1 -8q-3 -11 -46 -11q-40 0 -41 11z"/>
<glyph glyph-name="Omacron" horiz-adv-x="713" unicode="Ō" d="M273 865h292q11 0 11 -35q0 -33 -11 -33h-292q-10 0 -10 33q0 35 10 35zM321 64q56 0 101.5 24t74 61t47.5 84.5t27 92t8 86.5q0 94 -45.5 159t-141.5 65q-56 0 -101.5 -24t-74 -61t-47.5 -84.5t-27 -92t-8 -86.5q0 -94 45.5 -159t141.5 -65zM320 -9q-130 0 -204.5 76 t-74.5 210q0 196 98 314t255 118q129 0 203.5 -76t74.5 -209q0 -197 -97.5 -315t-254.5 -118z"/>
<glyph glyph-name="omacron" horiz-adv-x="521" unicode="ō" d="M182 639h251q10 0 10 -32q0 -33 -10 -33h-252q-11 0 -11 32q0 33 12 33zM237 57q74 0 116 68t42 157q0 77 -31.5 112.5t-80.5 35.5q-74 0 -115.5 -67.5t-41.5 -156.5q0 -77 31.5 -113t79.5 -36zM235 -9q-89 0 -142 55.5t-53 157.5q0 73 26.5 138t84 109.5t135.5 44.5 q90 0 142.5 -55t52.5 -157q0 -75 -27 -140.5t-84.5 -109t-134.5 -43.5z"/>
<glyph glyph-name="Ohungarumlaut" horiz-adv-x="713" unicode="Ő" d="M449 779l76 129q20 20 63 20q21 0 36 -5.5t15 -13.5q0 -3 -6 -8l-125 -127q-11 -14 -36 -14t-25 12q0 3 2 7zM260 779l76 129q20 20 63 20q21 0 35.5 -5.5t14.5 -13.5q0 -4 -5 -8l-125 -127q-11 -14 -36 -14t-25 12q0 3 2 7zM321 64q56 0 101.5 24t74 61t47.5 84.5t27 92 t8 86.5q0 94 -45.5 159t-141.5 65q-56 0 -101.5 -24t-74 -61t-47.5 -84.5t-27 -92t-8 -86.5q0 -94 45.5 -159t141.5 -65zM320 -9q-130 0 -204.5 76t-74.5 210q0 196 98 314t255 118q129 0 203.5 -76t74.5 -209q0 -197 -97.5 -315t-254.5 -118z"/>
<glyph glyph-name="ohungarumlaut" horiz-adv-x="521" unicode="ő" d="M331 559l67 112q16 18 55 18q45 0 45 -16q0 -4 -5 -9l-109 -110q-10 -11 -33 -11q-22 0 -22 10q0 3 2 6zM174 559l67 112q16 18 56 18q44 0 44 -16q0 -5 -4 -9l-109 -110q-11 -11 -33 -11q-23 0 -23 10q0 3 2 6zM237 57q74 0 116 68t42 157q0 77 -31.5 112.5t-80.5 35.5 q-74 0 -115.5 -67.5t-41.5 -156.5q0 -77 31.5 -113t79.5 -36zM235 -9q-89 0 -142 55.5t-53 157.5q0 73 26.5 138t84 109.5t135.5 44.5q90 0 142.5 -55t52.5 -157q0 -75 -27 -140.5t-84.5 -109t-134.5 -43.5z"/>
<glyph glyph-name="OE" horiz-adv-x="943" unicode="Œ" d="M321 64q54 0 89 15l73 537q-34 20 -91 20q-56 0 -101.5 -24t-74 -61t-47.5 -84.5t-27 -92t-8 -86.5q0 -94 45.5 -159t141.5 -65zM394 709q43 0 79 -9h457l-25 -180q-4 -13 -33 -13q-40 0 -40 17l5 104h-259l-31 -230h222q11 0 11 -23q0 -17 -6 -33t-15 -16h-222l-35 -254 h277l24 106q2 7 15.5 12.5t28.5 5.5q26 0 30 -13l-26 -183h-450q-39 -9 -81 -9q-130 0 -204.5 76t-74.5 210q0 196 98 314t255 118z"/>
<glyph glyph-name="oe" horiz-adv-x="824" unicode="œ" d="M479 259q54 5 93 11.5t74 19t53.5 33t18.5 49.5q0 58 -68 58q-59 0 -109.5 -47t-61.5 -124zM237 57q74 0 116 68t42 157q0 77 -31.5 112.5t-80.5 35.5q-74 0 -115.5 -67.5t-41.5 -156.5q0 -77 31.5 -113t79.5 -36zM729 103q31 -9 31 -53q-80 -59 -174 -59q-128 0 -173 87 q-70 -87 -178 -87q-89 0 -142 55.5t-53 157.5q0 73 26.5 138t84 109.5t135.5 44.5q122 0 171 -99q81 99 207 99q69 0 104.5 -31.5t35.5 -80.5q0 -153 -328 -184q0 -3 -0.5 -8.5t-0.5 -6.5q0 -125 124 -125q64 0 130 43z"/>
<glyph glyph-name="Racute" horiz-adv-x="653" unicode="Ŕ" d="M301 777l79 137q14 20 64 20q20 0 34 -5.5t14 -13.5q0 -5 -4 -9l-123 -133q-10 -13 -38 -13t-28 11q0 2 2 6zM218 362h110q24 0 45.5 3.5t46.5 14t43 27.5t30 47t12 70q0 60 -38 83t-89 23h-123zM25 66l62 7l76 554l-69 7q-12 3 -12 27q0 39 19 39h292q206 0 206 -175 q0 -95 -58 -152t-136 -69l96 -230l80 -8q12 -2 12 -28q0 -15 -5 -26.5t-14 -11.5h-143l-120 292h-101l-30 -219l66 -7q13 -3 13 -27q0 -15 -5 -27t-14 -12h-227q-12 0 -12 19q0 15 7 30.5t17 16.5z"/>
<glyph glyph-name="racute" horiz-adv-x="433" unicode="ŕ" d="M234 561l75 124q16 19 63 19q49 0 49 -18q0 -4 -4 -8l-123 -122q-12 -13 -39 -13q-24 0 -24 11q0 2 3 7zM73 7l57 406q-32 5 -71 10q-13 3 -13 26q0 38 17 38h103q50 0 50 -41q0 -19 -9 -55q-27 -107 -30 -127h6q40 123 86.5 177.5t124.5 54.5q21 0 36 -5q10 -3 10 -25 q0 -19 -6 -36t-14 -17h-33q-39 0 -73.5 -27.5t-58.5 -74t-42 -91.5t-30 -97.5t-16 -72.5t-6 -35l-1 -8q-3 -11 -46 -11q-40 0 -41 11z"/>
<glyph glyph-name="Rcommaaccent" horiz-adv-x="653" unicode="Ŗ" d="M255 -242q39 43 51 76q-20 3 -35.5 18t-15.5 44q0 23 17 41t44 18q28 0 45 -17.5t17 -45.5q0 -86 -83 -164q-34 0 -40 30zM218 362h110q24 0 45.5 3.5t46.5 14t43 27.5t30 47t12 70q0 60 -38 83t-89 23h-123zM25 66l62 7l76 554l-69 7q-12 3 -12 27q0 39 19 39h292 q206 0 206 -175q0 -95 -58 -152t-136 -69l96 -230l80 -8q12 -2 12 -28q0 -15 -5 -26.5t-14 -11.5h-143l-120 292h-101l-30 -219l66 -7q13 -3 13 -27q0 -15 -5 -27t-14 -12h-227q-12 0 -12 19q0 15 7 30.5t17 16.5z"/>
<glyph glyph-name="rcommaaccent" horiz-adv-x="433" unicode="ŗ" d="M56 -234q2 2 9.5 10t10 11t8.5 10.5t8.5 12.5t6.5 12.5t6 15.5q-19 2 -34 16.5t-15 42.5q0 22 16.5 40t42.5 18q27 0 44 -17.5t17 -44.5q0 -79 -81 -157q-15 0 -26.5 8.5t-12.5 21.5zM73 7l57 406q-32 5 -71 10q-13 3 -13 26q0 38 17 38h103q50 0 50 -41q0 -19 -9 -55 q-27 -107 -30 -127h6q40 123 86.5 177.5t124.5 54.5q21 0 36 -5q10 -3 10 -25q0 -19 -6 -36t-14 -17h-33q-39 0 -73.5 -27.5t-58.5 -74t-42 -91.5t-30 -97.5t-16 -72.5t-6 -35l-1 -8q-3 -11 -46 -11q-40 0 -41 11z"/>
<glyph glyph-name="Rcaron" horiz-adv-x="653" unicode="Ř" d="M316 769l-92 121q-3 5 -3 9q0 16 30 16q35 0 51 -19l62 -69l92 73q18 15 52 15q35 0 35 -15q0 -4 -4 -9l-131 -122q-9 -9 -49 -9q-37 0 -43 9zM218 362h110q24 0 45.5 3.5t46.5 14t43 27.5t30 47t12 70q0 60 -38 83t-89 23h-123zM25 66l62 7l76 554l-69 7q-12 3 -12 27 q0 39 19 39h292q206 0 206 -175q0 -95 -58 -152t-136 -69l96 -230l80 -8q12 -2 12 -28q0 -15 -5 -26.5t-14 -11.5h-143l-120 292h-101l-30 -219l66 -7q13 -3 13 -27q0 -15 -5 -27t-14 -12h-227q-12 0 -12 19q0 15 7 30.5t17 16.5z"/>
<glyph glyph-name="rcaron" horiz-adv-x="433" unicode="ř" d="M222 552l-78 115q-4 6 -4 10q0 14 28 14q31 0 46 -19l52 -66l80 70q18 15 46 15q31 0 31 -13q0 -5 -4 -9l-114 -117q-7 -9 -43 -9q-31 0 -40 9zM73 7l57 406q-32 5 -71 10q-13 3 -13 26q0 38 17 38h103q50 0 50 -41q0 -19 -9 -55q-27 -107 -30 -127h6q40 123 86.5 177.5 t124.5 54.5q21 0 36 -5q10 -3 10 -25q0 -19 -6 -36t-14 -17h-33q-39 0 -73.5 -27.5t-58.5 -74t-42 -91.5t-30 -97.5t-16 -72.5t-6 -35l-1 -8q-3 -11 -46 -11q-40 0 -41 11z"/>
<glyph glyph-name="Sacute" horiz-adv-x="582" unicode="Ś" d="M306 777l79 137q14 20 64 20q20 0 34 -5.5t14 -13.5q0 -5 -4 -9l-123 -133q-10 -13 -38 -13t-28 11q0 2 2 6zM28 48l21 163q5 12 34 12q36 0 39 -17l-5 -106q53 -36 141 -36q73 0 120 29t47 95q0 43 -26 67t-86 47q-41 16 -55.5 22t-47.5 20.5t-45.5 23.5t-33 25.5 t-28.5 32t-15 37t-7 46.5q0 101 72.5 150.5t181.5 49.5q121 0 208 -48l-22 -163q-6 -13 -33 -13q-16 0 -28 5t-12 13l5 106q-47 27 -121 27t-115.5 -30.5t-41.5 -88.5q0 -36 24.5 -63.5t84.5 -49.5q57 -21 87 -33.5t63.5 -31t49 -36.5t25.5 -44t10 -60q0 -57 -25.5 -99.5 t-66.5 -65t-84 -33t-86 -10.5q-133 0 -229 57z"/>
<glyph glyph-name="sacute" horiz-adv-x="482" unicode="ś" d="M238 561l75 124q16 19 63 19q49 0 49 -18q0 -4 -4 -8l-123 -122q-12 -13 -39 -13q-24 0 -24 11q0 2 3 7zM45 27l15 130q3 13 27 13q37 0 40 -17l-3 -80q43 -16 95 -16q111 0 111 68q0 29 -21 46t-81 42q-84 35 -117.5 66t-33.5 82q0 61 52.5 98t138.5 37q94 0 169 -29 l-15 -131q-1 -13 -30 -13q-34 0 -37 18l2 79q-32 10 -83 10q-47 0 -76 -16t-29 -49q0 -27 22 -43.5t86 -42.5q78 -32 112 -62.5t34 -82.5q0 -70 -57.5 -106.5t-143.5 -36.5q-97 0 -177 36z"/>
<glyph glyph-name="Scircumflex" horiz-adv-x="582" unicode="Ŝ" d="M201 783l130 123q11 9 49 9q36 0 43 -9l92 -121q3 -4 3 -9q0 -16 -30 -16q-36 0 -51 19l-62 68l-92 -72q-16 -15 -52 -15q-35 0 -35 15q0 3 5 8zM28 48l21 163q5 12 34 12q36 0 39 -17l-5 -106q53 -36 141 -36q73 0 120 29t47 95q0 43 -26 67t-86 47q-41 16 -55.5 22 t-47.5 20.5t-45.5 23.5t-33 25.5t-28.5 32t-15 37t-7 46.5q0 101 72.5 150.5t181.5 49.5q121 0 208 -48l-22 -163q-6 -13 -33 -13q-16 0 -28 5t-12 13l5 106q-47 27 -121 27t-115.5 -30.5t-41.5 -88.5q0 -36 24.5 -63.5t84.5 -49.5q57 -21 87 -33.5t63.5 -31t49 -36.5 t25.5 -44t10 -60q0 -57 -25.5 -99.5t-66.5 -65t-84 -33t-86 -10.5q-133 0 -229 57z"/>
<glyph glyph-name="scircumflex" horiz-adv-x="482" unicode="ŝ" d="M153 566l114 116q7 9 44 9q33 0 39 -9l79 -115q3 -5 3 -9q0 -15 -28 -15q-31 0 -45 19l-53 67l-79 -71q-18 -15 -47 -15q-31 0 -31 14q0 5 4 9zM45 27l15 130q3 13 27 13q37 0 40 -17l-3 -80q43 -16 95 -16q111 0 111 68q0 29 -21 46t-81 42q-84 35 -117.5 66t-33.5 82 q0 61 52.5 98t138.5 37q94 0 169 -29l-15 -131q-1 -13 -30 -13q-34 0 -37 18l2 79q-32 10 -83 10q-47 0 -76 -16t-29 -49q0 -27 22 -43.5t86 -42.5q78 -32 112 -62.5t34 -82.5q0 -70 -57.5 -106.5t-143.5 -36.5q-97 0 -177 36z"/>
<glyph glyph-name="Scedilla" horiz-adv-x="582" unicode="Ş" d="M199 -95l24 87q-113 7 -195 56l21 163q5 12 34 12q36 0 39 -17l-5 -106q53 -36 141 -36q73 0 120 29t47 95q0 43 -26 67t-86 47q-41 16 -55.5 22t-47.5 20.5t-45.5 23.5t-33 25.5t-28.5 32t-15 37t-7 46.5q0 101 72.5 150.5t181.5 49.5q121 0 208 -48l-22 -163 q-6 -13 -33 -13q-16 0 -28 5t-12 13l5 106q-47 27 -121 27t-115.5 -30.5t-41.5 -88.5q0 -36 24.5 -63.5t84.5 -49.5q57 -21 87 -33.5t63.5 -31t49 -36.5t25.5 -44t10 -60q0 -52 -21.5 -92.5t-58 -63.5t-75 -35.5t-80.5 -15.5l-13 -43q44 0 66 -18.5t22 -51.5 q0 -46 -35.5 -72.5t-88.5 -26.5q-63 0 -88 23q4 36 31 46q25 -16 60 -16q22 0 35 11.5t13 28.5q0 34 -45 34q-28 0 -42 -2z"/>
<glyph glyph-name="scedilla" horiz-adv-x="482" unicode="ş" d="M166 -90l22 82q-79 5 -143 35l15 130q3 13 27 13q37 0 40 -17l-3 -80q43 -16 95 -16q111 0 111 68q0 29 -21 46t-81 42q-84 35 -117.5 66t-33.5 82q0 61 52.5 98t138.5 37q94 0 169 -29l-15 -131q-1 -13 -30 -13q-34 0 -37 18l2 79q-32 10 -83 10q-47 0 -76 -16t-29 -49 q0 -27 22 -43.5t86 -42.5q78 -32 112 -62.5t34 -82.5q0 -65 -50.5 -101t-128.5 -41l-11 -39q41 0 61.5 -17t20.5 -47q0 -44 -33.5 -69t-81.5 -25q-59 0 -83 22q6 34 30 43q25 -16 56 -16q20 0 31 11t11 27q0 31 -42 31q-17 0 -37 -3z"/>
<glyph glyph-name="Scaron" horiz-adv-x="582" unicode="Š" d="M311 769l-92 121q-3 5 -3 9q0 16 30 16q35 0 51 -19l62 -69l92 73q18 15 52 15q35 0 35 -15q0 -4 -4 -9l-131 -122q-9 -9 -49 -9q-37 0 -43 9zM28 48l21 163q5 12 34 12q36 0 39 -17l-5 -106q53 -36 141 -36q73 0 120 29t47 95q0 43 -26 67t-86 47q-41 16 -55.5 22 t-47.5 20.5t-45.5 23.5t-33 25.5t-28.5 32t-15 37t-7 46.5q0 101 72.5 150.5t181.5 49.5q121 0 208 -48l-22 -163q-6 -13 -33 -13q-16 0 -28 5t-12 13l5 106q-47 27 -121 27t-115.5 -30.5t-41.5 -88.5q0 -36 24.5 -63.5t84.5 -49.5q57 -21 87 -33.5t63.5 -31t49 -36.5 t25.5 -44t10 -60q0 -57 -25.5 -99.5t-66.5 -65t-84 -33t-86 -10.5q-133 0 -229 57z"/>
<glyph glyph-name="scaron" horiz-adv-x="482" unicode="š" d="M246 552l-78 115q-4 6 -4 10q0 14 28 14q31 0 46 -19l52 -66l80 70q18 15 46 15q31 0 31 -13q0 -5 -4 -9l-114 -117q-7 -9 -43 -9q-31 0 -40 9zM45 27l15 130q3 13 27 13q37 0 40 -17l-3 -80q43 -16 95 -16q111 0 111 68q0 29 -21 46t-81 42q-84 35 -117.5 66t-33.5 82 q0 61 52.5 98t138.5 37q94 0 169 -29l-15 -131q-1 -13 -30 -13q-34 0 -37 18l2 79q-32 10 -83 10q-47 0 -76 -16t-29 -49q0 -27 22 -43.5t86 -42.5q78 -32 112 -62.5t34 -82.5q0 -70 -57.5 -106.5t-143.5 -36.5q-97 0 -177 36z"/>
<glyph glyph-name="Tcedilla" horiz-adv-x="645" unicode="Ţ" d="M221 -95l27 95h-91q-12 0 -12 19q0 15 7 30.5t17 16.5l69 7l77 556h-161l-29 -137q-2 -7 -16 -12t-29 -5q-25 0 -29 13l30 212h580l-30 -212q-4 -13 -34 -13q-37 0 -37 17l8 137h-160l-78 -556l74 -7q12 -3 12 -27q0 -39 -18 -39h-89l-16 -51q44 0 66 -18.5t22 -51.5 q0 -46 -35.5 -72.5t-88.5 -26.5q-63 0 -88 23q4 36 31 46q25 -16 60 -16q22 0 35 11.5t13 28.5q0 34 -45 34q-28 0 -42 -2z"/>
<glyph glyph-name="tcedilla" horiz-adv-x="380" unicode="ţ" d="M145 -90l24 86q-82 20 -82 119q0 20 3 44l36 262h-75q-12 0 -12 23q0 15 6.5 29t15.5 14h75l28 121q3 12 17.5 19.5t31.5 7.5q21 0 29 -11l-20 -137h119q12 0 12 -22q0 -16 -6 -30t-15 -14h-119l-37 -259q-3 -19 -3 -47q0 -55 63 -55q27 0 82 23q25 -12 25 -55 q-61 -33 -120 -37l-11 -38q41 0 61.5 -17t20.5 -47q0 -44 -33.5 -69t-81.5 -25q-59 0 -83 22q6 34 30 43q25 -16 56 -16q20 0 31 11t11 27q0 31 -42 31q-18 0 -37 -3z"/>
<glyph glyph-name="Tcaron" horiz-adv-x="645" unicode="Ť" d="M342 769l-92 121q-3 5 -3 9q0 16 30 16q35 0 51 -19l62 -69l92 73q18 15 52 15q35 0 35 -15q0 -4 -4 -9l-131 -122q-9 -9 -49 -9q-37 0 -43 9zM169 66l69 7l77 556h-161l-29 -137q-2 -7 -16 -12t-29 -5q-25 0 -29 13l30 212h580l-30 -212q-4 -13 -34 -13q-37 0 -37 17 l8 137h-160l-78 -556l74 -7q12 -3 12 -27q0 -39 -18 -39h-241q-12 0 -12 19q0 15 7 30.5t17 16.5z"/>
<glyph glyph-name="tcaron" horiz-adv-x="410" unicode="ť" d="M330 550q3 3 11.5 12.5t12 13.5t10 12t10 16.5t6.5 17.5q-19 2 -34.5 16.5t-15.5 42.5q0 22 17 40t43 18t43 -17.5t17 -44.5q0 -79 -81 -157q-15 0 -26.5 8.5t-12.5 21.5zM90 159l36 262h-75q-12 0 -12 23q0 15 6.5 29t15.5 14h75l28 121q3 12 17.5 19.5t31.5 7.5 q21 0 29 -11l-20 -137h119q12 0 12 -22q0 -16 -6 -30t-15 -14h-119l-37 -259q-3 -19 -3 -47q0 -55 63 -55q27 0 82 23q25 -12 25 -55q-66 -37 -127 -37q-129 0 -129 124q0 20 3 44z"/>
<glyph glyph-name="Umacron" horiz-adv-x="739" unicode="Ū" d="M286 865h292q11 0 11 -35q0 -33 -11 -33h-292q-10 0 -10 33q0 35 10 35zM101 249l52 378l-69 7q-12 3 -12 27q0 39 19 39h227q12 0 12 -19q0 -16 -7 -30.5t-18 -16.5l-59 -7l-53 -379q-3 -23 -3 -45q0 -67 36.5 -103t108.5 -36q85 0 134 51t60 133l52 379l-66 7 q-13 3 -13 27q0 15 5.5 27t14.5 12h219q11 0 11 -19q0 -16 -7 -30.5t-18 -16.5l-60 -7l-52 -378q-17 -127 -95.5 -192.5t-196.5 -65.5q-108 0 -167 55.5t-59 153.5q0 17 4 49z"/>
<glyph glyph-name="umacron" horiz-adv-x="594" unicode="ū" d="M208 639h251q10 0 10 -32q0 -33 -10 -33h-252q-11 0 -11 32q0 33 12 33zM521 480l-57 -406l71 -10q13 -3 13 -26q0 -38 -17 -38h-103q-50 0 -50 42q0 12 9 54q29 122 30 127h-6q-35 -114 -91 -173t-124 -59q-49 0 -78 29t-29 84q0 38 6 79l32 230l-71 10q-13 1 -13 27 q0 15 5 26t13 11h108q48 0 48 -43q0 -5 -2 -19l-32 -228q-7 -47 -7 -72q0 -26 12.5 -41t34.5 -15q47 0 93 67t75 157t42 179l1 8q3 11 46 11q40 0 41 -11z"/>
<glyph glyph-name="Ubreve" horiz-adv-x="739" unicode="Ŭ" d="M349 898l7 -21q17 -53 78 -53q67 0 95 54l9 19q9 10 32 10q29 0 35 -17q-18 -66 -66.5 -98t-109.5 -32q-55 0 -98 32t-48 101q7 14 35 14q19 0 31 -9zM101 249l52 378l-69 7q-12 3 -12 27q0 39 19 39h227q12 0 12 -19q0 -16 -7 -30.5t-18 -16.5l-59 -7l-53 -379 q-3 -23 -3 -45q0 -67 36.5 -103t108.5 -36q85 0 134 51t60 133l52 379l-66 7q-13 3 -13 27q0 15 5.5 27t14.5 12h219q11 0 11 -19q0 -16 -7 -30.5t-18 -16.5l-60 -7l-52 -378q-17 -127 -95.5 -192.5t-196.5 -65.5q-108 0 -167 55.5t-59 153.5q0 17 4 49z"/>
<glyph glyph-name="ubreve" horiz-adv-x="594" unicode="ŭ" d="M271 665l4 -15q12 -45 63 -45q52 0 77 46l7 13q10 10 32 10q28 0 34 -16q-15 -58 -58.5 -86.5t-95.5 -28.5q-46 0 -85.5 28.5t-43.5 86.5q10 16 36 16q19 0 30 -9zM521 480l-57 -406l71 -10q13 -3 13 -26q0 -38 -17 -38h-103q-50 0 -50 42q0 12 9 54q29 122 30 127h-6 q-35 -114 -91 -173t-124 -59q-49 0 -78 29t-29 84q0 38 6 79l32 230l-71 10q-13 1 -13 27q0 15 5 26t13 11h108q48 0 48 -43q0 -5 -2 -19l-32 -228q-7 -47 -7 -72q0 -26 12.5 -41t34.5 -15q47 0 93 67t75 157t42 179l1 8q3 11 46 11q40 0 41 -11z"/>
<glyph glyph-name="Uring" horiz-adv-x="739" unicode="Ů" d="M422 802q20 0 35 14.5t15 34.5q0 19 -15 33t-35 14q-19 0 -33 -14t-14 -33q0 -20 14 -34.5t33 -14.5zM320 851q0 43 29.5 72.5t72.5 29.5q44 0 73.5 -29.5t29.5 -72.5q0 -44 -29.5 -73.5t-73.5 -29.5q-43 0 -72.5 30t-29.5 73zM101 249l52 378l-69 7q-12 3 -12 27 q0 39 19 39h227q12 0 12 -19q0 -16 -7 -30.5t-18 -16.5l-59 -7l-53 -379q-3 -23 -3 -45q0 -67 36.5 -103t108.5 -36q85 0 134 51t60 133l52 379l-66 7q-13 3 -13 27q0 15 5.5 27t14.5 12h219q11 0 11 -19q0 -16 -7 -30.5t-18 -16.5l-60 -7l-52 -378q-17 -127 -95.5 -192.5 t-196.5 -65.5q-108 0 -167 55.5t-59 153.5q0 17 4 49z"/>
<glyph glyph-name="uring" horiz-adv-x="594" unicode="ů" d="M322 585q19 0 32.5 14t13.5 33q0 18 -13.5 32t-32.5 14q-20 0 -33 -13.5t-13 -32.5t13 -33t33 -14zM322 534q-41 0 -69 28.5t-28 69.5t28 69t69 28t69 -28t28 -69t-28 -69.5t-69 -28.5zM521 480l-57 -406l71 -10q13 -3 13 -26q0 -38 -17 -38h-103q-50 0 -50 42q0 12 9 54 q29 122 30 127h-6q-35 -114 -91 -173t-124 -59q-49 0 -78 29t-29 84q0 38 6 79l32 230l-71 10q-13 1 -13 27q0 15 5 26t13 11h108q48 0 48 -43q0 -5 -2 -19l-32 -228q-7 -47 -7 -72q0 -26 12.5 -41t34.5 -15q47 0 93 67t75 157t42 179l1 8q3 11 46 11q40 0 41 -11z"/>
<glyph glyph-name="Uhungarumlaut" horiz-adv-x="739" unicode="Ű" d="M492 779l76 129q20 20 63 20q21 0 36 -5.5t15 -13.5q0 -3 -6 -8l-125 -127q-11 -14 -36 -14t-25 12q0 3 2 7zM303 779l76 129q20 20 63 20q21 0 35.5 -5.5t14.5 -13.5q0 -4 -5 -8l-125 -127q-11 -14 -36 -14t-25 12q0 3 2 7zM101 249l52 378l-69 7q-12 3 -12 27 q0 39 19 39h227q12 0 12 -19q0 -16 -7 -30.5t-18 -16.5l-59 -7l-53 -379q-3 -23 -3 -45q0 -67 36.5 -103t108.5 -36q85 0 134 51t60 133l52 379l-66 7q-13 3 -13 27q0 15 5.5 27t14.5 12h219q11 0 11 -19q0 -16 -7 -30.5t-18 -16.5l-60 -7l-52 -378q-17 -127 -95.5 -192.5 t-196.5 -65.5q-108 0 -167 55.5t-59 153.5q0 17 4 49z"/>
<glyph glyph-name="uhungarumlaut" horiz-adv-x="594" unicode="ű" d="M368 559l67 112q16 18 55 18q45 0 45 -16q0 -4 -5 -9l-109 -110q-10 -11 -33 -11q-22 0 -22 10q0 3 2 6zM211 559l67 112q16 18 56 18q44 0 44 -16q0 -5 -4 -9l-109 -110q-11 -11 -33 -11q-23 0 -23 10q0 3 2 6zM521 480l-57 -406l71 -10q13 -3 13 -26q0 -38 -17 -38 h-103q-50 0 -50 42q0 12 9 54q29 122 30 127h-6q-35 -114 -91 -173t-124 -59q-49 0 -78 29t-29 84q0 38 6 79l32 230l-71 10q-13 1 -13 27q0 15 5 26t13 11h108q48 0 48 -43q0 -5 -2 -19l-32 -228q-7 -47 -7 -72q0 -26 12.5 -41t34.5 -15q47 0 93 67t75 157t42 179l1 8 q3 11 46 11q40 0 41 -11z"/>
<glyph glyph-name="Uogonek" horiz-adv-x="739" unicode="Ų" d="M471 -176l-11 -5q-37 -21 -80 -21q-48 0 -73 22.5t-25 58.5q0 60 67 113q-8 -1 -26 -1q-108 0 -167 55.5t-59 153.5q0 17 4 49l52 378l-69 7q-12 3 -12 27q0 39 19 39h227q12 0 12 -19q0 -16 -7 -30.5t-18 -16.5l-59 -7l-53 -379q-3 -23 -3 -45q0 -67 36.5 -103 t108.5 -36q85 0 134 51t60 133l52 379l-66 7q-13 3 -13 27q0 15 5.5 27t14.5 12h219q11 0 11 -19q0 -16 -7 -30.5t-18 -16.5l-60 -7l-52 -378q-23 -172 -158 -232q-99 -61 -99 -117q0 -40 44 -40q25 0 52 15q19 -7 19 -37q0 -4 -2 -14z"/>
<glyph glyph-name="uogonek" horiz-adv-x="594" unicode="ų" d="M547 -165l-10 -6q-36 -18 -78 -18t-63.5 20.5t-21.5 53.5q0 63 77 115h-23q-50 0 -50 42q0 12 9 54q29 122 30 127h-6q-35 -114 -91 -173t-124 -59q-49 0 -78 29t-29 84q0 38 6 79l32 230l-71 10q-13 1 -13 27q0 15 5 26t13 11h108q48 0 48 -43q0 -5 -2 -19l-32 -228 q-7 -47 -7 -72q0 -26 12.5 -41t34.5 -15q47 0 93 67t75 157t42 179l1 8q3 11 46 11q40 0 41 -11l-57 -406l71 -10q13 -3 13 -26q0 -38 -17 -38h-15q-72 -50 -72 -96q0 -37 39 -37q21 0 47 14q18 -7 18 -34q0 -9 -1 -12z"/>
<glyph glyph-name="Ydieresis" horiz-adv-x="660" unicode="Ÿ" d="M436 835q0 28 18 46.5t43 18.5q27 0 45 -17.5t18 -47.5q0 -26 -17.5 -42.5t-45.5 -16.5q-26 0 -43.5 17.5t-17.5 41.5zM220 835q0 28 17 46.5t43 18.5q27 0 45.5 -17.5t18.5 -47.5q0 -25 -18.5 -42t-45.5 -17q-26 0 -43 17.5t-17 41.5zM670 634l-59 -7l-250 -363 l-26 -191l74 -7q12 -3 12 -27q0 -39 -18 -39h-242q-12 0 -12 19q0 15 7 30.5t17 16.5l69 7l26 191l-140 363l-69 7q-12 3 -12 27q0 39 19 39h230q11 0 11 -19q0 -16 -7 -30.5t-18 -16.5l-56 -7l74 -206q6 -18 25 -80h2q35 61 47 79l138 207l-64 7q-12 3 -12 27q0 39 19 39 h229q11 0 11 -19q0 -16 -7 -30.5t-18 -16.5z"/>
<glyph glyph-name="Zacute" horiz-adv-x="612" unicode="Ź" d="M307 777l79 137q14 20 64 20q20 0 34 -5.5t14 -13.5q0 -5 -4 -9l-123 -133q-10 -13 -38 -13t-28 11q0 2 2 6zM7 63l395 484q28 33 70 79v2h-288l-28 -128q-5 -17 -45 -17q-25 0 -29 13l29 204h463q17 0 17 -37q0 -19 -6 -25l-397 -487q-14 -18 -39 -45.5t-29 -31.5v-2 h328l26 121q2 7 16 12.5t29 5.5q25 0 29 -13l-28 -198h-502q-8 0 -13 11t-5 25q0 17 7 27z"/>
<glyph glyph-name="zacute" horiz-adv-x="502" unicode="ź" d="M228 561l75 124q16 19 63 19q49 0 49 -18q0 -4 -4 -8l-123 -122q-12 -13 -39 -13q-24 0 -24 11q0 2 3 7zM33 60l270 312q21 24 49 47v2h-192l-20 -82q-5 -20 -40 -20q-24 0 -27 15l21 153h359q11 0 11 -25q0 -20 -5 -30l-281 -320q-14 -16 -42 -44v-2h218l20 82 q2 8 14.5 13.5t25.5 5.5q24 0 27 -14l-21 -153h-381q-12 0 -12 33q0 19 6 27z"/>
<glyph glyph-name="Zdotaccent" horiz-adv-x="612" unicode="Ż" d="M355 768q-26 0 -45.5 19.5t-19.5 46.5q0 26 19.5 45.5t45.5 19.5q27 0 46.5 -19.5t19.5 -45.5q0 -27 -19.5 -46.5t-46.5 -19.5zM7 63l395 484q28 33 70 79v2h-288l-28 -128q-5 -17 -45 -17q-25 0 -29 13l29 204h463q17 0 17 -37q0 -19 -6 -25l-397 -487 q-14 -18 -39 -45.5t-29 -31.5v-2h328l26 121q2 7 16 12.5t29 5.5q25 0 29 -13l-28 -198h-502q-8 0 -13 11t-5 25q0 17 7 27z"/>
<glyph glyph-name="zdotaccent" horiz-adv-x="502" unicode="ż" d="M220 614q0 25 17.5 42.5t41.5 17.5q25 0 42.5 -17.5t17.5 -42.5q0 -24 -17.5 -41.5t-42.5 -17.5q-24 0 -41.5 17.5t-17.5 41.5zM33 60l270 312q21 24 49 47v2h-192l-20 -82q-5 -20 -40 -20q-24 0 -27 15l21 153h359q11 0 11 -25q0 -20 -5 -30l-281 -320q-14 -16 -42 -44 v-2h218l20 82q2 8 14.5 13.5t25.5 5.5q24 0 27 -14l-21 -153h-381q-12 0 -12 33q0 19 6 27z"/>
<glyph glyph-name="Zcaron" horiz-adv-x="612" unicode="Ž" d="M316 769l-92 121q-3 5 -3 9q0 16 30 16q35 0 51 -19l62 -69l92 73q18 15 52 15q35 0 35 -15q0 -4 -4 -9l-131 -122q-9 -9 -49 -9q-37 0 -43 9zM7 63l395 484q28 33 70 79v2h-288l-28 -128q-5 -17 -45 -17q-25 0 -29 13l29 204h463q17 0 17 -37q0 -19 -6 -25l-397 -487 q-14 -18 -39 -45.5t-29 -31.5v-2h328l26 121q2 7 16 12.5t29 5.5q25 0 29 -13l-28 -198h-502q-8 0 -13 11t-5 25q0 17 7 27z"/>
<glyph glyph-name="zcaron" horiz-adv-x="502" unicode="ž" d="M246 552l-78 115q-4 6 -4 10q0 14 28 14q31 0 46 -19l52 -66l80 70q18 15 46 15q31 0 31 -13q0 -5 -4 -9l-114 -117q-7 -9 -43 -9q-31 0 -40 9zM33 60l270 312q21 24 49 47v2h-192l-20 -82q-5 -20 -40 -20q-24 0 -27 15l21 153h359q11 0 11 -25q0 -20 -5 -30l-281 -320 q-14 -16 -42 -44v-2h218l20 82q2 8 14.5 13.5t25.5 5.5q24 0 27 -14l-21 -153h-381q-12 0 -12 33q0 19 6 27z"/>
<glyph glyph-name="uni018F" horiz-adv-x="676" unicode="Ə" d="M529 303h-395q-4 -23 -4 -52q0 -82 42 -134.5t127 -52.5q95 0 153 67.5t77 171.5zM45 324l7 49h487q3 21 3 45q0 99 -49.5 158.5t-136.5 59.5q-107 0 -165 -35l-24 -99q-3 -9 -16.5 -15t-27.5 -6q-29 0 -33 17l21 151q49 29 120 44.5t136 15.5q123 0 195.5 -73t72.5 -214 q0 -197 -97 -314t-240 -117q-124 0 -190.5 76t-66.5 195q0 37 4 62z"/>
<glyph glyph-name="florin" d="M156 -10l61 431h-75q-12 0 -12 21q0 16 6 30.5t15 14.5h75l8 60q12 94 60 143.5t127 49.5q64 0 124 -36q0 -51 -30 -55q-44 22 -95 22q-38 0 -63 -26.5t-36 -98.5l-9 -59h119q12 0 12 -23q0 -16 -6 -29.5t-15 -13.5h-119l-60 -426q-13 -92 -57 -154.5t-136 -89.5 q-21 10 -21 37q0 10 3 19q53 23 83 64.5t41 118.5z" unicode="ƒ"/>
<glyph glyph-name="uni01DD" horiz-adv-x="475" unicode="ǝ" d="M345 228q-54 -5 -93 -11.5t-74 -19t-53.5 -33t-18.5 -49.5q0 -58 68 -58q59 0 109.5 47t61.5 124zM95 384q-31 9 -31 53q80 59 174 59q197 0 197 -200q0 -132 -77 -218.5t-198 -86.5q-69 0 -104.5 31.5t-35.5 80.5q0 153 328 184q0 3 0.5 8.5t0.5 6.5q0 125 -124 125 q-64 0 -130 -43z"/>
<glyph glyph-name="Gcaron" horiz-adv-x="675" unicode="Ǧ" d="M397 769l-92 121q-3 5 -3 9q0 16 30 16q35 0 51 -19l62 -69l92 73q18 15 52 15q35 0 35 -15q0 -4 -4 -9l-131 -122q-9 -9 -49 -9q-37 0 -43 9zM496 111l22 161h-155q-12 0 -12 22q0 17 7 32.5t16 15.5h241l-38 -273q-49 -31 -120 -54.5t-139 -23.5q-55 0 -103 16 t-88 48.5t-63 90t-23 132.5q0 104 32 188t86.5 136t123 79.5t143.5 27.5q132 0 207 -48q-9 -64 -22 -170q-4 -13 -33 -13q-39 0 -39 18l4 113q-42 27 -125 27q-128 0 -205.5 -104t-77.5 -251q0 -96 51.5 -154t145.5 -58q89 0 164 42z"/>
<glyph glyph-name="gcaron" horiz-adv-x="541" unicode="ǧ" d="M296 552l-78 115q-4 6 -4 10q0 14 28 14q31 0 46 -19l52 -66l80 70q18 15 46 15q31 0 31 -13q0 -5 -4 -9l-114 -117q-7 -9 -43 -9q-31 0 -40 9zM400 418q-31 12 -82 12q-86 0 -139 -73.5t-53 -184.5q0 -103 71 -103q119 0 203 349zM340 -9l4 25q6 39 24.5 109t23.5 98h-6 q-71 -232 -213 -232q-65 0 -99 46.5t-34 124.5q0 86 30.5 159.5t99.5 124t165 50.5q60 0 125 -22q17 -6 23.5 -11.5t6.5 -18.5q0 -4 -2 -22l-59 -418q-17 -120 -83.5 -186.5t-171.5 -66.5q-93 0 -165 52q0 46 34 55q74 -38 133 -38q35 0 62.5 12t44.5 29.5t29.5 42.5t18 45 t9.5 42z"/>
<glyph glyph-name="Scommaaccent" horiz-adv-x="582" unicode="Ș" d="M179 -242q39 43 51 76q-20 3 -35.5 18t-15.5 44q0 23 17 41t44 18q28 0 45 -17.5t17 -45.5q0 -86 -83 -164q-34 0 -40 30zM28 48l21 163q5 12 34 12q36 0 39 -17l-5 -106q53 -36 141 -36q73 0 120 29t47 95q0 43 -26 67t-86 47q-41 16 -55.5 22t-47.5 20.5t-45.5 23.5 t-33 25.5t-28.5 32t-15 37t-7 46.5q0 101 72.5 150.5t181.5 49.5q121 0 208 -48l-22 -163q-6 -13 -33 -13q-16 0 -28 5t-12 13l5 106q-47 27 -121 27t-115.5 -30.5t-41.5 -88.5q0 -36 24.5 -63.5t84.5 -49.5q57 -21 87 -33.5t63.5 -31t49 -36.5t25.5 -44t10 -60 q0 -57 -25.5 -99.5t-66.5 -65t-84 -33t-86 -10.5q-133 0 -229 57z"/>
<glyph glyph-name="scommaaccent" horiz-adv-x="482" unicode="ș" d="M141 -234q2 2 9.5 10t10 11t8.5 10.5t8.5 12.5t6.5 12.5t6 15.5q-19 2 -34 16.5t-15 42.5q0 22 16.5 40t42.5 18q27 0 44 -17.5t17 -44.5q0 -79 -81 -157q-15 0 -26.5 8.5t-12.5 21.5zM45 27l15 130q3 13 27 13q37 0 40 -17l-3 -80q43 -16 95 -16q111 0 111 68 q0 29 -21 46t-81 42q-84 35 -117.5 66t-33.5 82q0 61 52.5 98t138.5 37q94 0 169 -29l-15 -131q-1 -13 -30 -13q-34 0 -37 18l2 79q-32 10 -83 10q-47 0 -76 -16t-29 -49q0 -27 22 -43.5t86 -42.5q78 -32 112 -62.5t34 -82.5q0 -70 -57.5 -106.5t-143.5 -36.5q-97 0 -177 36 z"/>
<glyph glyph-name="Tcommaaccent" horiz-adv-x="645" unicode="Ț" d="M202 -242q39 43 51 76q-20 3 -35.5 18t-15.5 44q0 23 17 41t44 18q28 0 45 -17.5t17 -45.5q0 -86 -83 -164q-34 0 -40 30zM169 66l69 7l77 556h-161l-29 -137q-2 -7 -16 -12t-29 -5q-25 0 -29 13l30 212h580l-30 -212q-4 -13 -34 -13q-37 0 -37 17l8 137h-160l-78 -556 l74 -7q12 -3 12 -27q0 -39 -18 -39h-241q-12 0 -12 19q0 15 7 30.5t17 16.5z"/>
<glyph glyph-name="tcommaaccent" horiz-adv-x="380" unicode="ț" d="M130 -234q2 2 9.5 10t10 11t8.5 10.5t8.5 12.5t6.5 12.5t6 15.5q-19 2 -34 16.5t-15 42.5q0 22 16.5 40t42.5 18q27 0 44 -17.5t17 -44.5q0 -79 -81 -157q-15 0 -26.5 8.5t-12.5 21.5zM90 159l36 262h-75q-12 0 -12 23q0 15 6.5 29t15.5 14h75l28 121q3 12 17.5 19.5 t31.5 7.5q21 0 29 -11l-20 -137h119q12 0 12 -22q0 -16 -6 -30t-15 -14h-119l-37 -259q-3 -19 -3 -47q0 -55 63 -55q27 0 82 23q25 -12 25 -55q-66 -37 -127 -37q-129 0 -129 124q0 20 3 44z"/>
<glyph glyph-name="uni0237" horiz-adv-x="279" unicode="ȷ" d="M218 424l-59 -429q-27 -195 -194 -244q-21 10 -21 37q0 10 3 19q53 23 83 64.5t41 118.5l59 423l-71 10q-13 1 -13 26q0 38 17 38h108q49 0 49 -44q0 -5 -2 -19z"/>
<glyph glyph-name="uni0259" horiz-adv-x="475" unicode="ə" d="M345 228q-54 -5 -93 -11.5t-74 -19t-53.5 -33t-18.5 -49.5q0 -58 68 -58q59 0 109.5 47t61.5 124zM95 384q-31 9 -31 53q80 59 174 59q197 0 197 -200q0 -132 -77 -218.5t-198 -86.5q-69 0 -104.5 31.5t-35.5 80.5q0 153 328 184q0 3 0.5 8.5t0.5 6.5q0 125 -124 125 q-64 0 -130 -43z"/>
<glyph glyph-name="afii57929" horiz-adv-x="180" unicode="ʼ" d="M30 520q3 3 11.5 12.5t12 13.5t10 12t10 16.5t6.5 17.5q-19 2 -34.5 16.5t-15.5 42.5q0 22 17 40t43 18t43 -17.5t17 -44.5q0 -79 -81 -157q-15 0 -26.5 8.5t-12.5 21.5z"/>
<glyph glyph-name="circumflex" horiz-adv-x="533" unicode="ˆ" d="M179 566l114 116q7 9 44 9q33 0 39 -9l79 -115q3 -5 3 -9q0 -15 -28 -15q-31 0 -45 19l-53 67l-79 -71q-18 -15 -47 -15q-31 0 -31 14q0 5 4 9z"/>
<glyph glyph-name="caron" horiz-adv-x="533" unicode="ˇ" d="M272 552l-78 115q-4 6 -4 10q0 14 28 14q31 0 46 -19l52 -66l80 70q18 15 46 15q31 0 31 -13q0 -5 -4 -9l-114 -117q-7 -9 -43 -9q-31 0 -40 9z"/>
<glyph glyph-name="breve" horiz-adv-x="533" unicode="˘" d="M241 665l4 -15q12 -45 63 -45q52 0 77 46l7 13q10 10 32 10q28 0 34 -16q-15 -58 -58.5 -86.5t-95.5 -28.5q-46 0 -85.5 28.5t-43.5 86.5q10 16 36 16q19 0 30 -9z"/>
<glyph glyph-name="dotaccent" horiz-adv-x="299" unicode="˙" d="M119 614q0 25 17.5 42.5t41.5 17.5q25 0 42.5 -17.5t17.5 -42.5q0 -24 -17.5 -41.5t-42.5 -17.5q-24 0 -41.5 17.5t-17.5 41.5z"/>
<glyph glyph-name="ring" horiz-adv-x="536" unicode="˚" d="M291 585q19 0 32.5 14t13.5 33q0 18 -13.5 32t-32.5 14q-20 0 -33 -13.5t-13 -32.5t13 -33t33 -14zM291 534q-41 0 -69 28.5t-28 69.5t28 69t69 28t69 -28t28 -69t-28 -69.5t-69 -28.5z"/>
<glyph glyph-name="ogonek" horiz-adv-x="469" unicode="˛" d="M353 -165l-10 -6q-36 -18 -78 -18t-63.5 20.5t-21.5 53.5q0 34 26 68t73 60h64q-93 -57 -93 -109q0 -37 39 -37q21 0 47 14q18 -7 18 -34q0 -9 -1 -12z"/>
<glyph glyph-name="tilde" horiz-adv-x="533" unicode="˜" d="M155 560q0 39 22.5 66.5t60.5 27.5q24 0 72 -19q7 -2 19 -7t20 -7.5t12 -2.5q26 0 31 29q5 9 28 9q22 0 28 -9q0 -44 -24.5 -69t-57.5 -25q-22 0 -70 19q-46 18 -53 18q-25 0 -30 -31q-6 -8 -30 -8q-19 0 -28 9z"/>
<glyph glyph-name="hungarumlaut" horiz-adv-x="556" unicode="˝" d="M339 559l67 112q16 18 55 18q45 0 45 -16q0 -4 -5 -9l-109 -110q-10 -11 -33 -11q-22 0 -22 10q0 3 2 6zM182 559l67 112q16 18 56 18q44 0 44 -16q0 -5 -4 -9l-109 -110q-11 -11 -33 -11q-23 0 -23 10q0 3 2 6z"/>
<glyph glyph-name="acutecomb" horiz-adv-x="0" unicode="́" d="M-252 561l75 124q16 19 63 19q49 0 49 -18q0 -4 -4 -8l-123 -122q-12 -13 -39 -13q-24 0 -24 11q0 2 3 7z"/>
<glyph glyph-name="afii10023" horiz-adv-x="621" unicode="Ё" d="M25 66l62 7l76 554l-69 7q-12 3 -12 27q0 39 19 39h507l-25 -180q-4 -13 -33 -13q-40 0 -40 17l5 104h-259l-31 -230h222q11 0 11 -23q0 -17 -6 -33t-15 -16h-222l-35 -254h277l24 106q2 7 15.5 12.5t28.5 5.5q26 0 30 -13l-26 -183h-516q-12 0 -12 19q0 15 7 30.5 t17 16.5zM416 835q0 28 18 46.5t43 18.5q27 0 45 -17.5t18 -47.5q0 -26 -17.5 -42.5t-45.5 -16.5q-26 0 -43.5 17.5t-17.5 41.5zM200 835q0 28 17 46.5t43 18.5q27 0 45.5 -17.5t18.5 -47.5q0 -25 -18.5 -42t-45.5 -17q-26 0 -43 17.5t-17 41.5z"/>
<glyph glyph-name="afii10051" horiz-adv-x="785" unicode="Ђ" d="M169 66l69 7l77 556h-161l-29 -136q-2 -7 -15.5 -12t-28.5 -5q-26 0 -30 13l30 211h580l-29 -199q-4 -12 -33 -12q-37 0 -38 17l7 123h-160l-34 -239q75 31 167 31q99 0 150 -52t51 -134q0 -86 -60 -159t-156 -85q-10 2 -16.5 14.5t-6.5 27.5q0 17 7 27q58 11 97.5 56.5 t39.5 109.5q0 50 -33 86t-105 36q-82 0 -146 -35l-33 -240l68 -7q12 -3 12 -27q0 -39 -18 -39h-235q-12 0 -12 19q0 15 7 30.5t17 16.5z"/>
<glyph glyph-name="afii10052" horiz-adv-x="584" unicode="Ѓ" d="M317 777l79 137q14 20 64 20q20 0 34 -5.5t14 -13.5q0 -5 -4 -9l-123 -133q-10 -13 -38 -13t-28 11q0 2 2 6zM25 66l62 7l76 554l-69 7q-12 3 -12 27q0 39 19 39h499l-29 -209q-4 -13 -33 -13q-39 0 -39 17l8 133h-251l-76 -555l69 -7q13 -3 13 -27q0 -15 -5 -27t-14 -12 h-230q-12 0 -12 19q0 15 7 30.5t17 16.5z"/>
<glyph glyph-name="afii10053" horiz-adv-x="627" unicode="Є" d="M518 498l5 113q-39 25 -111 25q-103 0 -172 -68t-93 -177h289q12 0 12 -22q0 -17 -6 -33.5t-16 -16.5h-290q-1 -13 -1 -39q0 -96 51.5 -153.5t145.5 -57.5q55 0 101 15.5t104 45.5q31 -20 31 -66q-46 -29 -116.5 -51t-134.5 -22q-56 0 -104 16t-87.5 48.5t-62 89 t-22.5 132.5q0 105 31 188.5t84 136t120.5 80t142.5 27.5q119 0 193 -46l-22 -170q-4 -13 -33 -13q-37 0 -39 18z"/>
<glyph glyph-name="afii10054" horiz-adv-x="582" unicode="Ѕ" d="M28 48l21 163q5 12 34 12q36 0 39 -17l-5 -106q53 -36 141 -36q73 0 120 29t47 95q0 43 -26 67t-86 47q-41 16 -55.5 22t-47.5 20.5t-45.5 23.5t-33 25.5t-28.5 32t-15 37t-7 46.5q0 101 72.5 150.5t181.5 49.5q121 0 208 -48l-22 -163q-6 -13 -33 -13q-16 0 -28 5 t-12 13l5 106q-47 27 -121 27t-115.5 -30.5t-41.5 -88.5q0 -36 24.5 -63.5t84.5 -49.5q57 -21 87 -33.5t63.5 -31t49 -36.5t25.5 -44t10 -60q0 -57 -25.5 -99.5t-66.5 -65t-84 -33t-86 -10.5q-133 0 -229 57z"/>
<glyph glyph-name="afii10055" horiz-adv-x="356" unicode="І" d="M25 66l69 7l76 554l-74 7q-13 1 -13 27q0 15 5 27t14 12h242q11 0 11 -19q0 -16 -6.5 -31t-17.5 -16l-68 -7l-76 -554l74 -7q12 -3 12 -27q0 -39 -18 -39h-242q-12 0 -12 19q0 15 7 30.5t17 16.5z"/>
<glyph glyph-name="afii10056" horiz-adv-x="356" unicode="Ї" d="M284 835q0 28 18 46.5t43 18.5q27 0 45 -17.5t18 -47.5q0 -26 -17.5 -42.5t-45.5 -16.5q-26 0 -43.5 17.5t-17.5 41.5zM68 835q0 28 17 46.5t43 18.5q27 0 45.5 -17.5t18.5 -47.5q0 -25 -18.5 -42t-45.5 -17q-26 0 -43 17.5t-17 41.5zM25 66l69 7l76 554l-74 7 q-13 1 -13 27q0 15 5 27t14 12h242q11 0 11 -19q0 -16 -6.5 -31t-17.5 -16l-68 -7l-76 -554l74 -7q12 -3 12 -27q0 -39 -18 -39h-242q-12 0 -12 19q0 15 7 30.5t17 16.5z"/>
<glyph glyph-name="afii10057" horiz-adv-x="548" unicode="Ј" d="M7 34l21 151q2 14 32 14q38 0 40 -19l-5 -97q27 -19 83 -19q62 0 95.5 38.5t41.5 99.5l60 425l-69 7q-13 1 -13 27q0 39 19 39h229q12 0 12 -19q0 -16 -7 -30.5t-18 -16.5l-61 -7l-60 -426q-14 -101 -81 -155.5t-158 -54.5q-88 0 -161 43z"/>
<glyph glyph-name="afii10058" horiz-adv-x="981" unicode="Љ" d="M558 70h111q29 0 57 7.5t56.5 25t46 54t17.5 86.5q0 62 -38 86.5t-90 24.5h-121zM405 66l62 7l77 555h-200l-14 -84q-15 -89 -27.5 -149t-31 -127t-42 -110t-55.5 -81.5t-75 -59t-98 -26.5q-23 6 -23 39q0 27 16 42q105 10 155 111t94 361l14 83l-68 7q-13 3 -13 27 q0 15 5 27t14 12h516q11 0 11 -19q0 -16 -7 -30.5t-18 -16.5l-60 -7l-29 -202h129q90 0 146.5 -41t56.5 -135q0 -66 -27 -117t-69.5 -78.5t-86.5 -40.5t-86 -13h-278q-12 0 -12 19q0 15 7 30.5t17 16.5z"/>
<glyph glyph-name="afii10059" horiz-adv-x="1025" unicode="Њ" d="M602 70h112q29 0 56.5 7.5t56 25t46 53.5t17.5 86q0 110 -128 110h-121zM25 66l62 7l76 554l-69 7q-12 3 -12 27q0 39 19 39h228q11 0 11 -19q0 -16 -7 -30.5t-18 -16.5l-59 -7l-29 -207h332l28 207l-66 7q-13 3 -13 27q0 15 5 27t14 12h229q11 0 11 -19q0 -16 -7 -30.5 t-18 -16.5l-62 -7l-28 -204h130q90 0 146 -40.5t56 -133.5q0 -68 -27 -119t-69.5 -78t-86 -39.5t-86.5 -12.5h-277q-11 0 -11 19q0 16 6.5 31t17.5 16l60 7l38 275h-331l-38 -275l66 -7q13 -3 13 -27q0 -15 -5 -27t-13 -12h-228q-12 0 -12 19q0 15 7 30.5t17 16.5z"/>
<glyph glyph-name="afii10060" horiz-adv-x="835" unicode="Ћ" d="M169 66l69 7l77 556h-161l-29 -136q-2 -7 -15.5 -12t-28.5 -5q-26 0 -30 13l30 211h580l-29 -199q-4 -12 -33 -12q-37 0 -38 17l7 123h-160l-34 -242q75 34 164 34q85 0 131.5 -43t46.5 -120q0 -15 -4 -47l-19 -138l68 -7q13 -3 13 -27q0 -16 -5.5 -27.5t-14.5 -11.5 h-222q-11 0 -11 19q0 16 7 30.5t18 16.5l55 7l19 135q3 33 3 44q0 96 -120 96q-75 0 -140 -35l-33 -240l68 -7q12 -3 12 -27q0 -39 -18 -39h-235q-12 0 -12 19q0 15 7 30.5t17 16.5z"/>
<glyph glyph-name="afii10061" horiz-adv-x="674" unicode="Ќ" d="M362 777l79 137q14 20 64 20q20 0 34 -5.5t14 -13.5q0 -5 -4 -9l-123 -133q-10 -13 -38 -13t-28 11q0 2 2 6zM25 66l62 7l76 554l-69 7q-12 3 -12 27q0 39 19 39h228q11 0 11 -19q0 -16 -6.5 -30t-16.5 -16l-61 -8l-31 -225h71l219 225l-54 7q-13 3 -13 29q0 14 5 25.5 t14 11.5h226q12 0 12 -20q0 -14 -7.5 -29.5t-16.5 -16.5l-58 -7l-256 -259l168 -294l85 -8q12 -2 12 -28q0 -15 -5 -26.5t-14 -11.5h-144l-183 330h-71l-35 -257l66 -7q13 -3 13 -27q0 -15 -5 -27t-13 -12h-228q-12 0 -12 19q0 15 7 30.5t17 16.5z"/>
<glyph glyph-name="afii10062" horiz-adv-x="646" unicode="Ў" d="M205 897q11 21 49 21q12 0 19 -3q6 -46 34.5 -75t75.5 -29t82 29t53 75q10 3 21 3q37 0 43 -21q-14 -61 -66.5 -107t-137.5 -46q-84 0 -128.5 46t-44.5 107zM260 159l25 44l-157 424l-68 7q-13 3 -13 28q0 38 18 38h230q12 0 12 -20q0 -15 -6.5 -29.5t-16.5 -16.5l-56 -7 l89 -261q8 -21 19 -79h3q17 41 37 79l131 261l-61 7q-12 3 -12 28q0 38 19 38h224q12 0 12 -19q0 -16 -7 -31t-17 -16l-61 -7l-251 -468q-47 -86 -98.5 -127t-120.5 -41q-38 0 -85 19q0 51 29 70q32 -8 63 -8q39 0 66 20.5t53 66.5z"/>
<glyph glyph-name="afii10145" horiz-adv-x="763" unicode="Џ" d="M268 -204l20 204h-275q-12 0 -12 19q0 15 7 30.5t17 16.5l62 7l76 554l-69 7q-12 3 -12 27q0 39 19 39h228q11 0 11 -19q0 -16 -7 -30.5t-18 -16.5l-59 -7l-76 -555h327l77 555l-66 7q-13 3 -13 27q0 15 5 27t14 12h226q12 0 12 -19q0 -16 -7 -30.5t-18 -16.5l-60 -7 l-77 -554l68 -7q13 -3 13 -27q0 -15 -5 -27t-14 -12h-283l-36 -204q-4 -14 -40 -14q-35 0 -35 14z"/>
<glyph glyph-name="afii10017" horiz-adv-x="736" unicode="А" d="M239 268h239l-72 336h-4zM-8 66l62 7l275 552l-69 7q-12 2 -12 28q0 40 19 40h209l139 -627l69 -7q12 -3 12 -27q0 -15 -5 -27t-13 -12h-230q-11 0 -11 18q0 16 6.5 31t17.5 17l59 7l-28 123h-283l-62 -123l66 -7q13 -3 13 -27q0 -15 -5 -27t-13 -12h-228q-12 0 -12 19 q0 15 7 30.5t17 16.5z"/>
<glyph glyph-name="afii10018" horiz-adv-x="624" unicode="Б" d="M177 70h148q25 0 50 7.5t50.5 23.5t41.5 48.5t16 76.5q0 60 -36.5 85t-84.5 25h-148zM25 66l62 7l76 554l-69 7q-12 3 -12 27q0 39 19 39h503l-25 -176q-3 -13 -33 -13q-38 0 -38 18l3 99h-254l-32 -221h152q39 0 72 -8.5t63 -27t47.5 -53.5t17.5 -84q0 -55 -20 -98 t-49 -67.5t-66 -41t-67.5 -22t-56.5 -5.5h-305q-12 0 -12 19q0 15 7 30.5t17 16.5z"/>
<glyph glyph-name="afii10019" horiz-adv-x="633" unicode="В" d="M223 395h128q24 0 46.5 5.5t47.5 19t40 42.5t15 70q0 98 -117 98h-128zM178 70h142q26 0 51.5 6.5t51.5 22t42 47t16 74.5q0 54 -36.5 79.5t-96.5 25.5h-135zM25 66l62 7l76 554l-69 7q-12 3 -12 27q0 39 19 39h303q52 0 92 -12.5t69.5 -49.5t29.5 -96q0 -65 -37.5 -113 t-96.5 -61v-5q115 -27 115 -142q0 -63 -27 -109t-69.5 -69t-82.5 -33t-78 -10h-306q-12 0 -12 19q0 15 7 30.5t17 16.5z"/>
<glyph glyph-name="afii10020" horiz-adv-x="584" unicode="Г" d="M25 66l62 7l76 554l-69 7q-12 3 -12 27q0 39 19 39h499l-29 -209q-4 -13 -33 -13q-39 0 -39 17l8 133h-251l-76 -555l69 -7q13 -3 13 -27q0 -15 -5 -27t-14 -12h-230q-12 0 -12 19q0 15 7 30.5t17 16.5z"/>
<glyph glyph-name="afii10021" horiz-adv-x="716" unicode="Д" d="M154 72h296l77 556h-200l-14 -86q-30 -184 -62.5 -289t-96.5 -181zM620 627l-77 -555h104l-33 -237q-4 -13 -33 -13q-38 0 -40 18l11 160h-493l-35 -160q-2 -7 -15.5 -12.5t-28.5 -5.5q-26 0 -29 14q1 9 14 99t19 137h73q77 84 111.5 186.5t60.5 284.5l12 84l-69 7 q-13 3 -13 27q0 15 5.5 27t14.5 12h515q11 0 11 -19q0 -16 -7 -30.5t-18 -16.5z"/>
<glyph glyph-name="afii10022" horiz-adv-x="621" unicode="Е" d="M25 66l62 7l76 554l-69 7q-12 3 -12 27q0 39 19 39h507l-25 -180q-4 -13 -33 -13q-40 0 -40 17l5 104h-259l-31 -230h222q11 0 11 -23q0 -17 -6 -33t-15 -16h-222l-35 -254h277l24 106q2 7 15.5 12.5t28.5 5.5q26 0 30 -13l-26 -183h-516q-12 0 -12 19q0 15 7 30.5 t17 16.5z"/>
<glyph glyph-name="afii10024" horiz-adv-x="968" unicode="Ж" d="M-8 66l83 8l208 297l-139 256l-60 7q-12 1 -12 28q0 14 5 26t13 12h214q12 0 12 -19q0 -15 -6.5 -29.5t-15.5 -16.5l-52 -7l121 -235h91l32 234l-64 7q-13 3 -13 28q0 15 5 26.5t14 11.5h218q11 0 11 -19q0 -16 -6.5 -30t-16.5 -16l-56 -8l-33 -234h91l175 235l-52 6 q-13 3 -13 28q0 38 20 38h223q11 0 11 -19q0 -15 -7 -30t-18 -17l-58 -7l-210 -267l125 -286l86 -8q12 -2 12 -27q0 -15 -5 -27t-14 -12h-149l-136 321h-91l-34 -248l67 -7q13 -3 13 -27q0 -15 -5 -27t-14 -12h-228q-12 0 -12 19q0 15 7 30t18 17l62 7l34 248h-90l-225 -321 h-149q-11 0 -11 19q0 16 6.5 31t17.5 16z"/>
<glyph glyph-name="afii10025" horiz-adv-x="571" unicode="З" d="M203 394h90q55 0 100.5 33.5t45.5 109.5q0 99 -131 99q-83 0 -136 -27l-24 -110q-2 -9 -15 -15t-28 -6q-27 0 -31 16l23 166q43 24 107 36.5t116 12.5q214 0 214 -167q0 -61 -36 -110t-95 -66v-3q53 -10 81.5 -46.5t28.5 -90.5q0 -110 -83 -172.5t-202 -62.5 q-66 0 -125.5 19.5t-97.5 49.5q0 19 12 38.5t28 24.5q30 -18 50.5 -28t56 -18t78.5 -8q83 0 135.5 40t52.5 115q0 98 -126 98h-99q-11 0 -11 23q0 16 7 32.5t14 16.5z"/>
<glyph glyph-name="afii10026" horiz-adv-x="770" unicode="И" d="M256 627l-49 -346q-7 -56 -28 -141h4q32 49 50 72l382 488h143q11 0 11 -19q0 -16 -7 -30.5t-18 -16.5l-60 -7l-77 -554l69 -7q12 -3 12 -27q0 -15 -5 -27t-13 -12h-228q-11 0 -11 18q0 16 6.5 31t17.5 17l59 7l50 349q13 87 26 138h-3q-21 -36 -46 -68l-385 -492h-143 q-12 0 -12 19q0 15 7 30.5t17 16.5l62 7l76 554l-69 7q-12 3 -12 27q0 39 19 39h228q11 0 11 -19q0 -16 -7 -30.5t-18 -16.5z"/>
<glyph glyph-name="afii10027" horiz-adv-x="770" unicode="Й" d="M256 627l-49 -346q-7 -56 -28 -141h4q32 49 50 72l382 488h143q11 0 11 -19q0 -16 -7 -30.5t-18 -16.5l-60 -7l-77 -554l69 -7q12 -3 12 -27q0 -15 -5 -27t-13 -12h-228q-11 0 -11 18q0 16 6.5 31t17.5 17l59 7l50 349q13 87 26 138h-3q-21 -36 -46 -68l-385 -492h-143 q-12 0 -12 19q0 15 7 30.5t17 16.5l62 7l76 554l-69 7q-12 3 -12 27q0 39 19 39h228q11 0 11 -19q0 -16 -7 -30.5t-18 -16.5zM267 897q11 21 49 21q12 0 19 -3q6 -46 34.5 -75t75.5 -29t82 29t53 75q10 3 21 3q37 0 43 -21q-14 -61 -66.5 -107t-137.5 -46q-84 0 -128.5 46 t-44.5 107z"/>
<glyph glyph-name="afii10028" horiz-adv-x="674" unicode="К" d="M25 66l62 7l76 554l-69 7q-12 3 -12 27q0 39 19 39h228q11 0 11 -19q0 -16 -6.5 -30t-16.5 -16l-61 -8l-31 -225h71l219 225l-54 7q-13 3 -13 29q0 14 5 25.5t14 11.5h226q12 0 12 -20q0 -14 -7.5 -29.5t-16.5 -16.5l-58 -7l-256 -259l168 -294l85 -8q12 -2 12 -28 q0 -15 -5 -26.5t-14 -11.5h-144l-183 330h-71l-35 -257l66 -7q13 -3 13 -27q0 -15 -5 -27t-13 -12h-228q-12 0 -12 19q0 15 7 30.5t17 16.5z"/>
<glyph glyph-name="afii10029" horiz-adv-x="723" unicode="Л" d="M637 627l-77 -554l69 -7q13 -3 13 -27q0 -15 -5 -27t-14 -12h-227q-12 0 -12 18q0 16 7 31t18 17l58 7l77 555h-200l-14 -84q-15 -89 -27.5 -149t-31 -127t-42 -110t-55.5 -81.5t-75 -59t-98 -26.5q-23 6 -23 39q0 27 16 42q105 10 155 111t94 361l14 83l-68 7 q-13 3 -13 27q0 15 5 27t14 12h516q11 0 11 -19q0 -16 -7 -30.5t-18 -16.5z"/>
<glyph glyph-name="afii10030" horiz-adv-x="919" unicode="М" d="M833 627l-77 -554l69 -7q12 -3 12 -27q0 -15 -5 -27t-13 -12h-228q-11 0 -11 18q0 16 6.5 31t17.5 17l59 7l60 414q2 16 9 50t9 48h-6l-285 -579q-16 -6 -36 -6q-24 0 -38 6l-133 579h-6q-2 -13 -5.5 -47t-5.5 -52l-55 -413l63 -7q13 -3 13 -27q0 -15 -5 -27t-13 -12 h-216q-12 0 -12 19q0 15 7 30.5t17 16.5l62 7l76 554l-68 7q-13 1 -13 27q0 39 19 39h206l100 -461q10 -47 19 -124h4q32 80 52 122l225 463h200q11 0 11 -19q0 -16 -7 -30.5t-18 -16.5z"/>
<glyph glyph-name="afii10031" horiz-adv-x="770" unicode="Н" d="M25 66l62 7l76 554l-69 7q-12 3 -12 27q0 39 19 39h228q11 0 11 -19q0 -16 -7 -30.5t-18 -16.5l-59 -7l-31 -223h335l31 223l-66 7q-13 3 -13 27q0 15 5 27t14 12h227q11 0 11 -19q0 -16 -7 -30.5t-18 -16.5l-60 -7l-77 -554l69 -7q12 -3 12 -27q0 -15 -5 -27t-13 -12 h-228q-11 0 -11 18q0 16 6.5 31t17.5 17l59 7l36 259h-334l-36 -259l66 -7q13 -3 13 -27q0 -15 -5 -27t-13 -12h-228q-12 0 -12 19q0 15 7 30.5t17 16.5z"/>
<glyph glyph-name="afii10032" horiz-adv-x="713" unicode="О" d="M321 64q56 0 101.5 24t74 61t47.5 84.5t27 92t8 86.5q0 94 -45.5 159t-141.5 65q-56 0 -101.5 -24t-74 -61t-47.5 -84.5t-27 -92t-8 -86.5q0 -94 45.5 -159t141.5 -65zM320 -9q-130 0 -204.5 76t-74.5 210q0 196 98 314t255 118q129 0 203.5 -76t74.5 -209 q0 -197 -97.5 -315t-254.5 -118z"/>
<glyph glyph-name="afii10033" horiz-adv-x="763" unicode="П" d="M25 66l62 7l76 554l-69 7q-12 3 -12 27q0 39 19 39h650q11 0 11 -19q0 -16 -7 -30.5t-18 -16.5l-60 -7l-77 -554l69 -7q12 -3 12 -27q0 -15 -5 -27t-13 -12h-228q-11 0 -11 18q0 16 6.5 31t17.5 17l59 7l77 555h-328l-76 -555l66 -7q13 -3 13 -27q0 -15 -5 -27t-13 -12 h-228q-12 0 -12 19q0 15 7 30.5t17 16.5z"/>
<glyph glyph-name="afii10034" horiz-adv-x="600" unicode="Р" d="M216 347h107q182 0 182 172q0 61 -37.5 86t-84.5 25h-128zM25 66l62 7l76 554l-69 7q-12 3 -12 27q0 39 19 39h298q27 0 52 -4t52.5 -16t47.5 -31t33.5 -51.5t13.5 -75.5q0 -120 -80 -183.5t-191 -63.5h-119l-28 -202l69 -7q13 -3 13 -27q0 -15 -5 -27t-14 -12h-230 q-12 0 -12 19q0 15 7 30.5t17 16.5z"/>
<glyph glyph-name="afii10035" horiz-adv-x="622" unicode="С" d="M513 493l5 118q-39 25 -106 25q-86 0 -150.5 -50.5t-95.5 -130t-31 -175.5t51.5 -153.5t145.5 -57.5q38 0 76.5 10t60.5 20t63 31q31 -20 31 -66q-47 -29 -115 -51t-131 -22q-56 0 -104 16t-87.5 48.5t-62 89t-22.5 132.5q0 105 31 188.5t84 136t120.5 80t142.5 27.5 q114 0 188 -46l-22 -175q-4 -13 -33 -13q-38 0 -39 18z"/>
<glyph glyph-name="afii10036" horiz-adv-x="645" unicode="Т" d="M169 66l69 7l77 556h-161l-29 -137q-2 -7 -16 -12t-29 -5q-25 0 -29 13l30 212h580l-30 -212q-4 -13 -34 -13q-37 0 -37 17l8 137h-160l-78 -556l74 -7q12 -3 12 -27q0 -39 -18 -39h-241q-12 0 -12 19q0 15 7 30.5t17 16.5z"/>
<glyph glyph-name="afii10037" horiz-adv-x="646" unicode="У" d="M260 159l25 44l-157 424l-68 7q-13 3 -13 28q0 38 18 38h230q12 0 12 -20q0 -15 -6.5 -29.5t-16.5 -16.5l-56 -7l89 -261q8 -21 19 -79h3q17 41 37 79l131 261l-61 7q-12 3 -12 28q0 38 19 38h224q12 0 12 -19q0 -16 -7 -31t-17 -16l-61 -7l-251 -468q-47 -86 -98.5 -127 t-120.5 -41q-38 0 -85 19q0 51 29 70q32 -8 63 -8q39 0 66 20.5t53 66.5z"/>
<glyph glyph-name="afii10038" horiz-adv-x="751" unicode="Ф" d="M399 205h18q107 0 159 47.5t52 133.5q0 125 -169 125h-16zM292 205h17l43 306h-17q-106 0 -159 -47t-53 -131q0 -128 169 -128zM219 61l70 7l10 70h-13q-113 0 -184.5 49t-71.5 143q0 67 25.5 116t71 77t100.5 41.5t121 13.5h12l9 62l-72 7q-13 1 -13 27q0 36 18 36h241 q12 0 12 -17q0 -16 -6.5 -30.5t-17.5 -15.5l-69 -7l-9 -62h12q114 0 185 -47.5t71 -141.5q0 -54 -17 -97t-46.5 -71.5t-70.5 -47.5t-86.5 -27t-97.5 -8h-12l-9 -70l71 -7q13 -3 13 -27q0 -36 -18 -36h-241q-12 0 -12 17q0 15 7 30t17 16z"/>
<glyph glyph-name="afii10039" horiz-adv-x="697" unicode="Х" d="M5 66l59 7l233 291l-134 263l-69 7q-12 3 -12 27q0 39 19 39h232q11 0 11 -19q0 -16 -7 -30.5t-18 -16.5l-53 -7l67 -141q6 -11 15 -33.5t12 -29.5h2q18 25 46 63l104 141l-67 7q-12 3 -12 27q0 39 19 39h234q11 0 11 -19q0 -16 -7 -30.5t-18 -16.5l-59 -7l-207 -262 l150 -292l69 -7q12 -3 12 -27q0 -39 -19 -39h-234q-11 0 -11 19q0 16 7 30.5t18 16.5l53 7l-74 156q-13 26 -35 74h-3q-45 -62 -54 -74l-120 -156l67 -7q12 -3 12 -27q0 -39 -19 -39h-234q-11 0 -11 19q0 16 7 30.5t18 16.5z"/>
<glyph glyph-name="afii10040" horiz-adv-x="753" unicode="Ц" d="M25 66l62 7l76 554l-69 7q-12 3 -12 27q0 39 19 39h228q11 0 11 -19q0 -16 -7 -30.5t-18 -16.5l-59 -7l-76 -555h307l77 555l-67 7q-12 3 -12 27q0 39 19 39h227q11 0 11 -19q0 -16 -6.5 -30.5t-17.5 -16.5l-61 -7l-77 -555h104l-33 -237q-4 -13 -33 -13q-38 0 -40 18 l11 160h-576q-12 0 -12 19q0 15 7 30.5t17 16.5z"/>
<glyph glyph-name="afii10041" horiz-adv-x="679" unicode="Ч" d="M357 66l66 7l31 227q-73 -34 -163 -34q-86 0 -133 42t-47 122q0 14 4 46l21 151l-68 7q-13 3 -13 27q0 16 5.5 27.5t14.5 11.5h224q11 0 11 -19q0 -16 -6.5 -30.5t-17.5 -16.5l-58 -7l-20 -148q-4 -22 -4 -44q0 -96 120 -96q77 0 141 36l35 252l-66 7q-13 3 -13 27 q0 15 5.5 27t14.5 12h226q11 0 11 -19q0 -16 -6.5 -30.5t-17.5 -16.5l-61 -7l-77 -554l69 -7q13 -3 13 -27q0 -15 -5 -27t-14 -12h-235q-12 0 -12 18q0 16 7 31t18 17z"/>
<glyph glyph-name="afii10042" horiz-adv-x="986" unicode="Ш" d="M900 627l-77 -554l69 -7q12 -3 12 -27q0 -15 -5 -27t-13 -12h-873q-12 0 -12 19q0 15 7 30.5t17 16.5l62 7l76 554l-69 7q-12 3 -12 27q0 39 19 39h223q11 0 11 -19q0 -16 -7 -30.5t-18 -16.5l-54 -7l-77 -555h229l77 555l-61 7q-13 3 -13 27q0 15 5 27t14 12h217 q11 0 11 -19q0 -16 -7 -30.5t-18 -16.5l-55 -7l-78 -555h229l78 555l-61 7q-13 3 -13 27q0 15 5 27t14 12h222q11 0 11 -19q0 -16 -7 -30.5t-18 -16.5z"/>
<glyph glyph-name="afii10043" horiz-adv-x="996" unicode="Щ" d="M900 627l-78 -555h105l-33 -237q-4 -13 -33 -13q-38 0 -40 18l11 160h-819q-12 0 -12 19q0 16 7 31t18 16l61 7l76 554l-69 7q-12 3 -12 27q0 39 19 39h223q11 0 11 -19q0 -16 -7 -30.5t-18 -16.5l-54 -7l-77 -555h229l77 555l-61 7q-13 3 -13 27q0 15 5 27t14 12h217 q11 0 11 -19q0 -16 -7 -30.5t-18 -16.5l-55 -7l-78 -555h230l77 555l-61 7q-13 3 -13 27q0 15 5 27t14 12h222q11 0 11 -19q0 -16 -7 -30.5t-18 -16.5z"/>
<glyph glyph-name="afii10044" horiz-adv-x="732" unicode="Ъ" d="M309 70h112q29 0 57 7.5t56 25t45.5 54t17.5 86.5q0 62 -38 86.5t-90 24.5h-121zM157 66l61 7l76 555h-140l-29 -137q-2 -7 -15.5 -12.5t-28.5 -5.5q-26 0 -30 13l30 214h382q11 0 11 -19q0 -16 -6.5 -30.5t-17.5 -16.5l-62 -7l-29 -202h130q90 0 146 -41t56 -135 q0 -68 -27 -119t-69.5 -78t-86 -39.5t-86.5 -12.5h-278q-11 0 -11 19q0 15 7 30.5t17 16.5z"/>
<glyph glyph-name="afii10045" horiz-adv-x="900" unicode="Ы" d="M584 66l60 7l77 554l-67 7q-13 3 -13 27q0 15 5 27t13 12h228q12 0 12 -19q0 -16 -7 -31t-18 -16l-60 -7l-77 -554l69 -7q12 -3 12 -27q0 -39 -18 -39h-228q-12 0 -12 19q0 15 7 30.5t17 16.5zM178 70h107q29 0 57 7.5t56.5 25t46 54t17.5 86.5q0 62 -38.5 86.5 t-90.5 24.5h-116zM25 66l62 7l76 554l-69 7q-12 3 -12 27q0 39 19 39h231q11 0 11 -19q0 -16 -6.5 -30.5t-17.5 -16.5l-63 -7l-28 -202h124q90 0 146.5 -41t56.5 -134q0 -68 -27 -119t-70 -78t-87 -40t-87 -13h-271q-12 0 -12 19q0 15 7 30.5t17 16.5z"/>
<glyph glyph-name="afii10046" horiz-adv-x="601" unicode="Ь" d="M178 70h111q29 0 57 7.5t56.5 25t46 54t17.5 86.5q0 62 -38 86.5t-90 24.5h-121zM25 66l62 7l76 554l-69 7q-12 3 -12 27q0 39 19 39h231q11 0 11 -19q0 -16 -6.5 -30.5t-17.5 -16.5l-63 -7l-28 -202h129q90 0 146.5 -41t56.5 -135q0 -66 -27 -117t-69.5 -78.5 t-86.5 -40.5t-86 -13h-278q-12 0 -12 19q0 15 7 30.5t17 16.5z"/>
<glyph glyph-name="afii10047" horiz-adv-x="629" unicode="Э" d="M201 394h295q0 111 -46.5 176.5t-146.5 65.5q-79 0 -132 -27l-24 -109q-2 -9 -15.5 -15.5t-27.5 -6.5q-28 0 -31 17l22 165q43 24 106 36.5t115 12.5q125 0 199 -70t74 -216q0 -104 -31 -188.5t-83 -136.5t-117 -79.5t-135 -27.5q-63 0 -122 19.5t-96 49.5q0 19 12 38.5 t28 24.5q45 -28 83 -41t98 -13q106 0 174 71.5t87 181.5h-296q-12 0 -12 22q0 17 7 33.5t15 16.5z"/>
<glyph glyph-name="afii10048" horiz-adv-x="999" unicode="Ю" d="M613 64q69 0 121 35t79 90.5t40 112t13 110.5q0 44 -9.5 82t-29.5 71t-56.5 52t-86.5 19q-69 0 -121 -35t-79 -90.5t-40 -112t-13 -110.5q0 -44 9.5 -82t29.5 -71t56.5 -52t86.5 -19zM612 -9q-128 0 -200.5 78.5t-72.5 207.5q0 19 2 55h-125l-36 -259l66 -7q13 -3 13 -27 q0 -15 -5 -27t-13 -12h-228q-12 0 -12 19q0 15 7 30.5t17 16.5l62 7l76 554l-69 7q-12 3 -12 27q0 39 19 39h228q11 0 11 -19q0 -16 -7 -30.5t-18 -16.5l-59 -7l-31 -223h126q29 142 117.5 223.5t217.5 81.5t201 -75.5t72 -209.5q0 -193 -96 -313t-251 -120z"/>
<glyph glyph-name="afii10049" horiz-adv-x="661" unicode="Я" d="M330 358h116l38 272h-124q-24 0 -47.5 -5.5t-51 -21t-45 -50t-17.5 -83.5q0 -55 39.5 -83.5t91.5 -28.5zM-2 65l82 9l155 225q-63 16 -96.5 61t-33.5 107q0 57 19 101t46.5 68t65 39.5t68 20t61.5 4.5h284q11 0 11 -19q0 -17 -7 -31t-18 -16l-60 -7l-77 -554l68 -7 q13 -3 13 -27q0 -15 -5 -27t-14 -12h-226q-12 0 -12 18q0 16 7 31t17 17l59 7l29 215h-108l-196 -288h-143q-12 0 -12 20q0 15 7 29.5t16 15.5z"/>
<glyph glyph-name="afii10065" horiz-adv-x="569" unicode="а" d="M400 418q-35 12 -82 12q-87 0 -139.5 -74.5t-52.5 -183.5q0 -103 71 -103q35 0 67.5 31.5t58 85.5t44 111t33.5 121zM439 74l71 -10q13 -3 13 -27q0 -14 -5 -25.5t-13 -11.5h-101q-51 0 -51 41q0 15 9 54q30 126 30 128h-6q-70 -232 -213 -232q-65 0 -99 46.5t-34 123.5 q0 63 18 121t52.5 107t93 78t133.5 29q57 0 123 -22q17 -6 23.5 -11.5t6.5 -18.5q0 -6 -2 -22z"/>
<glyph glyph-name="afii10066" horiz-adv-x="528" unicode="б" d="M247 57q53 0 89.5 39t51 88t14.5 99q0 62 -29 97t-75 35q-51 0 -90.5 -39.5t-56.5 -87t-17 -86.5q0 -64 27 -104.5t86 -40.5zM119 334q4 0 6 -1q61 154 199 154q72 0 118 -52t46 -151q0 -116 -67 -204.5t-179 -88.5q-94 0 -144 61.5t-50 164.5q0 109 20.5 190t60 132.5 t87 81.5t110.5 46l61 16q35 10 46 16l25 54q6 15 34 15q25 0 31 -15l-11 -46q-11 -45 -27 -63t-72 -33l-86 -24q-93 -26 -141 -80t-67 -173z"/>
<glyph glyph-name="afii10067" horiz-adv-x="492" unicode="в" d="M134 273l62 3q172 8 172 94q0 23 -18 41.5t-59 18.5q-126 0 -157 -157zM197 219l-68 -4l-3 -32q0 -67 28.5 -96.5t86.5 -29.5q47 0 80.5 23.5t34.5 70.5q0 71 -85 71q-23 0 -74 -3zM345 261v-3q48 -5 72.5 -33t24.5 -74q0 -61 -53.5 -110.5t-154.5 -49.5 q-105 0 -149.5 56t-44.5 142q0 56 12.5 106.5t41 97.5t83.5 75t131 28q67 0 107.5 -30t40.5 -84q0 -41 -28.5 -73.5t-82.5 -47.5z"/>
<glyph glyph-name="afii10068" horiz-adv-x="483" unicode="г" d="M378 106q33 -11 33 -53q-92 -62 -197 -62q-69 0 -117.5 32t-48.5 92q0 59 42.5 95t121.5 66q80 30 108 50.5t28 48.5q0 52 -87 52q-70 0 -139 -42q-33 12 -33 53q90 58 191 58q62 0 108.5 -28.5t46.5 -83.5q0 -60 -41 -94t-139 -70q-40 -15 -62 -26t-40 -30t-18 -44 q0 -60 98 -60q73 0 145 46z"/>
<glyph glyph-name="afii10069" horiz-adv-x="526" unicode="д" d="M237 57q43 0 76 23.5t49.5 59.5t24 69.5t7.5 62.5q0 66 -34.5 106.5t-87.5 40.5q-48 0 -83 -36t-49 -83t-14 -97q0 -61 26 -103.5t85 -42.5zM413 386h6q0 285 -164 285q-43 0 -98 -23q-27 11 -27 59q64 33 139 33q107 0 165.5 -83.5t58.5 -238.5q0 -82 -12.5 -152.5 t-40.5 -135t-82.5 -102t-129.5 -37.5q-35 0 -66.5 11.5t-59.5 35t-45 66t-17 99.5q0 124 64.5 206.5t160.5 82.5q112 0 148 -106z"/>
<glyph glyph-name="afii10070" horiz-adv-x="475" unicode="е" d="M130 259q54 5 93 11.5t74 19t53.5 33t18.5 49.5q0 58 -68 58q-59 0 -109.5 -47t-61.5 -124zM380 103q31 -9 31 -53q-80 -59 -174 -59q-197 0 -197 200q0 132 77 218.5t198 86.5q69 0 104.5 -31.5t35.5 -80.5q0 -153 -328 -184q0 -3 -0.5 -8.5t-0.5 -6.5q0 -125 124 -125 q64 0 130 43z"/>
<glyph glyph-name="afii10072" horiz-adv-x="812" unicode="ж" d="M29 65l72 9l128 182l-88 156l-74 9q-13 3 -13 29q0 37 18 37h81q24 0 35.5 -8.5t23.5 -30.5l95 -167h70l20 133l-59 9q-12 1 -12 26q0 38 17 38h92q50 0 50 -44q0 -5 -2 -19l-21 -143h71l132 135l-54 7q-12 3 -12 25q0 16 5 27.5t13 11.5h166q14 0 14 -22q0 -24 -19 -41 l-177 -173l82 -178l69 -9q13 -1 13 -28q0 -36 -18 -36h-82q-42 0 -59 39l-79 175h-75l-29 -207q-2 -11 -44 -11q-39 0 -40 11l29 207h-74l-122 -175q-15 -22 -29.5 -30.5t-39.5 -8.5h-81q-12 0 -12 22q0 15 5.5 28.5t13.5 14.5z"/>
<glyph glyph-name="afii10073" horiz-adv-x="455" unicode="з" d="M59 339l16 120q80 36 168 36q172 0 172 -118q0 -37 -23.5 -72.5t-75.5 -49.5v-4q42 -8 64 -33t22 -59q0 -83 -62.5 -125.5t-147.5 -42.5q-109 0 -178 56q2 45 33 55q24 -14 37.5 -20.5t42.5 -14t63 -7.5q126 0 126 94q0 63 -87 63h-59q-13 0 -13 21q0 16 6 30t15 14h62 q37 0 62.5 22.5t25.5 57.5q0 68 -92 68q-47 0 -92 -15l-18 -71q-6 -21 -40 -21q-24 0 -27 16z"/>
<glyph glyph-name="afii10074" horiz-adv-x="594" unicode="и" d="M521 480l-57 -406l71 -10q13 -3 13 -26q0 -38 -17 -38h-103q-50 0 -50 42q0 12 9 54q29 122 30 127h-6q-35 -114 -91 -173t-124 -59q-49 0 -78 29t-29 84q0 38 6 79l32 230l-71 10q-13 1 -13 27q0 15 5 26t13 11h108q48 0 48 -43q0 -5 -2 -19l-32 -228q-7 -47 -7 -72 q0 -26 12.5 -41t34.5 -15q47 0 93 67t75 157t42 179l1 8q3 11 46 11q40 0 41 -11z"/>
<glyph glyph-name="afii10075" horiz-adv-x="593" unicode="й" d="M521 480l-57 -406l71 -10q13 -3 13 -26q0 -38 -17 -38h-103q-50 0 -50 42q0 12 9 54q29 122 30 127h-6q-35 -114 -91 -173t-124 -59q-49 0 -78 29t-29 84q0 38 6 79l32 230l-71 10q-13 1 -13 27q0 15 5 26t13 11h108q48 0 48 -43q0 -5 -2 -19l-32 -228q-7 -47 -7 -72 q0 -26 12.5 -41t34.5 -15q47 0 93 67t75 157t42 179l1 8q3 11 46 11q40 0 41 -11zM178 673q11 16 40 16q19 0 28 -4q1 -86 77 -86q68 0 100 86q10 4 21 4q32 0 39 -18q-10 -54 -52.5 -95t-111.5 -41q-72 0 -106.5 39t-34.5 99z"/>
<glyph glyph-name="afii10076" horiz-adv-x="558" unicode="к" d="M218 425l-20 -139h61l152 130l-50 7q-12 3 -12 26q0 38 17 38h164q15 0 15 -21q0 -26 -19 -42l-200 -166l104 -184l72 -10q12 -1 12 -28q0 -36 -17 -36h-85q-24 0 -36 9t-24 30l-100 181h-63l-30 -214q-2 -10 -45 -10q-40 0 -41 10l57 407l-72 10q-12 1 -12 27 q0 37 17 37h108q49 0 49 -43q0 -5 -2 -19z"/>
<glyph glyph-name="afii10077" horiz-adv-x="597" unicode="л" d="M379 62l50 358h-141l-15 -82q-12 -68 -23.5 -113.5t-30.5 -92t-43.5 -74t-62 -46t-86.5 -21.5q-14 10 -14 36q0 23 13 39q75 3 110 66.5t57 206.5l11 74l-58 9q-12 3 -12 28q0 37 17 37h353q8 0 13 -5.5t5 -12.5l-55 -395l72 -10q12 -2 12 -27q0 -37 -17 -37h-108 q-49 0 -49 43q0 5 2 19z"/>
<glyph glyph-name="afii10078" horiz-adv-x="773" unicode="м" d="M326 5l-74 386h-4q-1 -7 -2.5 -37t-3.5 -41l-9 -61q-8 -52 -20 -92t-34 -79t-58 -62.5t-85 -27.5q-15 10 -15 36q0 24 13 39q61 4 88 62t46 200l11 86l-60 7q-12 3 -12 29q0 14 4.5 25.5t12.5 11.5h178q14 0 16 -13l49 -263q7 -38 10 -112h4q39 90 48 106l147 272 q4 10 18 10h87q8 0 13 -5.5t5 -12.5l-56 -395l72 -10q12 -2 12 -27q0 -37 -17 -37h-107q-48 0 -48 43q0 5 2 19l34 243q1 9 7.5 41t8.5 45h-5q-26 -58 -39 -81l-167 -306q-4 -8 -36 -8q-30 0 -34 9z"/>
<glyph glyph-name="afii10079" horiz-adv-x="599" unicode="н" d="M218 425l-20 -138h215l27 194q2 10 45 10q40 0 41 -10l-57 -407l72 -10q12 -2 12 -27q0 -37 -17 -37h-108q-49 0 -49 43q0 5 2 19l23 159h-215l-30 -215q-2 -10 -45 -10q-40 0 -41 10l57 407l-72 10q-12 1 -12 27q0 37 17 37h108q49 0 49 -43q0 -5 -2 -19z"/>
<glyph glyph-name="afii10080" horiz-adv-x="521" unicode="о" d="M237 57q74 0 116 68t42 157q0 77 -31.5 112.5t-80.5 35.5q-74 0 -115.5 -67.5t-41.5 -156.5q0 -77 31.5 -113t79.5 -36zM235 -9q-89 0 -142 55.5t-53 157.5q0 73 26.5 138t84 109.5t135.5 44.5q90 0 142.5 -55t52.5 -157q0 -75 -27 -140.5t-84.5 -109t-134.5 -43.5z"/>
<glyph glyph-name="afii10081" horiz-adv-x="594" unicode="п" d="M73 7l57 406l-71 10q-13 3 -13 26q0 38 17 38h103q50 0 50 -42q0 -12 -9 -54q-29 -122 -30 -127h6q35 114 91 173t124 59q49 0 78 -29t29 -84q0 -39 -6 -79l-32 -230l71 -10q13 -1 13 -27q0 -15 -5 -26t-13 -11h-108q-48 0 -48 43q0 5 2 19l32 228q7 47 7 72 q0 26 -12.5 41t-34.5 15q-47 0 -93 -67t-75 -157t-42 -179l-1 -8q-3 -11 -46 -11q-40 0 -41 11z"/>
<glyph glyph-name="afii10082" horiz-adv-x="570" unicode="р" d="M169 69q35 -12 82 -12q87 0 139.5 74.5t52.5 183.5q0 103 -71 103q-35 0 -68 -33t-58.5 -87t-44 -111t-32.5 -118zM130 413l-71 10q-13 3 -13 27q0 14 5 25.5t13 11.5h101q51 0 51 -41q0 -15 -9 -54q-30 -126 -30 -128h6q70 232 213 232q65 0 99 -46.5t34 -123.5 q0 -63 -18 -121t-53 -106.5t-92.5 -78t-129.5 -29.5q-40 0 -78 12l-23 -171l65 -9q12 -1 12 -25q0 -15 -5 -26.5t-13 -11.5h-208q-12 0 -12 20q0 15 5.5 28.5t14.5 14.5l55 9z"/>
<glyph glyph-name="afii10083" horiz-adv-x="464" unicode="с" d="M359 333l3 87q-26 10 -61 10q-81 0 -128 -69.5t-47 -164.5q0 -63 30 -99.5t92 -36.5q12 0 23 1t22.5 4.5t18.5 5.5t19 7.5t16 7.5l17 8.5l15 7.5q29 -11 29 -54q-28 -22 -79 -39.5t-98 -17.5q-36 0 -68 10t-61 31.5t-45.5 62.5t-16.5 98q0 143 77.5 223t185.5 80 q80 0 139 -31l-17 -137q-2 -12 -30 -12q-13 0 -24 5t-12 12z"/>
<glyph glyph-name="afii10084" horiz-adv-x="842" unicode="т" d="M74 7l57 405l-72 9q-13 3 -13 28q0 15 5 26.5t13 11.5h102q50 0 50 -42q0 -15 -9 -54q-2 -8 -15 -59t-15 -68h6q72 232 201 232q45 0 68 -26t23 -69q0 -20 -4 -42.5t-13 -55.5t-10 -39h6q71 232 200 232q47 0 73 -29.5t26 -83.5q0 -39 -6 -79l-32 -230l72 -10 q12 -2 12 -27q0 -15 -5 -26t-12 -11h-108q-49 0 -49 43q0 5 2 19l32 228q7 49 7 72q0 56 -42 56q-43 0 -84.5 -70t-67.5 -159t-38 -174l-1 -8q-2 -11 -44 -11q-41 0 -42 11l40 276q7 45 7 83q0 52 -43 52q-42 0 -83 -70t-67.5 -159.5t-38.5 -173.5l-1 -8q-2 -11 -45 -11 q-41 0 -42 11z"/>
<glyph glyph-name="afii10085" horiz-adv-x="511" unicode="у" d="M169 -76l40 66l-135 423l-72 10q-12 1 -12 26q0 38 18 38h101q25 0 34 -10.5t18 -41.5l83 -285q9 -31 17 -79h2q39 65 78.5 170t47.5 172l-72 10q-12 1 -12 26q0 38 17 38h110q49 0 49 -41q0 -69 -64 -221.5t-163 -309.5q-58 -92 -109.5 -128t-112.5 -36t-97 20 q0 45 30 64q35 -13 64 -13q39 0 71 20.5t69 81.5z"/>
<glyph glyph-name="afii10086" horiz-adv-x="665" unicode="ф" d="M400 430l-51 -373q48 0 84.5 18.5t55.5 44.5t31 59.5t15 57t3 44.5q0 37 -11 68.5t-43.5 55.5t-83.5 25zM265 57l52 373q-51 0 -89 -20.5t-56.5 -47.5t-29.5 -62t-13.5 -55.5t-2.5 -37.5q0 -62 32.5 -105.5t106.5 -44.5zM437 677l-26 -182q38 -1 73 -12t68 -33.5 t53 -65.5t20 -101q0 -67 -19.5 -120t-49.5 -84t-69 -51.5t-75 -28t-71 -7.5l-22 -160l63 -9q12 -1 12 -25q0 -15 -5 -26.5t-13 -11.5h-213q-12 0 -12 20q0 15 5.5 28.5t14.5 14.5l62 9l22 160q-38 0 -73.5 11t-68.5 34.5t-53 66.5t-20 101q0 68 20 120.5t49.5 83.5 t69.5 51.5t75.5 27.5t70.5 7l24 171l-71 10q-13 1 -13 26q0 38 17 38h108q49 0 49 -44q0 -5 -2 -19z"/>
<glyph glyph-name="afii10087" horiz-adv-x="545" unicode="х" d="M31 64l194 191l-87 158l-72 10q-13 2 -13 27q0 37 18 37h86q25 0 35.5 -6.5t19.5 -23.5l56 -115q13 -24 22 -44h2q17 21 29 34l82 85l-55 6q-12 3 -12 28q0 36 18 36h158q11 0 11 -24q0 -28 -12 -40l-180 -174l99 -175l70 -10q13 -1 13 -27q0 -37 -17 -37h-97 q-16 0 -24.5 7.5t-18.5 26.5l-74 136q-13 22 -17 33h-2q-14 -18 -41 -45l-91 -88l60 -6q12 -3 12 -29q0 -35 -16 -35h-158q-13 0 -13 24q0 28 15 40z"/>
<glyph glyph-name="afii10088" horiz-adv-x="605" unicode="ц" d="M521 480l-41 -287q-7 -56 -7 -70q0 -64 55 -64h31q14 0 14 -12l-25 -168q-4 -16 -37 -16q-31 0 -31 16l9 121h-10q-84 0 -84 92q0 34 21 131h-5q-35 -114 -91 -173t-124 -59q-49 0 -78 29t-29 84q0 38 6 79l32 230l-71 10q-13 1 -13 27q0 15 5 26t13 11h108q48 0 48 -43 q0 -5 -2 -19l-32 -228q-7 -47 -7 -72q0 -26 12.5 -41t34.5 -15q47 0 93 67t75 157t42 179l1 8q3 11 46 11q40 0 41 -11z"/>
<glyph glyph-name="afii10089" horiz-adv-x="535" unicode="ч" d="M317 62l18 126q5 32 14 69h-5q-19 -40 -61 -66t-90 -26q-52 0 -81.5 26t-29.5 76q0 25 2 37l16 109l-72 10q-12 2 -12 26q0 38 18 38h104q50 0 50 -44q0 -5 -2 -19l-14 -98q-3 -36 -3 -37q0 -54 57 -54q60 0 97 65t50 167l2 13q2 11 46 11q40 0 41 -11l-57 -406l72 -10 q12 -2 12 -27q0 -37 -17 -37h-108q-49 0 -49 43q0 5 2 19z"/>
<glyph glyph-name="afii10090" horiz-adv-x="842" unicode="ш" d="M768 480l-57 -405l72 -9q13 -3 13 -28q0 -15 -5 -26.5t-13 -11.5h-102q-50 0 -50 42q0 15 9 54q2 8 15 59t15 68h-6q-72 -232 -201 -232q-45 0 -68 26t-23 69q0 20 4 42.5t13 55.5t10 39h-6q-71 -232 -200 -232q-47 0 -73 29.5t-26 83.5q0 38 6 79l32 230l-72 10 q-12 1 -12 27q0 15 5 26t12 11h108q49 0 49 -43q0 -5 -2 -19l-32 -228q-7 -49 -7 -72q0 -56 42 -56q43 0 84.5 70t67.5 159t38 174l1 8q2 11 44 11q41 0 42 -11l-40 -276q-7 -45 -7 -83q0 -52 43 -52q42 0 83 70t67.5 159.5t38.5 173.5l1 8q2 11 45 11q41 0 42 -11z"/>
<glyph glyph-name="afii10091" horiz-adv-x="853" unicode="щ" d="M643 92q0 34 21 131h-5q-72 -232 -201 -232q-45 0 -68 26t-23 69q0 20 4 42.5t13 55.5t10 39h-6q-71 -232 -200 -232q-47 0 -73 29.5t-26 83.5q0 38 6 79l32 230l-72 10q-12 1 -12 27q0 15 5 26t12 11h108q49 0 49 -43q0 -5 -2 -19l-32 -228q-7 -49 -7 -72q0 -56 42 -56 q43 0 84.5 70t67.5 159t38 174l1 8q2 11 44 11q41 0 42 -11l-40 -276q-7 -45 -7 -83q0 -52 43 -52q42 0 83 70t67.5 159.5t38.5 173.5l1 8q2 11 45 11q41 0 42 -11l-40 -287q-7 -56 -7 -70q0 -64 55 -64h31q14 0 14 -12l-25 -168q-4 -16 -37 -16q-31 0 -31 16l9 121h-10 q-84 0 -84 92z"/>
<glyph glyph-name="afii10092" horiz-adv-x="526" unicode="ъ" d="M215 226l-25 -152q26 -17 82 -17q66 0 98.5 29t32.5 75q0 37 -25.5 58t-74.5 21q-50 0 -88 -14zM109 72l54 347l-129 -9q-16 6 -16 38q0 15 4.5 27t10.5 12h200q26 0 26 -25q0 -8 -6 -40l-24 -129q49 13 92 13q168 0 168 -142q0 -72 -58.5 -122.5t-162.5 -50.5 q-70 0 -130 23q-17 7 -24 14t-7 22q0 4 2 22z"/>
<glyph glyph-name="afii10093" horiz-adv-x="729" unicode="ы" d="M511 62l59 419q2 10 45 10q40 0 41 -10l-57 -407l72 -10q12 -2 12 -27q0 -37 -17 -37h-108q-49 0 -49 43q0 5 2 19zM185 226l-23 -152q26 -17 77 -17q66 0 97 29t31 75q0 37 -24.5 58t-72.5 21q-47 0 -85 -14zM81 72l47 341l-72 10q-12 1 -12 27q0 37 18 37h107 q26 0 37.5 -10t11.5 -33q0 -5 -2 -19l-19 -132q49 13 91 13q78 0 121 -36.5t43 -105.5q0 -73 -56.5 -123t-160.5 -50q-65 0 -125 23q-17 7 -24 14t-7 22q0 4 2 22z"/>
<glyph glyph-name="afii10094" horiz-adv-x="498" unicode="ь" d="M185 226l-23 -152q26 -17 82 -17q66 0 98.5 29t32.5 75q0 37 -25.5 58t-74.5 21q-52 0 -90 -14zM81 72l47 341l-72 10q-12 1 -12 27q0 37 18 37h107q26 0 37.5 -10t11.5 -33q0 -5 -2 -19l-19 -132q49 13 96 13q168 0 168 -142q0 -72 -58.5 -122.5t-162.5 -50.5 q-70 0 -130 23q-17 7 -24 14t-7 22q0 4 2 22z"/>
<glyph glyph-name="afii10095" horiz-adv-x="476" unicode="э" d="M58 338l16 122q94 36 163 36q94 0 145 -51.5t51 -156.5q0 -128 -69 -212.5t-179 -84.5q-97 0 -171 55q2 46 33 56q62 -42 138 -42q65 0 107 46t48 109h-171q-13 0 -13 22q0 16 6 30t14 14h171q-2 149 -121 149q-48 0 -84 -15l-17 -72q-5 -20 -40 -20q-24 0 -27 15z"/>
<glyph glyph-name="afii10096" horiz-adv-x="747" unicode="ю" d="M468 57q74 0 113.5 67.5t39.5 157.5q0 77 -29.5 112.5t-77.5 35.5q-74 0 -113.5 -67t-39.5 -157q0 -77 30 -113t77 -36zM466 -9q-89 0 -140 55.5t-51 157.5v17h-86l-30 -215q-2 -10 -45 -10q-40 0 -41 10l57 407l-72 10q-12 1 -12 27q0 37 17 37h108q49 0 49 -43 q0 -5 -2 -19l-20 -138h86q20 90 80 149.5t153 59.5q89 0 139.5 -54.5t50.5 -157.5q0 -119 -63.5 -206t-177.5 -87z"/>
<glyph glyph-name="afii10097" horiz-adv-x="560" unicode="я" d="M280 249h90l23 167q-28 14 -80 14q-64 0 -94 -28.5t-30 -70.5q0 -82 91 -82zM35 65l73 9l87 123q-92 32 -92 133q0 68 54 117t160 49q75 0 138 -21q26 -8 26 -34q0 -7 -4 -34l-47 -333l72 -10q12 -2 12 -27q0 -37 -17 -37h-108q-49 0 -49 43q0 5 2 19l18 124h-79 l-108 -150q-14 -21 -26.5 -28.5t-35.5 -7.5h-89q-10 0 -10 22q0 16 7 28.5t16 14.5z"/>
<glyph glyph-name="afii10071" horiz-adv-x="475" unicode="ё" d="M330 611q0 24 16.5 41t40.5 17q23 0 40 -17t17 -41q0 -22 -17.5 -39t-39.5 -17q-24 0 -40.5 17t-16.5 39zM150 611q0 24 16.5 41t39.5 17t40.5 -17t17.5 -41q0 -22 -17.5 -39t-40.5 -17q-22 0 -39 17t-17 39zM130 259q54 5 93 11.5t74 19t53.5 33t18.5 49.5q0 58 -68 58 q-59 0 -109.5 -47t-61.5 -124zM380 103q31 -9 31 -53q-80 -59 -174 -59q-197 0 -197 200q0 132 77 218.5t198 86.5q69 0 104.5 -31.5t35.5 -80.5q0 -153 -328 -184q0 -3 -0.5 -8.5t-0.5 -6.5q0 -125 124 -125q64 0 130 43z"/>
<glyph glyph-name="afii10099" horiz-adv-x="572" unicode="ђ" d="M239 -193q53 23 83 64.5t41 118.5l41 291q7 47 7 72q0 26 -13 41t-35 15q-48 0 -94 -68.5t-74.5 -156.5t-38.5 -169l-1 -8q-3 -11 -46 -11q-40 0 -41 11l75 533h-95q-8 0 -8 15q0 13 5 27.5t11 14.5h95l10 69l-71 10q-13 1 -13 26q0 38 17 38h108q49 0 49 -44 q0 -5 -2 -19l-11 -80h177q7 0 7 -16q0 -14 -4.5 -27.5t-10.5 -13.5h-177l-9 -63q-5 -35 -25.5 -113.5t-23.5 -99.5h6q68 223 212 223q49 0 78.5 -29t29.5 -84q0 -38 -6 -79l-41 -300q-27 -195 -194 -244q-21 10 -21 37q0 10 3 19z"/>
<glyph glyph-name="afii10100" horiz-adv-x="483" unicode="ѓ" d="M249 561l75 124q16 19 63 19q49 0 49 -18q0 -4 -4 -8l-123 -122q-12 -13 -39 -13q-24 0 -24 11q0 2 3 7zM378 106q33 -11 33 -53q-92 -62 -197 -62q-69 0 -117.5 32t-48.5 92q0 59 42.5 95t121.5 66q80 30 108 50.5t28 48.5q0 52 -87 52q-70 0 -139 -42q-33 12 -33 53 q90 58 191 58q62 0 108.5 -28.5t46.5 -83.5q0 -60 -41 -94t-139 -70q-40 -15 -62 -26t-40 -30t-18 -44q0 -60 98 -60q73 0 145 46z"/>
<glyph glyph-name="afii10101" horiz-adv-x="474" unicode="є" d="M369 338l3 82q-26 10 -67 10q-66 0 -110.5 -45.5t-60.5 -116.5h188q13 0 13 -22q0 -14 -6.5 -28.5t-15.5 -14.5h-187v-7q0 -61 34.5 -98.5t97.5 -37.5q12 0 23 1t22.5 4.5t18.5 5.5t19 7.5t16 7.5l17 8.5l15 7.5q29 -11 29 -54q-28 -22 -79 -39.5t-98 -17.5q-37 0 -70 10 t-63.5 31.5t-49 63t-18.5 97.5q0 143 78 223t189 80q86 0 145 -31l-17 -132q-2 -12 -30 -12q-13 0 -24 5t-12 12z"/>
<glyph glyph-name="afii10102" horiz-adv-x="482" unicode="ѕ" d="M45 27l15 130q3 13 27 13q37 0 40 -17l-3 -80q43 -16 95 -16q111 0 111 68q0 29 -21 46t-81 42q-84 35 -117.5 66t-33.5 82q0 61 52.5 98t138.5 37q94 0 169 -29l-15 -131q-1 -13 -30 -13q-34 0 -37 18l2 79q-32 10 -83 10q-47 0 -76 -16t-29 -49q0 -27 22 -43.5 t86 -42.5q78 -32 112 -62.5t34 -82.5q0 -70 -57.5 -106.5t-143.5 -36.5q-97 0 -177 36z"/>
<glyph glyph-name="afii10103" horiz-adv-x="299" unicode="і" d="M119 614q0 25 17.5 42.5t41.5 17.5q25 0 42.5 -17.5t17.5 -42.5q0 -24 -17.5 -41.5t-42.5 -17.5q-24 0 -41.5 17.5t-17.5 41.5zM81 62l49 351l-71 10q-13 1 -13 26q0 38 17 38h108q49 0 49 -44q0 -5 -2 -19l-49 -350l72 -10q12 -2 12 -27q0 -37 -17 -37h-108 q-49 0 -49 43q0 5 2 19z"/>
<glyph glyph-name="afii10104" horiz-adv-x="299" unicode="ї" d="M180 611q0 24 16.5 41t40.5 17q23 0 40 -17t17 -41q0 -22 -17.5 -39t-39.5 -17q-24 0 -40.5 17t-16.5 39zM3 611q0 24 16.5 41t39.5 17t40.5 -17t17.5 -41q0 -22 -17.5 -39t-40.5 -17q-22 0 -39 17t-17 39zM81 62l49 351l-71 10q-13 1 -13 26q0 38 17 38h108q49 0 49 -44 q0 -5 -2 -19l-49 -350l72 -10q12 -2 12 -27q0 -37 -17 -37h-108q-49 0 -49 43q0 5 2 19z"/>
<glyph glyph-name="afii10105" horiz-adv-x="279" unicode="ј" d="M119 614q0 25 17.5 42.5t41.5 17.5q25 0 42.5 -17.5t17.5 -42.5q0 -24 -17.5 -41.5t-42.5 -17.5q-24 0 -41.5 17.5t-17.5 41.5zM218 424l-59 -429q-27 -195 -194 -244q-21 10 -21 37q0 10 3 19q53 23 83 64.5t41 118.5l59 423l-71 10q-13 1 -13 26q0 38 17 38h108 q49 0 49 -44q0 -5 -2 -19z"/>
<glyph glyph-name="afii10106" horiz-adv-x="798" unicode="љ" d="M485 226l-23 -152q26 -17 82 -17q66 0 98.5 29t32.5 75q0 37 -25.5 58t-74.5 21q-52 0 -90 -14zM381 72l48 348h-141l-15 -82q-12 -68 -23.5 -113.5t-30.5 -92t-43.5 -74t-62 -46t-86.5 -21.5q-14 10 -14 36q0 23 13 39q75 3 110 66.5t57 206.5l11 74l-58 9q-12 3 -12 28 q0 37 17 37h353q8 0 13 -5.5t5 -12.5l-25 -176q49 13 96 13q168 0 168 -142q0 -72 -58.5 -122.5t-162.5 -50.5q-70 0 -130 23q-17 7 -24 14t-7 22q0 4 2 22z"/>
<glyph glyph-name="afii10107" horiz-adv-x="798" unicode="њ" d="M485 226l-23 -152q26 -17 82 -17q66 0 98.5 29t32.5 75q0 37 -25.5 58t-74.5 21q-52 0 -90 -14zM523 481l-26 -188q49 13 96 13q168 0 168 -142q0 -72 -58.5 -122.5t-162.5 -50.5q-70 0 -130 23q-17 7 -24 14t-7 22q0 4 2 22l20 149h-212l-30 -215q-2 -10 -45 -10 q-40 0 -41 10l57 407l-72 10q-12 1 -12 27q0 37 17 37h108q49 0 49 -43q0 -5 -2 -19l-20 -138h212l27 194q2 10 45 10q40 0 41 -10z"/>
<glyph glyph-name="afii10108" horiz-adv-x="589" unicode="ћ" d="M249 677l-11 -80h177q7 0 7 -16q0 -14 -4.5 -27.5t-10.5 -13.5h-177l-9 -63q-5 -35 -25.5 -113.5t-23.5 -99.5h6q68 223 212 223q49 0 78.5 -29t29.5 -84q0 -38 -6 -79l-30 -221l71 -10q13 -1 13 -27q0 -15 -5 -26t-13 -11h-108q-48 0 -48 43q0 5 2 19l30 219q7 47 7 72 q0 26 -13 41t-35 15q-48 0 -94 -68.5t-74.5 -156.5t-38.5 -169l-1 -8q-3 -11 -46 -11q-40 0 -41 11l75 533h-95q-8 0 -8 15q0 13 5 27.5t11 14.5h95l10 69l-71 10q-13 1 -13 26q0 38 17 38h108q49 0 49 -44q0 -5 -2 -19z"/>
<glyph glyph-name="afii10109" horiz-adv-x="558" unicode="ќ" d="M257 561l75 124q16 19 63 19q49 0 49 -18q0 -4 -4 -8l-123 -122q-12 -13 -39 -13q-24 0 -24 11q0 2 3 7zM218 425l-20 -139h61l152 130l-50 7q-12 3 -12 26q0 38 17 38h164q15 0 15 -21q0 -26 -19 -42l-200 -166l104 -184l72 -10q12 -1 12 -28q0 -36 -17 -36h-85 q-24 0 -36 9t-24 30l-100 181h-63l-30 -214q-2 -10 -45 -10q-40 0 -41 10l57 407l-72 10q-12 1 -12 27q0 37 17 37h108q49 0 49 -43q0 -5 -2 -19z"/>
<glyph glyph-name="afii10110" horiz-adv-x="511" unicode="ў" d="M118 673q11 16 40 16q19 0 28 -4q1 -86 77 -86q68 0 100 86q10 4 21 4q32 0 39 -18q-10 -54 -52.5 -95t-111.5 -41q-72 0 -106.5 39t-34.5 99zM169 -76l40 66l-135 423l-72 10q-12 1 -12 26q0 38 18 38h101q25 0 34 -10.5t18 -41.5l83 -285q9 -31 17 -79h2 q39 65 78.5 170t47.5 172l-72 10q-12 1 -12 26q0 38 17 38h110q49 0 49 -41q0 -69 -64 -221.5t-163 -309.5q-58 -92 -109.5 -128t-112.5 -36t-97 20q0 45 30 64q35 -13 64 -13q39 0 71 20.5t69 81.5z"/>
<glyph glyph-name="afii10193" horiz-adv-x="593" unicode="џ" d="M520 480l-57 -406l71 -10q13 -3 13 -27q0 -15 -5 -26t-13 -11h-101q-50 0 -50 42q0 12 9 54q29 122 30 127h-6q-35 -114 -91 -173t-124 -59q-49 0 -78 29t-29 84q0 38 6 79l32 230l-71 10q-13 1 -13 27q0 15 5 26t13 11h108q48 0 48 -43q0 -5 -2 -19l-32 -228 q-7 -47 -7 -72q0 -26 12.5 -41t34.5 -15q47 0 93 67t74.5 156.5t41.5 179.5l1 8q3 11 46 11q40 0 41 -11zM235 -215l47 188q0 8 32 8q23 0 30 -7l-21 -189q-2 -12 -47 -12q-36 0 -41 12z"/>
<glyph glyph-name="afii10146" horiz-adv-x="687" unicode="Ѣ" d="M266 70h109q26 0 45.5 1.5t46 9t43.5 20.5t29.5 39.5t12.5 62.5q0 87 -137 87h-119zM113 66l62 7l59 425h-127l-25 -111q-5 -17 -43 -17q-26 0 -29 13l25 178h207l11 75l-69 7q-12 3 -12 27q0 39 19 39h231q11 0 11 -19q0 -16 -6.5 -30.5t-17.5 -16.5l-63 -7l-11 -75h255 l-21 -148q-5 -12 -33 -12q-38 0 -39 17l3 80h-174l-19 -137h127q212 0 212 -152q0 -61 -26.5 -104.5t-70 -65t-86 -30.5t-86.5 -9h-276q-12 0 -12 19q0 15 7 30.5t17 16.5z"/>
<glyph glyph-name="afii10194" horiz-adv-x="798" unicode="ѣ" d="M485 226l-23 -152q26 -17 82 -17q66 0 98.5 29t32.5 75q0 37 -25.5 58t-74.5 21q-52 0 -90 -14zM381 72l30 218q7 47 7 72q0 26 -12.5 41t-34.5 15q-47 0 -93 -67t-75 -157t-42 -179l-1 -8q-3 -11 -46 -11q-40 0 -41 11l57 406l-71 10q-13 3 -13 26q0 38 17 38h103 q50 0 50 -42q0 -12 -9 -54q-29 -122 -30 -127h6q35 114 91 173t124 59q49 0 78 -29t29 -84q0 -39 -8 -90q49 13 96 13q168 0 168 -142q0 -72 -58.5 -122.5t-162.5 -50.5q-70 0 -130 23q-17 7 -24 14t-7 22q0 4 2 22z"/>
<glyph glyph-name="afii10147" horiz-adv-x="713" unicode="Ѳ" d="M392 636q-54 0 -98.5 -21.5t-73.5 -59t-47.5 -79t-28.5 -89.5h434q1 8 1 25q0 94 -45.5 159t-141.5 65zM321 64q55 0 99 22t73.5 59.5t47.5 80t28 91.5h-434q-1 -10 -1 -29q0 -94 45.5 -159t141.5 -65zM320 -9q-130 0 -204.5 76t-74.5 210q0 196 98 314t255 118 q129 0 203.5 -76t74.5 -209q0 -197 -97.5 -315t-254.5 -118z"/>
<glyph glyph-name="afii10195" horiz-adv-x="521" unicode="ѳ" d="M283 430q-59 0 -97.5 -43.5t-52.5 -110.5h262v6q0 77 -31.5 112.5t-80.5 35.5zM237 57q58 0 96.5 43.5t53.5 111.5h-261v-6q0 -77 31.5 -113t79.5 -36zM235 -9q-89 0 -142 55.5t-53 157.5q0 73 26.5 138t84 109.5t135.5 44.5q90 0 142.5 -55t52.5 -157q0 -75 -27 -140.5 t-84.5 -109t-134.5 -43.5z"/>
<glyph glyph-name="afii10148" horiz-adv-x="730" unicode="Ѵ" d="M745 634l-59 -7q-107 -209 -319 -625q-22 -11 -49 -11t-46 11l-146 625l-69 7q-12 3 -12 27q0 39 19 39h233q11 0 11 -19q0 -16 -7 -30.5t-18 -16.5l-59 -7l88 -427q12 -56 17 -104h5q14 37 44 99l210 432l-69 7q-12 3 -12 27q0 39 19 39h233q11 0 11 -19q0 -16 -7 -30.5 t-18 -16.5z"/>
<glyph glyph-name="afii10196" horiz-adv-x="554" unicode="ѵ" d="M104 259l16 154l-72 10q-12 1 -12 26q0 38 16 38h109q49 0 49 -38q0 -9 -3 -39l-17 -151q-7 -72 -7 -109q0 -87 63 -87q47 0 84 52t57.5 127t31.5 171l-70 10q-13 1 -13 26q0 38 17 38h104q51 0 51 -44q0 -14 -1 -24q-14 -104 -37.5 -182.5t-50 -124t-60 -74t-62 -38 t-60.5 -9.5q-71 0 -105.5 44.5t-34.5 115.5q0 47 7 108z"/>
<glyph glyph-name="afii10050" horiz-adv-x="555" unicode="Ґ" d="M25 66l62 7l76 554l-69 7q-12 3 -12 27q0 39 19 39h391l28 136q5 20 44 20q27 0 30 -15l-30 -213h-308l-76 -555l69 -7q13 -3 13 -27q0 -15 -5 -27t-14 -12h-230q-12 0 -12 19q0 15 7 30.5t17 16.5z"/>
<glyph glyph-name="afii10098" horiz-adv-x="459" unicode="ґ" d="M74 7q38 270 57 406l-72 9q-13 1 -13 27q0 15 5 26t13 11h291q4 17 11.5 51.5t11.5 51.5q3 20 41 20q27 0 28 -15q-14 -104 -22 -156q-3 -18 -19 -18h-187q-2 -12 -2 -13q-9 -61 -27.5 -195t-28.5 -205q-3 -11 -46 -11q-40 0 -41 11z"/>
<glyph glyph-name="uni1E9E" horiz-adv-x="673" unicode="ẞ" d="M25 66l62 7l52 372q19 135 88.5 199.5t194.5 64.5q56 0 106 -25.5t76 -60.5q24 -31 24 -60q0 -25 -24 -43l-160 -127v-2q89 -3 130.5 -48t41.5 -109q0 -87 -63.5 -156.5t-179.5 -86.5q-20 9 -20 41q0 11 9 33q70 13 115 52.5t45 110.5q0 48 -32.5 76.5t-86.5 28.5h-54 q-12 13 -12 33q0 10 5 27l171 140q16 14 16 27t-14 30q-42 46 -105 46q-150 0 -176 -180l-54 -383l66 -7q13 -3 13 -27q0 -15 -5 -27t-13 -12h-228q-12 0 -12 19q0 15 7 30.5t17 16.5z"/>
<glyph glyph-name="endash" horiz-adv-x="609" unicode="–" d="M65 332h480q9 0 9 -34q0 -32 -9 -32h-480q-10 0 -10 32q0 34 10 34z"/>
<glyph glyph-name="emdash" horiz-adv-x="777" unicode="—" d="M65 332h648q9 0 9 -34q0 -32 -9 -32h-648q-10 0 -10 32q0 34 10 34z"/>
<glyph glyph-name="quoteleft" horiz-adv-x="311" unicode="‘" d="M201 709q37 0 40 -28q-41 -52 -52 -90q21 -3 36.5 -18t15.5 -45q0 -23 -17.5 -42t-45.5 -19t-45.5 18t-17.5 47q0 40 23.5 89t62.5 88z"/>
<glyph glyph-name="quoteright" horiz-adv-x="311" unicode="’" d="M115 495q39 50 52 90q-21 3 -36.5 18t-15.5 45q0 23 17.5 42t45.5 19t45.5 -18t17.5 -47q0 -40 -23.5 -88.5t-62.5 -88.5q-38 0 -40 28z"/>
<glyph glyph-name="quotesinglbase" horiz-adv-x="311" unicode="‚" d="M85 -97q39 50 52 90q-21 3 -36.5 18t-15.5 45q0 23 17.5 42t44.5 19q28 0 46 -18t18 -47q0 -40 -24 -89t-63 -88q-37 0 -39 28z"/>
<glyph glyph-name="quotedblleft" horiz-adv-x="492" unicode="“" d="M241 681q-39 -48 -53 -90q21 -3 37 -18.5t16 -44.5q0 -23 -18 -42t-45 -19q-29 0 -46 18t-17 47q0 41 23 89.5t63 87.5q37 0 40 -28zM422 681q-39 -50 -52 -90q21 -3 36.5 -18t15.5 -45q0 -23 -17.5 -42t-44.5 -19q-28 0 -46 18t-18 47q0 40 24 89t63 88q37 0 39 -28z "/>
<glyph glyph-name="quotedblright" horiz-adv-x="492" unicode="”" d="M296 495q39 48 53 90q-21 3 -37 18.5t-16 44.5q0 23 18 42t45 19q29 0 46 -18t17 -47q0 -41 -23 -89.5t-63 -87.5q-37 0 -40 28zM115 495q39 50 52 90q-21 3 -36.5 18t-15.5 45q0 23 17.5 42t44.5 19q28 0 46 -18t18 -47q0 -40 -24 -89t-63 -88q-37 0 -39 28z"/>
<glyph glyph-name="quotedblbase" horiz-adv-x="492" unicode="„" d="M266 -97q39 48 53 90q-21 3 -37 18.5t-16 44.5q0 23 18 42t45 19q29 0 46 -18t17 -47q0 -41 -23 -89.5t-63 -87.5q-37 0 -40 28zM85 -97q39 50 52 90q-21 3 -36.5 18t-15.5 45q0 23 17.5 42t44.5 19q28 0 46 -18t18 -47q0 -40 -24 -89t-63 -88q-37 0 -39 28z"/>
<glyph glyph-name="bullet" horiz-adv-x="385" unicode="•" d="M80 352q0 46 33.5 79t79.5 33t79 -33t33 -79t-33 -79.5t-79 -33.5q-47 0 -80 33.5t-33 79.5z"/>
<glyph glyph-name="guilsinglleft" horiz-adv-x="323" unicode="‹" d="M167 54l-103 197q-4 7 -4 13q1 8 8 16l156 198q48 -1 59 -39l-131 -173l82 -182q-17 -30 -67 -30z"/>
<glyph glyph-name="guilsinglright" horiz-adv-x="323" unicode="›" d="M40 93l130 173l-81 183q16 29 67 29l103 -197q3 -8 3 -13q-2 -11 -7 -16l-157 -198q-49 1 -58 39z"/>
<glyph glyph-name="fraction" horiz-adv-x="130" unicode="⁄" d="M-170 -27l447 769q37 0 53 -26l-445 -769q-39 0 -55 26z"/>
<glyph glyph-name="Euro" d="M-29 300h64q5 53 7 66h-63q-8 0 -8 20q0 13 4.5 24.5t11.5 11.5h67q31 131 130 209t217 78q100 0 174 -43l-24 -166q-4 -13 -31 -13q-36 0 -36 18l6 113q-38 20 -98 20q-90 0 -155 -60.5t-93 -155.5h270q7 0 7 -17q0 -13 -4.5 -26t-10.5 -13h-274q-6 -44 -7 -66h221 q6 0 6 -14q0 -13 -4.5 -27t-9.5 -14h-211q3 -87 49.5 -132.5t133.5 -45.5q37 0 70.5 9t52.5 18t55 30q28 -20 28 -64q-110 -69 -219 -69q-104 0 -179.5 61t-81.5 193h-74q-7 0 -7 19q0 36 16 36z" unicode="€"/>
<glyph glyph-name="uni20B4" d="M79 326h108l71 60h-172q-10 0 -10 18q0 13 5 26t11 13h233q52 40 72.5 69.5t20.5 63.5q0 24 -20.5 40.5t-58.5 16.5q-88 0 -183 -59q-27 16 -27 61q43 32 105.5 53t125.5 21q157 0 157 -119q0 -39 -23 -78.5t-62 -68.5h72q8 0 8 -19q0 -13 -4 -25.5t-9 -12.5h-128 l-72 -60h192q8 0 8 -19q0 -13 -4.5 -25.5t-10.5 -12.5h-246q-36 -31 -53.5 -59t-17.5 -66q0 -36 27 -56.5t78 -20.5q57 0 99.5 15.5t92.5 45.5q28 -15 28 -60q-45 -33 -112.5 -55t-125.5 -22q-93 0 -139 39.5t-46 104.5q0 67 59 134h-57q-9 0 -9 18q0 13 5 26t12 13z" unicode="₴"/>
<glyph glyph-name="uni20B6" d="M236 352h67q180 0 180 173q0 33 -11.5 56.5t-31 34.5t-38.5 15.5t-39 4.5h-87zM50 60l60 8l13 93h-84q-7 0 -7 18q0 15 5 29t12 14h83l9 69h-83q-8 0 -8 17q0 14 5.5 29t11.5 15h83l38 279l-67 8q-12 1 -12 24q0 37 18 37h251q34 0 65 -7.5t62.5 -24.5t50.5 -52.5 t19 -84.5q0 -118 -78.5 -179t-188.5 -61h-78l-10 -69h195q6 0 6 -15t-4.5 -30.5t-10.5 -15.5h-194l-13 -93l68 -8q13 -1 13 -23q0 -37 -19 -37h-223q-11 0 -11 17q0 16 6.5 29t16.5 14z" unicode="₶"/>
<glyph glyph-name="uni20B6" d="M236 352h67q180 0 180 173q0 33 -11.5 56.5t-31 34.5t-38.5 15.5t-39 4.5h-87zM50 60l60 8l13 93h-84q-7 0 -7 18q0 15 5 29t12 14h83l9 69h-83q-8 0 -8 17q0 14 5.5 29t11.5 15h83l38 279l-67 8q-12 1 -12 24q0 37 18 37h251q34 0 65 -7.5t62.5 -24.5t50.5 -52.5 t19 -84.5q0 -118 -78.5 -179t-188.5 -61h-78l-10 -69h195q6 0 6 -15t-4.5 -30.5t-10.5 -15.5h-194l-13 -93l68 -8q13 -1 13 -23q0 -37 -19 -37h-223q-11 0 -11 17q0 16 6.5 29t16.5 14z" unicode="⃏"/>
<glyph glyph-name="uni20B6" d="M236 352h67q180 0 180 173q0 33 -11.5 56.5t-31 34.5t-38.5 15.5t-39 4.5h-87zM50 60l60 8l13 93h-84q-7 0 -7 18q0 15 5 29t12 14h83l9 69h-83q-8 0 -8 17q0 14 5.5 29t11.5 15h83l38 279l-67 8q-12 1 -12 24q0 37 18 37h251q34 0 65 -7.5t62.5 -24.5t50.5 -52.5 t19 -84.5q0 -118 -78.5 -179t-188.5 -61h-78l-10 -69h195q6 0 6 -15t-4.5 -30.5t-10.5 -15.5h-194l-13 -93l68 -8q13 -1 13 -23q0 -37 -19 -37h-223q-11 0 -11 17q0 16 6.5 29t16.5 14z" unicode="⃎"/>
<glyph glyph-name="uni20B6" d="M236 352h67q180 0 180 173q0 33 -11.5 56.5t-31 34.5t-38.5 15.5t-39 4.5h-87zM50 60l60 8l13 93h-84q-7 0 -7 18q0 15 5 29t12 14h83l9 69h-83q-8 0 -8 17q0 14 5.5 29t11.5 15h83l38 279l-67 8q-12 1 -12 24q0 37 18 37h251q34 0 65 -7.5t62.5 -24.5t50.5 -52.5 t19 -84.5q0 -118 -78.5 -179t-188.5 -61h-78l-10 -69h195q6 0 6 -15t-4.5 -30.5t-10.5 -15.5h-194l-13 -93l68 -8q13 -1 13 -23q0 -37 -19 -37h-223q-11 0 -11 17q0 16 6.5 29t16.5 14z" unicode="⃍"/>
<glyph glyph-name="uni20B6" d="M236 352h67q180 0 180 173q0 33 -11.5 56.5t-31 34.5t-38.5 15.5t-39 4.5h-87zM50 60l60 8l13 93h-84q-7 0 -7 18q0 15 5 29t12 14h83l9 69h-83q-8 0 -8 17q0 14 5.5 29t11.5 15h83l38 279l-67 8q-12 1 -12 24q0 37 18 37h251q34 0 65 -7.5t62.5 -24.5t50.5 -52.5 t19 -84.5q0 -118 -78.5 -179t-188.5 -61h-78l-10 -69h195q6 0 6 -15t-4.5 -30.5t-10.5 -15.5h-194l-13 -93l68 -8q13 -1 13 -23q0 -37 -19 -37h-223q-11 0 -11 17q0 16 6.5 29t16.5 14z" unicode="⃌"/>
<glyph glyph-name="uni20B6" d="M236 352h67q180 0 180 173q0 33 -11.5 56.5t-31 34.5t-38.5 15.5t-39 4.5h-87zM50 60l60 8l13 93h-84q-7 0 -7 18q0 15 5 29t12 14h83l9 69h-83q-8 0 -8 17q0 14 5.5 29t11.5 15h83l38 279l-67 8q-12 1 -12 24q0 37 18 37h251q34 0 65 -7.5t62.5 -24.5t50.5 -52.5 t19 -84.5q0 -118 -78.5 -179t-188.5 -61h-78l-10 -69h195q6 0 6 -15t-4.5 -30.5t-10.5 -15.5h-194l-13 -93l68 -8q13 -1 13 -23q0 -37 -19 -37h-223q-11 0 -11 17q0 16 6.5 29t16.5 14z" unicode="⃋"/>
<glyph glyph-name="uni20B6" d="M236 352h67q180 0 180 173q0 33 -11.5 56.5t-31 34.5t-38.5 15.5t-39 4.5h-87zM50 60l60 8l13 93h-84q-7 0 -7 18q0 15 5 29t12 14h83l9 69h-83q-8 0 -8 17q0 14 5.5 29t11.5 15h83l38 279l-67 8q-12 1 -12 24q0 37 18 37h251q34 0 65 -7.5t62.5 -24.5t50.5 -52.5 t19 -84.5q0 -118 -78.5 -179t-188.5 -61h-78l-10 -69h195q6 0 6 -15t-4.5 -30.5t-10.5 -15.5h-194l-13 -93l68 -8q13 -1 13 -23q0 -37 -19 -37h-223q-11 0 -11 17q0 16 6.5 29t16.5 14z" unicode="⃊"/>
<glyph glyph-name="uni20B6" d="M236 352h67q180 0 180 173q0 33 -11.5 56.5t-31 34.5t-38.5 15.5t-39 4.5h-87zM50 60l60 8l13 93h-84q-7 0 -7 18q0 15 5 29t12 14h83l9 69h-83q-8 0 -8 17q0 14 5.5 29t11.5 15h83l38 279l-67 8q-12 1 -12 24q0 37 18 37h251q34 0 65 -7.5t62.5 -24.5t50.5 -52.5 t19 -84.5q0 -118 -78.5 -179t-188.5 -61h-78l-10 -69h195q6 0 6 -15t-4.5 -30.5t-10.5 -15.5h-194l-13 -93l68 -8q13 -1 13 -23q0 -37 -19 -37h-223q-11 0 -11 17q0 16 6.5 29t16.5 14z" unicode="⃉"/>
<glyph glyph-name="uni20B6" d="M236 352h67q180 0 180 173q0 33 -11.5 56.5t-31 34.5t-38.5 15.5t-39 4.5h-87zM50 60l60 8l13 93h-84q-7 0 -7 18q0 15 5 29t12 14h83l9 69h-83q-8 0 -8 17q0 14 5.5 29t11.5 15h83l38 279l-67 8q-12 1 -12 24q0 37 18 37h251q34 0 65 -7.5t62.5 -24.5t50.5 -52.5 t19 -84.5q0 -118 -78.5 -179t-188.5 -61h-78l-10 -69h195q6 0 6 -15t-4.5 -30.5t-10.5 -15.5h-194l-13 -93l68 -8q13 -1 13 -23q0 -37 -19 -37h-223q-11 0 -11 17q0 16 6.5 29t16.5 14z" unicode="⃈"/>
<glyph glyph-name="uni20B6" d="M236 352h67q180 0 180 173q0 33 -11.5 56.5t-31 34.5t-38.5 15.5t-39 4.5h-87zM50 60l60 8l13 93h-84q-7 0 -7 18q0 15 5 29t12 14h83l9 69h-83q-8 0 -8 17q0 14 5.5 29t11.5 15h83l38 279l-67 8q-12 1 -12 24q0 37 18 37h251q34 0 65 -7.5t62.5 -24.5t50.5 -52.5 t19 -84.5q0 -118 -78.5 -179t-188.5 -61h-78l-10 -69h195q6 0 6 -15t-4.5 -30.5t-10.5 -15.5h-194l-13 -93l68 -8q13 -1 13 -23q0 -37 -19 -37h-223q-11 0 -11 17q0 16 6.5 29t16.5 14z" unicode="⃇"/>
<glyph glyph-name="uni20B6" d="M236 352h67q180 0 180 173q0 33 -11.5 56.5t-31 34.5t-38.5 15.5t-39 4.5h-87zM50 60l60 8l13 93h-84q-7 0 -7 18q0 15 5 29t12 14h83l9 69h-83q-8 0 -8 17q0 14 5.5 29t11.5 15h83l38 279l-67 8q-12 1 -12 24q0 37 18 37h251q34 0 65 -7.5t62.5 -24.5t50.5 -52.5 t19 -84.5q0 -118 -78.5 -179t-188.5 -61h-78l-10 -69h195q6 0 6 -15t-4.5 -30.5t-10.5 -15.5h-194l-13 -93l68 -8q13 -1 13 -23q0 -37 -19 -37h-223q-11 0 -11 17q0 16 6.5 29t16.5 14z" unicode="⃆"/>
<glyph glyph-name="uni20B6" d="M236 352h67q180 0 180 173q0 33 -11.5 56.5t-31 34.5t-38.5 15.5t-39 4.5h-87zM50 60l60 8l13 93h-84q-7 0 -7 18q0 15 5 29t12 14h83l9 69h-83q-8 0 -8 17q0 14 5.5 29t11.5 15h83l38 279l-67 8q-12 1 -12 24q0 37 18 37h251q34 0 65 -7.5t62.5 -24.5t50.5 -52.5 t19 -84.5q0 -118 -78.5 -179t-188.5 -61h-78l-10 -69h195q6 0 6 -15t-4.5 -30.5t-10.5 -15.5h-194l-13 -93l68 -8q13 -1 13 -23q0 -37 -19 -37h-223q-11 0 -11 17q0 16 6.5 29t16.5 14z" unicode="⃅"/>
<glyph glyph-name="uni20B6" d="M236 352h67q180 0 180 173q0 33 -11.5 56.5t-31 34.5t-38.5 15.5t-39 4.5h-87zM50 60l60 8l13 93h-84q-7 0 -7 18q0 15 5 29t12 14h83l9 69h-83q-8 0 -8 17q0 14 5.5 29t11.5 15h83l38 279l-67 8q-12 1 -12 24q0 37 18 37h251q34 0 65 -7.5t62.5 -24.5t50.5 -52.5 t19 -84.5q0 -118 -78.5 -179t-188.5 -61h-78l-10 -69h195q6 0 6 -15t-4.5 -30.5t-10.5 -15.5h-194l-13 -93l68 -8q13 -1 13 -23q0 -37 -19 -37h-223q-11 0 -11 17q0 16 6.5 29t16.5 14z" unicode="⃄"/>
<glyph glyph-name="uni20B6" d="M236 352h67q180 0 180 173q0 33 -11.5 56.5t-31 34.5t-38.5 15.5t-39 4.5h-87zM50 60l60 8l13 93h-84q-7 0 -7 18q0 15 5 29t12 14h83l9 69h-83q-8 0 -8 17q0 14 5.5 29t11.5 15h83l38 279l-67 8q-12 1 -12 24q0 37 18 37h251q34 0 65 -7.5t62.5 -24.5t50.5 -52.5 t19 -84.5q0 -118 -78.5 -179t-188.5 -61h-78l-10 -69h195q6 0 6 -15t-4.5 -30.5t-10.5 -15.5h-194l-13 -93l68 -8q13 -1 13 -23q0 -37 -19 -37h-223q-11 0 -11 17q0 16 6.5 29t16.5 14z" unicode="⃃"/>
<glyph glyph-name="uni20B6" d="M236 352h67q180 0 180 173q0 33 -11.5 56.5t-31 34.5t-38.5 15.5t-39 4.5h-87zM50 60l60 8l13 93h-84q-7 0 -7 18q0 15 5 29t12 14h83l9 69h-83q-8 0 -8 17q0 14 5.5 29t11.5 15h83l38 279l-67 8q-12 1 -12 24q0 37 18 37h251q34 0 65 -7.5t62.5 -24.5t50.5 -52.5 t19 -84.5q0 -118 -78.5 -179t-188.5 -61h-78l-10 -69h195q6 0 6 -15t-4.5 -30.5t-10.5 -15.5h-194l-13 -93l68 -8q13 -1 13 -23q0 -37 -19 -37h-223q-11 0 -11 17q0 16 6.5 29t16.5 14z" unicode="⃂"/>
<glyph glyph-name="uni20B6" d="M236 352h67q180 0 180 173q0 33 -11.5 56.5t-31 34.5t-38.5 15.5t-39 4.5h-87zM50 60l60 8l13 93h-84q-7 0 -7 18q0 15 5 29t12 14h83l9 69h-83q-8 0 -8 17q0 14 5.5 29t11.5 15h83l38 279l-67 8q-12 1 -12 24q0 37 18 37h251q34 0 65 -7.5t62.5 -24.5t50.5 -52.5 t19 -84.5q0 -118 -78.5 -179t-188.5 -61h-78l-10 -69h195q6 0 6 -15t-4.5 -30.5t-10.5 -15.5h-194l-13 -93l68 -8q13 -1 13 -23q0 -37 -19 -37h-223q-11 0 -11 17q0 16 6.5 29t16.5 14z" unicode="⃁"/>
<glyph glyph-name="uni20B6" d="M236 352h67q180 0 180 173q0 33 -11.5 56.5t-31 34.5t-38.5 15.5t-39 4.5h-87zM50 60l60 8l13 93h-84q-7 0 -7 18q0 15 5 29t12 14h83l9 69h-83q-8 0 -8 17q0 14 5.5 29t11.5 15h83l38 279l-67 8q-12 1 -12 24q0 37 18 37h251q34 0 65 -7.5t62.5 -24.5t50.5 -52.5 t19 -84.5q0 -118 -78.5 -179t-188.5 -61h-78l-10 -69h195q6 0 6 -15t-4.5 -30.5t-10.5 -15.5h-194l-13 -93l68 -8q13 -1 13 -23q0 -37 -19 -37h-223q-11 0 -11 17q0 16 6.5 29t16.5 14z" unicode="⃀"/>
<glyph glyph-name="uni20B6" d="M236 352h67q180 0 180 173q0 33 -11.5 56.5t-31 34.5t-38.5 15.5t-39 4.5h-87zM50 60l60 8l13 93h-84q-7 0 -7 18q0 15 5 29t12 14h83l9 69h-83q-8 0 -8 17q0 14 5.5 29t11.5 15h83l38 279l-67 8q-12 1 -12 24q0 37 18 37h251q34 0 65 -7.5t62.5 -24.5t50.5 -52.5 t19 -84.5q0 -118 -78.5 -179t-188.5 -61h-78l-10 -69h195q6 0 6 -15t-4.5 -30.5t-10.5 -15.5h-194l-13 -93l68 -8q13 -1 13 -23q0 -37 -19 -37h-223q-11 0 -11 17q0 16 6.5 29t16.5 14z" unicode="₿"/>
<glyph glyph-name="uni20B6" d="M236 352h67q180 0 180 173q0 33 -11.5 56.5t-31 34.5t-38.5 15.5t-39 4.5h-87zM50 60l60 8l13 93h-84q-7 0 -7 18q0 15 5 29t12 14h83l9 69h-83q-8 0 -8 17q0 14 5.5 29t11.5 15h83l38 279l-67 8q-12 1 -12 24q0 37 18 37h251q34 0 65 -7.5t62.5 -24.5t50.5 -52.5 t19 -84.5q0 -118 -78.5 -179t-188.5 -61h-78l-10 -69h195q6 0 6 -15t-4.5 -30.5t-10.5 -15.5h-194l-13 -93l68 -8q13 -1 13 -23q0 -37 -19 -37h-223q-11 0 -11 17q0 16 6.5 29t16.5 14z" unicode="₾"/>
<glyph glyph-name="uni20B6" d="M236 352h67q180 0 180 173q0 33 -11.5 56.5t-31 34.5t-38.5 15.5t-39 4.5h-87zM50 60l60 8l13 93h-84q-7 0 -7 18q0 15 5 29t12 14h83l9 69h-83q-8 0 -8 17q0 14 5.5 29t11.5 15h83l38 279l-67 8q-12 1 -12 24q0 37 18 37h251q34 0 65 -7.5t62.5 -24.5t50.5 -52.5 t19 -84.5q0 -118 -78.5 -179t-188.5 -61h-78l-10 -69h195q6 0 6 -15t-4.5 -30.5t-10.5 -15.5h-194l-13 -93l68 -8q13 -1 13 -23q0 -37 -19 -37h-223q-11 0 -11 17q0 16 6.5 29t16.5 14z" unicode="₽"/>
<glyph glyph-name="uni20B6" d="M236 352h67q180 0 180 173q0 33 -11.5 56.5t-31 34.5t-38.5 15.5t-39 4.5h-87zM50 60l60 8l13 93h-84q-7 0 -7 18q0 15 5 29t12 14h83l9 69h-83q-8 0 -8 17q0 14 5.5 29t11.5 15h83l38 279l-67 8q-12 1 -12 24q0 37 18 37h251q34 0 65 -7.5t62.5 -24.5t50.5 -52.5 t19 -84.5q0 -118 -78.5 -179t-188.5 -61h-78l-10 -69h195q6 0 6 -15t-4.5 -30.5t-10.5 -15.5h-194l-13 -93l68 -8q13 -1 13 -23q0 -37 -19 -37h-223q-11 0 -11 17q0 16 6.5 29t16.5 14z" unicode="₼"/>
<glyph glyph-name="uni20B6" d="M236 352h67q180 0 180 173q0 33 -11.5 56.5t-31 34.5t-38.5 15.5t-39 4.5h-87zM50 60l60 8l13 93h-84q-7 0 -7 18q0 15 5 29t12 14h83l9 69h-83q-8 0 -8 17q0 14 5.5 29t11.5 15h83l38 279l-67 8q-12 1 -12 24q0 37 18 37h251q34 0 65 -7.5t62.5 -24.5t50.5 -52.5 t19 -84.5q0 -118 -78.5 -179t-188.5 -61h-78l-10 -69h195q6 0 6 -15t-4.5 -30.5t-10.5 -15.5h-194l-13 -93l68 -8q13 -1 13 -23q0 -37 -19 -37h-223q-11 0 -11 17q0 16 6.5 29t16.5 14z" unicode="₻"/>
<glyph glyph-name="uni20B6" d="M236 352h67q180 0 180 173q0 33 -11.5 56.5t-31 34.5t-38.5 15.5t-39 4.5h-87zM50 60l60 8l13 93h-84q-7 0 -7 18q0 15 5 29t12 14h83l9 69h-83q-8 0 -8 17q0 14 5.5 29t11.5 15h83l38 279l-67 8q-12 1 -12 24q0 37 18 37h251q34 0 65 -7.5t62.5 -24.5t50.5 -52.5 t19 -84.5q0 -118 -78.5 -179t-188.5 -61h-78l-10 -69h195q6 0 6 -15t-4.5 -30.5t-10.5 -15.5h-194l-13 -93l68 -8q13 -1 13 -23q0 -37 -19 -37h-223q-11 0 -11 17q0 16 6.5 29t16.5 14z" unicode="₺"/>
<glyph glyph-name="uni20B6" d="M236 352h67q180 0 180 173q0 33 -11.5 56.5t-31 34.5t-38.5 15.5t-39 4.5h-87zM50 60l60 8l13 93h-84q-7 0 -7 18q0 15 5 29t12 14h83l9 69h-83q-8 0 -8 17q0 14 5.5 29t11.5 15h83l38 279l-67 8q-12 1 -12 24q0 37 18 37h251q34 0 65 -7.5t62.5 -24.5t50.5 -52.5 t19 -84.5q0 -118 -78.5 -179t-188.5 -61h-78l-10 -69h195q6 0 6 -15t-4.5 -30.5t-10.5 -15.5h-194l-13 -93l68 -8q13 -1 13 -23q0 -37 -19 -37h-223q-11 0 -11 17q0 16 6.5 29t16.5 14z" unicode="₹"/>
<glyph glyph-name="uni20B6" d="M236 352h67q180 0 180 173q0 33 -11.5 56.5t-31 34.5t-38.5 15.5t-39 4.5h-87zM50 60l60 8l13 93h-84q-7 0 -7 18q0 15 5 29t12 14h83l9 69h-83q-8 0 -8 17q0 14 5.5 29t11.5 15h83l38 279l-67 8q-12 1 -12 24q0 37 18 37h251q34 0 65 -7.5t62.5 -24.5t50.5 -52.5 t19 -84.5q0 -118 -78.5 -179t-188.5 -61h-78l-10 -69h195q6 0 6 -15t-4.5 -30.5t-10.5 -15.5h-194l-13 -93l68 -8q13 -1 13 -23q0 -37 -19 -37h-223q-11 0 -11 17q0 16 6.5 29t16.5 14z" unicode="₷"/>
<glyph glyph-name="afii61352" horiz-adv-x="1049" unicode="№" d="M670 627l-86 -620q-1 -6 -16 -11t-32 -5q-28 0 -43 11l-213 487q-14 31 -39 96h-5q-2 -36 -7 -80l-58 -432l68 -7q13 -3 13 -27q0 -15 -5 -27t-14 -12h-220q-12 0 -12 19q0 15 7 30.5t17 16.5l62 7l76 554l-68 7q-13 1 -13 27q0 39 19 39h181l197 -464q8 -18 21.5 -55.5 t16.5 -45.5h5q7 73 9 85l54 407l-66 7q-13 3 -13 27q0 15 5 27t14 12h219q11 0 11 -19q0 -16 -7 -30.5t-18 -16.5zM752 309h243q5 0 5 -17q0 -16 -4.5 -34.5t-10.5 -18.5h-243q-7 0 -7 19q0 18 5 34.5t12 16.5zM889 430q9 0 20.5 5.5t25 19t22.5 43.5t9 72q0 71 -47 71 q-6 0 -13.5 -2t-19.5 -10t-21.5 -22t-16.5 -41.5t-7 -63.5q0 -40 15 -56t33 -16zM884 365q-48 0 -81 34.5t-33 98.5q0 103 46.5 157t107.5 54q47 0 81 -35t34 -99q0 -101 -47.5 -155.5t-107.5 -54.5z"/>
<glyph glyph-name="uni2215" horiz-adv-x="560" unicode="∕" d="M-15 -174l533 949q4 3 14 3q18 0 35.5 -9.5t17.5 -21.5l-531 -950q-8 -4 -16 -4q-18 0 -35.5 10t-17.5 23z"/>
</font>
</defs>
</svg>
